<?xml version="1.0" encoding="utf-8"?>
<!-- Generator: Adobe Illustrator 22.0.0, SVG Export Plug-In . SVG Version: 6.00 Build 0)  -->
<svg version="1.1" id="Capa_1" xmlns="http://www.w3.org/2000/svg" xmlns:xlink="http://www.w3.org/1999/xlink" x="0px" y="0px"
	 viewBox="0 0 200 200" style="enable-background:new 0 0 200 200;" xml:space="preserve">
<style type="text/css">
	.st0{opacity:0.5;fill-rule:evenodd;clip-rule:evenodd;fill:#9871D0;}
	.st1{fill-rule:evenodd;clip-rule:evenodd;fill:#F95DB0;}
	.st2{fill-rule:evenodd;clip-rule:evenodd;fill:url(#SVGID_1_);}
	.st3{fill-rule:evenodd;clip-rule:evenodd;fill:#F4F9FF;}
	.st4{fill-rule:evenodd;clip-rule:evenodd;fill:#FB85B6;}
	.st5{opacity:0.5;fill-rule:evenodd;clip-rule:evenodd;fill:#F95DB0;}
	.st6{fill-rule:evenodd;clip-rule:evenodd;fill:#955CF1;}
	.st7{fill-rule:evenodd;clip-rule:evenodd;fill:url(#SVGID_2_);}
	.st8{fill-rule:evenodd;clip-rule:evenodd;fill:#CC74E5;}
	.st9{fill-rule:evenodd;clip-rule:evenodd;fill:url(#SVGID_3_);}
	.st10{opacity:0.5;fill-rule:evenodd;clip-rule:evenodd;fill:#955CF1;}
	.st11{fill-rule:evenodd;clip-rule:evenodd;fill:#1C8DF3;}
	.st12{fill-rule:evenodd;clip-rule:evenodd;fill:url(#SVGID_4_);}
	.st13{fill-rule:evenodd;clip-rule:evenodd;fill:#E8F3FF;}
	.st14{fill-rule:evenodd;clip-rule:evenodd;fill:#159EED;}
	.st15{fill-rule:evenodd;clip-rule:evenodd;fill:url(#SVGID_5_);}
	.st16{fill-rule:evenodd;clip-rule:evenodd;fill:#E23B93;}
	.st17{fill-rule:evenodd;clip-rule:evenodd;fill:#F2F4FF;}
	.st18{fill-rule:evenodd;clip-rule:evenodd;fill:#C5DBF1;}
	.st19{fill-rule:evenodd;clip-rule:evenodd;fill:#DCE8F8;}
	.st20{fill-rule:evenodd;clip-rule:evenodd;fill:url(#SVGID_6_);}
	.st21{fill-rule:evenodd;clip-rule:evenodd;fill:#FB84B6;}
	.st22{fill-rule:evenodd;clip-rule:evenodd;fill:url(#SVGID_7_);}
	.st23{fill-rule:evenodd;clip-rule:evenodd;fill:#FFFFFF;}
	.st24{fill-rule:evenodd;clip-rule:evenodd;fill:#303A7D;}
	.st25{fill-rule:evenodd;clip-rule:evenodd;fill:url(#SVGID_8_);}
	.st26{opacity:0.5;fill-rule:evenodd;clip-rule:evenodd;fill:#FFFFFF;}
	.st27{opacity:0.2;fill-rule:evenodd;clip-rule:evenodd;fill:#FFFFFF;}
	.st28{fill-rule:evenodd;clip-rule:evenodd;fill:#8755DA;}
	.st29{fill-rule:evenodd;clip-rule:evenodd;fill:url(#SVGID_9_);}
	.st30{opacity:0.5;fill-rule:evenodd;clip-rule:evenodd;fill:url(#SVGID_10_);}
	.st31{fill-rule:evenodd;clip-rule:evenodd;fill:url(#SVGID_11_);}
	.st32{opacity:0.25;fill-rule:evenodd;clip-rule:evenodd;fill:#03C8DE;}
	.st33{fill-rule:evenodd;clip-rule:evenodd;fill:#03C8DE;}
	.st34{opacity:0.5;fill-rule:evenodd;clip-rule:evenodd;fill:#1895F0;}
	.st35{opacity:0.5;fill-rule:evenodd;clip-rule:evenodd;fill:url(#SVGID_12_);}
	.st36{fill-rule:evenodd;clip-rule:evenodd;fill:url(#SVGID_13_);}
	.st37{opacity:0.5;fill-rule:evenodd;clip-rule:evenodd;fill:#3856D8;}
	.st38{fill-rule:evenodd;clip-rule:evenodd;fill:#00FFFF;}
	.st39{opacity:0.5;fill-rule:evenodd;clip-rule:evenodd;fill:url(#SVGID_14_);}
	.st40{fill-rule:evenodd;clip-rule:evenodd;fill:url(#SVGID_15_);}
	.st41{fill-rule:evenodd;clip-rule:evenodd;fill:#4750CB;}
	.st42{fill-rule:evenodd;clip-rule:evenodd;fill:url(#SVGID_16_);}
	.st43{fill-rule:evenodd;clip-rule:evenodd;fill:#B18CFB;}
	.st44{fill-rule:evenodd;clip-rule:evenodd;fill:#FFA495;}
	.st45{fill-rule:evenodd;clip-rule:evenodd;fill:#273087;}
	.st46{fill-rule:evenodd;clip-rule:evenodd;fill:url(#SVGID_17_);}
	.st47{opacity:0.35;fill-rule:evenodd;clip-rule:evenodd;fill:#0960AC;}
	.st48{fill-rule:evenodd;clip-rule:evenodd;fill:url(#SVGID_18_);}
	.st49{fill-rule:evenodd;clip-rule:evenodd;fill:#4C57B7;}
	.st50{opacity:0.3;fill-rule:evenodd;clip-rule:evenodd;fill:#060921;}
	.st51{fill-rule:evenodd;clip-rule:evenodd;fill:url(#SVGID_19_);}
	.st52{fill-rule:evenodd;clip-rule:evenodd;fill:url(#SVGID_20_);}
	.st53{fill-rule:evenodd;clip-rule:evenodd;fill:#E7A376;}
	.st54{fill-rule:evenodd;clip-rule:evenodd;fill:url(#SVGID_21_);}
	.st55{fill-rule:evenodd;clip-rule:evenodd;fill:url(#SVGID_22_);}
	.st56{fill-rule:evenodd;clip-rule:evenodd;fill:#FFA698;}
	.st57{fill-rule:evenodd;clip-rule:evenodd;fill:#FFB49C;}
	.st58{fill-rule:evenodd;clip-rule:evenodd;fill:#562E65;}
	.st59{fill-rule:evenodd;clip-rule:evenodd;fill:url(#SVGID_23_);}
	.st60{fill-rule:evenodd;clip-rule:evenodd;fill:#0AB7E4;}
	.st61{fill-rule:evenodd;clip-rule:evenodd;fill:url(#SVGID_24_);}
	.st62{fill-rule:evenodd;clip-rule:evenodd;fill:url(#SVGID_25_);}
</style>
<g>
	<g>
		<path class="st0" d="M14.5,157.3l38-22.3c0.5-0.2,1.3-0.4,1.8-0.2c0.5,0.3,25.5,14.4,25.9,14.6c0.3,0.2,1.2,0.7,0.6,1
			c-1.7,0.9-36.6,21.6-38.3,22.5c-0.3,0.2-0.8,0.2-1.3,0.2c-0.5,0-1-0.2-1.4-0.4c-0.3-0.2-24.8-14-25.1-14.1
			c-0.4-0.2-0.6-0.5-0.6-0.7C14,157.7,14.1,157.5,14.5,157.3z"/>
		<g>
			<g>
				<polygon class="st1" points="51.6,135.5 17,155.6 18.2,157 52.5,136.1 				"/>
				<linearGradient id="SVGID_1_" gradientUnits="userSpaceOnUse" x1="53.2621" y1="156.7718" x2="48.8552" y2="150.0818">
					<stop  offset="0" style="stop-color:#FA5DB1"/>
					<stop  offset="1" style="stop-color:#FEBFBF"/>
				</linearGradient>
				<path class="st2" d="M40.7,163.5c1.4,1.9,3,6,1.8,7.4L77,150.9c2.7-2-0.2-7.5-2.4-8.1l-23.1-13.3L17,149.6l1.9,1.5L40.7,163.5z"
					/>
				<g>
					<path class="st3" d="M40.2,164l-22.2-12.8l0,4.9l21.6,13.2c1.7,1,2.6,0.3,2.8-0.8C42.7,167.1,41.7,164.9,40.2,164z"/>
					<path class="st4" d="M42.5,165.4c-0.6-1.1-1.5-2-2.4-2.5L17,149.6l0,1.8l0.9,0.5l22.1,12.8c0.5,0.3,1,0.8,1.3,1.4
						c0.3,0.6,0.5,1.2,0.5,1.8c0,0.6-0.2,1-0.5,1.2c-0.3,0.2-0.8,0.2-1.3-0.1L18,156.2l-0.9-0.5l0,1.8l23.1,13.3
						c0.9,0.5,1.8,0.6,2.4,0.2c0.6-0.4,1-1.1,1-2.2C43.5,167.7,43.1,166.5,42.5,165.4z"/>
				</g>
			</g>
			<path class="st5" d="M51.5,130.5l23.8,12.7c0.1,0.2,0.1,0.5-0.2,0.6c-2.5,1.4-29.4,16.7-32,18.1c-0.5,0.3-1.2,0.4-1.9,0.3
				c-0.7-0.1-1.5-0.3-2.1-0.6l-21.7-12.3l2.4-1.4L51.5,130.5z"/>
			<g>
				<polygon class="st6" points="51.6,125.6 17,145.6 18.2,147.1 52.5,126.1 				"/>
				<linearGradient id="SVGID_2_" gradientUnits="userSpaceOnUse" x1="54.5455" y1="150.6452" x2="49.5817" y2="141.8521">
					<stop  offset="0" style="stop-color:#965CF2"/>
					<stop  offset="1" style="stop-color:#FF8ADC"/>
				</linearGradient>
				<path class="st7" d="M40.7,153.6c1.4,1.9,3,6,1.8,7.4L77,140.9c2.7-2-0.2-7.5-2.4-8.1l-23.1-13.3L17,139.6l1.9,1.5L40.7,153.6z"
					/>
				<path class="st3" d="M40.2,154l-22.2-12.8l0,4.9l21.6,13.2c1.7,1,2.6,0.3,2.8-0.8C42.7,157.2,41.7,154.9,40.2,154z"/>
				<path class="st8" d="M42.5,155.5c-0.6-1.1-1.5-2-2.4-2.5L17,139.6l0,1.8l0.9,0.5l22.1,12.8c0.5,0.3,1,0.8,1.3,1.4
					c0.3,0.6,0.5,1.2,0.5,1.8c0,0.6-0.2,1-0.5,1.2c-0.3,0.2-0.8,0.2-1.3-0.1L18,146.2l-0.9-0.5l0,1.8l23.1,13.3
					c0.9,0.5,1.8,0.6,2.4,0.2c0.6-0.4,1-1.1,1-2.2C43.5,157.7,43.1,156.5,42.5,155.5z"/>
				<linearGradient id="SVGID_3_" gradientUnits="userSpaceOnUse" x1="34.8849" y1="160.8703" x2="36.535" y2="156.9269">
					<stop  offset="0" style="stop-color:#A77EF7"/>
					<stop  offset="1" style="stop-color:#5E65D6"/>
				</linearGradient>
				<path class="st9" d="M33.1,157.5v4.9l1.6-1l2.1,3.1v-4.9c0,0,0-0.1,0-0.1c0.1-1.3,1.3-3,2.1-3.2l-3.8-2.2
					C34.2,154.4,33.1,156.1,33.1,157.5L33.1,157.5z"/>
			</g>
			<path class="st10" d="M51.6,120.5l23.8,12.7c0.1,0.2,0.1,0.5-0.2,0.6c-2.5,1.4-29.4,16.7-32,18.1c-0.5,0.3-1.2,0.4-1.9,0.3
				c-0.7-0.1-1.5-0.3-2.1-0.6l-21.7-12.3l2.4-1.4L51.6,120.5z"/>
			<g>
				<polygon class="st11" points="51.6,115.2 17,135.3 18.2,136.7 52.5,115.8 				"/>
				<linearGradient id="SVGID_4_" gradientUnits="userSpaceOnUse" x1="52.6911" y1="138.3644" x2="49.6064" y2="132.1508">
					<stop  offset="0" style="stop-color:#1C8EF4"/>
					<stop  offset="1" style="stop-color:#00CFDD"/>
				</linearGradient>
				<path class="st12" d="M40.7,143.2c1.4,1.9,3,6,1.8,7.4L77,130.6c2.7-2-0.2-7.5-2.4-8.1l-23.1-13.3L17,129.3l1.9,1.5L40.7,143.2z
					"/>
				<g>
					<path class="st13" d="M40.2,143.7l-22.2-12.8l0,4.9L39.6,149c1.7,1,2.6,0.3,2.8-0.8C42.7,146.8,41.7,144.6,40.2,143.7z"/>
					<path class="st14" d="M42.5,145.1c-0.6-1.1-1.5-2-2.4-2.5L17,129.3l0,1.8l0.9,0.5l22.1,12.8c0.5,0.3,1,0.8,1.3,1.4
						c0.3,0.6,0.5,1.2,0.5,1.8c0,0.6-0.2,1-0.5,1.2c-0.3,0.2-0.8,0.2-1.3-0.1L18,135.8l-0.9-0.5l0,1.8l23.1,13.3
						c0.9,0.5,1.8,0.6,2.4,0.2c0.6-0.4,1-1.1,1-2.2C43.5,147.4,43.1,146.2,42.5,145.1z"/>
				</g>
			</g>
		</g>
	</g>
	<g>
		<g>
			<linearGradient id="SVGID_5_" gradientUnits="userSpaceOnUse" x1="75.8503" y1="88.5239" x2="65.1146" y2="75.6971">
				<stop  offset="0" style="stop-color:#FA5DB1"/>
				<stop  offset="1" style="stop-color:#FEBFBF"/>
			</linearGradient>
			<path class="st15" d="M79.9,101.1L61,90.2l4.4-20.8l0,0l0,0l0,0l0,0l0,0l0,0l0,0l0,0l0,0l0,0l0,0v0l0,0l0,0l0,0l0,0l0,0l0,0l0,0
				l0,0l0,0l0,0l0,0l0,0l0,0l0,0l0,0l0,0h0l0,0l0,0l0,0l0,0l0,0l0,0l0,0l0,0l0,0l0,0l0,0l0,0l0,0l0,0l0,0l0,0l0,0l0,0l0,0l0,0l0,0
				l0,0l0,0l0,0l0,0l0,0l0,0l0,0h0l0,0l0,0l0,0l0,0l0,0l0,0l0,0l0,0l0,0l0,0l0,0l0,0l0,0l0,0l0,0l0,0l0,0l0,0l0,0l0,0l0,0l0,0l0,0
				l0,0l0,0l0,0l0,0l0,0l0,0l0,0l0,0l0,0l0,0l0,0l0,0l0,0l0,0l0,0l0,0l0,0l0,0l0,0l0,0l0,0l0,0l0,0l0,0c0.1,0,0.2-0.1,0.3,0l18.9,11
				C84.2,79.5,81.7,95,79.9,101.1z"/>
			<path class="st16" d="M65.4,69.3c7.9,9.1,17.4,14.7,16.5,22.6l-2,9.2L61,90.2L65.4,69.3z"/>
		</g>
		<g>
			<polygon class="st17" points="79.6,77.9 79.2,99 59.4,87.6 59.4,66.7 			"/>
			<polygon class="st18" points="79.2,78.1 79.7,77.9 79.6,98.8 79.2,99 			"/>
			<polygon class="st19" points="59.4,66.7 59.8,66.4 79.7,77.9 79.2,78.1 			"/>
			<path class="st18" d="M78.5,94.5l0,1.3L60.1,85.2l0-1.3L78.5,94.5L78.5,94.5z M78.5,79.3l0,1.3L60.2,70.1l0-1.3L78.5,79.3
				L78.5,79.3z M78.5,81.5L60.2,70.9l0,1.3l18.3,10.6L78.5,81.5L78.5,81.5z M78.5,83.7L60.2,73.1l0,1.3L78.5,85L78.5,83.7L78.5,83.7
				z M78.5,85.8L60.2,75.2l0,1.3l18.3,10.6L78.5,85.8L78.5,85.8z M78.5,88L60.2,77.4l0,1.3l18.3,10.6L78.5,88L78.5,88z M78.5,90.2
				L60.2,79.6l0,1.3l18.3,10.6L78.5,90.2L78.5,90.2z M78.5,92.3L60.1,81.7l0,1.3l18.3,10.6L78.5,92.3z"/>
		</g>
		<linearGradient id="SVGID_6_" gradientUnits="userSpaceOnUse" x1="77.3518" y1="95.7809" x2="56.0133" y2="79.725">
			<stop  offset="0" style="stop-color:#FA5DB1"/>
			<stop  offset="1" style="stop-color:#FEBFBF"/>
		</linearGradient>
		<path class="st20" d="M74.8,86l4.5,15.8l0,0c0.1,0.2,0.2,0.4,0.3,0.5l-18.9-11c-0.2-0.1-0.3-0.4-0.3-0.5L55.9,75l0,0l-0.8-3
			c0-0.2,0.1-0.5,0.2-0.5c0.8,0.7,5,3.3,5.7,3.7c1.3,1,1.3,2.3,3.3,4.3c0.4,0.4,0.5,0.5,1,0.8L74.8,86z"/>
		<path class="st16" d="M75,85.4C75,85.4,75.1,85.3,75,85.4c0.2-0.2,0.4-0.1,0.4,0l4.5,15.7l4.4-20.8c0-0.2,0.2-0.4,0.3-0.5
			c0,0,0.1,0,0.1,0c0.2,0,0.3,0.1,0.2,0.3l-4.4,21c-0.1,0.4-0.2,0.6-0.3,0.8c-0.1,0.2-0.2,0.3-0.4,0.4c-0.1,0.1-0.3,0.1-0.4,0
			c-0.1-0.1-0.2-0.2-0.3-0.5L74.8,86C74.7,85.8,74.8,85.6,75,85.4z"/>
		<path class="st21" d="M65.8,79.8l9.5,5.5c-0.2-0.1-0.6,0.4-0.6,0.7l-9.6-5.6c-0.3-0.2-0.5-0.3-0.8-0.5c-1.4-1.1-2-2.6-2.9-3.8
			c-0.3-0.3-0.5-0.6-0.8-0.8c-0.2-0.1-0.4-0.2-0.3-0.2L55,72.1c0-0.2,0.1-0.5,0.2-0.5c0.1-0.1,0.3-0.2,0.4-0.2l5.3,3.1
			c0,0,0.1,0,0.3,0.2c0.3,0.2,0.5,0.4,0.8,0.8c0.9,1.3,1.6,2.7,3.2,3.9C65.4,79.5,65.6,79.6,65.8,79.8z"/>
	</g>
	<g>
		<linearGradient id="SVGID_7_" gradientUnits="userSpaceOnUse" x1="139.7991" y1="20.8282" x2="135.704" y2="36.2096">
			<stop  offset="0" style="stop-color:#FA5DB1"/>
			<stop  offset="1" style="stop-color:#FEBFBF"/>
		</linearGradient>
		<path class="st22" d="M138.5,36.4c-4.2-2.4-7.8-8.1-8.2-12.8c-0.3-4.6,2.8-6.4,7-4c4.2,2.4,7.9,8.1,8.2,12.8
			C145.8,37.1,142.6,38.9,138.5,36.4z"/>
		<polygon class="st23" points="140.5,24.8 141.6,25.3 136.7,32.8 132.3,26.4 133.8,26.9 136.1,29.1 		"/>
	</g>
	<g>
		<path class="st0" d="M165.8,173.4L119,146.6c-1.7-0.8-4.3-1.5-6-0.5l-4.4,2.7c-0.9,0.5-3.8,2.3-1.8,3.4c5.7,3.1,42,24.3,47.8,27.4
			c1.1,0.6,2.7,0.8,4.4,0.7c1.7-0.1,3.4-0.6,4.7-1.4l1.7-1.1c1.2-0.8,1.9-1.6,2-2.4C167.4,174.6,166.9,173.8,165.8,173.4z"/>
		<g>
			<g>
				<path class="st24" d="M164.6,170.3c0,2.3-0.8,3.9-2.1,4.6l-2.1,1.2c-7.1-3-4.5-38.9-4.9-49.1l2.2-53.5c-1.8-3.2-8.9-6-7.2-12.5
					l-20.7-9.7c-0.9-0.6-25.1-14.6-20.8-17.3c0.7-0.4,1.4-0.9,2.2-1.3c1.6-0.9,3.6-0.4,5.2,0.5l0,0l0,0L157.5,57
					c4.1,2.3,7.2,8,7.2,12.5L164.6,170.3z"/>
				<linearGradient id="SVGID_8_" gradientUnits="userSpaceOnUse" x1="120.441" y1="121.7913" x2="158.3425" y2="77.3299">
					<stop  offset="0" style="stop-color:#965CF2"/>
					<stop  offset="1" style="stop-color:#FF8ADC"/>
				</linearGradient>
				<path class="st25" d="M106.8,38.7c0-2.2,0.8-3.8,2-4.6c1.3-0.8,3.2-0.7,5.2,0.5l41.3,23.7c4,2.3,7.2,7.9,7.2,12.5l-0.2,100.8
					c0,4.6-3.3,6.4-7.3,4.1l-41.3-23.7c-4-2.3-7.2-7.9-7.2-12.5L106.8,38.7z"/>
			</g>
			<g>
				<path class="st23" d="M132,107.9c-2.9-1.7-5.2-5.7-5.2-9.1c0-3.3,2.4-4.7,5.3-3c2.9,1.7,5.2,5.7,5.2,9.1
					C137.3,108.2,134.9,109.5,132,107.9L132,107.9z M132,109.3c3.6,2.1,6.5,0.4,6.5-3.7c0-4.1-2.9-9.1-6.5-11.2
					c-3.6-2.1-6.5-0.4-6.5,3.7C125.6,102.2,128.4,107.2,132,109.3z"/>
				<g>
					<path class="st23" d="M127.7,111.3c0-0.4,0.3-0.5,0.6-0.3l7.6,4.3c0.3,0.2,0.6,0.7,0.6,1.1l0,0.8c0,0.4-0.3,0.5-0.6,0.3
						l-7.6-4.3c-0.3-0.2-0.6-0.7-0.6-1.1L127.7,111.3z"/>
					<path class="st26" d="M123.7,112.6c0-0.3,0.2-0.5,0.5-0.3c4.3,2.4,11.3,6.4,15.6,8.8c0.3,0.2,0.5,0.6,0.5,0.9l0,0.7
						c0,0.3-0.2,0.5-0.5,0.3c-4.3-2.4-11.3-6.4-15.6-8.8c-0.3-0.2-0.5-0.6-0.5-0.9L123.7,112.6z"/>
				</g>
			</g>
		</g>
	</g>
	<g>
		<g>
			<path class="st27" d="M142.8,126.7c2.5,0.6,4.8,3.7,5,6.7c0.2,3.1-1.6,5-4.1,4.4c-2.5-0.6-4.8-3.7-5-6.7
				C138.4,128.1,140.2,126.1,142.8,126.7z"/>
			<path class="st23" d="M143,129.3c1.4,0.3,2.6,2,2.7,3.6c0.1,1.7-0.9,2.7-2.2,2.4c-1.4-0.3-2.6-2-2.7-3.6
				C140.6,130,141.6,129,143,129.3L143,129.3z M143.1,130.7c-0.7-0.2-1.3,0.4-1.2,1.3c0.1,0.9,0.7,1.7,1.4,1.9
				c0.7,0.2,1.3-0.4,1.2-1.3C144.5,131.7,143.8,130.9,143.1,130.7z"/>
		</g>
		<g>
			<path class="st27" d="M118.5,116.8c0-0.7,0.5-0.9,1-0.6l16.9,9.5c0.6,0.3,1,1.1,1,1.8l0,1.3c0,0.7-0.5,0.9-1,0.6l-16.9-9.5
				c-0.6-0.3-1-1.1-1-1.8L118.5,116.8z"/>
			<path class="st27" d="M126.2,125.7c0-0.4,0.3-0.5,0.6-0.3l10,5.6c0.3,0.2,0.6,0.7,0.6,1l0,0.8c0,0.4-0.3,0.5-0.6,0.3l-10-5.6
				c-0.3-0.2-0.6-0.7-0.6-1L126.2,125.7z"/>
		</g>
	</g>
	<g>
		<path class="st28" d="M99.3,122.1c0.1-1.5,0.4-3.7,2-4.3c0.6-0.2,1.3-0.2,1.9,0c0.3,0.1,0.6,0.3,0.9,0.4c2.6,1.5,4,4.9,4.5,7.7
			c0.4,2.1,1,4.2,2.9,5.4c0.3,0.1,0.8,0.4,1.1,0.2c0.9-0.4,1.2-4,1.3-4.9c0.1-1.2,0.3-2.5,0.5-3.6c0.2-1,0.7-2.1,1.6-2.6
			c0.8-0.4,1.7-0.1,2.4,0.3c0.4,0.2,0.8,0.5,1.2,0.9c2.5,2.5,2.8,7.4,3.3,10.7c0.3,2,0.6,4.2,1.4,6c0.5,1.2,1.3,2.4,2.4,3
			c0.2,0.1,0.7,0.4,1,0.2c0.9-0.5,0.8-4.1,0.9-5c0.1-1.5,0.2-3,0.4-4.6c0.1-1,0.3-2,0.5-3c0.3-1.1,0.7-2.5,2-2.8
			c0.7-0.1,1.4,0.2,2,0.5c0.3,0.2,0.7,0.4,1,0.7c1.2,0.9,1.7,2.1,2,3.5c0.3,1.1,0.5,2.3,0.7,3.5c0.3,1.8,0.4,3.6,0.6,5.4
			c0.3,3.3,0.7,7.5,3.8,9.5c0.4,0.2,1.2,0.7,1.7,0.4c0.5-0.3,0.9-1.5,1-2c0.2-0.6,0.5-1.3,0.8-1.8c1-1.4,2.6-1.7,4-0.8
			c1.8,1.1,2.9,3.4,3.5,5.4c0.4,1.3,0.6,2.9,0.7,4.3c0.2,1.9,0.4,3.9,0.5,5.8c0.2,3.6,0.4,7.3,0.4,11l0,1.4l-55.3-32.4l0-0.5
			c0.1-2.9,0-5.9,0-8.8c0-1.8,0-3.6,0-5.4C99.2,124.6,99.2,123.3,99.3,122.1z"/>
		<linearGradient id="SVGID_9_" gradientUnits="userSpaceOnUse" x1="126.399" y1="153.6608" x2="128.5222" y2="123.8543">
			<stop  offset="0" style="stop-color:#FA5DB1"/>
			<stop  offset="1" style="stop-color:#FEBFBF"/>
		</linearGradient>
		<path class="st29" d="M100.1,122.2c0.2-3.1,1.2-4.1,2.8-3.6c0.2,0.1,0.5,0.2,0.8,0.4c1.6,1,3.5,3.3,4.2,7.1
			c0.4,2.4,1.2,4.6,3.3,5.9c5.6,3.1,1.7-13.8,7-10.6c4.6,2.7,3.1,11.5,5.5,17.2c0.8,2,2,3,2.7,3.4c3.2,1.8,2.9-3.3,3.1-5.5
			c0.6-9.9,1.7-10.4,3.7-9.2c2.1,1.2,3,2.1,3.9,12.5c0.4,4.3,1,8.1,4.2,10.1c3.6,2.1,3.4-1.8,4.6-3.6c0.7-1.1,1.9-1.3,3-0.6
			c1.2,0.7,2.4,2.4,3.2,4.9c1.2,4.2,1.6,18.9,1.6,20.9L100,140C100.1,137,100,124.9,100.1,122.2z"/>
	</g>
	<g>
		<linearGradient id="SVGID_10_" gradientUnits="userSpaceOnUse" x1="155.265" y1="116.039" x2="158.3064" y2="150.3736">
			<stop  offset="0" style="stop-color:#D870AC"/>
			<stop  offset="1" style="stop-color:#58469C"/>
		</linearGradient>
		<path class="st30" d="M148.3,112.8l1.6-0.9l15.8,9.2l-1.1,38.1l-2.2,1.2l-12.5-7.3c-0.9-0.5-1.6-1.8-1.6-2.8L148.3,112.8z"/>
		<g>
			<path class="st17" d="M151,109.8l0.8-0.4c0.3-0.1,0.6,0,1,0.2c9.5,5.4,18.9,11.1,28.4,16.5c0.9,0.5,1.6,1.8,1.6,2.8l0,37.5
				c0,0.5-0.2,0.8-0.4,1c-0.3,0.2-0.9,0.7-1.4,0.4c-9.5-5.4-18.8-11.5-28.2-17c-0.9-0.5-1.6-1.8-1.6-2.8L151,109.8z"/>
			<path class="st23" d="M150.5,110.9c0-1,0.7-1.4,1.6-0.9c9.5,5.4,18.9,11.1,28.4,16.5c0.9,0.5,1.6,1.8,1.6,2.8l0,37.5
				c0,1-0.7,1.4-1.6,0.9c-9.5-5.4-18.9-11.1-28.4-16.5c-0.9-0.5-1.6-1.8-1.6-2.8L150.5,110.9z"/>
			<linearGradient id="SVGID_11_" gradientUnits="userSpaceOnUse" x1="170.5174" y1="125.2007" x2="163.0291" y2="141.9646">
				<stop  offset="0" style="stop-color:#1C8EF4"/>
				<stop  offset="1" style="stop-color:#00CFDD"/>
			</linearGradient>
			<path class="st31" d="M150.5,110.9c0-1,0.7-1.4,1.6-0.9c9.5,5.4,18.9,11.1,28.4,16.5c0.9,0.5,1.6,1.8,1.6,2.8l0,29.5l-31.6-18.2
				L150.5,110.9z"/>
			<g>
				<path class="st32" d="M152.8,144.5c0-0.4,0.3-0.6,0.7-0.4l8.7,4.9c0.4,0.2,0.7,0.8,0.7,1.2v0.9c0,0.4-0.3,0.6-0.7,0.4l-8.7-4.9
					c-0.4-0.2-0.7-0.8-0.7-1.2L152.8,144.5z"/>
				<path class="st32" d="M152.8,148.4c0-0.4,0.3-0.5,0.6-0.3c4.9,2.8,13.1,7.4,18,10.2c0.3,0.2,0.6,0.7,0.6,1.1l0,0.8
					c0,0.4-0.3,0.5-0.6,0.3c-4.9-2.8-13.1-7.4-18-10.2c-0.3-0.2-0.6-0.7-0.6-1.1L152.8,148.4z"/>
			</g>
			<path class="st33" d="M175.3,135l0,18.6l5.2,3l0-18.6L175.3,135L175.3,135z M159.6,120.2l-0.1,24.9l5.2,3l0.1-24.9L159.6,120.2
				L159.6,120.2z M167.4,129l0,20.7l5.2,3l0-20.7L167.4,129L167.4,129z M151.7,121.9l0,18.6l5.2,3l0-18.6L151.7,121.9z"/>
			<g>
				<path class="st34" d="M151.7,129.2c-0.1-0.1-0.1-0.4,0-0.5c0.2-0.1,0.4-0.1,0.6,0l5,4.6l2.4,1l5.1-1l3.1-3.4
					c0.1-0.1,0.4-0.2,0.6-0.1c0,0,0.1,0.1,0.1,0.1l7.3,7.9l4.5,1.1c0.2,0,0.4,0.1,0.4,0.3c0,0.2-0.2,0.3-0.4,0.3l-4.7-1.1
					c-0.1,0-0.3,0-0.3-0.1l-7.2-7.7l-2.9,3.2l0,0c-0.1,0.1-0.1,0.1-0.2,0.1l-5.4,1.1c-0.1,0-0.2,0-0.3,0l-2.6-1.1
					c-0.1,0-0.1,0-0.1-0.1L151.7,129.2z"/>
				<path class="st23" d="M151.7,129.3c-0.1-0.2-0.1-0.4,0-0.6c0.2-0.1,0.4-0.1,0.6,0l5,5.4l2.4,1.2l5.1-1.2l3.1-4
					c0.1-0.2,0.4-0.2,0.6-0.1c0,0,0.1,0.1,0.1,0.1l7,9l4.9-0.2c0.2,0,0.4,0.2,0.4,0.4c0,0.2-0.2,0.4-0.4,0.4l-5.1,0.2
					c-0.1,0-0.3,0-0.3-0.2l-6.8-8.8l-2.9,3.7l0,0c-0.1,0.1-0.1,0.1-0.2,0.1l-5.4,1.3c-0.1,0-0.2,0-0.3,0l-2.6-1.3
					c-0.1,0-0.1-0.1-0.1-0.1L151.7,129.3z"/>
			</g>
		</g>
	</g>
	<g>
		<linearGradient id="SVGID_12_" gradientUnits="userSpaceOnUse" x1="121.299" y1="50.2387" x2="127.8458" y2="94.3736">
			<stop  offset="0" style="stop-color:#D870AC"/>
			<stop  offset="1" style="stop-color:#58469C"/>
		</linearGradient>
		<path class="st35" d="M106.9,45.6l35.5,20.5c0.9,0.5,1.6,1.8,1.6,2.8l0,37.5c0,1-0.7,1.4-1.6,0.9l-35.7-20.6l0.1-5.6L106.9,45.6z"
			/>
		<g>
			<path class="st17" d="M69.5,21.9l0.8-0.4c0.3-0.1,0.6,0,1,0.2c9.5,5.4,59.6,34.4,69,39.8c0.9,0.5,1.6,1.8,1.6,2.8l0,37.5
				c0,0.5-0.2,0.8-0.4,1c-0.3,0.2-0.9,0.7-1.4,0.4c-9.5-5.4-59.4-34.9-68.9-40.3c-0.9-0.5-1.6-1.8-1.6-2.8L69.5,21.9z"/>
			<linearGradient id="SVGID_13_" gradientUnits="userSpaceOnUse" x1="103.5742" y1="75.4067" x2="107.2939" y2="45.488">
				<stop  offset="0" style="stop-color:#6D6AFE"/>
				<stop  offset="1" style="stop-color:#3FB0F7"/>
			</linearGradient>
			<path class="st36" d="M69,22.9c0-1,0.7-1.4,1.6-0.9c9.5,5.4,59.6,34.4,69,39.8c0.9,0.5,1.6,1.8,1.6,2.8l0,37.5
				c0,1-0.7,1.4-1.6,0.9c-9.5-5.4-59.6-34.4-69-39.8c-0.9-0.5-1.6-1.8-1.6-2.8L69,22.9z"/>
			<g>
				<path class="st37" d="M136.2,75.9c-0.3-0.2-0.5-0.1-0.5,0.2c0,0.3,0.2,0.7,0.5,0.9c0.3,0.2,0.5,0.1,0.5-0.2
					C136.7,76.5,136.5,76.1,136.2,75.9L136.2,75.9z M73.6,64.9l0.1-20.8l-0.5-0.4l-0.1,20.9L73.6,64.9L73.6,64.9z M73.4,42.3
					c-0.3-0.2-0.5-0.1-0.5,0.2c0,0.3,0.2,0.7,0.5,0.9c0.3,0.2,0.5,0.1,0.5-0.2C73.9,43,73.7,42.6,73.4,42.3L73.4,42.3z M81.4,69.4
					l0.1-17.9L81,51.2l-0.1,18L81.4,69.4L81.4,69.4z M81.3,49.8c-0.3-0.2-0.5-0.1-0.5,0.2c0,0.3,0.2,0.7,0.5,0.9
					c0.3,0.2,0.5,0.1,0.5-0.2C81.8,50.4,81.5,50,81.3,49.8L81.3,49.8z M89.3,74l0.1-24.1l-0.5-0.4l-0.1,24.2L89.3,74L89.3,74z
					 M89.1,48.1c-0.3-0.2-0.5-0.1-0.5,0.2c0,0.3,0.2,0.7,0.5,0.9c0.3,0.2,0.5,0.1,0.5-0.2C89.6,48.7,89.4,48.3,89.1,48.1L89.1,48.1z
					 M97.1,78.5l0.1-30.4l-0.5-0.4l-0.1,30.5L97.1,78.5L97.1,78.5z M97,46.3c-0.3-0.2-0.5-0.1-0.5,0.2c0,0.3,0.2,0.7,0.5,0.9
					c0.3,0.2,0.5,0.1,0.5-0.2C97.5,47,97.3,46.5,97,46.3L97,46.3z M105,83l0.1-30.5l-0.5-0.4l-0.1,30.6L105,83L105,83z M104.9,50.7
					c-0.3-0.2-0.5-0.1-0.5,0.2c0,0.3,0.2,0.7,0.5,0.9c0.3,0.2,0.5,0.1,0.5-0.2C105.4,51.4,105.1,50.9,104.9,50.7L104.9,50.7z
					 M112.8,87.6l0.1-26.1l-0.5-0.4l-0.1,26.2L112.8,87.6L112.8,87.6z M112.7,59.7c-0.3-0.2-0.5-0.1-0.5,0.2c0,0.3,0.2,0.7,0.5,0.9
					c0.3,0.2,0.5,0.1,0.5-0.2C113.2,60.3,113,59.9,112.7,59.7L112.7,59.7z M120.7,92.1l0.1-20.1l-0.5-0.4l-0.1,20.2L120.7,92.1
					L120.7,92.1z M120.5,70.2c-0.3-0.2-0.5-0.1-0.5,0.2c0,0.3,0.2,0.7,0.5,0.9c0.3,0.2,0.5,0.1,0.5-0.2
					C121,70.8,120.8,70.4,120.5,70.2L120.5,70.2z M128.5,96.6l0.1-17.3l-0.5-0.4L128,96.4L128.5,96.6L128.5,96.6z M128.4,77.6
					c-0.3-0.2-0.5-0.1-0.5,0.2c0,0.3,0.2,0.7,0.5,0.9c0.3,0.2,0.5,0.1,0.5-0.2C128.9,78.2,128.6,77.8,128.4,77.6L128.4,77.6z
					 M136.4,101.2l0.1-23.5l-0.5-0.4l-0.1,23.6L136.4,101.2z"/>
				<path class="st37" d="M139.5,79.8c-0.1-0.2-0.2-0.3-0.3-0.4c-0.2-0.1-0.3-0.2-0.4-0.1c-1,0.6-1.9,1.1-2.7,1.5
					c-0.8,0.4-1.6,0.8-2.4,1c-3.4,1.2-6.1,0.7-9-1.5c-2.8-2.2-5.8-6.1-9.7-11.5c-4.4-6-8.1-10.3-11.6-13c-0.5-0.4-1-0.7-1.5-1.1
					c-4-2.5-7.7-2.9-11.9-1.3c-0.4,0.1-0.9,0.3-1.3,0.5c-3.2,1.3-6.3,2.4-10.1-0.5c-2-1.5-4.2-4.1-6.8-8.4c-0.1-0.2-0.2-0.3-0.3-0.4
					c-0.2-0.1-0.3-0.2-0.4-0.1c-0.2,0.1-0.1,0.5,0.1,0.9c2.9,4.8,5.3,7.7,7.5,9.3c4.1,3.1,7.4,1.9,10.8,0.5c0.4-0.2,0.8-0.3,1.3-0.5
					c4-1.5,7.6-1.2,11.3,1.2c0.5,0.3,0.9,0.6,1.4,1c3.3,2.5,6.9,6.6,11.1,12.4c4.1,5.6,7.2,9.6,10.2,12c0.1,0,0.1,0.1,0.2,0.1
					c3,2.3,5.9,2.9,9.6,1.6c0.8-0.3,1.6-0.6,2.4-1.1c0.9-0.4,1.8-1,2.7-1.6C139.7,80.6,139.7,80.2,139.5,79.8z"/>
				<path class="st38" d="M138.5,77.2c-0.1-0.2-0.2-0.3-0.3-0.4c-0.2-0.1-0.3-0.2-0.4-0.1c-1,0.6-1.9,1.1-2.7,1.6
					c-0.8,0.4-1.6,0.8-2.4,1.1c-3.4,1.3-6.1,0.8-9-1.3c-2.8-2.1-5.8-6-9.7-11.3c-4.4-6-8.1-10.2-11.6-12.8c-0.5-0.4-1-0.7-1.5-1.1
					c-4-2.5-7.7-2.8-11.9-1.1c-0.4,0.2-0.9,0.3-1.3,0.5c-3.2,1.3-6.3,2.5-10.1-0.3c-2-1.5-4.2-4.1-6.8-8.3c-0.1-0.2-0.2-0.3-0.3-0.4
					c-0.2-0.1-0.3-0.2-0.4-0.1c-0.2,0.1-0.1,0.5,0.1,0.9c2.9,4.8,5.3,7.6,7.5,9.2c4.1,3.1,7.4,1.7,10.8,0.3c0.4-0.2,0.8-0.3,1.3-0.5
					c4-1.6,7.6-1.3,11.3,1c0.5,0.3,0.9,0.6,1.4,0.9c3.3,2.5,6.9,6.5,11.1,12.3c4.1,5.5,7.1,9.5,10.2,11.9c0.1,0,0.1,0.1,0.2,0.1
					c3,2.2,5.9,2.8,9.6,1.4c0.8-0.3,1.6-0.6,2.4-1.1c0.8-0.5,1.8-1,2.7-1.6C138.8,78,138.8,77.6,138.5,77.2z"/>
			</g>
		</g>
	</g>
	<g>
		<linearGradient id="SVGID_14_" gradientUnits="userSpaceOnUse" x1="156.4761" y1="74.948" x2="153.0601" y2="101.2897">
			<stop  offset="0" style="stop-color:#D870AC"/>
			<stop  offset="1" style="stop-color:#58469C"/>
		</linearGradient>
		<path class="st39" d="M164.9,83l-0.2,27.3l-2.2,1l-11.5-6.7c-0.2-0.1-0.4-0.5-0.4-0.7l-1.3-4.5l-0.1-0.1l0-0.3l-4.8-16.9l0,0
			l-1.2-4.1c0,0,0-0.1,0-0.1v0l0,0l0,0l0,0l0,0l0,0l0,0l0,0l0,0l0,0l0,0l0,0l0,0l0,0l0,0l0,0l0,0l0,0c0,0,0,0,0-0.1l0,0l0,0l0,0l0,0
			l0,0l0,0l0,0l0,0l0,0l0,0l0,0l0,0c0,0,0,0,0,0l0,0l0,0c0.1-0.1,0.4-0.3,0.6-0.2l5.3,3.1l0-9.6l0,0l0,0l0.6-0.3l7.5,4.4l0.1-0.3
			l0,0l0,0l0,0l0,0l0,0l0,0l0,0l0,0l0,0l0,0l0,0v0l0,0l0,0l0,0l0,0l0,0l0,0l0,0l0,0l0,0l0,0l0,0l0,0l0,0l0,0l0,0l0,0h0l0,0l0,0l0,0
			l0,0l0,0l0,0l0,0l0,0l0,0l0,0l0,0l0,0l0,0l0,0l0,0l0,0l0,0l0,0l0,0l0,0l0,0l0,0l0,0l0,0l0,0l0,0l0,0l0,0h0l0,0l0,0l0,0l0,0l0,0
			l0,0l0,0l0,0l0,0l0,0l0,0l0,0l0,0l0,0l0,0l0,0l0,0l0,0l0,0l0,0l0,0l0,0l0,0l0,0l0,0l0,0l0,0l0,0l0,0l0,0l0,0l0,0l0,0l0,0l0,0l0,0
			l0,0l0,0l0,0l0,0l0,0l0,0l0,0l0,0l0,0l0,0l0,0l0.4,0L164.9,83z"/>
		<g>
			<g>
				<linearGradient id="SVGID_15_" gradientUnits="userSpaceOnUse" x1="168.9861" y1="82.8157" x2="170.1449" y2="110.1699">
					<stop  offset="0" style="stop-color:#A77EF7"/>
					<stop  offset="1" style="stop-color:#5E65D6"/>
				</linearGradient>
				<path class="st40" d="M179.1,116l-26-15.1l6-28.7l0,0l0,0l0,0l0,0l0,0l0,0l0,0l0,0l0,0l0,0l0,0v0l0,0l0,0l0,0l0,0l0,0l0,0l0,0
					l0,0l0,0l0,0l0,0l0,0l0,0l0,0l0,0l0,0h0l0,0l0,0l0,0l0,0l0,0l0,0l0,0l0,0l0,0l0,0l0,0l0,0l0,0l0,0l0,0l0,0l0,0l0,0l0,0l0,0l0,0
					l0,0l0,0l0,0l0,0l0,0l0,0l0,0h0l0,0l0,0l0,0l0,0l0,0l0,0l0,0l0,0l0,0l0,0l0,0l0,0l0,0l0,0l0,0l0,0l0,0l0,0l0,0l0,0l0,0l0,0l0,0
					l0,0l0,0l0,0l0,0l0,0l0,0l0,0l0,0l0,0l0,0l0,0l0,0l0,0l0,0l0,0l0,0l0,0l0,0l0,0l0,0l0,0l0,0l0,0l0,0c0.1-0.1,0.2-0.1,0.4,0
					l26,15.1C185,86.2,181.6,107.6,179.1,116z"/>
				<path class="st41" d="M159.1,72.3l19.8,11.9l1.5,25.9c-0.2,2.2-0.9,4.4-1.2,6.7L153,100.9L159.1,72.3z"/>
			</g>
			<g>
				<polygon class="st17" points="178.7,84.1 178.1,113.1 150.8,97.4 150.9,68.6 				"/>
				<polygon class="st18" points="178.2,84.3 178.8,84 178.7,112.8 178.1,113.1 				"/>
				<polygon class="st19" points="150.9,68.6 151.5,68.2 178.8,84 178.2,84.3 				"/>
				<path class="st18" d="M177.1,106.9l0,1.8l-25.3-14.6l0-1.8L177.1,106.9L177.1,106.9z M177.2,86l0,1.8l-25.3-14.6l0-1.8L177.2,86
					L177.2,86z M177.2,89l-25.3-14.6l0,1.8l25.3,14.6L177.2,89L177.2,89z M177.2,92l-25.3-14.6l0,1.8l25.3,14.6L177.2,92L177.2,92z
					 M177.2,94.9l-25.3-14.6l0,1.8l25.3,14.6L177.2,94.9L177.2,94.9z M177.2,97.9l-25.3-14.6l0,1.8l25.3,14.6L177.2,97.9L177.2,97.9
					z M177.2,100.9l-25.3-14.6l0,1.8l25.3,14.6L177.2,100.9L177.2,100.9z M177.2,103.9l-25.3-14.6l0,1.8l25.3,14.6L177.2,103.9z"/>
			</g>
			<linearGradient id="SVGID_16_" gradientUnits="userSpaceOnUse" x1="161.2173" y1="85.897" x2="162.4238" y2="112.3076">
				<stop  offset="0" style="stop-color:#A77EF7"/>
				<stop  offset="1" style="stop-color:#5E65D6"/>
			</linearGradient>
			<path class="st42" d="M172.2,94.9l6.3,20.9l0,0c0.1,0.2,0,1.7,0.1,1.9l-26-15.1c-0.2-0.1-0.4-0.5-0.4-0.7L146,80.1l0,0l-1.2-4.1
				c-0.1-0.3,0.2-0.7,0.2-0.7c1.1,1,6.8,4.5,7.9,5.1c1.8,1.4,1.8,2.8,4.5,5.7c0.5,0.5,0.7,0.7,1.3,1.1L172.2,94.9z"/>
			<path class="st41" d="M172.3,94.4c0,0,0.1-0.1,0.1-0.1c0.2-0.1,0.4-0.1,0.4,0.1l6.1,21.6l6-28.7c0.1-0.3,0.2-0.5,0.4-0.6
				c0,0,0.1,0,0.1-0.1c0.2-0.1,0.4,0.1,0.3,0.5l-6.1,28.9c-0.1,0.5-0.2,0.9-0.4,1.1c-0.1,0.3-0.3,0.4-0.5,0.6
				c-0.2,0.1-0.3,0.1-0.5,0c-0.1-0.1-0.3-0.3-0.4-0.7L172,95.2C171.9,95,172.1,94.6,172.3,94.4z"/>
			<path class="st43" d="M159.7,86.6l13.1,7.6c-0.3-0.2-0.9,0.6-0.8,1l-13.3-7.7c-0.4-0.3-0.7-0.4-1.1-0.7c-1.9-1.5-2.8-3.5-4-5.2
				c-0.4-0.5-0.7-0.8-1.1-1.1c-0.3-0.2-0.5-0.3-0.4-0.2l-7.3-4.3c-0.1-0.3,0.2-0.7,0.2-0.7c0.1-0.1,0.4-0.3,0.6-0.2l7.3,4.3
				c-0.1,0,0.1,0.1,0.4,0.2c0.4,0.3,0.7,0.6,1.1,1.1c1.3,1.7,2.2,3.7,4.3,5.4C159.1,86.3,159.3,86.4,159.7,86.6z"/>
		</g>
	</g>
	<g>
		<path class="st0" d="M81.7,172.2l19.6-11.1c2.1-1,5.2-1.8,7.4-0.6c2,1,5.2,3.1,6.7,4c1.1,0.6,4.9,2.9,2.5,4.2
			c-7,3.8-13.9,8.1-20.9,11.9c-1.3,0.7-3.3,1-5.4,0.8c-2-0.2-4.1-0.8-5.8-1.7c-1.2-0.7-2.3-1.4-3.5-2c-1.5-0.9-2.3-2-2.4-2.9
			C79.8,173.7,80.4,172.8,81.7,172.2z"/>
		<g>
			<g>
				<path class="st23" d="M88.8,171.6c0.4,0,2-1.4,3.4-0.7c1.7,0.9,5,0.1,6.6,0.5c0.3,0.1,0.9-0.1,1,0.1c0.4,0.6,0.7,1.6-0.2,2.2
					c-0.6,0.5-2,1.1-2.9,1.4c-1,0.3-2.6,0.9-3.7,1c-1.2,0.2-1.8,0.3-2.2,0.6c-0.7,0.3-1.3,0.5-1.7,0.4c-0.8-0.1-1.7-0.6-2.2-1.5
					c-0.1-0.3-0.1-1.6,0-2.4c0.1-0.7,0.5-1.4,0.8-2.1L88.8,171.6z"/>
				<path class="st44" d="M92.4,168.5c-0.5,1.3-0.4,3.3-1.7,4c-0.9,0.5-2.2,0.5-2.8-0.9c-0.3-0.7,0.1-2,0-3.7L92.4,168.5z"/>
				<path class="st45" d="M92.7,170.6c1,0.3,3.7,0.1,5.4,0.2c0.7,0.1,1.4,0.1,1.8,0.7c0.3,0.6,0.2,1.1-0.6,1.7
					c-0.6,0.5-1.7,1-2.6,1.3c-1,0.3-2.6,0.9-3.7,1c-1.2,0.2-1.8,0.3-2.2,0.6c-0.7,0.3-1.3,0.5-1.7,0.4c-0.8-0.1-1.7-0.7-2.2-1.6
					c-0.1-0.3-0.1-1.5,0-2.3c0-0.2,0.1-0.3,0.1-0.5c0.1-1.3,0.6-1.8,1-1.6c0.6,0.3,0.8,0.9,1,1.3c0.2,0.4,0.4,0.6,0.8,0.7
					c0.7,0.2,1.3-0.2,1.7-0.7c0.2-0.4,0.3-0.8,0.5-1.3c0,0,0-0.1,0-0.1c0.1-1.1,0.7-1,0.6-0.8C92.4,169.8,92.4,170.3,92.7,170.6z"/>
				<path class="st23" d="M99.6,171.3c0,0.4,0.7,0.5,0.5,1.2c0.3-0.3-0.1-1.2-0.3-1.4C99.6,171.2,99.6,171.1,99.6,171.3z"/>
			</g>
			<g>
				<path class="st23" d="M100.1,167.1c0.4-0.2,1.3-2,2.9-1.8c0.6,0.1,1.7-0.1,2.7-0.4c1.7-0.5,4-2,4.4-1.7c0.9,0.5,0.9,1.5,0.3,2.4
					c-0.4,0.6-1.3,1.5-2,2.1c-0.8,0.6-1.9,1.6-2.9,2.2c-0.9,0.5-1.2,0.5-1.9,1.3c-0.5,0.5-1.1,0.8-1.5,0.9c-1,0.2-2.3-0.4-2.8-1.1
					c-0.3-1-0.9-2-0.5-3.5L100.1,167.1z"/>
				<path class="st44" d="M102.3,162.7c0,1.4,0.9,3.2-0.1,4.4c-0.6,0.8-1.9,1.3-2.9,0.2c-0.6-0.6-0.6-1.9-1.3-3.4L102.3,162.7z"/>
				<path class="st45" d="M105.3,164.5c0.1,0,0.2-0.1,0.3-0.1c1.7-0.5,3.9-1.6,4.3-1.4c0.9,0.5,1,1.2,0.4,2c-0.4,0.6-1.3,1.5-2,2.1
					c-0.8,0.6-1.9,1.6-2.9,2.2c-0.9,0.5-1.2,0.5-1.9,1.3c-0.5,0.5-1.1,0.8-1.5,0.9c-1,0.2-2.4-0.4-2.9-1.1c-0.2-0.8-0.6-1.5-0.6-2.5
					c-0.1-1.3-0.1-1.9,0.5-1.9c1,0,1.4,0.6,1.9,0.8c0.9,0.6,1.5-0.2,1.7-1.1c0-0.4,0-0.8-0.1-1.2c0,0,0-0.1,0-0.1
					c-0.3-1.1,0.3-1.2,0.3-1c0,0.6,0.4,0.9,0.8,1C104.2,164.7,104.9,164.5,105.3,164.5z"/>
				<path class="st23" d="M109.8,163.1c0.2,0.4,0.8,0.1,1,0.9c0.2-0.4-0.6-1.1-0.9-1.1C109.8,163,109.7,163,109.8,163.1z"/>
			</g>
			<linearGradient id="SVGID_17_" gradientUnits="userSpaceOnUse" x1="90.7796" y1="119.1141" x2="89.8183" y2="105.2889">
				<stop  offset="0" style="stop-color:#1C8EF4"/>
				<stop  offset="1" style="stop-color:#00CFDD"/>
			</linearGradient>
			<path class="st46" d="M83.3,113.4c3.3,3.9,3.4,4.2,9.9,8l1.2-2.4c-2.2-4.5-2.8-5.1-5.7-8.5c2.6-1.8,5.3-4.5,6.6-6.3
				c4.2-5.6,1.9-9.6-1.8-8.8c-3.2,0.7-8.2,8.9-10.9,13.6C81.6,110.9,81.4,111.1,83.3,113.4z"/>
			<path class="st47" d="M89.9,109.6c2.2-1.7,4.4-3.9,5.6-5.4c4.2-5.6,1.8-9.5-1.9-8.7C91.6,96,88.2,100.1,89.9,109.6z"/>
			<g>
				<linearGradient id="SVGID_18_" gradientUnits="userSpaceOnUse" x1="99.7865" y1="130.2943" x2="94.4689" y2="155.7347">
					<stop  offset="0" style="stop-color:#3E4795"/>
					<stop  offset="1" style="stop-color:#273088"/>
				</linearGradient>
				<path class="st48" d="M101.3,124.6c0.4,4.1,2.4,17.2,1.8,20.8c-0.9,5.4-0.6,11.9-0.6,17.7c-0.1,2.4-3.5,3.7-4.4,2.1
					c-0.8-5.1-1.9-9.6-2.3-12.5c-0.5-3.2-0.3-7.1,0.5-9.2c-0.3-2.3-1.9-8.2-3.2-12.3c-0.5-1.5-3.1-6.2-0.4-11L101.3,124.6z"/>
				<path class="st49" d="M102.6,161.4c0,0.4,0,1.1,0,1.5c-0.1,2.4-3.5,3.7-4.5,2.2c-0.1-0.4-0.1-0.8-0.2-1.1
					C99.2,165.4,101.8,163.6,102.6,161.4z"/>
				<path class="st50" d="M103.3,142.9c-1.1,5.4-4.1,12.7-5.8,18.1c-0.9-4.7-3-12.6-1.2-17.5c-0.2-1.3-0.8-3.8-1.5-6.4
					c1.4-2.7,0.1-4.9,0.7-8.8c3.8-0.7-1.9-5.3,6.1-0.4C102.4,133.7,103.1,137.3,103.3,142.9z"/>
			</g>
			<g>
				<linearGradient id="SVGID_19_" gradientUnits="userSpaceOnUse" x1="104.5268" y1="133.1667" x2="86.3928" y2="157.8993">
					<stop  offset="0" style="stop-color:#3E4795"/>
					<stop  offset="1" style="stop-color:#273088"/>
				</linearGradient>
				<path class="st51" d="M101.1,148c-2.2,5-6.3,14.8-8.4,20.9c-1.1,1.6-5.1,1.5-5.1-0.1c0.9-5.1,1.9-13,3.8-17.5
					c0.6-1.4,2.6-4.7,3.4-5.7c0.6-2.3,1.3-8.4,1.9-11.7c-0.5-2.7-2.7-7.3,1.5-11.3c1.7,1.2,7,2,9.4,0.6
					C107.8,134.2,105.2,138.7,101.1,148z"/>
				<path class="st49" d="M93.1,167.9c-0.1,0.3-0.3,0.8-0.4,1.1c-1.2,1.7-5.3,1.5-5.3-0.1c0-0.3,0.1-0.5,0.1-0.8
					C88.5,169.1,91.5,169.1,93.1,167.9z"/>
			</g>
			<linearGradient id="SVGID_20_" gradientUnits="userSpaceOnUse" x1="99.2454" y1="124.5172" x2="100.028" y2="107.762">
				<stop  offset="0" style="stop-color:#1C8EF4"/>
				<stop  offset="1" style="stop-color:#00CFDD"/>
			</linearGradient>
			<path class="st52" d="M91.7,109.9c0.4,3.2-0.6,6.4,0.4,9.3c0,0.3,0.1,1.5,0.1,1.8c0.6,3.8,8.7,7.6,15.4,4c0-0.5,0-1,0-1.8
				c-0.1-0.8,0.2-1.7,0.2-2.2c0-2.1-0.7-3.1-0.3-5.4c0.6-4.7,3.2-9.2,1.8-12.9c-0.3-0.8-0.8-1.2-1.5-1.7c-1.6-1.3-9.8-5.4-12.3-5.7
				C88.4,94.3,91.3,106.4,91.7,109.9z"/>
			<path class="st47" d="M107.6,114.5c0.3-1.2,0.7-2.6,1-4.1c0.7-2.9,1.3-5.9,0.6-7.7c-0.3-0.8-0.8-1.2-1.5-1.7
				c-1.6-1.3-1.3,2.1-3.8,1.8c-0.4,0.5-0.3,1.7-0.1,2.9C104.3,109.8,106.3,115.7,107.6,114.5z"/>
			<g>
				<path class="st53" d="M105.7,95.2c-0.5,0.2-2.8-0.1-2.7,0.1c0,1,0.3,1.7,0.4,3.1c-2.5-0.4-5.9-0.7-6-2.7c0-0.2,0-0.3,0-0.5
					c0,0,0,0,0-0.1l0,0c0-0.7,0-1.4-0.2-1.7c-0.5-0.9-1.6-1.8-2-3.2c-0.6-2.1-0.4-4.5,1.6-6c3.6-2.9,8.2-0.8,9.4,3.4
					c0.2,0.8-0.4,1.3-0.4,2c0,0.1,0.2,0.3,0.3,0.6C106.3,90.7,106.2,95,105.7,95.2z"/>
				<linearGradient id="SVGID_21_" gradientUnits="userSpaceOnUse" x1="102.5592" y1="87.4451" x2="99.0316" y2="93.0112">
					<stop  offset="0" style="stop-color:#FF8A78"/>
					<stop  offset="0.9951" style="stop-color:#FFA799"/>
				</linearGradient>
				<path class="st54" d="M105.7,95.2c-0.5,0.2-2.7-0.1-2.7,0.1c0,1,0.3,1.7,0.4,3.1c-1.5,0.4-5.5-0.2-6.1-2.4c0-0.5,0-2.2-0.1-2.5
					c-0.5-0.9-1.6-1.8-2-3.2c-0.6-2.1-0.4-4.5,1.6-6c3.6-2.9,8.2-0.8,9.4,3.4c0.2,0.8-0.4,1.3-0.4,2c0,0.1,0.2,0.3,0.3,0.6
					C106.3,90.7,106.2,94.9,105.7,95.2z"/>
				<linearGradient id="SVGID_22_" gradientUnits="userSpaceOnUse" x1="101.7809" y1="86.9164" x2="99.8211" y2="92.732">
					<stop  offset="0" style="stop-color:#FFB89E"/>
					<stop  offset="1" style="stop-color:#FFA799"/>
				</linearGradient>
				<path class="st55" d="M105.6,95.2c-0.2,0.1-1.2,0-2-0.2c-0.5-0.2-0.8-0.6-0.9-0.6c-0.3-0.1-1-1.1,0.1-2.6c1-1.5-5.2,2.4-5.6,1.8
					c-0.5-0.9-1.6-1.8-2-3.2c-0.6-2.1-0.4-4.5,1.6-6c3.6-2.9,8.2-0.8,9.4,3.4c0.2,0.8-0.4,1.3-0.4,2c0,0.1,0.2,0.3,0.3,0.6
					C106.3,90.7,106.1,94.9,105.6,95.2z"/>
				<path class="st56" d="M103,91.8c-1.3-1.2-2.5,2.6-0.5,2.6C101.8,93.5,102.4,92.2,103,91.8z"/>
				<path class="st57" d="M103,92.3c0.2-0.5,0-0.7-0.2-0.7c-0.3,0.1-0.6,0.4-0.8,1c-0.3,0.9,0.1,2,1,1.6c-0.7,0-0.7-0.9-0.4-1.4
					C102.7,92.5,102.9,92.2,103,92.3z"/>
				<path class="st56" d="M102.7,92.6c0.2,0.4,0.3,0.6,0.2,0.7c0,0.1-0.2,0.2-0.4,0C102.5,93,102.5,92.8,102.7,92.6z"/>
				<path class="st58" d="M104.3,86.8L104.3,86.8c1.8-0.9,1.5-2.9,0.8-3.5c-1.4-1.3-5.2-1.1-7.7,0.1c-2.5,1.3-3.1,4.4-2.3,6.9
					c0.5,1.7,1.7,2.5,2.3,3.8c0.3,0.4,0.9,0.7,1.5,0.6c1.7-0.4,2.1-2.2,3.1-3c0.6-0.4,1.1-0.6,1.4,0.6c0,0.5,0,1.1,0.1,1.5
					c0.1,0.8-0.1,0.9,0.5,1.2c0.6,0.2,1.8,0.5,2,0.4c0.2-0.1,0.1-1,0.1-1.7c-0.1,0-0.1,0.2-0.1,0.2c-0.1,0-0.1,0-0.2,0
					c0-0.4,0-0.6,0.1-0.9c0.1-0.3,0.1-0.5,0.3-0.6c0.1-0.1,0.1-0.4,0-0.6c-0.4,0.2-0.6,0.6-0.7,1c-0.1,0.3-0.1,0.5-0.2,0.9
					c-0.4-0.1-0.7-0.1-0.9-0.3c-0.4-0.4-0.4-0.9-0.6-1.8c0-1.4,0-1.6,0.8-2.7C104.8,88.8,104.8,88.2,104.3,86.8
					C104.3,86.8,104.3,86.8,104.3,86.8z"/>
				<linearGradient id="SVGID_23_" gradientUnits="userSpaceOnUse" x1="105.6096" y1="82.7696" x2="101.3649" y2="85.3567">
					<stop  offset="0" style="stop-color:#8A4791"/>
					<stop  offset="1" style="stop-color:#562E65"/>
				</linearGradient>
				<path class="st59" d="M105.3,85.9c-0.5,0.7-2.8-0.9-6-0.3c0.7-2.1,1.1-2.6,2-3.2c1.3-0.8,3.4-0.5,4,0.6
					C105.9,84.2,105.7,85.4,105.3,85.9z"/>
			</g>
			<path class="st60" d="M97.3,95.4c-0.7,0.2-1.4,0.9-1.3,1.4c0.7,2.8,5.9,3.4,9.2,2.7c0,0-1.3-1.7-1.9-1.9
				C101.3,97.7,98,97.1,97.3,95.4z"/>
			<g>
				<linearGradient id="SVGID_24_" gradientUnits="userSpaceOnUse" x1="127.9024" y1="100.79" x2="128.7029" y2="101.7888">
					<stop  offset="0" style="stop-color:#FFB89E"/>
					<stop  offset="1" style="stop-color:#FFA799"/>
				</linearGradient>
				<path class="st61" d="M123.1,102.9c0.7-0.6,1.2-1.4,2-2.2c1.4-1.5,3.9-3,5.6-4.4c0.6-0.5,1.1,0.5,0.6,1
					c-0.5,0.5-1.8,1.7-1.8,1.7c0,0,0,0-0.1,0c0.5,0.5,0.7,1.4,0.7,2c0,0.8-1.5,2.2-2.4,3.1c-0.8,0.8-2.2,0.4-2.7,1
					C123.8,104.8,123.5,104,123.1,102.9z"/>
				<linearGradient id="SVGID_25_" gradientUnits="userSpaceOnUse" x1="115.008" y1="114.6434" x2="114.5518" y2="104.0955">
					<stop  offset="0" style="stop-color:#1C8EF4"/>
					<stop  offset="1" style="stop-color:#00CFDD"/>
				</linearGradient>
				<path class="st62" d="M115.2,108.8c1.7-1.7,4.2-3.9,5.8-4.7c0.4-0.2,1.1-0.4,1.3-0.6c0.3-0.3,0.7-0.7,0.9-0.8
					c0.7,0.2,1.6,1.2,2.2,2.2c-0.3,0.4-0.6,0.8-0.8,1.2c-0.2,0.3-0.3,1.1-0.5,1.4c-1.3,2-4.2,4.5-5.8,6.2c-0.7,0.8-1.3,1.5-2.3,2
					c-0.8,0.1-1.5,0.1-2,0c-0.1,0-0.2,0-0.3,0l-0.2-0.2c-0.3-0.1-0.5-0.3-0.7-0.5c-0.4-0.3-0.8-0.6-1.2-1c-1.4-1.2-4.6-4.2-6.4-6.7
					c-2.6-3.5-0.6-6.6,2-6.7c2.2-0.1,3.9,2.8,5.1,4.3C113.1,106.1,114.3,107.6,115.2,108.8z"/>
			</g>
		</g>
	</g>
</g>
</svg>
