<?xml version="1.0" encoding="utf-8"?>
<!-- Generator: Adobe Illustrator 22.0.0, SVG Export Plug-In . SVG Version: 6.00 Build 0)  -->
<svg version="1.1" id="Capa_1" xmlns="http://www.w3.org/2000/svg" xmlns:xlink="http://www.w3.org/1999/xlink" x="0px" y="0px"
	 viewBox="0 0 200 200" style="enable-background:new 0 0 200 200;" xml:space="preserve">
<style type="text/css">
	.st0{fill-rule:evenodd;clip-rule:evenodd;fill:#FFFFFF;}
	.st1{fill-rule:evenodd;clip-rule:evenodd;fill:#8D6DFC;}
	.st2{fill-rule:evenodd;clip-rule:evenodd;fill:url(#SVGID_1_);}
	.st3{opacity:0.5;fill-rule:evenodd;clip-rule:evenodd;fill:#BB6CE9;}
	.st4{fill-rule:evenodd;clip-rule:evenodd;fill:url(#SVGID_2_);}
	.st5{fill-rule:evenodd;clip-rule:evenodd;fill:url(#SVGID_3_);}
	.st6{fill-rule:evenodd;clip-rule:evenodd;fill:#4A9FF8;}
	.st7{fill-rule:evenodd;clip-rule:evenodd;fill:#4C68E5;}
	.st8{opacity:0.5;fill-rule:evenodd;clip-rule:evenodd;fill:#3856D8;}
	.st9{fill-rule:evenodd;clip-rule:evenodd;fill:#6BB6FF;}
	.st10{fill-rule:evenodd;clip-rule:evenodd;fill:#00FFFF;}
	.st11{opacity:0.5;fill-rule:evenodd;clip-rule:evenodd;fill:url(#SVGID_4_);}
	.st12{fill-rule:evenodd;clip-rule:evenodd;fill:#E5EDFF;}
	.st13{fill-rule:evenodd;clip-rule:evenodd;fill:#D1E7FF;}
	.st14{opacity:0.5;fill-rule:evenodd;clip-rule:evenodd;fill:#FFFFFF;}
	.st15{fill-rule:evenodd;clip-rule:evenodd;fill:#22D2FB;}
	.st16{fill-rule:evenodd;clip-rule:evenodd;fill:#12A3EB;}
	.st17{fill-rule:evenodd;clip-rule:evenodd;fill:#1C8DF3;}
	.st18{opacity:0.5;fill-rule:evenodd;clip-rule:evenodd;fill:url(#SVGID_5_);}
	.st19{fill-rule:evenodd;clip-rule:evenodd;fill:#D0E7FF;}
	.st20{fill-rule:evenodd;clip-rule:evenodd;fill:url(#SVGID_6_);}
	.st21{opacity:0.5;fill-rule:evenodd;clip-rule:evenodd;fill:url(#SVGID_7_);}
	.st22{fill-rule:evenodd;clip-rule:evenodd;fill:url(#SVGID_8_);}
	.st23{opacity:0.5;fill-rule:evenodd;clip-rule:evenodd;fill:url(#SVGID_9_);}
	.st24{fill-rule:evenodd;clip-rule:evenodd;fill:url(#SVGID_10_);}
	.st25{opacity:0.5;fill-rule:evenodd;clip-rule:evenodd;fill:url(#SVGID_11_);}
	.st26{fill-rule:evenodd;clip-rule:evenodd;fill:url(#SVGID_12_);}
	.st27{opacity:0.25;fill-rule:evenodd;clip-rule:evenodd;fill:#6D6AFD;}
	.st28{fill-rule:evenodd;clip-rule:evenodd;fill:#4A9EF8;}
	.st29{opacity:0.5;fill-rule:evenodd;clip-rule:evenodd;fill:#4164F3;}
	.st30{opacity:0.5;fill-rule:evenodd;clip-rule:evenodd;fill:url(#SVGID_13_);}
	.st31{fill-rule:evenodd;clip-rule:evenodd;fill:url(#SVGID_14_);}
	.st32{opacity:0.2;fill-rule:evenodd;clip-rule:evenodd;fill:#6D6AFD;}
	.st33{fill-rule:evenodd;clip-rule:evenodd;fill:url(#SVGID_15_);}
	.st34{fill-rule:evenodd;clip-rule:evenodd;fill:#FFA698;}
	.st35{fill-rule:evenodd;clip-rule:evenodd;fill:url(#SVGID_16_);}
	.st36{fill-rule:evenodd;clip-rule:evenodd;fill:url(#SVGID_17_);}
	.st37{fill-rule:evenodd;clip-rule:evenodd;fill:url(#SVGID_18_);}
	.st38{opacity:0.35;fill-rule:evenodd;clip-rule:evenodd;fill:#3469C0;}
	.st39{fill-rule:evenodd;clip-rule:evenodd;fill:#193161;}
	.st40{fill-rule:evenodd;clip-rule:evenodd;fill:url(#SVGID_19_);}
	.st41{opacity:0.3;fill-rule:evenodd;clip-rule:evenodd;fill:#1E2353;}
	.st42{fill-rule:evenodd;clip-rule:evenodd;fill:url(#SVGID_20_);}
	.st43{fill-rule:evenodd;clip-rule:evenodd;fill:url(#SVGID_21_);}
	.st44{fill-rule:evenodd;clip-rule:evenodd;fill:#70B4F5;}
	.st45{fill-rule:evenodd;clip-rule:evenodd;fill:url(#SVGID_22_);}
	.st46{fill-rule:evenodd;clip-rule:evenodd;fill:url(#SVGID_23_);}
	.st47{fill-rule:evenodd;clip-rule:evenodd;fill:url(#SVGID_24_);}
	.st48{fill-rule:evenodd;clip-rule:evenodd;fill:url(#SVGID_25_);}
	.st49{fill-rule:evenodd;clip-rule:evenodd;fill:#562E65;}
	.st50{fill-rule:evenodd;clip-rule:evenodd;fill:url(#SVGID_26_);}
	.st51{fill-rule:evenodd;clip-rule:evenodd;fill:url(#SVGID_27_);}
	.st52{fill-rule:evenodd;clip-rule:evenodd;fill:#22043D;}
	.st53{fill-rule:evenodd;clip-rule:evenodd;fill:url(#SVGID_28_);}
	.st54{fill-rule:evenodd;clip-rule:evenodd;fill:url(#SVGID_29_);}
	.st55{opacity:0.5;fill-rule:evenodd;clip-rule:evenodd;fill:#7E41DF;}
	.st56{fill-rule:evenodd;clip-rule:evenodd;fill:#161F69;}
	.st57{fill-rule:evenodd;clip-rule:evenodd;fill:url(#SVGID_30_);}
	.st58{fill-rule:evenodd;clip-rule:evenodd;fill:url(#SVGID_31_);}
	.st59{fill-rule:evenodd;clip-rule:evenodd;fill:url(#SVGID_32_);}
	.st60{fill-rule:evenodd;clip-rule:evenodd;fill:url(#SVGID_33_);}
	.st61{fill-rule:evenodd;clip-rule:evenodd;fill:url(#SVGID_34_);}
	.st62{fill-rule:evenodd;clip-rule:evenodd;fill:url(#SVGID_35_);}
	.st63{fill-rule:evenodd;clip-rule:evenodd;fill:url(#SVGID_36_);}
	.st64{fill-rule:evenodd;clip-rule:evenodd;fill:#FF8F7F;}
</style>
<g>
	<g>
		<g>
			<path class="st0" d="M141.7,157.4l-0.5,1l-2-1.1l0.5-1L141.7,157.4L141.7,157.4z M125.7,31l1.3,0.7l0.5-1l-1.3-0.7L125.7,31
				L125.7,31z M128,32.3l0.5-1l2,1.1l-0.5,1L128,32.3L128,32.3z M131,34l0.5-1l2,1.1l-0.5,1L131,34L131,34z M133.9,35.6l0.5-1l2,1.1
				l-0.5,1L133.9,35.6L133.9,35.6z M136.9,37.2l0.5-1l2,1.1l-0.5,1L136.9,37.2L136.9,37.2z M139.9,38.9l0.5-1l2,1.1l-0.5,1
				L139.9,38.9L139.9,38.9z M142.8,40.5l0.5-1l2,1.1l-0.5,1L142.8,40.5L142.8,40.5z M145.8,42.2l0.5-1l2,1.1l-0.5,1L145.8,42.2
				L145.8,42.2z M148.8,43.8l0.5-1l2,1.1l-0.5,1L148.8,43.8L148.8,43.8z M151.7,45.5l0.5-1l2,1.1l-0.5,1L151.7,45.5L151.7,45.5z
				 M154.7,47.1l0.5-1l2,1.1l-0.5,1L154.7,47.1L154.7,47.1z M157.6,48.8l0.5-1l2,1.1l-0.5,1L157.6,48.8L157.6,48.8z M160.6,50.4
				l0.5-1l2,1.1l-0.5,1L160.6,50.4L160.6,50.4z M163.6,52.1l0.5-1l2,1.1l-0.5,1L163.6,52.1L163.6,52.1z M166.5,53.7l0.5-1l2,1.1
				l-0.5,1L166.5,53.7L166.5,53.7z M169.4,55.4c0.6,0.4,1,0.9,1.4,1.5l0.9-0.6c-0.5-0.7-1-1.3-1.7-1.8L169.4,55.4L169.4,55.4z
				 M171.4,57.8c0.3,0.6,0.5,1.3,0.6,2l0,0l1.1-0.1c-0.1-0.8-0.3-1.6-0.7-2.3L171.4,57.8L171.4,57.8z M172,60.8
				c0,0.7-0.2,1.5-0.3,2.2l1.1,0.2c0.1-0.7,0.3-1.5,0.3-2.3L172,60.8L172,60.8z M171.6,64.1l1.1,0.2l-0.3,2.2l-1.1-0.2L171.6,64.1
				L171.6,64.1z M171.1,67.4l1.1,0.2l-0.3,2.2l-1.1-0.2L171.1,67.4L171.1,67.4z M170.6,70.8l1.1,0.2l-0.3,2.2l-1.1-0.2L170.6,70.8
				L170.6,70.8z M170.1,74.1l1.1,0.2l-0.3,2.2l-1.1-0.2L170.1,74.1L170.1,74.1z M169.6,77.5l1.1,0.2l-0.3,2.2l-1.1-0.2L169.6,77.5
				L169.6,77.5z M169.1,80.9l1.1,0.2l-0.3,2.2l-1.1-0.2L169.1,80.9L169.1,80.9z M168.6,84.2l1.1,0.2l-0.3,2.2l-1.1-0.2L168.6,84.2
				L168.6,84.2z M168.1,87.6l1.1,0.2l-0.3,2.2l-1.1-0.2L168.1,87.6L168.1,87.6z M167.6,90.9l1.1,0.2l-0.3,2.2l-1.1-0.2L167.6,90.9
				L167.6,90.9z M167.1,94.3l1.1,0.2l-0.3,2.2l-1.1-0.2L167.1,94.3L167.1,94.3z M166.6,97.6l1.1,0.2l-0.3,2.2l-1.1-0.2L166.6,97.6
				L166.6,97.6z M166.2,101l1.1,0.2l-0.3,2.2l-1.1-0.2L166.2,101L166.2,101z M165.7,104.3l1.1,0.2l-0.3,2.2l-1.1-0.2L165.7,104.3
				L165.7,104.3z M165.2,107.7l1.1,0.2l-0.3,2.2l-1.1-0.2L165.2,107.7L165.2,107.7z M164.7,111.1l1.1,0.2l-0.3,2.2l-1.1-0.2
				L164.7,111.1L164.7,111.1z M164.2,114.4l1.1,0.2l-0.3,2.2l-1.1-0.2L164.2,114.4L164.2,114.4z M163.7,117.8l1.1,0.2l-0.3,2.2
				l-1.1-0.2L163.7,117.8L163.7,117.8z M163.2,121.1l1.1,0.2l-0.3,2.2l-1.1-0.2L163.2,121.1L163.2,121.1z M162.7,124.5l1.1,0.2
				l-0.3,2.2l-1.1-0.2L162.7,124.5L162.7,124.5z M162.2,127.8l1.1,0.2l-0.3,2.2l-1.1-0.2L162.2,127.8L162.2,127.8z M161.7,131.2
				l1.1,0.2l-0.3,2.2l-1.1-0.2L161.7,131.2L161.7,131.2z M161.2,134.5l1.1,0.2l-0.3,2.2l-1.1-0.2L161.2,134.5L161.2,134.5z
				 M160.7,137.9l1.1,0.2l-0.3,2.2l-1.1-0.2L160.7,137.9L160.7,137.9z M160.3,141.3l1.1,0.2l-0.3,2.2l-1.1-0.2L160.3,141.3
				L160.3,141.3z M159.8,144.6l1.1,0.2l-0.3,2.2l-1.1-0.2L159.8,144.6L159.8,144.6z M159.3,148l1.1,0.2l-0.3,2.2l-1.1-0.2L159.3,148
				L159.3,148z M158.8,151.3l1.1,0.2l-0.3,2.2l-1.1-0.2L158.8,151.3L158.8,151.3z M158.3,154.7l1.1,0.2l-0.3,2.2l-1.1-0.2
				L158.3,154.7L158.3,154.7z M157.8,158l1.1,0.2l-0.3,2.2l-1.1-0.2L157.8,158L157.8,158z M157.3,161.4l1.1,0.2l-0.1,0.5
				c-0.1,0.7-0.3,1.3-0.6,1.8l-1-0.6c0.3-0.4,0.4-0.9,0.5-1.4L157.3,161.4L157.3,161.4z M156.1,164c-0.5,0.4-1.1,0.5-1.7,0.3
				l-0.2,1.1c0.9,0.2,1.8,0,2.6-0.5L156.1,164L156.1,164z M153.6,164l-0.5,1l-2-1.1l0.5-1L153.6,164L153.6,164z M150.6,162.4l-0.5,1
				l-2-1.1l0.5-1L150.6,162.4L150.6,162.4z M147.6,160.7l-0.5,1l-2-1.1l0.5-1L147.6,160.7L147.6,160.7z M144.7,159.1l-0.5,1l-2-1.1
				l0.5-1L144.7,159.1z"/>
			<g>
				<g>
					<path class="st1" d="M113.7,16.9c1,0.6,1.6,1.2,2.3,2.2c0-0.2,0,0.4,0-0.5c0-0.9-0.5-2.5,0.2-3.2c0.3-0.3,1.7-0.9,2-0.9
						c0.7-0.2,1.4-0.1,2.2,0.4c1.2,0.7,2.3,2,3.2,3.6c0.8,1.6,1.3,4.2,1.3,5.2c0,0.9,0,0.3,0,0.5c0.7-0.2,1.3-0.2,2.4,0.4
						c1.1,0.6,2.4,2,3.2,3.6c0.8,1.6,1.3,3.5,1.4,5.2c0,1.4-0.3,2.5-0.8,3.2c-0.5,0.8-1.6,1.2-2.3,1.4c-2.1,0.7-6.2-3.5-8.3-4.7
						c-2.3-1.3-4.5-2.6-6.8-3.8c-1.2-0.7-2.3-2-3.1-3.6c-0.8-1.6-1.3-3.4-1.2-5.1c0-1-0.7-2.5,0.2-3.2
						C110.9,16.4,112.5,16.3,113.7,16.9z"/>
					<linearGradient id="SVGID_1_" gradientUnits="userSpaceOnUse" x1="113.3834" y1="10.8274" x2="121.5491" y2="33.7703">
						<stop  offset="0" style="stop-color:#FD90DA"/>
						<stop  offset="1" style="stop-color:#8E6DFD"/>
					</linearGradient>
					<path class="st2" d="M112.5,17.5c1,0.6,1.6,1.2,2.3,2.2c0-0.2,0,0.4,0-0.5c0-0.9,0.5-3,1.3-3.7c0.8-0.7,1.9-0.8,3.1-0.1
						c1.2,0.7,2.3,2,3.2,3.6c0.8,1.6,1.3,4.2,1.3,5.2c0,0.9,0,0.3,0,0.5c0.7-0.2,1.3-0.2,2.4,0.4c1.1,0.6,2.4,2,3.2,3.6
						c0.8,1.6,1.3,3.5,1.4,5.2c0,1.8-0.5,3.1-1.3,3.8c-0.8,0.7-2,0.8-3.2,0c-2.3-1.3-4.6-2.6-6.9-3.9c-2.3-1.3-4.5-2.6-6.8-3.8
						c-1.2-0.7-2.3-2-3.1-3.6c-0.8-1.6-1.3-3.4-1.2-5.1c0-1.7,0.5-3,1.3-3.7C110.2,16.9,111.5,16.9,112.5,17.5z"/>
				</g>
				<g>
					<polygon class="st0" points="114.9,25.9 112.8,24.7 116.1,30.4 119.4,28.5 117.3,27.3 117.3,21.9 114.9,20.5 					"/>
					<polygon class="st0" points="122.2,28.3 124.3,29.5 121,23.7 117.6,25.6 119.7,26.9 119.7,32.3 122.2,33.7 					"/>
				</g>
			</g>
			<path class="st0" d="M59.3,32.7l0.5-0.9l1.7,1L61,33.7L59.3,32.7L59.3,32.7z M61.9,113.4l-1.3-0.7l-0.5,0.9l1.3,0.7L61.9,113.4
				L61.9,113.4z M59.7,112.2l-0.5,0.9l-1.7-1l0.5-0.9L59.7,112.2L59.7,112.2z M57.1,110.8l-0.5,0.9l-1.7-1l0.5-0.9L57.1,110.8
				L57.1,110.8z M54.5,109.3l-0.5,0.9l-1.7-1l0.5-0.9L54.5,109.3L54.5,109.3z M51.9,107.9l-0.5,0.9l-1.7-1l0.5-0.9L51.9,107.9
				L51.9,107.9z M49.4,106.4l-0.5,0.9l-1.7-1l0.5-0.9L49.4,106.4L49.4,106.4z M46.8,105l-0.5,0.9l-0.9-0.5c-0.3-0.2-0.6-0.4-0.9-0.7
				l0.7-0.7c0.2,0.2,0.4,0.4,0.7,0.5L46.8,105L46.8,105z M44.7,103.3c-0.3-0.5-0.5-1.1-0.7-1.6l-1,0.2c0.1,0.7,0.4,1.4,0.8,2
				L44.7,103.3L44.7,103.3z M44,100.8c0-0.6,0.2-1.3,0.3-1.9l-1-0.1c-0.1,0.6-0.2,1.3-0.3,2L44,100.8L44,100.8z M44.4,97.9l-1-0.1
				l0.3-2l1,0.1L44.4,97.9L44.4,97.9z M44.8,95l-1-0.1l0.3-2l1,0.1L44.8,95L44.8,95z M45.2,92.1l-1-0.1l0.3-2l1,0.1L45.2,92.1
				L45.2,92.1z M45.7,89.2l-1-0.1l0.3-2l1,0.1L45.7,89.2L45.7,89.2z M46.1,86.2l-1-0.1l0.3-2l1,0.1L46.1,86.2L46.1,86.2z M46.5,83.3
				l-1-0.1l0.3-2l1,0.1L46.5,83.3L46.5,83.3z M46.9,80.4l-1-0.1l0.3-2l1,0.1L46.9,80.4L46.9,80.4z M47.4,77.5l-1-0.1l0.3-2l1,0.1
				L47.4,77.5L47.4,77.5z M47.8,74.5l-1-0.1l0.3-2l1,0.1L47.8,74.5L47.8,74.5z M48.2,71.6l-1-0.1l0.3-2l1,0.1L48.2,71.6L48.2,71.6z
				 M48.7,68.7l-1-0.1l0.3-2l1,0.1L48.7,68.7L48.7,68.7z M49.1,65.8l-1-0.1l0.3-2l1,0.1L49.1,65.8L49.1,65.8z M49.5,62.8l-1-0.1
				l0.3-2l1,0.1L49.5,62.8L49.5,62.8z M49.9,59.9l-1-0.1l0.3-2l1,0.1L49.9,59.9L49.9,59.9z M50.4,57l-1-0.1l0.3-2l1,0.1L50.4,57
				L50.4,57z M50.8,54l-1-0.1l0.3-2l1,0.1L50.8,54L50.8,54z M51.2,51.1l-1-0.1l0.3-2l1,0.1L51.2,51.1L51.2,51.1z M51.7,48.2l-1-0.1
				l0.3-2l1,0.1L51.7,48.2L51.7,48.2z M52.1,45.3l-1-0.1l0.3-2l1,0.1L52.1,45.3L52.1,45.3z M52.5,42.3l-1-0.1l0.3-2l1,0.1L52.5,42.3
				L52.5,42.3z M52.9,39.4l-1-0.1l0.3-2l1,0.1L52.9,39.4L52.9,39.4z M53.4,36.5l-1-0.1l0.3-2l1,0.1L53.4,36.5L53.4,36.5z M53.8,33.6
				l-1-0.1c0.1-0.6,0.1-1.4,0.4-2l0.9,0.4C53.9,32.3,53.9,33.1,53.8,33.6L53.8,33.6z M54.6,31.1c0.4-0.3,0.9-0.4,1.4-0.2l0.3-0.9
				c-0.8-0.3-1.7-0.2-2.3,0.4L54.6,31.1L54.6,31.1z M56.7,31.3l0.5-0.9l1.7,1l-0.5,0.9L56.7,31.3z"/>
		</g>
		<path class="st3" d="M136,168.9l-59.7-33c-1.5-0.7-3.6-1.3-5.1-0.4l-3.7,2.2c-0.7,0.5-3.2,1.9-1.5,2.8
			c4.8,2.6,55.6,30.9,60.4,33.6c0.9,0.5,2.3,0.7,3.7,0.6c1.4-0.1,2.9-0.5,4-1.2l1.5-0.9c1-0.6,1.6-1.3,1.7-2
			C137.3,169.9,136.9,169.3,136,168.9z"/>
		<g>
			<g>
				<g>
					<linearGradient id="SVGID_2_" gradientUnits="userSpaceOnUse" x1="118.4139" y1="65.4746" x2="95.2806" y2="152.4024">
						<stop  offset="0" style="stop-color:#C4E0F5"/>
						<stop  offset="1" style="stop-color:#E1E8F6"/>
					</linearGradient>
					<path class="st4" d="M91.2,20.8c-0.9-0.5-1.9-0.7-2.8-0.3l-2.1,0.8c-0.8,4,43.8,149.5,44.7,150.5l1.9-0.7
						c1.2-0.5,1.9-1.8,2.1-3l15.9-108.7c0,0,0,0,0,0c0.3-1.8-0.3-3.7-1.3-5.3c-0.5-0.8-1.3-1.6-2.1-2.1L91.2,20.8z"/>
					<linearGradient id="SVGID_3_" gradientUnits="userSpaceOnUse" x1="133.9058" y1="110.6494" x2="53.9121" y2="66.1895">
						<stop  offset="0" style="stop-color:#6D6AFE"/>
						<stop  offset="1" style="stop-color:#3FB0F7"/>
					</linearGradient>
					<path class="st5" d="M145.4,52.8L89.1,21.6c-2.3-1.3-4.5-0.1-4.9,2.7L68.3,133c-0.4,2.8,1.1,6,3.4,7.3l56.3,31.3
						c2.3,1.3,4.5,0.1,4.9-2.7l15.9-108.7C149.2,57.4,147.7,54.1,145.4,52.8z"/>
				</g>
				<g>
					<path class="st6" d="M145.4,52.8L89.1,21.6c-2.3-1.3-4.5-0.1-4.9,2.7l-0.8,5.6L148,65.7l0.8-5.6
						C149.2,57.4,147.7,54.1,145.4,52.8z"/>
					<g>
						<path class="st7" d="M88.7,29.3c-0.7-0.6-1.2-1.8-1-2.8c0.2-0.9,0.9-1.2,1.7-0.6c0.7,0.6,1.2,1.8,1,2.8
							C90.1,29.6,89.4,29.9,88.7,29.3z"/>
						<path class="st7" d="M93.3,32.1c-0.7-0.6-1.2-1.8-1-2.8c0.2-0.9,0.9-1.2,1.7-0.6c0.7,0.6,1.2,1.8,1,2.8
							C94.7,32.4,94,32.7,93.3,32.1z"/>
						<path class="st7" d="M97.9,34.9c-0.7-0.6-1.2-1.8-1-2.8c0.2-0.9,0.9-1.2,1.7-0.6c0.7,0.6,1.2,1.8,1,2.8
							C99.3,35.2,98.6,35.5,97.9,34.9z"/>
					</g>
				</g>
			</g>
			<g>
				<path class="st8" d="M142,79.2c-0.2-0.1-0.5,0-0.5,0.3c0,0.3,0.1,0.7,0.4,0.8c0.3,0.1,0.5,0,0.5-0.3
					C142.4,79.7,142.3,79.4,142,79.2L142,79.2z M78,94l0.4,0.2L83,62.8l-0.4-0.2L78,94L78,94z M83,61.2c-0.2-0.1-0.5,0-0.5,0.3
					c0,0.3,0.1,0.7,0.4,0.8c0.3,0.1,0.5,0,0.5-0.3C83.5,61.7,83.3,61.3,83,61.2L83,61.2z M84.9,99.4l0.4,0.2l4.6-31.4L89.5,68
					L84.9,99.4L84.9,99.4z M90,66.6c-0.3-0.1-0.5,0-0.5,0.3c0,0.3,0.1,0.7,0.4,0.8c0.3,0.1,0.5,0,0.5-0.3
					C90.4,67.1,90.2,66.7,90,66.6L90,66.6z M93.1,95.9l0.4,0.2l4.6-31.4l-0.4-0.2L93.1,95.9L93.1,95.9z M98.2,63.1
					c-0.3-0.1-0.5,0-0.5,0.3c0,0.3,0.1,0.7,0.4,0.8c0.2,0.1,0.5,0,0.5-0.3C98.6,63.6,98.4,63.2,98.2,63.1L98.2,63.1z M101.4,92.3
					l0.4,0.2l4.6-31.4L106,61L101.4,92.3L101.4,92.3z M106.4,59.5c-0.3-0.1-0.5,0-0.5,0.3c0,0.3,0.1,0.7,0.4,0.8
					c0.3,0.1,0.5,0,0.5-0.3C106.8,60,106.7,59.7,106.4,59.5L106.4,59.5z M108.7,94.8l0.4,0.2l4.6-31.4l-0.4-0.2L108.7,94.8
					L108.7,94.8z M113.7,62c-0.3-0.1-0.5,0-0.5,0.3c0,0.3,0.1,0.7,0.4,0.8c0.3,0.1,0.5,0,0.5-0.3C114.2,62.5,114,62.1,113.7,62
					L113.7,62z M115.4,101.7l0.4,0.2l4.6-31.4l-0.4-0.2L115.4,101.7L115.4,101.7z M120.4,68.9c-0.2-0.1-0.5,0-0.5,0.3
					c0,0.3,0.1,0.7,0.4,0.8c0.3,0.1,0.5,0,0.5-0.3C120.8,69.4,120.7,69.1,120.4,68.9L120.4,68.9z M121.8,110.2l0.4,0.2l4.6-31.4
					l-0.4-0.2L121.8,110.2L121.8,110.2z M126.9,77.4c-0.3-0.1-0.5,0-0.5,0.3c0,0.3,0.1,0.7,0.4,0.8c0.3,0.1,0.5,0,0.5-0.3
					C127.3,77.9,127.1,77.5,126.9,77.4L126.9,77.4z M128.8,115.6l0.4,0.2l4.6-31.4l-0.4-0.2L128.8,115.6L128.8,115.6z M133.8,82.8
					c-0.3-0.1-0.5,0-0.5,0.3c0,0.3,0.1,0.7,0.4,0.8c0.3,0.1,0.5,0,0.5-0.3C134.2,83.3,134,82.9,133.8,82.8L133.8,82.8z M137,112
					l0.4,0.2l4.6-31.4l-0.4-0.2L137,112z"/>
				<path class="st8" d="M144.8,82.3c-0.1-0.1-0.2-0.2-0.3-0.3c-0.1-0.1-0.3-0.1-0.4,0c-1.1,0.8-2,1.5-3,2.2
					c-0.9,0.6-1.8,1.1-2.5,1.6c-3.7,2-6.3,2.1-8.9,0.7c-2.6-1.5-5-4.6-8.2-8.9c-3.6-4.9-6.8-8.2-10-10c-0.5-0.3-0.9-0.5-1.4-0.7
					c-3.7-1.5-7.4-1-11.9,1.5c-0.5,0.2-0.9,0.5-1.4,0.8c-3.5,2-6.7,3.9-10.2,1.9c-1.8-1-3.7-3-5.7-6.6c-0.1-0.1-0.2-0.2-0.3-0.3
					c-0.1-0.1-0.3-0.1-0.4,0c-0.2,0.2-0.2,0.6,0,0.9c2.3,4,4.3,6.3,6.3,7.4c3.8,2.1,7.2,0.1,10.9-2.1c0.5-0.3,0.9-0.5,1.4-0.8
					c4.3-2.4,7.8-2.9,11.3-1.5c0.4,0.2,0.9,0.4,1.3,0.6c3,1.7,6.1,4.9,9.5,9.6c3.3,4.5,5.9,7.7,8.7,9.3c0.1,0,0.1,0.1,0.2,0.1
					c2.8,1.5,5.6,1.4,9.5-0.7c0.8-0.4,1.7-1,2.6-1.6c0.9-0.6,1.9-1.4,3-2.2C144.9,83,144.9,82.6,144.8,82.3z"/>
				<path class="st9" d="M144.2,80c-0.1-0.1-0.2-0.2-0.3-0.3c-0.1-0.1-0.3-0.1-0.4,0c-1.1,0.8-2,1.6-3,2.2c-0.9,0.6-1.8,1.2-2.5,1.6
					c-3.7,2.1-6.3,2.2-8.9,0.8c-2.6-1.4-5-4.5-8.2-8.8c-3.6-4.8-6.8-8.1-10-9.8c-0.5-0.3-0.9-0.5-1.4-0.7c-3.7-1.5-7.4-0.9-11.9,1.7
					c-0.5,0.3-0.9,0.5-1.4,0.8c-3.5,2-6.7,4-10.2,2.1c-1.8-1-3.7-3-5.7-6.5c-0.1-0.1-0.2-0.2-0.3-0.3c-0.1-0.1-0.3-0.1-0.4,0
					c-0.2,0.2-0.2,0.6,0,0.9c2.3,4,4.3,6.2,6.3,7.3c3.8,2,7.2,0,10.9-2.2c0.5-0.3,0.9-0.5,1.4-0.8c4.3-2.5,7.8-3,11.3-1.7
					c0.4,0.2,0.9,0.4,1.3,0.6c3,1.6,6.1,4.8,9.5,9.4c3.3,4.5,5.9,7.7,8.7,9.2c0.1,0,0.1,0.1,0.2,0.1c2.8,1.5,5.6,1.3,9.5-0.9
					c0.8-0.5,1.7-1,2.6-1.6c0.9-0.6,1.9-1.4,3-2.2C144.3,80.7,144.3,80.3,144.2,80z"/>
				<path class="st10" d="M143.4,79.7c-1.8,1.4-3.6,2.7-5.5,3.8c-3.7,2.1-6.3,2.2-8.9,0.8c-2.6-1.4-5-4.5-8.2-8.8
					c-2.9-3.8-6.8-8.7-11.4-10.5c-4.9-2-9,0-13.3,2.5c-3.5,2-6.7,4-10.2,2.1c-1.8-1-3.7-3-5.7-6.5c-0.1-0.1-0.2-0.2-0.3-0.3
					c0.6,1.5,3.1,5.8,5.6,7.2c3.8,2,7,0.3,10.7-1.9c4.1-2.3,8.4-4.4,13.1-2.6c4.3,1.7,8.5,6.8,11.1,10.4c3.3,4.5,5.7,7.5,8.5,9.1
					c2.3,1.3,4.3,1.2,6.3,0.5C137.4,84.5,142.4,81.4,143.4,79.7z"/>
			</g>
		</g>
		<g>
			<g>
				<linearGradient id="SVGID_4_" gradientUnits="userSpaceOnUse" x1="89.9907" y1="102.6034" x2="101.4448" y2="78.9407">
					<stop  offset="0" style="stop-color:#965CF2"/>
					<stop  offset="1" style="stop-color:#FF8ADC"/>
				</linearGradient>
				<path class="st11" d="M110.7,87.6L77.6,69.3L73,100.9l33.4,18.5c2.3,1.3,4.6,0.1,5-2.8l2.8-21.6
					C114.6,92.3,113.1,88.9,110.7,87.6z"/>
				<g>
					<g>
						<path class="st12" d="M110.1,94.3l-3.2,21.8l0.4,0l1.1-0.4c1.2-0.5,1.8-1.7,1.9-2.8l2.6-19.7c0,0,0,0,0,0
							c0.2-1.7-0.3-3.5-1.2-4.9c-0.5-0.8-1.2-1.5-2-1.9L67.5,63.1c-0.8-0.5-1.7-0.6-2.6-0.3L64,63.1c-0.5,0.2-0.6,0.3-0.6,0.3
							C63.8,67.6,110.7,90.1,110.1,94.3z"/>
						<path class="st13" d="M108.6,86.8L66.5,63.5c-0.9-0.5-1.9-0.6-2.6-0.3c-1,0.4-1.7,1.4-1.9,2.8l-2.6,19.7
							c-0.4,2.6,1,5.6,3.2,6.8l42.1,23.4c2.1,1.2,4.2,0,4.6-2.5l2.6-19.7C112.2,91.1,110.7,88,108.6,86.8z"/>
					</g>
					<g>
						<path class="st14" d="M109.4,95.1l-24-13.2c-0.2-0.1-0.4-0.1-0.6-0.1c-0.2,0.1-0.4,0.3-0.5,0.7l-0.2,1
							c-0.1,0.6,0.2,1.3,0.8,1.6l24,13.2c0.5,0.3,1,0,1.1-0.6l0.2-1C110.2,96.1,109.9,95.3,109.4,95.1z"/>
						<path class="st14" d="M108.5,101l-24-13.2c-0.2-0.1-0.4-0.1-0.6-0.1c-0.2,0.1-0.4,0.3-0.5,0.7l-0.2,1C83.2,90,83.5,90.7,84,91
							l24,13.2c0.5,0.3,1,0,1.1-0.6l0.2-1C109.4,102,109,101.3,108.5,101z"/>
						<path class="st14" d="M93.2,98.8l-9.5-5.1c-0.2-0.1-0.4-0.1-0.6-0.1c-0.2,0.1-0.4,0.3-0.5,0.7l-0.2,1
							c-0.1,0.6,0.2,1.3,0.8,1.6l9.5,5.1c0.5,0.3,1,0,1.1-0.6l0.2-1C94,99.8,93.7,99.1,93.2,98.8z"/>
					</g>
					<g>
						<path class="st15" d="M62.6,75.8c-0.7,6.6,2.9,14.8,8.2,18.1c5.3,3.4,10.4-1,10.9-6c0.6-5-0.4-7.1-1.9-10.4
							c-0.9,0.5-1.8,1-2.8,1.5c1,2.1,1.6,3.5,1.2,6.7c-0.4,3.2-3.6,6-7,3.8c-3.4-2.2-5.8-7.4-5.3-11.6
							C64.9,77.2,63.7,76.5,62.6,75.8z"/>
						<path class="st16" d="M66.4,69c-2,1.1-3.4,3.4-3.8,6.7c1.1,0.7,2.3,1.5,3.4,2.2c0.2-2.1,1.1-3.6,2.4-4.3
							C67.7,72.1,67,70.6,66.4,69z"/>
						<path class="st17" d="M73.5,69.8c-2.6-1.7-5.2-1.8-7.2-0.8c0.7,1.5,1.4,3.1,2.1,4.6c1.3-0.7,2.9-0.6,4.6,0.5
							c1.7,1.1,3.1,2.9,4.1,5c0.9-0.5,1.8-1,2.8-1.5C78.4,74.3,76.2,71.5,73.5,69.8z"/>
					</g>
				</g>
			</g>
			<g>
				<linearGradient id="SVGID_5_" gradientUnits="userSpaceOnUse" x1="124.6091" y1="117.3893" x2="132.9952" y2="104.8685">
					<stop  offset="0" style="stop-color:#965CF2"/>
					<stop  offset="1" style="stop-color:#FF8ADC"/>
				</linearGradient>
				<path class="st18" d="M125,124.3c-4.9-3.9-7.8-11.9-6.5-18c1.3-6,6.2-7.8,11.1-3.9c4.9,3.9,7.8,11.9,6.5,18
					C134.8,126.4,129.9,128.2,125,124.3z"/>
				<g>
					<path class="st19" d="M119.6,102c0.9-0.9,3.1-1.4,4.3-1.5c1.4-0.1,3.1,0.5,4.7,1.8c4.2,3.5,6.7,10.7,5.6,16.1
						c-0.3,1.6-0.9,2.9-1.7,3.8c-0.8,0.8-3.2,1.9-4.4,2C121.2,125.1,117,104.7,119.6,102z"/>
					<g>
						<linearGradient id="SVGID_6_" gradientUnits="userSpaceOnUse" x1="128.1861" y1="105.4993" x2="122.9482" y2="116.9104">
							<stop  offset="0" style="stop-color:#FD90DA"/>
							<stop  offset="1" style="stop-color:#8E6DFD"/>
						</linearGradient>
						<path class="st20" d="M122.9,122.4c-4.2-3.5-6.7-10.7-5.6-16.1c1.1-5.4,5.4-7,9.6-3.5c4.2,3.5,6.7,10.7,5.6,16.1
							C131.5,124.3,127.1,125.9,122.9,122.4z"/>
						<polygon class="st0" points="129.1,109.2 130.3,110 122,117.9 118.9,109.7 120.4,110.6 122.4,113.5 						"/>
					</g>
				</g>
			</g>
			<g>
				<linearGradient id="SVGID_7_" gradientUnits="userSpaceOnUse" x1="105.6109" y1="149.1616" x2="118.2822" y2="127.2303">
					<stop  offset="0" style="stop-color:#965CF2"/>
					<stop  offset="1" style="stop-color:#FF8ADC"/>
				</linearGradient>
				<path class="st21" d="M139.4,140.5l-49.9-27.7c-0.9-0.5-1.8-0.6-2.5-0.3c-1,0.4-1.7,1.3-1.9,2.7l-3.5,24.6
					c-0.4,2.5,1,5.5,3.1,6.6l46,25.4c0.5-0.2,2.9-0.6,3.1-1.3L139.4,140.5z"/>
				<g>
					<path class="st19" d="M142.7,147.8l-3.9,25.4l0.4,0l1-0.4c0,0,0.1,0,0.1-0.1l0,0c1.1-0.4,1.6-1.5,1.8-2.6l3.3-23.4c0,0,0,0,0,0
						c0.2-1.6-0.2-3.2-1.1-4.5c-0.5-0.7-1.1-1.4-1.8-1.8L92,112.5c-0.7-0.4-1.6-0.6-2.4-0.3l-0.9,0.3c-0.1,0-0.2,0.1-0.2,0.1
						c-0.4,0.1-0.5,0.3-0.5,0.3C88.4,116.8,143.2,144,142.7,147.8z"/>
					<linearGradient id="SVGID_8_" gradientUnits="userSpaceOnUse" x1="116.569" y1="152.9807" x2="106.022" y2="115.5294">
						<stop  offset="0" style="stop-color:#1C8EF4"/>
						<stop  offset="0.9951" style="stop-color:#00CFDD"/>
					</linearGradient>
					<path class="st22" d="M141.3,140.9L90.8,113c-0.9-0.5-1.7-0.5-2.4-0.3c-0.9,0.4-1.6,1.3-1.8,2.6l-3.3,23.4
						c-0.3,2.4,1,5.2,2.9,6.3l50.5,27.9c2,1.1,3.9,0,4.2-2.3l3.3-23.4C144.6,144.8,143.2,142,141.3,140.9z"/>
					<path class="st19" d="M86.2,130.7c0.6-3.3,1.9-4.4,3.5-4c0.3,0.1,0.5,0.2,0.8,0.3c1.6,0.9,3.3,3.3,3.5,7.3
						c0.2,2.5,0.6,4.9,2.8,6.1c5.6,3,3.6-14.7,8.9-11.7c4.6,2.6,1.8,12,3.6,17.9c0.6,2.1,1.7,3,2.5,3.5c3.2,1.7,3.6-3.7,4-6
						c1.9-10.5,3.2-11.1,5.1-10c2,1.2,3,2,2.6,13c-0.2,4.5,0,8.5,3.2,10.4c3.5,2,3.8-2.1,5.4-4.1c0.9-1.2,2.1-1.4,3.2-0.8
						c1.2,0.7,2.3,2.4,2.7,5c0.8,4.4,0.4,10.5,0.2,12.6l-53.2-30.1C85.4,137,85.7,133.5,86.2,130.7z"/>
				</g>
			</g>
			<g>
				<linearGradient id="SVGID_9_" gradientUnits="userSpaceOnUse" x1="72.0643" y1="103.8798" x2="76.7676" y2="127.7481">
					<stop  offset="0" style="stop-color:#FD70CB"/>
					<stop  offset="1" style="stop-color:#6E4DFD"/>
				</linearGradient>
				<path class="st23" d="M80.4,112l-8.3-4.5l-3.6,24.5l8.4,4.6c2.3,1.3,4.6,0.1,5-2.8l2-14.3C84.2,116.6,82.7,113.3,80.4,112z"/>
				<g>
					<g>
						<path class="st19" d="M79.8,118.6l-2.5,15.2l0.4,0l1.1-0.4c1.2-0.5,1.8-1.7,1.9-2.8l1.8-13.1c0,0,0,0,0,0
							c0.2-1.7-0.3-3.5-1.2-4.9c-0.5-0.8-1.2-1.5-2-1.9l-16.1-8.9c-0.8-0.5-1.7-0.6-2.6-0.3l-0.9,0.4c-0.5,0.2-0.6,0.3-0.6,0.3
							C59.5,106.3,80.4,114.4,79.8,118.6z"/>
						<path class="st0" d="M78.3,111.1l-16.1-8.9c-0.9-0.5-1.9-0.6-2.6-0.3c-1,0.4-1.7,1.4-1.9,2.8l-1.8,13.1
							c-0.4,2.6,1,5.6,3.2,6.8l16.1,8.9c2.1,1.2,4.2,0,4.6-2.5l1.8-13.1C81.8,115.3,80.4,112.3,78.3,111.1z"/>
					</g>
					<linearGradient id="SVGID_10_" gradientUnits="userSpaceOnUse" x1="66.8609" y1="123.2149" x2="69.6378" y2="113.7221">
						<stop  offset="0" style="stop-color:#6D6AFE"/>
						<stop  offset="1" style="stop-color:#3FB0F7"/>
					</linearGradient>
					<path class="st24" d="M75.5,115.9c-0.2,1.1-1,1.6-2,1.1c-0.9-0.5-1.5-1.8-1.4-3c0.2-1.1,1-1.6,2-1.1
						C75,113.5,75.6,114.8,75.5,115.9L75.5,115.9z M70.4,125.8c0.2-1.1,1-1.6,2-1.1c0.9,0.5,1.5,1.8,1.4,2.9c-0.2,1.1-1,1.6-2,1.1
						C70.8,128.3,70.2,126.9,70.4,125.8L70.4,125.8z M64.6,116.3c-0.2,1.1-1.1,1.6-2,1.1c-0.9-0.5-1.5-1.8-1.4-2.9
						c0.2-1.1,1-1.6,2-1.1C64.2,113.8,64.8,115.1,64.6,116.3L64.6,116.3z M74.3,111.5c-1.6-0.9-3.1-0.1-3.4,1.8l0,0.1l-5.5,0.9
						c-0.4-1.1-1.1-2-2-2.5c-1.6-0.9-3.1,0-3.3,1.9c-0.3,1.9,0.8,4.1,2.3,5c0.9,0.5,1.8,0.4,2.4-0.1l4.4,6.4l0,0.1
						c-0.3,1.9,0.8,4.1,2.4,5c1.6,0.9,3.1,0,3.3-1.9c0.3-1.9-0.8-4.1-2.3-5c-1.1-0.6-2.2-0.4-2.8,0.5l-4.2-6.1
						c0.1-0.2,0.2-0.5,0.2-0.8c0-0.3,0.1-0.6,0-0.9l5.2-0.9c0.3,1.4,1.2,2.7,2.3,3.3c1.6,0.9,3.1,0,3.3-1.9
						C76.9,114.6,75.9,112.4,74.3,111.5z"/>
				</g>
			</g>
			<g>
				<linearGradient id="SVGID_11_" gradientUnits="userSpaceOnUse" x1="138.2353" y1="69.0201" x2="145.3083" y2="48.6433">
					<stop  offset="0" style="stop-color:#965CF2"/>
					<stop  offset="1" style="stop-color:#FF8ADC"/>
				</linearGradient>
				<path class="st25" d="M153.2,54.5L135,45.1l-1.9,0.9l-2.7,19.4c-0.4,2.7,1.1,5.9,3.3,7.1l12.3,6.7l2.1-0.8L153.2,54.5z"/>
				<g>
					<path class="st19" d="M164.2,52l-4.7,31.2l0.4,0l1.1-0.4c1.2-0.5,1.8-1.7,2-2.9l4-29c0,0,0,0,0,0c0.3-1.8-0.3-3.6-1.3-5.1
						c-0.5-0.8-1.2-1.5-2.1-2L142.3,32c-0.8-0.5-1.8-0.7-2.7-0.3l-1,0.4c-0.5,0.2-0.6,0.3-0.6,0.4C138.4,36.7,164.9,47.7,164.2,52z"
						/>
					<path class="st0" d="M162.6,44.2l-21.5-11.8c-1-0.5-1.9-0.6-2.7-0.3c-1,0.4-1.8,1.4-2,2.9l-4,29c-0.4,2.7,1.1,5.9,3.3,7.1
						L157.2,83c2.2,1.2,4.4,0.1,4.8-2.6l4-29C166.4,48.7,164.9,45.5,162.6,44.2z"/>
					<linearGradient id="SVGID_12_" gradientUnits="userSpaceOnUse" x1="152.3556" y1="44.0251" x2="146.6551" y2="65.9028">
						<stop  offset="0" style="stop-color:#6D6AFE"/>
						<stop  offset="1" style="stop-color:#3FB0F7"/>
					</linearGradient>
					<path class="st26" d="M162.6,44.2l-21.5-11.8c-1-0.5-1.9-0.6-2.7-0.3c-1,0.4-1.8,1.4-2,2.9l-3.2,23.1l29.6,16.2l3.2-23.1
						C166.4,48.7,164.9,45.5,162.6,44.2z"/>
					<g>
						<path class="st27" d="M135.5,62.1c0.1-0.5,0.5-0.8,0.9-0.5l9.7,5.3c0.4,0.2,0.7,0.9,0.6,1.4l-0.1,1.1
							c-0.1,0.5-0.5,0.8-0.9,0.5l-9.7-5.3c-0.4-0.2-0.7-0.9-0.6-1.4L135.5,62.1z"/>
						<path class="st27" d="M134.9,66.8c0.1-0.5,0.4-0.7,0.8-0.5c5.5,3,14.5,7.9,20,10.9c0.4,0.2,0.6,0.8,0.6,1.3l-0.1,0.9
							c-0.1,0.5-0.4,0.7-0.8,0.5c-5.5-3-14.5-7.9-20-10.9c-0.4-0.2-0.6-0.8-0.6-1.3L134.9,66.8z"/>
					</g>
					<path class="st28" d="M159.3,50.4l-2.5,18.7l4.8,2.7l2.5-18.7L159.3,50.4L159.3,50.4z M145.6,36.6l-3.4,25.1l4.8,2.7l3.4-25.1
						L145.6,36.6L145.6,36.6z M152.3,44.9l4.8,2.7l-2.8,20.8l-4.8-2.7L152.3,44.9L152.3,44.9z M137.6,38.9l4.8,2.7l-2.5,18.7
						l-4.8-2.7L137.6,38.9z"/>
					<g>
						<path class="st29" d="M136.5,46.2c-0.1-0.1-0.1-0.3,0.1-0.5c0.2-0.1,0.4-0.1,0.6,0l4.3,4.3l2.3,0.9l5.3-1.4l3.6-3.7
							c0.2-0.2,0.4-0.2,0.6-0.1c0,0,0.1,0,0.1,0.1l6.3,7.4l4.3,0.8c0.2,0,0.4,0.1,0.4,0.3c0,0.2-0.2,0.4-0.4,0.4l-4.5-0.8
							c-0.1,0-0.2,0-0.3-0.1l-6.1-7.2l-3.3,3.4l0,0c-0.1,0.1-0.1,0.1-0.2,0.1l-5.5,1.5c-0.1,0-0.2,0-0.3,0l-2.4-0.9
							c-0.1,0-0.1,0-0.1-0.1L136.5,46.2z"/>
						<path class="st0" d="M136.5,46.3c-0.1-0.2-0.1-0.4,0.1-0.6c0.2-0.2,0.4-0.2,0.6,0l4.2,5.1l2.2,1l5.3-1.6l3.6-4.2
							c0.2-0.2,0.4-0.2,0.6-0.1c0,0,0.1,0.1,0.1,0.1l5.7,8.5l4.9-0.5c0.2,0,0.4,0.1,0.4,0.4c0,0.2-0.2,0.4-0.4,0.4l-5.1,0.5
							c-0.1,0-0.2,0-0.3-0.1l-5.6-8.3l-3.4,3.9l0,0c-0.1,0.1-0.1,0.1-0.2,0.2l-5.6,1.7c-0.1,0-0.2,0-0.3,0l-2.4-1.1
							c0,0-0.1,0-0.1-0.1L136.5,46.3z"/>
					</g>
				</g>
			</g>
			<g>
				<linearGradient id="SVGID_13_" gradientUnits="userSpaceOnUse" x1="87.1394" y1="58.6607" x2="84.6199" y2="35.1903">
					<stop  offset="0" style="stop-color:#965CF2"/>
					<stop  offset="1" style="stop-color:#FF8ADC"/>
				</linearGradient>
				<path class="st30" d="M82.2,35.9l9.1,4.2c2.2,1.3,2.8,5.3,2.5,8l-1.8,13.6c-0.4,2.7-2.4,3.9-4.6,2.6l-8.2-5l0.3-2.3L82.2,35.9z"
					/>
				<g>
					<path class="st19" d="M59.4,25.8c0.1-0.9-0.1-1.5,0.3-2c0.3-0.3,1.2-0.8,1.6-0.9c0.7-0.3,1.6-0.2,2.5,0.3l26,15.2
						c2.1,1.2,3.5,4.3,3.2,6.9l-1.8,13.1C91,59.4,90.7,60.4,90,61c-0.5,0.4-1.3,0.9-1.9,0.9c-0.6,0.1-0.8-0.5-1.4-0.8l-26-15.2
						c-2.1-1.2-3.5-4.3-3.2-6.9L59.4,25.8z"/>
					<path class="st0" d="M58.7,26.3c0.3-2.6,2.3-3.8,4.4-2.5l26,15.2c2.1,1.2,3.5,4.3,3.2,6.9L90.4,59c-0.3,2.6-2.3,3.8-4.4,2.5
						L60,46.3c-2.1-1.2-3.5-4.3-3.2-6.9L58.7,26.3z"/>
					<linearGradient id="SVGID_14_" gradientUnits="userSpaceOnUse" x1="75.1846" y1="38.0651" x2="76.3241" y2="28.8941">
						<stop  offset="0" style="stop-color:#6D6AFE"/>
						<stop  offset="1" style="stop-color:#3FB0F7"/>
					</linearGradient>
					<path class="st31" d="M58.7,26.3c0.3-2.6,2.3-3.8,4.4-2.5l26,15.2c2.1,1.2,3.5,4.3,3.2,6.9l-0.2,1.2c-0.2-0.2-0.5-0.3-0.7-0.5
						L58.5,27.4L58.7,26.3z"/>
					<g>
						<path class="st32" d="M63.2,34.3c2.6,0.6,4.7,3.8,4.5,7c-0.1,3.3-2.4,5.5-5,4.8c-2.6-0.6-4.7-3.8-4.5-7
							C58.3,35.9,60.6,33.7,63.2,34.3z"/>
						<linearGradient id="SVGID_15_" gradientUnits="userSpaceOnUse" x1="62.4271" y1="42.6853" x2="63.7121" y2="37.1358">
							<stop  offset="0" style="stop-color:#6D6AFE"/>
							<stop  offset="1" style="stop-color:#3FB0F7"/>
						</linearGradient>
						<path class="st33" d="M63.1,37c1.4,0.3,2.5,2,2.4,3.8c-0.1,1.8-1.3,2.9-2.7,2.6c-1.4-0.3-2.5-2-2.4-3.8
							C60.5,37.9,61.7,36.7,63.1,37L63.1,37z M63.1,38.5c-0.8-0.2-1.4,0.4-1.4,1.4c0,0.9,0.5,1.8,1.3,2c0.8,0.2,1.4-0.4,1.4-1.4
							C64.4,39.6,63.8,38.7,63.1,38.5z"/>
						<path class="st32" d="M69.4,40.6c0.1-0.7,0.6-1,1.2-0.7l17,9.6c0.6,0.3,0.9,1.2,0.8,1.9l-0.2,1.4c-0.1,0.7-0.6,1-1.2,0.7
							l-17-9.6c-0.6-0.3-0.9-1.2-0.8-1.9L69.4,40.6z"/>
						<path class="st32" d="M68.7,45.7c0.1-0.4,0.4-0.6,0.7-0.4l10,5.7c0.3,0.2,0.6,0.7,0.5,1.1l-0.1,0.8c-0.1,0.4-0.4,0.6-0.7,0.4
							l-10-5.7c-0.3-0.2-0.6-0.7-0.5-1.1L68.7,45.7z"/>
					</g>
					<g>
						<path class="st0" d="M61.5,25.1c0.6,0.1,1,0.8,1,1.5c0,0.7-0.5,1.2-1.1,1.1c-0.6-0.1-1-0.8-1-1.5C60.4,25.5,60.9,25,61.5,25.1
							z"/>
						<path class="st0" d="M64.1,26.6c0.6,0.1,1,0.8,1,1.5c0,0.7-0.5,1.2-1.1,1.1c-0.6-0.1-1-0.8-1-1.5C63.1,27,63.5,26.5,64.1,26.6
							z"/>
						<path class="st0" d="M67,28.3c0.6,0.1,1,0.8,1,1.5c0,0.7-0.5,1.2-1.1,1.1c-0.6-0.1-1-0.8-1-1.5C65.9,28.6,66.4,28.1,67,28.3z"
							/>
					</g>
				</g>
			</g>
		</g>
	</g>
	<g>
		<g>
			<path class="st3" d="M21,153.9l18.8-10.7c2-0.9,5-1.7,7.1-0.6c1.9,1,5,3,6.4,3.8c1.1,0.6,4.7,2.8,2.4,4
				c-6.7,3.6-13.3,7.7-20.1,11.4c-1.3,0.7-3.2,1-5.1,0.8c-2-0.2-4-0.7-5.6-1.7c-1.1-0.7-2.2-1.3-3.3-1.9c-1.5-0.9-2.3-1.9-2.3-2.8
				C19.1,155.3,19.7,154.5,21,153.9z"/>
			<g>
				<g>
					<g>
						<path class="st34" d="M65.7,85.9c-0.2,0-0.3-0.1-0.4-0.1c0.2,0,0.3,0,0.4-0.1c0.7-0.4,1-0.6,1.8-1.1c-0.5-1.1-1.9,0-2.1,0.1
							c-0.1,0-0.8-0.1-1.5-0.1c-1,0-1.6,0.2-2.2,0.9c-0.3,0.2-0.7,0.5-1,0.8c0.1,0.9,0.2,1.7,0.8,2.5c0.2-0.1,0.4-0.1,0.5-0.1
							c0.7-0.1,1.3,0.1,2.9,0.6c1.5,0.5,1.8,0.5,4.2-1.2c1.7-1.3,2.7-2,2.4-2.9C70.6,82.9,67.9,85.6,65.7,85.9z"/>
						<g>
							<linearGradient id="SVGID_16_" gradientUnits="userSpaceOnUse" x1="66.0291" y1="85.8521" x2="66.3517" y2="89.2658">
								<stop  offset="0" style="stop-color:#FF8A78"/>
								<stop  offset="1" style="stop-color:#FFA799"/>
							</linearGradient>
							<path class="st35" d="M65.5,88.2c-1.5-0.2-2.5-1.5-3.7-0.7c-0.3,0.2-0.6,0.4-0.8,0.5c0.1,0.2,0.2,0.5,0.4,0.7
								c0.2-0.1,0.4-0.1,0.5-0.1c0.7-0.1,1.3,0.1,2.9,0.6c1.5,0.5,1.8,0.5,4.2-1.2c1.2-0.8,2-1.4,2.3-2c0.2-0.3-0.3-0.6-0.7-0.3
								C68.7,86.9,67.7,87.9,65.5,88.2z"/>
							<linearGradient id="SVGID_17_" gradientUnits="userSpaceOnUse" x1="66.2973" y1="85.6142" x2="66.5634" y2="88.4305">
								<stop  offset="0" style="stop-color:#FF8A78"/>
								<stop  offset="1" style="stop-color:#FFA799"/>
							</linearGradient>
							<path class="st36" d="M70.8,85c-0.6,0.5-4.1,2.1-4.9,1.9c-0.2,0-0.2-0.5-0.2-1c-0.2,0.3,0,1.1-0.3,0.9
								c-1.8-0.9-2.6-1.1-3.7-0.4c0.7-0.2,1.4-0.1,2.1,0.2c0.6,0.2,1.2,0.6,1.9,0.8C67.6,86.9,68.6,86.7,70.8,85z"/>
						</g>
					</g>
					<g>
						<linearGradient id="SVGID_18_" gradientUnits="userSpaceOnUse" x1="48.6821" y1="79.2462" x2="53.1783" y2="91.3445">
							<stop  offset="0" style="stop-color:#6D6AFE"/>
							<stop  offset="1" style="stop-color:#3FB0F7"/>
						</linearGradient>
						<path class="st37" d="M46.4,94.5c-0.4-0.4-0.7-0.7-1-1c-1.9-1.7-4.9-7.3-6.6-15.6c0.6-0.5,2.5-1,2.8-1c1.4-0.3,2.7,0.5,3.1,1
							c0.8,0.9,1.6,2.6,2,5.2c0.3,1.8,1.7,4.2,2.6,6.4c0,0.1,0.1,0.2,0.1,0.3c1.5-0.8,3.1-1.5,4-1.8c1.8-0.7,3.8-1.4,6-2
							c0.3-0.1,0.5,0.1,0.8,0c0.1-0.1,0.8-0.3,0.9-0.3c0,1.3,0.4,2.4,1.1,3.2c-0.1,0-0.8,0.4-1,0.4c-0.2,0.1-0.5,0.4-0.6,0.6
							c-1.7,1.7-6.5,4.3-10.9,5.6C48.1,95.9,47,95.6,46.4,94.5z"/>
						<path class="st38" d="M46.4,94.5c-0.4-0.4-0.7-0.7-1-1c-1.9-1.7-4.9-7.3-6.6-15.6c3.7-3,7.2,2,7.8,5.3c0.8,4.3,1.6,8,1.6,12.5
							C47.4,95.6,46.8,95.2,46.4,94.5z"/>
					</g>
				</g>
				<g>
					<path class="st39" d="M29.3,148.4c-0.1,0.4,0,0.7-0.2,1.2c-0.2,0.5-0.4,1-0.6,1.9c-0.3,1.3,0.1,3.1-0.3,4.9
						c-0.2,0.7-0.2,1.3,0.3,2C29,159,29.9,160,31,160c0.3,0,0.8-0.1,1.2-0.6c0.4-0.5,0.8-1.3,0.7-2.2c0-0.4-0.2-1.5-0.2-2.5
						c0-0.9,0.2-1.4,0.2-2.4c0-1-0.1-2.5-0.1-3.2L29.3,148.4z"/>
					<path class="st39" d="M39.7,143.1c-0.3,0.9-0.6,1.3-0.6,2.6c0.2,0.7,0.7,1,1.2,1.4l0.4,0.1c0.9,0.5,1.3,2.3,2.2,3.1
						c0.6,0.6,1.8,0.9,3.1,1.1c1.3,0.3,2.5-0.1,2.2-1.1c-0.8-2.5-4.5-5.4-4.6-8.2L39.7,143.1z"/>
					<linearGradient id="SVGID_19_" gradientUnits="userSpaceOnUse" x1="44.64" y1="110.6523" x2="37.2764" y2="134.4415">
						<stop  offset="0" style="stop-color:#235DA3"/>
						<stop  offset="1" style="stop-color:#123A76"/>
					</linearGradient>
					<path class="st40" d="M45.2,125c-0.1,4.9-1.2,14-1,18.8c-1.2,1.2-3.7,0.9-4.5-0.4c-0.5-4.4-1.1-10.7-1.2-13.1
						c0-2,0.1-3.9,0.6-5.7c-0.7-5.3-3.8-12.6-3.1-17.6c0.3-2.2,1.8-4.6,2.2-6.4c3.6,4.5,6.4,2.3,7.9,1.9c0,1.5,0.1,1.3,0.1,3
						c-0.2,5.5-0.4,11.3-0.7,17C45.5,123.4,45.4,124.3,45.2,125z"/>
					<path class="st41" d="M38.8,134.8c-0.2-1.9-0.3-3.6-0.3-4.6c0-2,0.1-3.9,0.6-5.7c-0.7-5.3-3.8-12.6-3.1-17.6
						c0.3-2.2,1.8-4.6,2.2-6.4c3.6,4.5,6.4,2.3,7.9,1.9c0,0.2,0,0.3,0,0.5l-4.7,3.5l1.2-0.3c0,6.3-0.8,12.1-0.9,18.3
						c-1.2,3.5-1.9,6.6-2.8,10.2L38.8,134.8z"/>
					<linearGradient id="SVGID_20_" gradientUnits="userSpaceOnUse" x1="40.3777" y1="112.0988" x2="26.7221" y2="139.6125">
						<stop  offset="0" style="stop-color:#235DA3"/>
						<stop  offset="1" style="stop-color:#123A76"/>
					</linearGradient>
					<path class="st42" d="M37.1,128.5c-0.9,4.9-3.4,16.7-4,21.5c-1.6,0.9-3.6,0.4-4.1-0.9c0-4.4,0-12.3,0.3-14.8
						c0.3-2,1-5.1,1.8-6.9C30.8,116.1,29.5,113,31,108c0.7-2.2,2.4-4.3,3.1-6.1c1,1.5,2.5,3.6,5.7,3.4c0.3,0,3-1.9,3.9-2.2
						c-1.1,6.8-4.4,15.6-5.9,23C37.7,126.9,37.5,127.8,37.1,128.5z"/>
				</g>
				<linearGradient id="SVGID_21_" gradientUnits="userSpaceOnUse" x1="36.3154" y1="82.4023" x2="40.5873" y2="104.2956">
					<stop  offset="0" style="stop-color:#6D6AFE"/>
					<stop  offset="1" style="stop-color:#3FB0F7"/>
				</linearGradient>
				<path class="st43" d="M42.1,76.7c0.4,0,0.7,0.2,1,0.3c2.4,1.3,3.2,5.2,3.6,8.7c0.3,3,0.1,5.4,0,8.2c-0.1,2.2,0.2,4.2,0.1,6.2
					c0,0.6-0.3,1.3-0.3,1.9c0,0.5-0.2,0.9-0.2,1.3c-1.2,4.6-12.5,4.9-14.2,1.9c0.1-0.5,0.2-0.9,0.3-1.4c-1.1-1-0.5-3.3-0.6-5
					c-0.1-1.2-0.3-2.5-0.7-3.4c-1.5-3.8-3.7-6.7-4.1-9.6c-0.3-2,2.3-4.5,5.6-6.5C36,77.3,40.4,76.2,42.1,76.7z"/>
				<g>
					<g>
						<g>
							<path class="st44" d="M46.7,85.8c-1.2,1.2-8.6,8.3-16.8,6.5l0.1-0.6c8.6,1.9,16.4-6.5,16.5-6.5l0.2,0.2c0,0.1,0,0.2,0,0.3
								C46.7,85.7,46.7,85.8,46.7,85.8z"/>
							<path class="st44" d="M46.9,90.2c-2,1.9-8.3,7.2-15.4,6.1c0-0.2-0.1-0.4-0.2-0.6c7.5,1.2,14.2-5.1,15.6-6.4
								C46.9,89.6,46.9,89.9,46.9,90.2z"/>
						</g>
						<path class="st44" d="M31.1,95.2l1.5-3l2,3.3l1.7-4l2.3,3.1l1.2-4.3l2.4,2.6l1.1-4.9l1.8,2.7l1.5-5.8c0,0.2,0.1,0.5,0.1,0.7
							c0,0.1,0,0.2,0,0.2l-1.5,5.6l-1.8-2.7l-1.1,4.8L39.9,91l-1.2,4.4l-2.4-3.2l-1.7,4.1l-2-3.3l-1.3,2.8c0-0.1-0.1-0.2-0.1-0.4
							C31.2,95.3,31.2,95.3,31.1,95.2z"/>
						<g>
							<path class="st44" d="M32.7,94.7c0.2,0,0.3,0.2,0.3,0.3c0,0.2-0.1,0.3-0.3,0.3c-0.2,0-0.3-0.2-0.3-0.3
								C32.5,94.8,32.6,94.7,32.7,94.7z"/>
							<path class="st44" d="M34.5,93c0.2,0,0.3,0.2,0.3,0.3c0,0.2-0.1,0.3-0.3,0.3c-0.2,0-0.3-0.2-0.3-0.3
								C34.2,93.1,34.3,92.9,34.5,93z"/>
							<path class="st44" d="M36.5,94.3c0.2,0,0.3,0.2,0.3,0.3c0,0.2-0.1,0.3-0.3,0.3c-0.2,0-0.3-0.2-0.3-0.3
								C36.2,94.4,36.3,94.2,36.5,94.3z"/>
							<path class="st44" d="M38.2,92c0.2,0,0.3,0.2,0.3,0.3c0,0.2-0.1,0.3-0.3,0.3c-0.2,0-0.3-0.2-0.3-0.3
								C37.9,92.1,38.1,92,38.2,92z"/>
							<path class="st44" d="M40.4,92.8c0.2,0,0.3,0.2,0.3,0.3c0,0.2-0.1,0.3-0.3,0.3c-0.2,0-0.3-0.2-0.3-0.3
								C40.1,93,40.2,92.8,40.4,92.8z"/>
							<path class="st44" d="M41.7,90.3c0.2,0,0.3,0.2,0.3,0.3c0,0.2-0.1,0.3-0.3,0.3c-0.2,0-0.3-0.2-0.3-0.3
								C41.4,90.4,41.5,90.3,41.7,90.3z"/>
							<path class="st44" d="M43.8,90.9c0.2,0,0.3,0.2,0.3,0.3c0,0.2-0.1,0.3-0.3,0.3c-0.2,0-0.3-0.2-0.3-0.3S43.7,90.8,43.8,90.9z"
								/>
							<path class="st44" d="M45,88.1c0.2,0,0.3,0.2,0.3,0.3c0,0.2-0.1,0.3-0.3,0.3c-0.2,0-0.3-0.2-0.3-0.3
								C44.7,88.2,44.8,88.1,45,88.1z"/>
							<path class="st44" d="M46.8,88.4C46.9,88.4,46.9,88.4,46.8,88.4c0.1,0.2,0.1,0.4,0.1,0.6c0,0,0,0-0.1,0
								c-0.2,0-0.3-0.2-0.3-0.3C46.5,88.5,46.7,88.4,46.8,88.4z"/>
							<path class="st44" d="M30.8,93c0.2,0,0.3,0.2,0.3,0.3c0,0.2-0.1,0.3-0.3,0.3c-0.2,0-0.3-0.2-0.3-0.3
								C30.5,93.1,30.7,93,30.8,93z"/>
						</g>
					</g>
					<path class="st38" d="M32.6,87.3c0.4,2.3-0.1,6.3-1.3,8.4c-0.6-1.4-1-2.5-1.8-3.8C29.6,91.7,32.1,84.4,32.6,87.3z"/>
				</g>
				<g>
					<linearGradient id="SVGID_22_" gradientUnits="userSpaceOnUse" x1="33.5497" y1="109.5936" x2="34.5094" y2="107.9229">
						<stop  offset="0" style="stop-color:#FF8A78"/>
						<stop  offset="1" style="stop-color:#FFA799"/>
					</linearGradient>
					<path class="st45" d="M31.8,104.9c0.5,0.3,1.5,0.5,1.8,0.7c0.2,0.1,1.6,0.9,2.4,1.3c0.9,0.5,1.1,1.3,1.7,2.1
						c0.4,0.7,0.6,1.2,0.7,1.6c0.1,0.4-0.8,1.2-1.2,1.1c-0.9-0.1-1.9-1.2-2.2-1.3c-2.1-0.9-3.1-1-3.9-1.8c-0.3-0.3-0.6-1.4-1.3-2.3
						l1.2-1.2L31.8,104.9z"/>
					<linearGradient id="SVGID_23_" gradientUnits="userSpaceOnUse" x1="26.3732" y1="86.8587" x2="28.9014" y2="105.3548">
						<stop  offset="0" style="stop-color:#6D6AFE"/>
						<stop  offset="1" style="stop-color:#3FB0F7"/>
					</linearGradient>
					<path class="st46" d="M26.9,84.3c-1.9,3-3.3,8.5-4.9,12.3c-0.1,0.3-0.2,0.5-0.2,0.8c-0.3,0.9,0.2,1.7,0.8,2.5
						c1.6,2,2.8,3.8,6.1,6.2c0.2,0.2,0.5,0.2,0.8,0.3c0.2,0.1,0.5,0.4,0.7,0.6c-0.3-0.3,1.1-2.1,1.8-2c-0.2-0.2-0.4-0.4-0.6-0.7
						c0-0.3-0.1-0.5-0.2-0.8c-0.6-1.1-2.5-3.8-4.3-5.7c0.8-1,1.4-2.1,1.9-2.9c0.9-1.4,1.8-2.9,2.5-4.3c0.3-0.6,0.5-0.9,0.7-1.4
						C34.2,84.8,29.2,80.7,26.9,84.3z"/>
				</g>
				<g>
					<g>
						<path class="st34" d="M40.5,78.9c0-0.2,0.1-0.4,0.1-0.6c0.1-0.6,0-1.6,0.1-2.9l-4.8-2c-0.1,2.7-0.5,3.3-1,5.5
							c0.1,2.2,5.5,3.2,5.6,0.6C40.4,79.3,40.5,79.1,40.5,78.9z"/>
						<linearGradient id="SVGID_24_" gradientUnits="userSpaceOnUse" x1="38.5268" y1="76.0216" x2="37.2693" y2="77.4322">
							<stop  offset="0" style="stop-color:#FF8A78"/>
							<stop  offset="1" style="stop-color:#FFA799"/>
						</linearGradient>
						<path class="st47" d="M40.5,78.9c0-0.2,0.1-0.4,0.1-0.6c0.1-0.6,0-1.6,0.1-2.9l-4.8-2c0,0.6-0.1,1.1-0.1,1.6
							c-0.2,1.8,1.6,4.9,4.7,4.5C40.4,79.3,40.5,79.1,40.5,78.9z"/>
						<path class="st34" d="M40.8,78.8c-0.6-0.4-2.2-1.4-2.8-1.8c-1.2-0.9-1-1.9-1.4-3.7c-1.1-0.8-1.5-1.4-1.6-2.1
							c-0.2-1.7,0.7-3.4,2-4.4c1.1-0.9,2.4-1.1,3.8-0.8c2.8,0.6,3.9,2.7,4.1,5.1c0,0.2,0,0.4-0.1,0.6c-0.2,0.5-0.2,0.6-0.3,0.9
							c-0.1,0.7,0.3,1,0.1,1.9c-0.3,1.2-1.3,3.6-1.7,4C42.8,78.8,41.4,78.9,40.8,78.8z"/>
						<linearGradient id="SVGID_25_" gradientUnits="userSpaceOnUse" x1="42.761" y1="71.8744" x2="41.2011" y2="75.7243">
							<stop  offset="0" style="stop-color:#FFB89E"/>
							<stop  offset="1" style="stop-color:#FFA799"/>
						</linearGradient>
						<path class="st48" d="M44.8,70.2c0.1,0.3,0.1,0.7,0.1,1c0,0.2,0,0.4-0.1,0.6c-0.2,0.5-0.2,0.6-0.3,0.9c-0.1,0.7,0.3,1,0.1,1.9
							c-0.1,0.6-0.4,1.4-0.8,2.2c-1.8,1.4-3.4-0.3-3.6-0.6c-1.1-1.4-1.2-3.6-0.4-5.6C41.4,71,43.5,70.9,44.8,70.2z"/>
						<path class="st49" d="M34.3,70.5c0.1,0.9,0.8,3.3,1.3,4.2c0.6,0.9,0.3-0.2,0.6-0.8c0.2-0.5,1-0.5,1.2-1c0.1,0.4,0.3,0.8,0.5,1
							c0.2,0.1,0.5,0.2,0.5-0.3c0-1.7,0.9-1.8,0.6-2.8c-0.2-0.8-0.1-1.1,0-1.4c0.6,0.1,0.9,0.6,1.6,0.9c0.5,0.2,2.5,0.4,3.9-0.4
							c1.4-0.8,1.5-2.4,0.3-3.5c-0.6-0.6-1.4-0.8-2.4-1.4c-1.9-1.3-4.3-0.8-5.6,0.6C34.4,66,34.2,68.4,34.3,70.5z"/>
						<path class="st34" d="M37,71.9c-1-0.5-1.2,0.8-1.1,1.6c0.1,0.5,0.5,0.5,0.6,1c0.1,0.5,0.5,0.8,0.8,0.8c0.7,0,0.3-1,0.3-1.4
							C37.8,73.3,37.7,72.2,37,71.9z"/>
					</g>
					<linearGradient id="SVGID_26_" gradientUnits="userSpaceOnUse" x1="43.5366" y1="68.9554" x2="42.3868" y2="67.8531">
						<stop  offset="0" style="stop-color:#8A4791"/>
						<stop  offset="1" style="stop-color:#562E65"/>
					</linearGradient>
					<path class="st50" d="M39.9,68.5c-0.1,0.7,0.8,1.6,2.1,1.6c1.2,0.1,2.8-0.2,3.4-1.7c0.2-0.5,0-1.4-0.6-1.8
						c-0.4-0.3-0.9-0.2-1.4,0c-0.9,0.4-1.6,1.4-2.3,1.6C40.5,68.5,39.9,68.4,39.9,68.5z"/>
				</g>
			</g>
		</g>
		<g>
			<g>
				<linearGradient id="SVGID_27_" gradientUnits="userSpaceOnUse" x1="165.9162" y1="97.8025" x2="160.248" y2="108.6998">
					<stop  offset="0" style="stop-color:#5A2D68"/>
					<stop  offset="1" style="stop-color:#22043D"/>
				</linearGradient>
				<path class="st51" d="M156.1,85.6c-1.6-0.2-2.8,0.8-3.5,2.3c-0.7,1.7-0.7,3.9-0.4,5c1,3.7-0.8,5.4-1.5,7.1
					c-0.3,0.8-0.4,1.8-0.4,2.9c0,1.3,0.8,2,1.5,3.2c0.2,1.2,0.5,2.4,0.9,3.3c1.8,3.6,7.7,5.3,13.5,5c4.6-0.2,9-1.8,11-3.7
					c2.2-2,2.5-7.2-1.2-7.8c-0.9-0.1-1.9-0.3-2.6-1.2c-0.5-0.6,0-2.2,0.1-4.4c0.1-2.1-0.4-4.3-3.4-5c-1.2-0.3-2.3-0.4-3.3-1
					c-2.1-1.4-1.3-4-3.6-5.5c-1.4-0.9-3.6-1.1-6.1-0.4C156.9,85.5,156.5,85.6,156.1,85.6z"/>
				<path class="st52" d="M154.7,87.6c-0.1,1,0.2,1.9,0.8,2.8c1.4,2,2.2,1.8,2.9,4.4c1.3-0.8,2.1-1,2.5-0.1c0.6,1.3,0.2,2.1,0.4,3.5
					c0.2,2.2,2.9-0.8,5,0.9c2.1,1.7,0.7,2.9,1.5,5.3c0.3,0.9,0.5,2.1,1.4,2.5c2.6,1.2,3.6,4.3-1,5.9c-2.9,1-7.1,0.7-10.5-0.5
					c-4.6-1.6-7.4-8.4-6.3-11.6c0.5-1.3,1.8-2.3,1.8-3.4C153.2,93.6,152.5,91.3,154.7,87.6z"/>
			</g>
			<g>
				<g>
					<linearGradient id="SVGID_28_" gradientUnits="userSpaceOnUse" x1="135.1859" y1="92.9197" x2="135.5708" y2="92.6272">
						<stop  offset="0" style="stop-color:#FF8A78"/>
						<stop  offset="1" style="stop-color:#FFA799"/>
					</linearGradient>
					<path class="st53" d="M133.8,90.7c-0.7,0.2-0.3,1-0.1,1.3c0.4,0.4,1.2,0.7,1.2,1.1c-0.1,0.5,2.6,1.4,2.6,1.3
						c-0.4-1.3-1.1-2-1.2-2.1C134.8,91.4,135,92,133.8,90.7z"/>
					<path class="st34" d="M135.7,96.2c1.5,2,2.7,5.9,4.2,7.7c0.5,0.6,1.2,1.5,2,1.4c4.3-0.7,0.4-2.4,0.8-3.6
						c-0.7-2.5-3.8-4-5.1-6.8c-0.1-0.2-0.1-0.4-0.2-0.6c-0.5-1.1-1-1.4-3.1-1.8c-0.6-0.1-0.8-0.3-1.2-0.6l-1.3-1.3
						c-0.4-0.4-0.8-0.5-1-0.4c-0.2,0.1-0.8,1.2-0.8,1.7v0c-0.1,0.2,0.2,0.6,0.7,1l1.7,2.3l0.1,0C134.5,95.6,135.2,95.8,135.7,96.2z"
						/>
				</g>
				<linearGradient id="SVGID_29_" gradientUnits="userSpaceOnUse" x1="137.4902" y1="101.4347" x2="151.223" y2="98.326">
					<stop  offset="0" style="stop-color:#965CF2"/>
					<stop  offset="1" style="stop-color:#FF8ADC"/>
				</linearGradient>
				<path class="st54" d="M142.6,106.2c3-0.3,7.3-0.8,9.6-2c1.5-0.8,4.2-4.1,2.7-5.9c-0.3-0.9-3.2,1-4.6,1.5c-2.6,1-4.3,1.4-6.9,2.1
					c-0.7-2-2.6-3.6-4.1-5.5c-0.2-0.3-0.5-0.5-0.8-0.7c-0.2-0.2-0.3-0.5-0.5-0.7c-0.3-0.1-1.9,0.6-2.3,1.4c0.1,0.2,0.4,0.5,0.5,0.7
					c0.2,0.2,0.1,0.6,0.3,0.8c0.4,1,2.5,5.2,3.9,6.8c0.5,0.6,1.3,1.7,2.2,1.6C142.4,106.2,142.5,106.2,142.6,106.2z"/>
				<path class="st55" d="M142.6,106.2c3-0.3,7.3-0.8,9.6-2c1.3-0.7,3.5-3.2,3.1-5.1c-0.6-0.5-0.9-0.8-1.4-0.8
					c-0.6,0-1.3,0.7-2.7,1.4c-2.1,1.1-4,1.1-5.6,3c-1.2,1.4-3.2,2.6-4.8,2.6c0.5,0.5,1,1,1.7,0.9
					C142.4,106.2,142.5,106.2,142.6,106.2z"/>
			</g>
			<path class="st3" d="M145.3,176.8l18.8-10.7c2-0.9,5-1.7,7.1-0.6c1.9,1,5,3,6.4,3.8c1.1,0.6,4.7,2.8,2.4,4
				c-6.7,3.6-13.3,7.7-20.1,11.4c-1.3,0.7-3.2,1-5.1,0.8c-2-0.2-4-0.7-5.6-1.7c-1.1-0.7-2.2-1.3-3.3-1.9c-1.5-0.9-2.3-1.9-2.3-2.8
				C143.5,178.2,144.1,177.4,145.3,176.8z"/>
			<g>
				<g>
					<g>
						<path class="st34" d="M165.5,161.5c-0.1,0.4,0.2,1.1,0.2,1.2c1.1,1.6-0.2,1.4-0.2,3.7c0,0.2-0.9,3.8-0.9,3.8s-2.2,0.5-2.3,0.5
							c-0.2,0-1.5-0.5-1.5-0.5c0.1-0.2,0.3-0.7,0.4-0.8c0.6-1.2,1-2.7,1.2-4.2c0.2-1,0.5-2.5,0.3-3.5L165.5,161.5z"/>
						<path class="st56" d="M160.8,170.1c-0.3,0.6-0.5,1-0.6,1.4c-0.1,0.2-0.1,0.4,0,0.6c0.5,0.7,3.1-0.5,4-1.2
							c0.6-0.5,0.6-1.1,0.8-1.8c0.2-1.1,0.3-1.2,0.6-2.3l0.2,3l0.2,0.2c0.1-1.2,0.3-2.8,0.5-3.9c0.1-0.4,0.2-0.9,0.3-1.1
							c0.2-1.4-0.5-2.1-1.1-2.5c0.2,0.8-0.5,2.2-0.9,3.9C164.4,168.4,162.6,170.1,160.8,170.1z"/>
					</g>
					<linearGradient id="SVGID_30_" gradientUnits="userSpaceOnUse" x1="153.7983" y1="127.9345" x2="166.5976" y2="152.9004">
						<stop  offset="0" style="stop-color:#3E4795"/>
						<stop  offset="1" style="stop-color:#273088"/>
					</linearGradient>
					<path class="st57" d="M151.2,119.8c0.2,0.9-0.7,4.1-0.5,5.4c0.2,4.1,0.9,7.5,3.7,15.6c0,0.1,2.5,5.1,2.7,5.6
						c1.7,5.3,3.8,11,5.6,16.4c0.7,0.5,2.7,0.4,3-0.9c-0.6-5.3,0.1-10.6-0.9-14.3c-0.7-2.8-1.6-4.1-3.1-6.1
						c-0.5-5.3-0.8-15.8-2-19.8L151.2,119.8z"/>
					<path class="st41" d="M151.2,119.8c0.2,0.9,0.8,2.6,1.1,3.9c0.8,1.9,2.4,4.4,3.5,6.6c0.3,2.6,0.2,6.1,1.9,10.9l1.5,11.2
						c1.2,3.5,2.5,7,3.6,10.4c0.7,0.5,2.7,0.4,3-0.9c-0.6-5.3,0.1-10.6-0.9-14.3c-0.7-2.8-1.6-4.1-3.1-6.1c-0.5-5.3-0.8-15.8-2-19.8
						L151.2,119.8z"/>
				</g>
				<g>
					<g>
						<path class="st34" d="M163.3,166.9c-0.1,0.5,0.2,1,0.2,1.5c0.1,0.7,0.2,1.6,0.2,2.6c0,1.3-0.2,2.8-0.6,4.7
							c-0.2,0.7-0.4,0.9-0.6,1.8l-3.9,0.6c0.4-1.5,0.9-4.4,1.3-6.9l0.7-4.6L163.3,166.9z"/>
						<path class="st56" d="M163.5,168.1c0.2,0.8,0.5,1.2,0.5,2.3c0,1.1-0.5,2.7-0.4,4l0.1,2.1c0,1.2-0.3,2.1-1.7,3.1
							c-1.3,0.9-2.5,1.3-3.1,1c-0.5-0.2-0.9-1.1-0.1-3.4c0.6-1.9,0.8-3.7,1.1-5.8c-0.1,2-0.2,2.7-0.7,4.7c-0.1,0.6-0.2,1.5,0.4,1.6
							c2.7,0.4,2.8-0.3,3.1-1.2C163.4,174.2,163.8,170.2,163.5,168.1z"/>
					</g>
					<linearGradient id="SVGID_31_" gradientUnits="userSpaceOnUse" x1="151.0427" y1="132.8936" x2="170.6897" y2="154.9777">
						<stop  offset="0" style="stop-color:#3E4795"/>
						<stop  offset="1" style="stop-color:#273088"/>
					</linearGradient>
					<path class="st58" d="M164.5,123c3,3.8,3.1,5.9,2.4,10.4c-0.4,3-1.3,6.7-1.5,12c0.3,2.7,0.8,5.8,0.4,10.1
						c-0.3,3.1-1.2,8.5-1.8,12.3c-0.6,1.2-3.6,0.7-4.1,0.1c0.1-5.4,0.1-9.2-0.2-13.6c-0.3-4.3-0.8-8.3-1.1-12.5
						c-0.3-3.5-1.3-8.2-1.5-12c-0.6-1.8-5.9-7.7-4.8-7.6L164.5,123z"/>
				</g>
			</g>
			<g>
				<linearGradient id="SVGID_32_" gradientUnits="userSpaceOnUse" x1="156.4095" y1="119.9351" x2="159.1994" y2="103.3998">
					<stop  offset="0" style="stop-color:#965CF2"/>
					<stop  offset="1" style="stop-color:#FF8ADC"/>
				</linearGradient>
				<path class="st59" d="M164.2,114.6c-1.4,3.1,0.9,4.9,0.1,7l0.3,1.5c-2.5,1.8-11.3,1.9-13.5-1.6l0-1.8c-0.4-0.8-0.1-3,0-3.5
					c0.4-1.8,0.2-2.7,0.4-4.8c0-0.5,0.1-0.8,0.2-1.4c-2-1.5-1.8-4.3-0.7-6c0.7-1.1,1.2-1.8,1.5-2.7c0.1-0.7,0.2-1.2,0.3-1.5
					c0.1-0.3,0.2-0.6,0.4-0.8c0.6-0.8,1.5-0.9,3.3-0.5c3.7,0.8,7.4,2.7,9.1,4.5c1.2,1.3,1.2,2.8,0.5,5.9
					C165.6,110.9,164.9,113,164.2,114.6z"/>
				<path class="st55" d="M164.2,114.5c-1.4,3.1,0.9,4.9,0.1,7.1l0.3,1.4c-2.5,1.9-11.3,1.8-13.5-1.7l0-1.5c0-0.1,4.3,3.8,9.3,1.7
					c1.1-0.5,2-2.8,0.7-7.3c-0.1-0.4-1.7-0.5-3.9-2.1c1.6,0.7,4.7,1.7,4.9-2.5c0.1-1.9,0.3-3.3,1.3-4.6c0.5-0.6,3.2,2.7,2.8,4.3
					C165.5,111.3,164.7,113.4,164.2,114.5z"/>
			</g>
			<g>
				<linearGradient id="SVGID_33_" gradientUnits="userSpaceOnUse" x1="163.9537" y1="125.6065" x2="163.328" y2="124.4735">
					<stop  offset="0" style="stop-color:#FF8A78"/>
					<stop  offset="1" style="stop-color:#FFA799"/>
				</linearGradient>
				<path class="st60" d="M165.4,121.5c-0.4,0.3-1.3,0.5-1.6,0.7c-0.2,0.1-1.4,0.9-2.1,1.3c-0.7,0.5-0.9,1.2-1.4,2
					c-0.3,0.6-0.4,1.1-0.5,1.4c0,0.3,0.8,1,1.2,0.9c0.8-0.2,1.7-1.2,1.9-1.3c1.8-0.9,2.7-1,3.4-1.8c0.3-0.3,0.5-1.3,1-2.1l-1.1-1
					L165.4,121.5z"/>
				<linearGradient id="SVGID_34_" gradientUnits="userSpaceOnUse" x1="169.768" y1="117.8986" x2="166.4583" y2="103.9366">
					<stop  offset="0" style="stop-color:#965CF2"/>
					<stop  offset="1" style="stop-color:#FF8ADC"/>
				</linearGradient>
				<path class="st61" d="M165.6,102.8c2.7,1.7,5.7,6.4,8.4,10.6c0.5,0.7,0.4,1.6,0.1,2.1c-0.1,0.3-0.3,0.6-0.5,1
					c-1.3,1.9-2.5,3.6-5.3,5.9c-0.2,0.2-0.5,0.2-0.8,0.3c-0.2,0.1-0.4,0.4-0.6,0.5c0.2-0.3-1.1-1.8-1.7-1.7c0.2-0.2,0.3-0.4,0.5-0.6
					c0-0.3,0-0.5,0.1-0.7c0.9-2,2-4.1,3.4-5.6c-2.5-2.7-3.9-3.3-6.1-6.1C160.3,105.1,163.8,101.6,165.6,102.8z"/>
			</g>
			<g>
				<path class="st34" d="M159.9,95.9c-0.3,1.6-0.1,3.1,0.4,4.7c-1.3,1.2-3.7,0.7-4.2-0.4c0.1-0.7,0.2-1.4,0.3-2.1L159.9,95.9z"/>
				<linearGradient id="SVGID_35_" gradientUnits="userSpaceOnUse" x1="158.131" y1="98.0927" x2="158.3991" y2="99.4334">
					<stop  offset="0" style="stop-color:#FF8A78"/>
					<stop  offset="1" style="stop-color:#FFA799"/>
				</linearGradient>
				<path class="st62" d="M159.9,95.9c-0.1,0.8-0.2,1.5-0.1,2.3c-0.4,1.6-3.3,2.6-3.6,1.4c0.1-0.5,0.2-1,0.2-1.5L159.9,95.9z"/>
				<path class="st34" d="M154.5,89c-0.7,1-1,2.1-0.9,3.6c0,0.4,0,0.6-0.1,0.9c-0.6,1.4-0.6,1.8-0.3,2.9c0.3,1.1,0.3,1.7,0.6,2
					c0.4,0.4,0.9,0.5,1.4,0.5c1,0.1,2.7-0.6,3.7-1.1c0.7-0.4,0.7-0.7,1-1.4c1-0.9,0.4-1.6,0-1.6c-1-0.2-1.2,0.9-1.7,1.2
					C158.4,94,154.5,90.6,154.5,89z"/>
				<linearGradient id="SVGID_36_" gradientUnits="userSpaceOnUse" x1="153.3602" y1="92.8656" x2="155.4262" y2="96.2116">
					<stop  offset="0" style="stop-color:#FFB89E"/>
					<stop  offset="1" style="stop-color:#FFA799"/>
				</linearGradient>
				<path class="st63" d="M154,89.8c-0.4,0.8-0.5,1.7-0.4,2.8c0,0.4,0,0.6-0.1,0.9c-0.6,1.4-0.6,1.8-0.3,2.9
					c0.1,0.5,0.2,0.9,0.3,1.2c0.2,0.4,0.7,0.5,1.2,0.3c0.4-0.2,0.8-0.7,0.9-1.5c0.1-0.6,1.3-1,1.5-1.5c0.2-0.5-0.3-1-0.7-1.3
					C155.2,92.6,154.5,91.3,154,89.8z"/>
				<path class="st64" d="M154.5,89c0.6,2.5,3.8,4.3,3.8,7C157.4,93.2,154.3,91.3,154.5,89z"/>
			</g>
		</g>
	</g>
</g>
</svg>
