<?xml version="1.0" encoding="utf-8"?>
<!-- Generator: Adobe Illustrator 22.0.0, SVG Export Plug-In . SVG Version: 6.00 Build 0)  -->
<svg version="1.1" id="Capa_1" xmlns="http://www.w3.org/2000/svg" xmlns:xlink="http://www.w3.org/1999/xlink" x="0px" y="0px"
	 viewBox="0 0 16 16" style="enable-background:new 0 0 16 16;" xml:space="preserve">
<style type="text/css">
	.st0{fill:#AE0D36;}
	.st1{fill:#C1527C;}
</style>
<g>
	<path class="st0" d="M14.9,6.6l-4.2-4.2l0,0L9.4,1.1C9,0.7,8.5,0.5,8,0.5c-0.5,0-1,0.2-1.4,0.6L5.2,2.5l0,0L1.1,6.6
		C0.7,7,0.5,7.5,0.5,8c0,0.5,0.2,1,0.6,1.4l5.5,5.5c0.8,0.8,2,0.8,2.8,0l1.4-1.4L5.2,8L8,5.2l5.5,5.5l1.4-1.4
		C15.7,8.6,15.7,7.4,14.9,6.6z"/>
	<g>
		<polyline class="st1" points="2.5,5.2 5.2,8 8,5.2 5.2,2.5 		"/>
		<line class="st1" x1="10.8" y1="2.5" x2="10.8" y2="2.5"/>
		<path class="st1" d="M6.6,14.9c0.8,0.8,2,0.8,2.8,0l1.4-1.4L5.2,8l-2.8,2.8"/>
		<path class="st1" d="M14.9,6.6l-4.2-4.2L8,5.2l5.5,5.5l1.4-1.4C15.7,8.6,15.7,7.4,14.9,6.6z"/>
		<line class="st1" x1="5.2" y1="2.5" x2="5.2" y2="2.5"/>
	</g>
</g>
</svg>
