<?xml version="1.0" encoding="utf-8"?>
<!-- Generator: Adobe Illustrator 22.0.0, SVG Export Plug-In . SVG Version: 6.00 Build 0)  -->
<svg version="1.1" id="Capa_1" xmlns="http://www.w3.org/2000/svg" xmlns:xlink="http://www.w3.org/1999/xlink" x="0px" y="0px"
	 viewBox="0 0 200 200" style="enable-background:new 0 0 200 200;" xml:space="preserve">
<style type="text/css">
	.st0{opacity:0.5;fill-rule:evenodd;clip-rule:evenodd;fill:#D6E6FF;}
	.st1{opacity:0.5;fill-rule:evenodd;clip-rule:evenodd;fill:#A1C3FF;}
	.st2{fill-rule:evenodd;clip-rule:evenodd;fill:#DEEEFF;}
	.st3{fill-rule:evenodd;clip-rule:evenodd;fill:#A2C5FF;}
	.st4{fill-rule:evenodd;clip-rule:evenodd;fill:url(#SVGID_1_);}
	.st5{fill-rule:evenodd;clip-rule:evenodd;fill:#F4F9FF;}
	.st6{fill-rule:evenodd;clip-rule:evenodd;fill:#DCE9FF;}
	.st7{opacity:0.5;fill-rule:evenodd;clip-rule:evenodd;fill:#A2C5FF;}
	.st8{fill-rule:evenodd;clip-rule:evenodd;fill:url(#SVGID_2_);}
	.st9{fill-rule:evenodd;clip-rule:evenodd;fill:url(#SVGID_3_);}
	.st10{fill-rule:evenodd;clip-rule:evenodd;fill:url(#SVGID_4_);}
	.st11{fill-rule:evenodd;clip-rule:evenodd;fill:url(#SVGID_5_);}
	.st12{opacity:0.5;fill-rule:evenodd;clip-rule:evenodd;fill:url(#SVGID_6_);}
	.st13{fill-rule:evenodd;clip-rule:evenodd;fill:#3E4794;}
	.st14{fill-rule:evenodd;clip-rule:evenodd;fill:#FF8978;}
	.st15{fill-rule:evenodd;clip-rule:evenodd;fill:#1C236C;}
	.st16{fill-rule:evenodd;clip-rule:evenodd;fill:url(#SVGID_7_);}
	.st17{fill-rule:evenodd;clip-rule:evenodd;fill:#22043D;}
	.st18{fill-rule:evenodd;clip-rule:evenodd;fill:url(#SVGID_8_);}
	.st19{fill-rule:evenodd;clip-rule:evenodd;fill:url(#SVGID_9_);}
	.st20{opacity:0.5;fill-rule:evenodd;clip-rule:evenodd;fill:#7E41DF;}
	.st21{fill-rule:evenodd;clip-rule:evenodd;fill:url(#SVGID_10_);}
	.st22{opacity:0.3;fill-rule:evenodd;clip-rule:evenodd;fill:#1E2353;}
	.st23{fill-rule:evenodd;clip-rule:evenodd;fill:url(#SVGID_11_);}
	.st24{fill-rule:evenodd;clip-rule:evenodd;fill:#FFA698;}
	.st25{fill-rule:evenodd;clip-rule:evenodd;fill:#273087;}
	.st26{fill-rule:evenodd;clip-rule:evenodd;fill:url(#SVGID_12_);}
	.st27{fill-rule:evenodd;clip-rule:evenodd;fill:url(#SVGID_13_);}
	.st28{fill-rule:evenodd;clip-rule:evenodd;fill:url(#SVGID_14_);}
	.st29{fill-rule:evenodd;clip-rule:evenodd;fill:url(#SVGID_15_);}
	.st30{fill-rule:evenodd;clip-rule:evenodd;fill:url(#SVGID_16_);}
	.st31{fill-rule:evenodd;clip-rule:evenodd;fill:#FF8F7F;}
	.st32{opacity:0.5;fill-rule:evenodd;clip-rule:evenodd;fill:url(#SVGID_17_);}
	.st33{opacity:0.5;fill-rule:evenodd;clip-rule:evenodd;fill:url(#SVGID_18_);}
	.st34{opacity:0.5;fill-rule:evenodd;clip-rule:evenodd;fill:url(#SVGID_19_);}
	.st35{opacity:0.5;fill-rule:evenodd;clip-rule:evenodd;fill:url(#SVGID_20_);}
	.st36{opacity:0.5;fill-rule:evenodd;clip-rule:evenodd;fill:url(#SVGID_21_);}
	.st37{opacity:0.5;fill-rule:evenodd;clip-rule:evenodd;fill:url(#SVGID_22_);}
	.st38{opacity:0.5;fill-rule:evenodd;clip-rule:evenodd;fill:#FFFFFF;}
	.st39{fill-rule:evenodd;clip-rule:evenodd;fill:url(#SVGID_23_);}
	.st40{opacity:0.3;fill-rule:evenodd;clip-rule:evenodd;fill:#1994F0;}
	.st41{fill-rule:evenodd;clip-rule:evenodd;fill:#F2F4FF;}
	.st42{fill-rule:evenodd;clip-rule:evenodd;fill:#C5DBF1;}
	.st43{fill-rule:evenodd;clip-rule:evenodd;fill:#DCE8F8;}
	.st44{fill-rule:evenodd;clip-rule:evenodd;fill:url(#SVGID_24_);}
	.st45{fill-rule:evenodd;clip-rule:evenodd;fill:#147CF0;}
	.st46{fill-rule:evenodd;clip-rule:evenodd;fill:#00CEDC;}
	.st47{fill-rule:evenodd;clip-rule:evenodd;fill:url(#SVGID_25_);}
	.st48{fill-rule:evenodd;clip-rule:evenodd;fill:url(#SVGID_26_);}
	.st49{fill-rule:evenodd;clip-rule:evenodd;fill:url(#SVGID_27_);}
	.st50{fill-rule:evenodd;clip-rule:evenodd;fill:#FFFFFF;}
	.st51{opacity:0.5;fill-rule:evenodd;clip-rule:evenodd;fill:url(#SVGID_28_);}
	.st52{fill-rule:evenodd;clip-rule:evenodd;fill:url(#SVGID_29_);}
	.st53{opacity:0.7;fill-rule:evenodd;clip-rule:evenodd;fill:#FFFFFF;}
	.st54{opacity:0.5;fill-rule:evenodd;clip-rule:evenodd;fill:url(#SVGID_30_);}
	.st55{fill-rule:evenodd;clip-rule:evenodd;fill:#FF89DB;}
	.st56{fill-rule:evenodd;clip-rule:evenodd;fill:#D0E7FF;}
	.st57{fill-rule:evenodd;clip-rule:evenodd;fill:url(#SVGID_31_);}
	.st58{fill-rule:evenodd;clip-rule:evenodd;fill:url(#SVGID_32_);}
	.st59{fill-rule:evenodd;clip-rule:evenodd;fill:#562E65;}
	.st60{fill-rule:evenodd;clip-rule:evenodd;fill:url(#SVGID_33_);}
	.st61{fill-rule:evenodd;clip-rule:evenodd;fill:url(#SVGID_34_);}
	.st62{fill-rule:evenodd;clip-rule:evenodd;fill:#3FAFF6;}
	.st63{fill-rule:evenodd;clip-rule:evenodd;fill:#0A080D;}
	.st64{fill-rule:evenodd;clip-rule:evenodd;fill:url(#SVGID_35_);}
	.st65{fill-rule:evenodd;clip-rule:evenodd;fill:url(#SVGID_36_);}
	.st66{fill-rule:evenodd;clip-rule:evenodd;fill:url(#SVGID_37_);}
	.st67{fill-rule:evenodd;clip-rule:evenodd;fill:#894EE8;}
	.st68{fill-rule:evenodd;clip-rule:evenodd;fill:url(#SVGID_38_);}
	.st69{fill-rule:evenodd;clip-rule:evenodd;fill:url(#SVGID_39_);}
	.st70{opacity:0.5;fill-rule:evenodd;clip-rule:evenodd;fill:url(#SVGID_40_);}
	.st71{opacity:0.5;fill-rule:evenodd;clip-rule:evenodd;fill:url(#SVGID_41_);}
	.st72{opacity:0.5;fill-rule:evenodd;clip-rule:evenodd;fill:url(#SVGID_42_);}
	.st73{fill-rule:evenodd;clip-rule:evenodd;fill:url(#SVGID_43_);}
	.st74{opacity:0.5;fill-rule:evenodd;clip-rule:evenodd;fill:url(#SVGID_44_);}
	.st75{fill-rule:evenodd;clip-rule:evenodd;fill:#4A9FF8;}
	.st76{fill-rule:evenodd;clip-rule:evenodd;fill:url(#SVGID_45_);}
	.st77{fill-rule:evenodd;clip-rule:evenodd;fill:#0A3C5F;}
	.st78{fill-rule:evenodd;clip-rule:evenodd;fill:#1466A0;}
	.st79{fill-rule:evenodd;clip-rule:evenodd;fill:#DAEAFA;}
	.st80{fill-rule:evenodd;clip-rule:evenodd;fill:#B4CCE5;}
	.st81{fill-rule:evenodd;clip-rule:evenodd;fill:url(#SVGID_46_);}
	.st82{fill-rule:evenodd;clip-rule:evenodd;fill:url(#SVGID_47_);}
	.st83{fill-rule:evenodd;clip-rule:evenodd;fill:url(#SVGID_48_);}
	.st84{fill-rule:evenodd;clip-rule:evenodd;fill:url(#SVGID_49_);}
	.st85{fill-rule:evenodd;clip-rule:evenodd;fill:url(#SVGID_50_);}
	.st86{fill-rule:evenodd;clip-rule:evenodd;fill:url(#SVGID_51_);}
	.st87{fill-rule:evenodd;clip-rule:evenodd;fill:url(#SVGID_52_);}
	.st88{fill-rule:evenodd;clip-rule:evenodd;fill:url(#SVGID_53_);}
	.st89{fill-rule:evenodd;clip-rule:evenodd;fill:url(#SVGID_54_);}
	.st90{fill-rule:evenodd;clip-rule:evenodd;fill:url(#SVGID_55_);}
</style>
<g>
	<g>
		<g>
			<g>
				<path class="st0" d="M176.7,51c-1.3-4-10.3-13.8-13.1-8C160.9,48.7,171.9,46.3,176.7,51L176.7,51z M175.1,93.8
					c0.1-0.3,0.2-0.5,0.3-0.9c-3.8-5.3-14.2-5.9-10.2-10.6c3.9-4.5,9.5,5.4,10.4,10.2c2.3-4.5,9.8-12.1,12.4-6.9
					c2.7,5.5-7.2,3.6-12.3,7.6c0,0.1,0,0.2,0,0.3c0-0.1-0.1-0.1-0.1-0.2C175.5,93.4,175.3,93.6,175.1,93.8L175.1,93.8z M177.4,82.5
					c0.2-0.2,0.4-0.4,0.6-0.6c0,0,0.1,0.1,0.1,0.1c0-0.1,0-0.1,0-0.2c4.7-4.4,14.7-3.5,11.5-8.7c-3-4.9-9.8,3.3-11.7,7.9
					c-1.3-4.6-7.8-14.1-11.3-9.3c-3.6,5,6.9,4.7,11.1,9.7C177.5,81.9,177.4,82.3,177.4,82.5L177.4,82.5z M178.7,71.3
					c0-0.3,0.1-0.6,0.1-0.9c-5-4.4-15.5-2.1-12.8-7.8c2.7-5.5,11,3.3,12.9,7.5c1-4.9,6.3-14.4,10.2-10.1
					C193.3,64.8,182.1,65.5,178.7,71.3L178.7,71.3z M166.3,30.5c-1.3-4-10.3-13.8-13.1-8C150.5,28.3,161.5,25.8,166.3,30.5
					L166.3,30.5z M173.1,41c-1.6-3.9-1.4-17.1,4.5-14.7C183.4,28.8,173.6,34.2,173.1,41L173.1,41z M176.5,50.5
					c-0.6-4.1,3-16.9,8.1-13C189.7,41.4,178.8,44.1,176.5,50.5L176.5,50.5z M178.4,60.9c3-6,14.2-7.4,9.7-11.9
					C183.5,44.5,178.3,56.8,178.4,60.9L178.4,60.9z M178.3,60.3c-4.8-4.7-15.8-2.3-13.1-8C168,46.5,177,56.3,178.3,60.3L178.3,60.3z
					 M173.2,41.5c-4.8-4.7-15.8-2.3-13.1-8S171.9,37.5,173.2,41.5z"/>
				<path class="st1" d="M177.3,88c0.5-2.3,0.9-4.7,1.2-7.1c1.7-2.1,5.4-6.1,10.3-7.2c-4.7,0-8.5,4.4-10.3,6.9
					c0.5-3.6,0.7-7.1,0.8-10.7c1.2-2.2,4.3-7.2,9.1-9.2c-4.8,0.9-7.9,6.2-9.1,8.9c0-3.3-0.1-6.6-0.5-9.9c1-2.2,3.7-7.6,8.6-10
					c-5,1.2-7.7,7.2-8.6,9.7c-0.4-3.5-1.1-7-2-10.3c0.7-2.3,2.8-8,7.3-10.9c-4.7,1.8-6.7,8-7.3,10.7c-1-3.3-2.2-6.5-3.8-9.5
					c0.1-2.5,0.7-8.4,4.2-12.3c-4,2.9-4.4,9.2-4.3,12c-2.3-4.3-5.3-8.3-9-11.7c-1-1-2.2-2-3.6-2.9c-0.2-0.1-0.4-0.3-0.5-0.4
					c0.1,0.1,0.2,0.1,0.3,0.2c-1.8-1-3.8-1.7-5.9-1.5c3.7,0.4,7,2.6,9.2,4.4c3.9,3.8,6.8,8.2,9,12.8c-1.7-2.1-6.3-6.7-11.3-6.3
					c5.5,0.6,10,5,11.5,6.7c1.4,2.9,2.4,5.9,3.2,9c-1.8-2.2-6.3-6.6-11.2-6.2c5.2,0.6,9.6,4.6,11.3,6.4c0.8,3,1.3,6.1,1.7,9.2
					c-1.7-2.1-6.3-6.8-11.4-6.4c5.4,0.6,9.8,4.8,11.4,6.6c0.4,3.3,0.5,6.6,0.5,9.8c-1.9-2.2-6.2-6.5-11.1-6
					c5.1,0.6,9.3,4.4,11.1,6.2c0,3.9-0.3,7.6-0.8,11c-1.5-2.5-5-7.4-9.8-7.8c4.8,1.4,8.3,5.8,9.8,8c-0.3,2.6-0.7,4.9-1.2,7.1
					c-0.3,1.3-0.6,2.6-0.9,4c-1.3-2.7-4.4-7.8-9.1-8.6c4.7,1.9,7.8,6.6,9.1,8.9l-0.9,3.5l1.6-0.2c0.3-1,0.5-1.9,0.7-2.8
					c1.9-2,6-5.6,10.9-6.3c-4.7-0.4-8.9,3.6-10.8,5.9C176.8,90.5,177.1,89.2,177.3,88z"/>
			</g>
			<g>
				<path class="st0" d="M22.6,108.6c0.3-4.2,6.6-15.9,10.7-11C37.4,102.6,26.2,102.9,22.6,108.6L22.6,108.6z M34.5,149.7
					c-0.1-0.2-0.3-0.5-0.5-0.7c2.4-6.1,12.4-9.2,7.3-12.8c-4.9-3.4-7.9,7.5-7.6,12.4c-3.3-3.8-12.4-9.4-13.7-3.7
					c-1.3,6,7.9,1.8,13.8,4.4c0,0.1,0,0.2,0,0.3c0-0.1,0-0.1,0.1-0.2C34.1,149.5,34.3,149.6,34.5,149.7L34.5,149.7z M29.6,139.4
					c-0.2-0.2-0.5-0.3-0.7-0.4c0,0,0,0.1-0.1,0.1c0-0.1,0-0.1,0-0.2c-5.6-3.1-15.1,0.2-13.3-5.6c1.8-5.5,10.3,0.8,13.3,4.9
					c0.2-4.8,4.1-15.6,8.7-11.7c4.7,4-5.5,6.2-8.4,12.1C29.3,138.8,29.5,139.1,29.6,139.4L29.6,139.4z M25.6,128.8
					c-0.1-0.3-0.2-0.6-0.3-0.9c3.8-5.5,14.6-5.8,10.5-10.7c-3.9-4.7-9.9,5.8-10.7,10.4c-2.2-4.5-9.6-12.5-12.3-7.3
					C9.8,126,20.9,124,25.6,128.8L25.6,128.8z M27.7,86.3c0.3-4.2,6.6-15.9,10.7-11C42.5,80.2,31.3,80.5,27.7,86.3L27.7,86.3z
					 M23.7,98c0.7-4.1-2.8-17-7.9-13.1S21.6,91.6,23.7,98L23.7,98z M22.6,108.1c-0.4-4.2-7-15.7-11-10.7
					C7.7,102.4,18.9,102.5,22.6,108.1L22.6,108.1z M23.3,118.7c-0.9-4.1-8.9-14.7-12.2-9.2C7.8,114.9,19,113.5,23.3,118.7
					L23.3,118.7z M23.3,118c3.6-5.7,14.8-6,10.7-11C29.9,102.1,23.6,113.8,23.3,118L23.3,118z M23.7,98.5c3.6-5.7,14.8-6,10.7-11
					C30.3,82.7,24,94.4,23.7,98.5z"/>
				<path class="st1" d="M30.9,144.7c-1-2.2-2-4.4-2.9-6.6c-2.1-1.6-6.8-4.6-11.7-4.5c4.6-1.1,9.3,2.2,11.6,4.2
					c-1.3-3.3-2.4-6.8-3.4-10.2c-1.7-1.9-5.9-6-11-6.7c4.9-0.3,9.2,4.2,11,6.4c-0.8-3.2-1.5-6.5-1.9-9.7c-1.5-1.9-5.5-6.5-10.7-7.6
					c5.1,0,9.2,5.1,10.7,7.4c-0.5-3.5-0.7-7-0.5-10.5c-1.2-2.1-4.6-7.1-9.7-8.8c5,0.6,8.5,6.1,9.7,8.6c0.1-3.4,0.6-6.8,1.4-10.1
					c-0.7-2.4-2.7-8-7.1-10.9c4.6,1.9,6.5,7.9,7.1,10.6c1.2-4.8,3.1-9.3,6-13.5c0.7-1.2,1.7-2.5,2.8-3.7c0.1-0.2,0.3-0.3,0.4-0.5
					c-0.1,0.1-0.1,0.2-0.2,0.3c1.5-1.4,3.3-2.6,5.4-2.9c-3.5,1.3-6.1,4.2-7.8,6.5c-2.9,4.7-4.7,9.6-5.7,14.6
					c1.2-2.5,4.5-8.1,9.5-8.8c-5.1,1.9-8.5,7.2-9.6,9.2c-0.6,3.2-0.9,6.4-0.9,9.5c1.2-2.6,4.5-7.9,9.4-8.7c-4.9,1.8-8.2,6.8-9.4,9
					c0,3.1,0.2,6.3,0.6,9.3c1.1-2.5,4.4-8.1,9.5-8.9c-5,1.9-8.3,7-9.5,9.1c0.4,3.3,1.1,6.6,1.9,9.7c1.3-2.6,4.5-7.8,9.3-8.5
					c-4.8,1.8-8,6.5-9.3,8.7c1,3.7,2.2,7.3,3.4,10.5c0.8-2.8,3.1-8.4,7.7-9.9c-4.3,2.6-6.7,7.7-7.6,10.2c0.9,2.4,1.9,4.6,2.8,6.6
					c0.6,1.2,1.2,2.4,1.8,3.6c0.6-2.9,2.3-8.6,6.8-10.6c-4.1,2.9-6,8.2-6.7,10.8l1.7,3.2l-1.6,0.2c-0.5-0.9-1-1.7-1.4-2.6
					c-2.3-1.4-7.1-4-12.1-3.4c4.5-1.5,9.5,1.4,11.9,3.1C32,146.9,31.5,145.8,30.9,144.7z"/>
			</g>
			<g>
				<path class="st2" d="M59.5,166.2l-26.8-14.8c-0.9-0.4-2.2-0.8-3.1-0.3l-18.5,10.7c-0.5,0.3-1.9,1.2-0.9,1.7
					c2.9,1.6,24.1,13.7,27,15.3c0.6,0.3,1.4,0.4,2.2,0.3c0.9-0.1,1.7-0.3,2.4-0.7l17.4-10.1c0.6-0.4,1-0.8,1-1.2
					C60.3,166.8,60,166.5,59.5,166.2z"/>
				<g>
					<polygon class="st3" points="31.8,151.1 58.2,166.4 57.3,167.5 31.1,151.5 					"/>
					<linearGradient id="SVGID_1_" gradientUnits="userSpaceOnUse" x1="28.9835" y1="170.4162" x2="32.7421" y2="164.2414">
						<stop  offset="0" style="stop-color:#A3C6FF"/>
						<stop  offset="1" style="stop-color:#D7E7FF"/>
					</linearGradient>
					<path class="st4" d="M40.1,172.5c-1.1,1.4-2.3,4.6-1.4,5.7l-26.4-15.3c-2.1-1.6,0.2-5.7,1.8-6.2l17.6-10.2l26.4,15.3l-1.4,1.1
						L40.1,172.5z"/>
					<g>
						<path class="st5" d="M40.5,172.8l17-9.8l0,3.8L41,176.9c-1.3,0.7-2,0.3-2.2-0.6C38.6,175.2,39.3,173.5,40.5,172.8z"/>
						<path class="st6" d="M38.7,173.9c0.5-0.8,1.1-1.5,1.8-1.9l17.6-10.2l0,1.4l-0.7,0.4l-16.9,9.8c-0.4,0.2-0.7,0.6-1,1
							c-0.3,0.4-0.4,0.9-0.4,1.4c0,0.4,0.2,0.8,0.4,0.9c0.3,0.1,0.6,0.1,1-0.1l16.9-9.8l0.7-0.4l0,1.4L40.6,178
							c-0.7,0.4-1.4,0.5-1.8,0.2c-0.5-0.3-0.8-0.9-0.8-1.7C38,175.7,38.3,174.7,38.7,173.9z"/>
					</g>
				</g>
				<path class="st7" d="M31.9,147.2L13.7,157c-0.1,0.2-0.1,0.4,0.1,0.5c1.9,1,22.5,12.8,24.4,13.8c0.4,0.2,0.9,0.3,1.5,0.2
					c0.6,0,1.1-0.2,1.6-0.5l16.6-9.4l-1.9-1.1L31.9,147.2z"/>
				<g>
					<polygon class="st3" points="31.8,143.5 58.2,158.8 57.3,159.9 31.1,143.9 					"/>
					<linearGradient id="SVGID_2_" gradientUnits="userSpaceOnUse" x1="29.309" y1="162.2575" x2="33.0676" y2="156.0827">
						<stop  offset="0" style="stop-color:#A3C6FF"/>
						<stop  offset="1" style="stop-color:#D7E7FF"/>
					</linearGradient>
					<path class="st8" d="M40.1,164.8c-1.1,1.4-2.3,4.6-1.4,5.7l-26.4-15.3c-2.1-1.6,0.2-5.7,1.8-6.2l17.6-10.2l26.4,15.3l-1.4,1.1
						L40.1,164.8z"/>
					<path class="st5" d="M40.5,165.2l17-9.8l0,3.8L41,169.3c-1.3,0.7-2,0.3-2.2-0.6C38.6,167.6,39.3,165.9,40.5,165.2z"/>
					<path class="st6" d="M38.7,166.3c0.5-0.8,1.1-1.5,1.8-1.9l17.6-10.2l0,1.4l-0.7,0.4l-16.9,9.8c-0.4,0.2-0.7,0.6-1,1
						c-0.3,0.4-0.4,0.9-0.4,1.4c0,0.4,0.2,0.8,0.4,0.9c0.3,0.1,0.6,0.1,1-0.1l16.9-9.8l0.7-0.4l0,1.4l-17.6,10.2
						c-0.7,0.4-1.4,0.5-1.8,0.2c-0.5-0.3-0.8-0.9-0.8-1.7C38,168,38.3,167.1,38.7,166.3z"/>
					<linearGradient id="SVGID_3_" gradientUnits="userSpaceOnUse" x1="44.5593" y1="170.4319" x2="43.2984" y2="167.4186">
						<stop  offset="0" style="stop-color:#A77EF7"/>
						<stop  offset="1" style="stop-color:#5E65D6"/>
					</linearGradient>
					<path class="st9" d="M45.9,167.9v3.8l-1.2-0.7l-1.6,2.4v-3.7c0,0,0-0.1,0-0.1c-0.1-1-1-2.3-1.6-2.4l2.9-1.7
						C45.1,165.5,45.9,166.8,45.9,167.9L45.9,167.9z"/>
				</g>
			</g>
		</g>
	</g>
	<g>
		<linearGradient id="SVGID_4_" gradientUnits="userSpaceOnUse" x1="105.0686" y1="145.3384" x2="117.1188" y2="120.5627">
			<stop  offset="0" style="stop-color:#1C8EF4"/>
			<stop  offset="1" style="stop-color:#00CFDD"/>
		</linearGradient>
		<path class="st10" d="M109.9,101.2c-0.6,0-1.3,0-1.9,0.1l0,0.9c0.6,0,1.3,0,1.9-0.1L109.9,101.2L109.9,101.2z M113.1,101.2
			c-0.6,0-1.3,0-1.9,0l0,0.9c0.6,0,1.3,0,1.9,0L113.1,101.2L113.1,101.2z M107.1,101.3c-0.6,0-1.3,0.1-1.9,0.1l0.1,0.9
			c0.6,0,1.3-0.1,1.9-0.1L107.1,101.3L107.1,101.3z M104.2,101.4c-0.6,0.1-1.3,0.1-1.9,0.2l0.1,0.9c0.6-0.1,1.2-0.1,1.9-0.2
			L104.2,101.4L104.2,101.4z M101.4,101.7c-0.6,0.1-1.3,0.2-1.9,0.3l0.1,0.9c0.6-0.1,1.2-0.2,1.9-0.2L101.4,101.7L101.4,101.7z
			 M98.5,102.1c-0.6,0.1-1.3,0.2-1.9,0.3l0.2,0.9c0.6-0.1,1.2-0.2,1.9-0.3L98.5,102.1L98.5,102.1z M95.7,102.6
			c-0.6,0.1-1.2,0.3-1.9,0.4l0.2,0.9c0.6-0.1,1.2-0.3,1.8-0.4L95.7,102.6L95.7,102.6z M92.9,103.2c-0.6,0.1-1.2,0.3-1.8,0.5l0.2,0.9
			c0.6-0.2,1.2-0.3,1.8-0.5L92.9,103.2L92.9,103.2z M90.2,104c-0.6,0.2-1.2,0.4-1.8,0.5l0.3,0.9c0.6-0.2,1.2-0.4,1.8-0.5L90.2,104
			L90.2,104z M87.4,104.8c-0.6,0.2-1.2,0.4-1.8,0.6l0.3,0.9c0.6-0.2,1.2-0.4,1.8-0.6L87.4,104.8L87.4,104.8z M84.8,105.7
			c-0.6,0.2-1.2,0.5-1.8,0.7l0.4,0.9c0.6-0.2,1.2-0.5,1.7-0.7L84.8,105.7L84.8,105.7z M82.1,106.8c-0.6,0.2-1.2,0.5-1.7,0.8l0.4,0.9
			c0.6-0.3,1.1-0.5,1.7-0.8L82.1,106.8L82.1,106.8z M79.5,108c-0.6,0.3-1.1,0.6-1.7,0.9l0.4,0.8c0.6-0.3,1.1-0.6,1.7-0.9L79.5,108
			L79.5,108z M77,109.3c-0.6,0.3-1.1,0.6-1.6,1l0.5,0.8c0.5-0.3,1.1-0.6,1.6-0.9L77,109.3L77,109.3z M74.5,110.8
			c-0.5,0.3-1.1,0.7-1.6,1.1l0.5,0.8c0.5-0.4,1-0.7,1.6-1L74.5,110.8L74.5,110.8z M72.1,112.4c-0.5,0.4-1,0.8-1.5,1.2l0.6,0.7
			c0.5-0.4,1-0.8,1.5-1.1L72.1,112.4L72.1,112.4z M69.9,114.2c-0.5,0.4-1,0.8-1.4,1.3l0.7,0.7c0.5-0.4,0.9-0.8,1.4-1.2L69.9,114.2
			L69.9,114.2z M67.8,116.1c-0.5,0.5-0.9,0.9-1.3,1.4l0.7,0.6c0.4-0.5,0.8-0.9,1.3-1.4L67.8,116.1L67.8,116.1z M65.8,118.3
			c-0.4,0.5-0.8,1-1.2,1.5l0.8,0.5c0.4-0.5,0.7-1,1.1-1.5L65.8,118.3L65.8,118.3z M64.1,120.6c-0.4,0.5-0.7,1.1-1,1.6l0.8,0.5
			c0.3-0.5,0.6-1.1,1-1.6L64.1,120.6L64.1,120.6z M62.7,123.1c-0.3,0.6-0.6,1.2-0.8,1.8l0.9,0.3c0.2-0.6,0.5-1.1,0.8-1.7L62.7,123.1
			L62.7,123.1z M61.6,125.8c-0.2,0.6-0.4,1.2-0.5,1.9l0.9,0.2c0.1-0.6,0.3-1.2,0.5-1.8L61.6,125.8L61.6,125.8z M60.8,128.6
			c-0.1,0.6-0.2,1.3-0.3,1.9l0.9,0.1c0.1-0.6,0.1-1.2,0.3-1.8L60.8,128.6L60.8,128.6z M60.5,131.4c0,0.6,0,1.3,0,1.9l0.9-0.1
			c0-0.6,0-1.2,0-1.8L60.5,131.4L60.5,131.4z M60.6,134.3c0.1,0.6,0.2,1.3,0.3,1.9l0.9-0.2c-0.1-0.6-0.2-1.2-0.3-1.8L60.6,134.3
			L60.6,134.3z M61.1,137.2c0.2,0.6,0.4,1.2,0.6,1.8l0.9-0.3c-0.2-0.6-0.4-1.2-0.6-1.8L61.1,137.2L61.1,137.2z M62.1,139.9
			c0.2,0.6,0.5,1.2,0.8,1.7l0.8-0.4c-0.3-0.6-0.5-1.1-0.8-1.7L62.1,139.9L62.1,139.9z M63.3,142.5c0.3,0.6,0.7,1.1,1,1.6l0.8-0.5
			c-0.3-0.5-0.7-1-1-1.6L63.3,142.5L63.3,142.5z M64.9,144.9c0.4,0.5,0.8,1,1.2,1.5l0.7-0.6c-0.4-0.5-0.8-1-1.2-1.5L64.9,144.9
			L64.9,144.9z M66.8,147.2c0.4,0.5,0.9,0.9,1.3,1.4l0.7-0.7c-0.4-0.4-0.9-0.9-1.3-1.3L66.8,147.2L66.8,147.2z M68.8,149.2
			c0.5,0.4,0.9,0.9,1.4,1.3l0.6-0.7c-0.5-0.4-0.9-0.8-1.4-1.2L68.8,149.2L68.8,149.2z M71,151.1c0.5,0.4,1,0.8,1.5,1.2l0.6-0.8
			c-0.5-0.4-1-0.7-1.5-1.1L71,151.1L71,151.1z M73.3,152.8c0.5,0.4,1.1,0.7,1.6,1l0.5-0.8c-0.5-0.3-1.1-0.7-1.6-1L73.3,152.8
			L73.3,152.8z M75.7,154.3c0.5,0.3,1.1,0.6,1.7,0.9l0.5-0.8c-0.5-0.3-1.1-0.6-1.6-0.9L75.7,154.3L75.7,154.3z M78.2,155.7
			c0.6,0.3,1.1,0.6,1.7,0.9l0.4-0.9c-0.6-0.3-1.1-0.6-1.7-0.8L78.2,155.7L78.2,155.7z M80.8,157c0.6,0.3,1.2,0.5,1.7,0.8l0.4-0.9
			c-0.6-0.2-1.1-0.5-1.7-0.8L80.8,157L80.8,157z M83.4,158.1c0.6,0.2,1.2,0.5,1.8,0.7l0.3-0.9c-0.6-0.2-1.2-0.4-1.8-0.7L83.4,158.1
			L83.4,158.1z M86.1,159.1c0.6,0.2,1.2,0.4,1.8,0.6l0.3-0.9c-0.6-0.2-1.2-0.4-1.8-0.6L86.1,159.1L86.1,159.1z M88.8,160
			c0.6,0.2,1.2,0.4,1.8,0.5l0.2-0.9c-0.6-0.2-1.2-0.3-1.8-0.5L88.8,160L88.8,160z M91.5,160.8c0.6,0.2,1.2,0.3,1.8,0.5l0.2-0.9
			c-0.6-0.1-1.2-0.3-1.8-0.4L91.5,160.8L91.5,160.8z M94.3,161.4c0.6,0.1,1.2,0.3,1.9,0.4l0.2-0.9c-0.6-0.1-1.2-0.2-1.8-0.4
			L94.3,161.4L94.3,161.4z M97.1,162c0.6,0.1,1.2,0.2,1.9,0.3l0.1-0.9c-0.6-0.1-1.2-0.2-1.9-0.3L97.1,162L97.1,162z M99.9,162.4
			c0.6,0.1,1.3,0.2,1.9,0.2l0.1-0.9c-0.6-0.1-1.2-0.2-1.9-0.2L99.9,162.4L99.9,162.4z M102.8,162.8c0.6,0.1,1.3,0.1,1.9,0.2l0.1-0.9
			c-0.6-0.1-1.2-0.1-1.9-0.2L102.8,162.8L102.8,162.8z M105.6,163c0.6,0,1.3,0.1,1.9,0.1l0-0.9c-0.6,0-1.3-0.1-1.9-0.1L105.6,163
			L105.6,163z M108.4,163.2c0.6,0,1.3,0,1.9,0l0-0.9c-0.6,0-1.3,0-1.9,0L108.4,163.2L108.4,163.2z M111.3,163.2v-0.9
			c0.6,0,1.3,0,1.9,0l0,0.9C112.6,163.2,111.9,163.2,111.3,163.2L111.3,163.2z M114.1,163.2c0.6,0,1.3,0,1.9-0.1l-0.1-0.9
			c-0.6,0-1.3,0.1-1.9,0.1L114.1,163.2L114.1,163.2z M117,163.1c0.6,0,1.3-0.1,1.9-0.1l-0.1-0.9c-0.6,0.1-1.2,0.1-1.9,0.1L117,163.1
			L117,163.1z M119.8,162.8c0.6-0.1,1.3-0.1,1.9-0.2l-0.1-0.9c-0.6,0.1-1.2,0.1-1.9,0.2L119.8,162.8L119.8,162.8z M122.7,162.5
			c0.6-0.1,1.3-0.2,1.9-0.3l-0.2-0.9c-0.6,0.1-1.2,0.2-1.9,0.3L122.7,162.5L122.7,162.5z M125.5,162.1c0.6-0.1,1.2-0.2,1.9-0.3
			l-0.2-0.9c-0.6,0.1-1.2,0.2-1.8,0.3L125.5,162.1L125.5,162.1z M128.3,161.5c0.6-0.1,1.2-0.3,1.9-0.4l-0.2-0.9
			c-0.6,0.1-1.2,0.3-1.8,0.4L128.3,161.5L128.3,161.5z M131.1,160.9c0.6-0.2,1.2-0.3,1.8-0.5l-0.3-0.9c-0.6,0.2-1.2,0.3-1.8,0.5
			L131.1,160.9L131.1,160.9z M133.8,160.1c0.6-0.2,1.2-0.4,1.8-0.6l-0.3-0.9c-0.6,0.2-1.2,0.4-1.8,0.6L133.8,160.1L133.8,160.1z
			 M136.5,159.2c0.6-0.2,1.2-0.4,1.8-0.6l-0.3-0.9c-0.6,0.2-1.2,0.4-1.8,0.6L136.5,159.2L136.5,159.2z M139.2,158.2
			c0.6-0.2,1.2-0.5,1.8-0.7l-0.4-0.9c-0.6,0.2-1.2,0.5-1.7,0.7L139.2,158.2L139.2,158.2z M141.9,157.1c0.6-0.3,1.2-0.5,1.7-0.8
			l-0.4-0.8c-0.6,0.3-1.1,0.5-1.7,0.8L141.9,157.1L141.9,157.1z M144.4,155.9c0.6-0.3,1.1-0.6,1.7-0.9l-0.5-0.8
			c-0.5,0.3-1.1,0.6-1.6,0.9L144.4,155.9L144.4,155.9z M146.9,154.5c0.5-0.3,1.1-0.7,1.6-1l-0.5-0.8c-0.5,0.3-1.1,0.7-1.6,1
			L146.9,154.5L146.9,154.5z M149.4,153c0.5-0.4,1-0.7,1.6-1.1l-0.6-0.8c-0.5,0.4-1,0.7-1.5,1.1L149.4,153L149.4,153z M151.7,151.3
			c0.5-0.4,1-0.8,1.5-1.2l-0.6-0.7c-0.5,0.4-1,0.8-1.4,1.2L151.7,151.3L151.7,151.3z M153.9,149.4c0.5-0.4,0.9-0.9,1.4-1.3l-0.7-0.7
			c-0.4,0.4-0.9,0.9-1.3,1.3L153.9,149.4L153.9,149.4z M155.9,147.4c0.4-0.5,0.9-1,1.3-1.5l-0.7-0.6c-0.4,0.5-0.8,1-1.2,1.4
			L155.9,147.4L155.9,147.4z M157.8,145.2c0.4-0.5,0.8-1,1.1-1.6l-0.8-0.5c-0.3,0.5-0.7,1-1.1,1.5L157.8,145.2L157.8,145.2z
			 M159.4,142.8c0.3-0.6,0.6-1.1,0.9-1.7l-0.8-0.4c-0.3,0.6-0.6,1.1-0.9,1.6L159.4,142.8L159.4,142.8z M160.7,140.3
			c0.3-0.6,0.5-1.2,0.7-1.8l-0.9-0.3c-0.2,0.6-0.4,1.2-0.7,1.7L160.7,140.3L160.7,140.3z M161.7,137.5c0.2-0.6,0.3-1.2,0.4-1.9
			l-0.9-0.2c-0.1,0.6-0.3,1.2-0.4,1.8L161.7,137.5L161.7,137.5z M162.3,134.7c0.1-0.6,0.1-1.3,0.2-1.9l-0.9,0c0,0.6-0.1,1.2-0.1,1.8
			L162.3,134.7L162.3,134.7z M162.5,131.8c0-0.6-0.1-1.3-0.1-1.9l-0.9,0.1c0.1,0.6,0.1,1.2,0.1,1.8L162.5,131.8L162.5,131.8z
			 M162.2,128.9c-0.1-0.6-0.2-1.3-0.4-1.9l-0.9,0.3c0.2,0.6,0.3,1.2,0.4,1.8L162.2,128.9L162.2,128.9z M161.5,126.1
			c-0.2-0.6-0.4-1.2-0.7-1.8l-0.9,0.4c0.2,0.6,0.5,1.1,0.7,1.7L161.5,126.1L161.5,126.1z M160.4,123.4c-0.3-0.6-0.6-1.1-0.9-1.7
			l-0.8,0.5c0.3,0.5,0.6,1.1,0.9,1.6L160.4,123.4L160.4,123.4z M159,120.9c-0.3-0.5-0.7-1.1-1.1-1.6l-0.8,0.6c0.4,0.5,0.7,1,1.1,1.5
			L159,120.9L159,120.9z M157.3,118.5c-0.4-0.5-0.8-1-1.3-1.5l-0.7,0.6c0.4,0.5,0.8,0.9,1.2,1.4L157.3,118.5L157.3,118.5z
			 M155.4,116.4c-0.4-0.5-0.9-0.9-1.4-1.3l-0.6,0.7c0.5,0.4,0.9,0.9,1.3,1.3L155.4,116.4L155.4,116.4z M153.3,114.4
			c-0.5-0.4-1-0.8-1.5-1.2l-0.6,0.7c0.5,0.4,1,0.8,1.4,1.2L153.3,114.4L153.3,114.4z M151.1,112.6c-0.5-0.4-1-0.8-1.6-1.1l-0.5,0.8
			c0.5,0.3,1,0.7,1.5,1.1L151.1,112.6L151.1,112.6z M148.7,111c-0.5-0.3-1.1-0.7-1.6-1l-0.5,0.8c0.5,0.3,1.1,0.6,1.6,1L148.7,111
			L148.7,111z M146.3,109.5c-0.6-0.3-1.1-0.6-1.7-0.9l-0.4,0.8c0.6,0.3,1.1,0.6,1.6,0.9L146.3,109.5L146.3,109.5z M143.7,108.1
			c-0.6-0.3-1.1-0.6-1.7-0.8l-0.4,0.9c0.6,0.3,1.1,0.5,1.7,0.8L143.7,108.1L143.7,108.1z M141.1,106.9c-0.6-0.3-1.2-0.5-1.8-0.7
			l-0.3,0.9c0.6,0.2,1.2,0.5,1.7,0.7L141.1,106.9L141.1,106.9z M138.5,105.8c-0.6-0.2-1.2-0.4-1.8-0.7l-0.3,0.9
			c0.6,0.2,1.2,0.4,1.8,0.6L138.5,105.8L138.5,105.8z M135.8,104.9c-0.6-0.2-1.2-0.4-1.8-0.6l-0.3,0.9c0.6,0.2,1.2,0.4,1.8,0.6
			L135.8,104.9L135.8,104.9z M133.1,104c-0.6-0.2-1.2-0.3-1.8-0.5l-0.2,0.9c0.6,0.2,1.2,0.3,1.8,0.5L133.1,104L133.1,104z
			 M130.3,103.3c-0.6-0.1-1.2-0.3-1.9-0.4l-0.2,0.9c0.6,0.1,1.2,0.3,1.8,0.4L130.3,103.3L130.3,103.3z M127.5,102.7
			c-0.6-0.1-1.2-0.2-1.9-0.4l-0.2,0.9c0.6,0.1,1.2,0.2,1.8,0.3L127.5,102.7L127.5,102.7z M124.7,102.2c-0.6-0.1-1.3-0.2-1.9-0.3
			l-0.1,0.9c0.6,0.1,1.2,0.2,1.9,0.3L124.7,102.2L124.7,102.2z M121.9,101.8c-0.6-0.1-1.3-0.2-1.9-0.2l-0.1,0.9
			c0.6,0.1,1.2,0.1,1.9,0.2L121.9,101.8L121.9,101.8z M119.1,101.5c-0.6-0.1-1.3-0.1-1.9-0.1l-0.1,0.9c0.6,0,1.2,0.1,1.9,0.1
			L119.1,101.5L119.1,101.5z M116.2,101.3c-0.6,0-1.3-0.1-1.9-0.1l0,0.9c0.6,0,1.3,0,1.9,0.1L116.2,101.3z"/>
		<linearGradient id="SVGID_5_" gradientUnits="userSpaceOnUse" x1="123.7786" y1="120.9401" x2="100.6144" y2="70.0125">
			<stop  offset="0" style="stop-color:#965CF2"/>
			<stop  offset="1" style="stop-color:#FF8ADC"/>
		</linearGradient>
		<path class="st11" d="M110,56.5c-0.8,0-1.6,0-2.3,0.1l0,1.2c0.8,0,1.5-0.1,2.3-0.1L110,56.5L110,56.5z M113.9,56.5
			c-0.8,0-1.6,0-2.3,0l0,1.2c0.8,0,1.5,0,2.3,0L113.9,56.5L113.9,56.5z M106.4,56.6c-0.8,0-1.6,0.1-2.3,0.1l0.1,1.2
			c0.8-0.1,1.5-0.1,2.3-0.1L106.4,56.6L106.4,56.6z M102.9,56.9c-0.8,0.1-1.6,0.1-2.3,0.2l0.1,1.2c0.8-0.1,1.5-0.2,2.3-0.2
			L102.9,56.9L102.9,56.9z M99.4,57.2c-0.8,0.1-1.6,0.2-2.3,0.3l0.2,1.2c0.8-0.1,1.5-0.2,2.3-0.3L99.4,57.2L99.4,57.2z M95.9,57.7
			c-0.8,0.1-1.5,0.3-2.3,0.4l0.2,1.1c0.8-0.1,1.5-0.3,2.3-0.4L95.9,57.7L95.9,57.7z M92.5,58.3c-0.8,0.2-1.5,0.3-2.3,0.5l0.3,1.1
			c0.8-0.2,1.5-0.3,2.3-0.5L92.5,58.3L92.5,58.3z M89,59.1c-0.8,0.2-1.5,0.4-2.3,0.6l0.3,1.1c0.7-0.2,1.5-0.4,2.2-0.6L89,59.1
			L89,59.1z M85.6,60c-0.8,0.2-1.5,0.4-2.3,0.7l0.3,1.1c0.7-0.2,1.5-0.4,2.2-0.7L85.6,60L85.6,60z M82.3,61
			c-0.7,0.2-1.5,0.5-2.2,0.8l0.4,1.1c0.7-0.3,1.5-0.5,2.2-0.7L82.3,61L82.3,61z M78.9,62.1c-0.7,0.3-1.5,0.6-2.2,0.9l0.4,1.1
			c0.7-0.3,1.4-0.6,2.2-0.8L78.9,62.1L78.9,62.1z M75.7,63.4c-0.7,0.3-1.4,0.6-2.1,1l0.5,1.1c0.7-0.3,1.4-0.6,2.1-0.9L75.7,63.4
			L75.7,63.4z M72.5,64.9c-0.7,0.3-1.4,0.7-2.1,1.1l0.6,1c0.7-0.4,1.4-0.7,2.1-1.1L72.5,64.9L72.5,64.9z M69.3,66.5
			c-0.7,0.4-1.4,0.8-2,1.2l0.6,1c0.7-0.4,1.3-0.8,2-1.2L69.3,66.5L69.3,66.5z M66.3,68.4c-0.7,0.4-1.3,0.9-2,1.3l0.7,1
			c0.6-0.4,1.3-0.9,1.9-1.3L66.3,68.4L66.3,68.4z M63.4,70.4c-0.6,0.5-1.3,0.9-1.9,1.4l0.7,0.9c0.6-0.5,1.2-1,1.8-1.4L63.4,70.4
			L63.4,70.4z M60.6,72.6c-0.6,0.5-1.2,1-1.8,1.6l0.8,0.8c0.6-0.5,1.1-1,1.7-1.5L60.6,72.6L60.6,72.6z M58,75
			c-0.6,0.6-1.1,1.1-1.6,1.7l0.9,0.8c0.5-0.6,1-1.1,1.6-1.7L58,75L58,75z M55.6,77.6c-0.5,0.6-1,1.2-1.4,1.9l1,0.7
			c0.4-0.6,0.9-1.2,1.4-1.8L55.6,77.6L55.6,77.6z M53.5,80.5c-0.4,0.7-0.8,1.3-1.2,2l1,0.6c0.4-0.7,0.8-1.3,1.2-2L53.5,80.5
			L53.5,80.5z M51.7,83.5c-0.4,0.7-0.7,1.4-1,2.2l1.1,0.4c0.3-0.7,0.6-1.4,0.9-2.1L51.7,83.5L51.7,83.5z M50.3,86.8
			c-0.3,0.8-0.5,1.5-0.7,2.3l1.1,0.3c0.2-0.7,0.4-1.5,0.6-2.2L50.3,86.8L50.3,86.8z M49.4,90.3c-0.1,0.8-0.3,1.6-0.3,2.4l1.2,0.1
			c0.1-0.8,0.2-1.5,0.3-2.2L49.4,90.3L49.4,90.3z M49,93.8c0,0.8,0,1.6,0,2.4l1.2-0.1c0-0.8-0.1-1.5,0-2.3L49,93.8L49,93.8z
			 M49.1,97.4c0.1,0.8,0.2,1.6,0.4,2.4l1.1-0.3c-0.2-0.7-0.3-1.5-0.4-2.2L49.1,97.4L49.1,97.4z M49.8,100.9c0.2,0.8,0.4,1.5,0.7,2.3
			l1.1-0.4c-0.3-0.7-0.5-1.4-0.7-2.2L49.8,100.9L49.8,100.9z M51,104.3c0.3,0.7,0.6,1.5,1,2.2l1-0.6c-0.3-0.7-0.7-1.3-1-2.1
			L51,104.3L51,104.3z M52.5,107.5c0.4,0.7,0.8,1.4,1.3,2l1-0.7c-0.4-0.6-0.8-1.3-1.2-1.9L52.5,107.5L52.5,107.5z M54.5,110.5
			c0.5,0.6,1,1.3,1.5,1.9l0.9-0.8c-0.5-0.6-1-1.2-1.4-1.8L54.5,110.5L54.5,110.5z M56.8,113.2c0.5,0.6,1.1,1.2,1.6,1.7l0.8-0.8
			c-0.5-0.5-1.1-1.1-1.6-1.7L56.8,113.2L56.8,113.2z M59.3,115.8c0.6,0.5,1.2,1.1,1.8,1.6l0.7-0.9c-0.6-0.5-1.2-1-1.7-1.5
			L59.3,115.8L59.3,115.8z M61.9,118.1c0.6,0.5,1.2,1,1.9,1.4l0.7-0.9c-0.6-0.4-1.2-0.9-1.8-1.4L61.9,118.1L61.9,118.1z M64.8,120.2
			c0.6,0.4,1.3,0.9,2,1.3l0.6-1c-0.7-0.4-1.3-0.8-1.9-1.3L64.8,120.2L64.8,120.2z M67.8,122.1c0.7,0.4,1.4,0.8,2,1.2l0.6-1
			c-0.7-0.4-1.3-0.8-2-1.1L67.8,122.1L67.8,122.1z M70.8,123.8c0.7,0.4,1.4,0.7,2.1,1.1l0.5-1.1c-0.7-0.3-1.4-0.7-2.1-1L70.8,123.8
			L70.8,123.8z M74,125.3c0.7,0.3,1.4,0.6,2.2,0.9l0.5-1.1c-0.7-0.3-1.4-0.6-2.1-0.9L74,125.3L74,125.3z M77.3,126.7
			c0.7,0.3,1.5,0.6,2.2,0.8l0.4-1.1c-0.7-0.3-1.4-0.5-2.2-0.8L77.3,126.7L77.3,126.7z M80.5,128c0.7,0.3,1.5,0.5,2.2,0.7l0.3-1.1
			c-0.7-0.2-1.5-0.5-2.2-0.7L80.5,128L80.5,128z M83.9,129.1c0.7,0.2,1.5,0.4,2.3,0.6l0.3-1.1c-0.7-0.2-1.5-0.4-2.2-0.6L83.9,129.1
			L83.9,129.1z M87.3,130c0.8,0.2,1.5,0.4,2.3,0.6l0.3-1.1c-0.8-0.2-1.5-0.4-2.3-0.5L87.3,130L87.3,130z M90.7,130.8
			c0.8,0.2,1.5,0.3,2.3,0.5l0.2-1.1c-0.8-0.1-1.5-0.3-2.3-0.5L90.7,130.8L90.7,130.8z M94.2,131.5c0.8,0.1,1.5,0.3,2.3,0.4l0.2-1.2
			c-0.8-0.1-1.5-0.2-2.3-0.4L94.2,131.5L94.2,131.5z M97.6,132.1c0.8,0.1,1.5,0.2,2.3,0.3l0.1-1.2c-0.8-0.1-1.5-0.2-2.3-0.3
			L97.6,132.1L97.6,132.1z M101.1,132.5c0.8,0.1,1.6,0.2,2.3,0.2l0.1-1.2c-0.8-0.1-1.5-0.1-2.3-0.2L101.1,132.5L101.1,132.5z
			 M104.6,132.8c0.8,0.1,1.6,0.1,2.3,0.1l0.1-1.2c-0.8,0-1.5-0.1-2.3-0.1L104.6,132.8L104.6,132.8z M108.1,133c0.8,0,1.6,0,2.3,0.1
			l0-1.2c-0.8,0-1.5,0-2.3-0.1L108.1,133L108.1,133z M111.7,133v-1.2c0.8,0,1.5,0,2.3,0l0,1.2C113.2,133,112.4,133,111.7,133
			L111.7,133z M115.2,133c0.8,0,1.6-0.1,2.3-0.1l-0.1-1.2c-0.8,0-1.5,0.1-2.3,0.1L115.2,133L115.2,133z M118.7,132.8
			c0.8-0.1,1.6-0.1,2.3-0.2l-0.1-1.2c-0.8,0.1-1.5,0.1-2.3,0.2L118.7,132.8L118.7,132.8z M122.2,132.5c0.8-0.1,1.6-0.2,2.3-0.3
			l-0.1-1.2c-0.8,0.1-1.5,0.2-2.3,0.3L122.2,132.5L122.2,132.5z M125.7,132.1c0.8-0.1,1.5-0.2,2.3-0.3l-0.2-1.2
			c-0.8,0.1-1.5,0.2-2.3,0.3L125.7,132.1L125.7,132.1z M129.2,131.6c0.8-0.1,1.5-0.3,2.3-0.4l-0.2-1.1c-0.8,0.2-1.5,0.3-2.3,0.4
			L129.2,131.6L129.2,131.6z M132.6,130.9c0.8-0.2,1.5-0.3,2.3-0.5l-0.3-1.1c-0.8,0.2-1.5,0.4-2.3,0.5L132.6,130.9L132.6,130.9z
			 M136.1,130.1c0.8-0.2,1.5-0.4,2.3-0.6l-0.3-1.1c-0.7,0.2-1.5,0.4-2.2,0.6L136.1,130.1L136.1,130.1z M139.5,129.2
			c0.8-0.2,1.5-0.5,2.2-0.7l-0.4-1.1c-0.7,0.2-1.5,0.5-2.2,0.7L139.5,129.2L139.5,129.2z M142.8,128.1c0.7-0.3,1.5-0.5,2.2-0.8
			l-0.4-1.1c-0.7,0.3-1.4,0.5-2.2,0.8L142.8,128.1L142.8,128.1z M146.1,126.9c0.7-0.3,1.5-0.6,2.2-0.9l-0.5-1.1
			c-0.7,0.3-1.4,0.6-2.1,0.9L146.1,126.9L146.1,126.9z M149.4,125.5c0.7-0.3,1.4-0.7,2.1-1l-0.5-1c-0.7,0.3-1.4,0.7-2.1,1
			L149.4,125.5L149.4,125.5z M152.5,124c0.7-0.4,1.4-0.7,2.1-1.1l-0.6-1c-0.7,0.4-1.3,0.7-2,1.1L152.5,124L152.5,124z M155.6,122.3
			c0.7-0.4,1.3-0.8,2-1.2l-0.6-1c-0.6,0.4-1.3,0.8-2,1.2L155.6,122.3L155.6,122.3z M158.6,120.4c0.7-0.4,1.3-0.9,1.9-1.4l-0.7-0.9
			c-0.6,0.5-1.2,0.9-1.9,1.3L158.6,120.4L158.6,120.4z M161.5,118.3c0.6-0.5,1.2-1,1.8-1.5l-0.8-0.9c-0.6,0.5-1.2,1-1.8,1.5
			L161.5,118.3L161.5,118.3z M164.2,116c0.6-0.5,1.1-1.1,1.7-1.6l-0.8-0.8c-0.5,0.5-1.1,1.1-1.7,1.6L164.2,116L164.2,116z
			 M166.7,113.6c0.5-0.6,1.1-1.2,1.6-1.8l-0.9-0.7c-0.5,0.6-1,1.2-1.5,1.7L166.7,113.6L166.7,113.6z M169,110.8
			c0.5-0.6,0.9-1.3,1.4-1.9l-1-0.6c-0.4,0.6-0.9,1.3-1.3,1.9L169,110.8L169,110.8z M171,107.9c0.4-0.7,0.8-1.4,1.1-2.1l-1-0.5
			c-0.3,0.7-0.7,1.4-1.1,2L171,107.9L171,107.9z M172.6,104.7c0.3-0.7,0.6-1.5,0.9-2.2l-1.1-0.4c-0.2,0.7-0.5,1.4-0.8,2.1
			L172.6,104.7L172.6,104.7z M173.8,101.3c0.2-0.8,0.4-1.5,0.5-2.3l-1.1-0.2c-0.1,0.8-0.3,1.5-0.5,2.2L173.8,101.3L173.8,101.3z
			 M174.6,97.8c0.1-0.8,0.2-1.6,0.2-2.4l-1.2,0c0,0.8-0.1,1.5-0.2,2.3L174.6,97.8L174.6,97.8z M174.8,94.3c0-0.8-0.1-1.6-0.2-2.4
			l-1.2,0.1c0.1,0.7,0.2,1.5,0.2,2.3L174.8,94.3L174.8,94.3z M174.4,90.7c-0.1-0.8-0.3-1.6-0.5-2.3l-1.1,0.3
			c0.2,0.7,0.4,1.5,0.5,2.2L174.4,90.7L174.4,90.7z M173.6,87.2c-0.2-0.8-0.5-1.5-0.8-2.2l-1.1,0.5c0.3,0.7,0.6,1.4,0.8,2.1
			L173.6,87.2L173.6,87.2z M172.2,83.9c-0.3-0.7-0.7-1.4-1.1-2.1l-1,0.6c0.4,0.7,0.7,1.3,1.1,2L172.2,83.9L172.2,83.9z M170.5,80.8
			c-0.4-0.7-0.9-1.3-1.4-1.9l-0.9,0.7c0.5,0.6,0.9,1.2,1.3,1.9L170.5,80.8L170.5,80.8z M168.4,77.9c-0.5-0.6-1-1.2-1.5-1.8l-0.9,0.8
			c0.5,0.6,1,1.1,1.5,1.7L168.4,77.9L168.4,77.9z M166,75.3c-0.5-0.6-1.1-1.1-1.7-1.6l-0.8,0.9c0.6,0.5,1.1,1.1,1.6,1.6L166,75.3
			L166,75.3z M163.5,72.8c-0.6-0.5-1.2-1-1.8-1.5l-0.7,0.9c0.6,0.5,1.2,1,1.8,1.5L163.5,72.8L163.5,72.8z M160.7,70.6
			c-0.6-0.5-1.3-0.9-1.9-1.4l-0.7,1c0.6,0.4,1.3,0.9,1.9,1.3L160.7,70.6L160.7,70.6z M157.8,68.6c-0.7-0.4-1.3-0.8-2-1.2l-0.6,1
			c0.7,0.4,1.3,0.8,2,1.2L157.8,68.6L157.8,68.6z M154.8,66.8c-0.7-0.4-1.4-0.8-2.1-1.1l-0.5,1c0.7,0.4,1.4,0.7,2,1.1L154.8,66.8
			L154.8,66.8z M151.7,65.1c-0.7-0.3-1.4-0.7-2.1-1l-0.5,1.1c0.7,0.3,1.4,0.7,2.1,1L151.7,65.1L151.7,65.1z M148.5,63.6
			c-0.7-0.3-1.4-0.6-2.2-0.9l-0.4,1.1c0.7,0.3,1.4,0.6,2.1,0.9L148.5,63.6L148.5,63.6z M145.2,62.3c-0.7-0.3-1.5-0.5-2.2-0.8
			l-0.4,1.1c0.7,0.3,1.5,0.5,2.2,0.8L145.2,62.3L145.2,62.3z M141.9,61.1c-0.7-0.2-1.5-0.5-2.2-0.7l-0.3,1.1
			c0.7,0.2,1.5,0.5,2.2,0.7L141.9,61.1L141.9,61.1z M138.5,60.1c-0.8-0.2-1.5-0.4-2.3-0.6l-0.3,1.1c0.7,0.2,1.5,0.4,2.2,0.6
			L138.5,60.1L138.5,60.1z M135.1,59.2c-0.8-0.2-1.5-0.4-2.3-0.5l-0.2,1.1c0.8,0.2,1.5,0.3,2.3,0.5L135.1,59.2L135.1,59.2z
			 M131.7,58.4c-0.8-0.2-1.5-0.3-2.3-0.4l-0.2,1.1c0.8,0.1,1.5,0.3,2.3,0.4L131.7,58.4L131.7,58.4z M128.2,57.8
			c-0.8-0.1-1.5-0.2-2.3-0.3l-0.2,1.2c0.8,0.1,1.5,0.2,2.3,0.3L128.2,57.8L128.2,57.8z M124.7,57.3c-0.8-0.1-1.6-0.2-2.3-0.3
			l-0.1,1.2c0.8,0.1,1.5,0.2,2.3,0.3L124.7,57.3L124.7,57.3z M121.2,56.9c-0.8-0.1-1.6-0.1-2.3-0.2l-0.1,1.2
			c0.8,0.1,1.5,0.1,2.3,0.2L121.2,56.9L121.2,56.9z M117.7,56.6c-0.8,0-1.6-0.1-2.3-0.1l0,1.2c0.8,0,1.5,0.1,2.3,0.1L117.7,56.6z"/>
		<linearGradient id="SVGID_6_" gradientUnits="userSpaceOnUse" x1="106.2024" y1="63.6914" x2="117.222" y2="47.525">
			<stop  offset="0" style="stop-color:#1C8EF4"/>
			<stop  offset="1" style="stop-color:#00CFDD"/>
		</linearGradient>
		<path class="st12" d="M148,44.8v23.6c-26.7-10.5-47.4-10.5-74,0V44.8c10.9-5.9,23.7-8.4,36.8-8.5C124,36.2,137.3,38.8,148,44.8z"
			/>
		<g>
			<g>
				<g>
					<path class="st13" d="M96.9,148.1c0.1,0.2,0.2,0.7,0.1,1c-0.4,1.9-1,1.9-1.4,2.4c-0.5,0.7-0.2,2.2-0.5,3.2
						c-0.6,2.4-2.1,4.6-4.2,5.5c-0.5,0.2-1.1,0.4-1.6,0.4c-0.6,0.1-2.3,0-2.6-1c0.2-1.1,1.4-2.1,1.8-3.1c0.6-1.6,0.5-2.8,0.5-4.2
						c0-0.7,0.1-1.8,0.1-2.8c0-0.3,0-0.6,0-0.8c3.6,0.3,4.3-3.2,5-2.9c0.4,0.2,0.8,0.4,1.1,0.6C95.8,146.5,96.8,147.6,96.9,148.1z"
						/>
					<path class="st14" d="M93.8,145.5c-0.7-0.6-1-1.3-0.9-2.1l-4.2,0.1l0.2,4.8C91.7,152.7,97.4,149.1,93.8,145.5z"/>
					<path class="st15" d="M96.4,147.5c0.1,0.2,0.2,0.7,0.1,1c-0.5,2.4-1,1.8-1.5,3.1c-0.5,1.3,0,1.7-0.3,2.6
						c-0.6,2.4-2.1,4.6-4.2,5.5c-1.2,0.5-2.8,0.7-3.6,0.1c-0.2-0.1-0.1-0.2-0.1-0.2c1.2-2.5,1.7-5,1.8-7.8c0-0.7,0.1-1.8,0.1-2.8
						c0-0.3,0-0.6,0-0.8c1.9,0.1,4.6-2,4.7-3.5c0.1,0.1,0.1,0.5,0.2,0.6c0.4,0.2,0.8,0.4,1.1,0.6C95.3,146,96.2,147,96.4,147.5z"/>
				</g>
				<g>
					<linearGradient id="SVGID_7_" gradientUnits="userSpaceOnUse" x1="125.1894" y1="68.236" x2="128.4757" y2="94.5284">
						<stop  offset="0" style="stop-color:#5A2D68"/>
						<stop  offset="1" style="stop-color:#22043D"/>
					</linearGradient>
					<path class="st16" d="M119.6,66.5c-5.1,0.9-6.7,3.2-7,8.9c-0.1,1.4-2.6,5.7-1.2,9.5c1.6,4.2,4.1,3.2,5,6.5
						c1.2,4.4-0.5,6.1,0.6,8.8c0.5,1.2,1.3,1.3,2.9,3.6c0.1,0.1,0.2,0.3,0.3,0.4c1.2-0.1,2.5-0.1,4.1,0.3c2.4,0.7,6.3,1.7,9.1,0.6
						c2.6-1,2.6-3.8,3.6-4.8c1.3-1.3,2.6-1.4,3.6-1.8c3.1-1.3,4.3-5.6,2.6-8.6c-2-0.6-4.1-1.3-3.7-2.7c0.6-2.7,1.2-5.7-1.6-7.6
						c-1.9-1.3-4.9-1.3-5.8-3.8c-0.9-2.5-1.6-4.3-3.1-6.1C127.2,67.2,124.2,65.7,119.6,66.5z"/>
					<path class="st17" d="M116.1,69.5c-1.5,0.5-2.3,2.2-2.8,4c-1,4.2-3.9,6.1-1.9,11.3c1.6,4.2,4.1,3.2,5,6.5c1,3.8,0,5.5,0.3,7.6
						c2.6,1,1.9,5.2,7.9,4.1c2.6-0.4,1.6-3.3,5.3-3.1c2.4,0.1,3.1-1.1,3.3-2.4c0.5-4.5-2.4-2.8-2.3-6c0.1-3.3-2.8-3.4-2.9-4.1
						c-0.1-0.6,0.5-2.4-3.4-3.2c-1.8-0.4-3.2-1.3-2.7-2.6c0.7-1.8-0.6-3.1-0.8-3.2c-0.8-0.5-1.6,0-2-0.4c0,0-1.8-4-2.1-4.6
						C116.5,71.9,115.9,70.8,116.1,69.5z"/>
				</g>
				<g>
					<linearGradient id="SVGID_8_" gradientUnits="userSpaceOnUse" x1="87.8237" y1="81.1202" x2="85.4935" y2="81.8451">
						<stop  offset="0" style="stop-color:#FF8A78"/>
						<stop  offset="1" style="stop-color:#FFA799"/>
					</linearGradient>
					<path class="st18" d="M85.5,72.5c0.8,0.6,1.3,0.9,1.8,2.8c0.4,1.3,1,1.8,1.9,2.6c1.4,1.2,3.2,2,4.5,2.9
						c1.8,1.1,3.6,2.2,4.9,3.6c1.5-0.2,3.8-0.4,6.1-0.9c4.1-0.7,8.5-1.8,9.9-0.2l2.3,2.7l-0.6,1.8c-3.3,0.4-6.2,1.1-9.2,1.4
						c-2.4,0.3-5,0.4-7.8,0.2c-0.5,0-0.9,0-1.3,0c-0.2,0-0.5-0.1-0.7-0.2c-0.4-0.1-0.8-0.4-1.2-0.6c-1.7-1-3.8-2.8-5.2-4.3
						c-1.3-1.4-2.7-3.3-4.1-5.1c-0.4-0.5-1.2-1-2.2-1.5c-1.5-0.8-2.9-2.2-3.2-2.8c-0.3-0.6-1.6-3.6-1.7-5.4c0-0.7,0.6-1.2,0.8-1.3
						c0.2-0.2,2.6,2.8,2.8,2.9C83.4,70.9,85.1,72.2,85.5,72.5z"/>
					<linearGradient id="SVGID_9_" gradientUnits="userSpaceOnUse" x1="91.5901" y1="86.6192" x2="109.331" y2="79.0498">
						<stop  offset="0" style="stop-color:#965CF2"/>
						<stop  offset="1" style="stop-color:#FF8ADC"/>
					</linearGradient>
					<path class="st19" d="M88.1,76.6c0.2,0.2,0.4,0.4,0.6,0.6c0.2,0.2,0.7,0.2,0.9,0.4c1.4,1.2,2.8,2.2,4.2,3.1
						c1.8,1.1,3.5,2.2,4.9,3.5c1.5-0.2,3.8-0.4,6.2-0.8c4.1-0.7,8.5-1.9,9.9-0.3l2.2,2.8l-0.6,1.8c-2.6,0.3-4.7,1-7,1.4
						c-0.7,0.1-1.6,0.2-2.3,0.3c-2.4,0.3-5,0.3-7.9,0.1c-0.5,0-0.9,0-1.3,0c-0.2,0-0.5-0.1-0.7-0.2c-0.4-0.1-0.8-0.4-1.2-0.6
						c-1.7-1-3.9-2.8-5.3-4.3c-1.1-1.2-2.3-2.4-3.5-4c-0.2-0.2-0.4-0.9-0.6-1.1c-0.2-0.2-0.3-0.4-0.5-0.5
						C86.6,77.8,87.3,76.8,88.1,76.6z"/>
					<path class="st20" d="M111.6,82.5c1.2-0.1,2.6,0,3.1,0.6l2.2,2.8l-0.6,1.8c-2.6,0.3-4.7,1-7,1.4c-0.7,0.1-1.6,0.2-2.3,0.3
						c-2.4,0.3-5,0.3-7.9,0.1c-0.5,0-0.9,0-1.3,0l-0.7-0.2c5.6-0.3,6.8-1.9,11-4.7C110.2,83.3,111.5,82.5,111.6,82.5z"/>
				</g>
				<linearGradient id="SVGID_10_" gradientUnits="userSpaceOnUse" x1="93.0555" y1="116.3254" x2="98.145" y2="127.2271">
					<stop  offset="0" style="stop-color:#3E4795"/>
					<stop  offset="1" style="stop-color:#273088"/>
				</linearGradient>
				<path class="st21" d="M93,143.5c-0.7-5.1,3.4-12.6,2-17.8c-0.4-1.3-1.3-2.7-2.2-4.5c2.3-0.5,5.1-0.2,8.3,1l5.2-0.6l4.5-4.2
					l-1.3-6L106,111c-6.3,0.3-10.6,0.7-17.1,2.8c-1.2,0.4-2.5,1.2-3.2,1.8c-0.4,0.4-0.8,0.9-0.9,1.5c-0.6,2,0.2,4.4,1,7.1
					c2,6.5,2.6,12.8,2.8,19.3l0.1,3.6C88.7,148.2,92.8,146.4,93,143.5z"/>
				<path class="st22" d="M93,143.5c-0.7-5.1,3.4-12.6,2-17.8c-0.4-1.3-1.3-2.7-2.2-4.5c2.3-0.5,5.1-0.2,8.3,1l5.2-0.6l4.5-4.2
					l-1.3-6L106,111l-0.6,0c-0.3,1.6-0.3,3.5-0.3,5.7c-3.9,0.4-13.3,1.1-14.6,2.6c-0.3,0.7,0.6,1.9,0.7,4.3c-1.6,0.9-3.1,2-4.6,3.7
					c1.3,5.5,1.8,10.8,2,16.4l0.1,3.6C88.7,148.2,92.8,146.4,93,143.5z"/>
				<linearGradient id="SVGID_11_" gradientUnits="userSpaceOnUse" x1="113.4512" y1="108.9494" x2="117.1442" y2="89.0659">
					<stop  offset="0" style="stop-color:#965CF2"/>
					<stop  offset="1" style="stop-color:#FF8ADC"/>
				</linearGradient>
				<path class="st23" d="M106.2,110.1c0.1-0.5,0.2-1,0.3-1.6c0.1-0.4-0.1-1-0.1-1.4c0-2.7,0.5-2.7,0.2-5.2c-0.1-1.1,0-2.2,0.2-3.2
					c-4.5-5.3,0.6-7.9,1.4-10.1c0.5-1.4,1.1-4.5,2.6-5.6c1-0.7,3.5-1.1,5.4,1.1c0.7,0.4,1.5-0.1,2,0.2c1.8,0.8,2.8,1.8,3.7,2.5
					c2.1,1.5,4.1,1.4,5.4,3.6c1.7,2.9-2.2,5.8-4,9.8c-1,2.1-2.7,5.5-3.8,10.2c0,0.4,0.2,0.8,0.3,1.3
					C120.3,114.4,107.2,115.4,106.2,110.1z"/>
				<path class="st20" d="M106.2,110.1c0-0.2,0.1-0.3,0.1-0.5c1.9,3,7.7,3.2,10,1.8c-0.3-1.8-0.4-2.9-0.1-4.7
					c-3.9-1.5-6.1-3-9.6-4.9c-0.1-1.1,0-2.2,0.2-3.1c-1.4-1.7-1.9-3.1-1.8-4.4c3.6,0.8,6.6,1.9,10.1,3c5.8-7.4,7.5-9,10.6-8.2
					c2.4,0.6,1.3,4.9,0.5,6.1c-1,1.4-2.2,3-3,4.8c-1,2.1-2.7,5.5-3.8,10.2c0,0.4,0.2,0.8,0.3,1.3
					C120.3,114.4,107.2,115.4,106.2,110.1z"/>
				<g>
					<path class="st13" d="M84.3,161.2c0,0.2-0.2,0.7-0.3,0.9c-1.5,2-1.9,1-2.7,2c-0.9,1.1-0.7,1.6-1.4,2.3c-1,1.3-2.4,2.3-3.9,2.8
						c-1.8,0.6-5.6,0.2-5.9-2.1c0.7-0.9,2.2-1.3,3-2.1c1.2-1.2,1.6-2.3,2.3-3.6c0.3-0.6,0.9-1.6,1.3-2.5c0.1-0.3,0.2-0.5,0.4-0.8
						c3.3,1.9,5.1-1.2,5.8-0.5c0.3,0.3,0.5,0.7,0.7,1C83.9,159.4,84.3,160.7,84.3,161.2z"/>
					<path class="st24" d="M76.1,159.3c0.9,4.7,7,0.2,6.4-1.5c-0.3-0.7-0.2-1.4,0.1-2.2l-3.8-1.8c-0.6,1.4-1.3,2.6-2,3.9
						C76.5,158.2,76.3,158.8,76.1,159.3z"/>
					<path class="st25" d="M83.9,160.6c0,0.2-0.2,0.7-0.3,0.9c-1.5,2-2,1.1-2.7,2.1c-0.8,1.1-0.7,1.5-1.3,2.2
						c-1.2,1.5-2.8,2.6-4.6,3c-1.6,0.3-4.3,0-5-1.6c1-0.8,1.8-1.6,2.7-2.7c1.1-1.3,1.6-2.3,2.3-3.6c0.3-0.6,0.9-1.6,1.3-2.5
						c0.1-0.3,0.2-0.5,0.4-0.8c1.7,1,5,0.2,5.8-1.1c0,0.2-0.2,0.5,0,0.6c0.3,0.3,0.5,0.7,0.7,1C83.6,158.8,84,160,83.9,160.6z"/>
					<linearGradient id="SVGID_12_" gradientUnits="userSpaceOnUse" x1="94.7816" y1="125.6948" x2="97.0522" y2="130.1854">
						<stop  offset="0" style="stop-color:#3E4795"/>
						<stop  offset="1" style="stop-color:#273088"/>
					</linearGradient>
					<path class="st26" d="M107,130.4c-4.4,0.7-7.9,1.4-11.7,2.2c-1.1,0.3-1.7,0.7-2.1,1.3c-0.8,1.3-0.4,3.5-1,6.5
						c-1,5.3-6.5,10.7-9.7,15.5c-1.4,1.5-5,1.3-5.1-0.5c2.7-6,6.1-13.5,7.1-20.3c0.7-4.4,2.1-7.3,5.5-9.1c6.1-3.8,10.6-6.5,16.8-9.2
						c-0.6-1.5-0.9-3.7-1-4.7c-0.1-1.2,0.2-1.2,0.4-2c2.2,3.3,9.3,3.4,13.5,1.5c0.9,1.5,2.3,3.1,2.7,4.9c0.9,4.1-0.5,7.4-3,9.5
						C116.5,128.3,110.6,129.8,107,130.4z"/>
				</g>
				<g>
					<linearGradient id="SVGID_13_" gradientUnits="userSpaceOnUse" x1="98.7262" y1="93.2516" x2="99.621" y2="92.059">
						<stop  offset="0" style="stop-color:#FF8A78"/>
						<stop  offset="1" style="stop-color:#FFA799"/>
					</linearGradient>
					<path class="st27" d="M99.9,90.6c1,0.4,1,0.7,2,2.4c0.7,1.2,1.5,1.5,2.5,2.1l-2,1.8c-0.8-0.7-1.2-0.4-2.3-1.2
						c-0.5-0.3-1.8-1-2.3-2.3c-0.5-1.3-2-1.9-3.1-2.8c-0.5-0.5,0.4-1.9,0.3-2C95.8,88.8,98.8,90.2,99.9,90.6z"/>
					<linearGradient id="SVGID_14_" gradientUnits="userSpaceOnUse" x1="113.2228" y1="102.6919" x2="116.5154" y2="86.403">
						<stop  offset="0" style="stop-color:#965CF2"/>
						<stop  offset="1" style="stop-color:#FF8ADC"/>
					</linearGradient>
					<path class="st28" d="M103.1,94.2c0.2,0.2,0.5,0.4,0.8,0.5c0.2,0,0.7-0.1,1,0.1c1.7,0.9,3,1.1,4.6,1.6c1.9,0.6,4.2,1.5,5.8,2.4
						c1.6-3.1,4.9-6.8,7.5-9.3c2-1.8,4-0.6,4.7,0.4c1.3,1.8,0.7,4-0.5,5.6c-2.2,2.6-6,5.4-8.5,7.8c-0.4,0.4-0.7,0.6-1.1,0.9
						c-0.5,0.4-1.2,0.5-1.9,0.3c-0.4-0.1-1-0.2-1.5-0.4c-1.9-0.6-4.5-1.9-6.3-3c-1.5-0.9-3.4-1.9-4.9-3.4c-0.1-0.1-0.3-0.5-0.4-0.7
						c-0.2-0.2-0.4-0.3-0.6-0.4C101.1,96.2,102.4,94.2,103.1,94.2z"/>
				</g>
				<g>
					<path class="st24" d="M120.7,80.7c-0.8,1.9-1.1,3.9-0.9,6c-2,1.2-4.8-0.2-5.2-1.7c0.4-0.9,0.7-1.7,1-2.6L120.7,80.7z"/>
					<linearGradient id="SVGID_15_" gradientUnits="userSpaceOnUse" x1="117.7717" y1="82.8127" x2="117.704" y2="85.1605">
						<stop  offset="0" style="stop-color:#FF8A78"/>
						<stop  offset="1" style="stop-color:#FFA799"/>
					</linearGradient>
					<path class="st29" d="M120.7,80.7c-0.4,0.9-0.7,1.9-0.8,2.8c-0.9,1.9-4.9,2.3-4.9,0.7c0.2-0.6,0.5-1.1,0.7-1.8L120.7,80.7z"/>
					<path class="st24" d="M115.8,70.5c-1.1,1.1-1.9,2.3-2.1,4.2c-0.1,0.5-0.2,0.8-0.4,1c-1.2,1.6-1.2,2.1-1.2,3.6
						c0.1,1.4-0.1,2.1,0.2,2.7c0.4,0.6,1.1,0.9,1.6,1c1.2,0.4,3.5,0,4.9-0.4c1-0.3,1.1-0.6,1.7-1.4c1.5-0.8,0.9-1.8,0.5-2
						c-1.2-0.5-1.7,0.9-2.5,1C119.2,77.9,115.4,72.6,115.8,70.5z"/>
					<linearGradient id="SVGID_16_" gradientUnits="userSpaceOnUse" x1="113.3756" y1="75.2564" x2="115.026" y2="80.1225">
						<stop  offset="0" style="stop-color:#FFB89E"/>
						<stop  offset="1" style="stop-color:#FFA799"/>
					</linearGradient>
					<path class="st30" d="M115,71.4c-0.7,0.9-1.2,1.9-1.3,3.4c-0.1,0.5-0.2,0.8-0.4,1c-1.2,1.6-1.2,2.1-1.2,3.6c0,0.6,0,1.1,0,1.6
						c0.2,0.5,0.7,0.9,1.3,0.7c0.6-0.1,1.2-0.6,1.6-1.6c0.3-0.7,1.8-0.8,2.3-1.5c0.4-0.6-0.1-1.4-0.5-1.8
						C115.7,75.2,115.2,73.3,115,71.4z"/>
					<path class="st31" d="M115.8,70.5c0,3.2,3.5,6.5,2.7,9.9C118.2,76.6,114.9,73.4,115.8,70.5z"/>
				</g>
			</g>
			<path class="st24" d="M85,71.7c-0.9-0.6-1.2-0.8-1.9-1.2c0,1.2,0.5,1.7,1.2,2.1c0.6,0.7,0.8,1.7,1.4,2.3c0.8,0.8,1.7,0.5,1.1-1
				C86.5,73,85.4,71.9,85,71.7z"/>
		</g>
		<linearGradient id="SVGID_17_" gradientUnits="userSpaceOnUse" x1="154.6212" y1="125.5406" x2="149.849" y2="107.1515">
			<stop  offset="0" style="stop-color:#1C8EF4"/>
			<stop  offset="1" style="stop-color:#00CFDD"/>
		</linearGradient>
		<path class="st32" d="M128,138.5c23.8-3.7,41.8-14.7,47.3-29.5V89.6c-5.5,14.8-23.6,25.9-47.3,29.5V138.5z"/>
		<linearGradient id="SVGID_18_" gradientUnits="userSpaceOnUse" x1="59.3312" y1="73.1981" x2="63.2165" y2="58.8733">
			<stop  offset="0" style="stop-color:#6D6AFE"/>
			<stop  offset="1" style="stop-color:#3FB0F7"/>
		</linearGradient>
		<path class="st33" d="M73.3,61.1C58.2,67,48.2,77.2,48.2,88.8V77.6c0-11.6,10-21.8,25.1-27.7V61.1z"/>
		<linearGradient id="SVGID_19_" gradientUnits="userSpaceOnUse" x1="160.633" y1="68.2196" x2="163.1598" y2="55.1116">
			<stop  offset="0" style="stop-color:#6D6AFE"/>
			<stop  offset="1" style="stop-color:#3FB0F7"/>
		</linearGradient>
		<path class="st34" d="M151.5,43.4c12.1,6,19.5,14.2,19.5,23.4c0,4.5,0,13.5,0,19.2c-3.4-5.4-8.8-13.2-19.5-18.7V43.4z"/>
		<g>
			<g>
				<linearGradient id="SVGID_20_" gradientUnits="userSpaceOnUse" x1="49.4322" y1="84.7211" x2="41.8747" y2="66.6025">
					<stop  offset="0" style="stop-color:#6D6AFE"/>
					<stop  offset="1" style="stop-color:#3FB0F7"/>
				</linearGradient>
				<path class="st35" d="M45.7,57.3h-0.2v30.5v1h0c0.2,6,2.3,11.7,6,17V72.1C48.3,67.5,46.2,62.5,45.7,57.3z"/>
				<linearGradient id="SVGID_21_" gradientUnits="userSpaceOnUse" x1="105.8736" y1="122.1408" x2="35.8345" y2="97.6187">
					<stop  offset="0" style="stop-color:#6D6AFE"/>
					<stop  offset="1" style="stop-color:#3FB0F7"/>
				</linearGradient>
				<path class="st36" d="M109.9,145c-24.4-2.6-44.9-12.1-55.7-25V79.3c10.8,12.9,31.2,22.4,55.7,25V145z"/>
				<linearGradient id="SVGID_22_" gradientUnits="userSpaceOnUse" x1="48.8211" y1="116.5368" x2="55.4141" y2="91.6782">
					<stop  offset="0" style="stop-color:#1C8EF4"/>
					<stop  offset="1" style="stop-color:#00CFDD"/>
				</linearGradient>
				<path class="st37" d="M59.6,116c-5.6-4.9-9.7-10.5-11.8-16.4V80.1c2.2,6,6.2,11.6,11.8,16.4V116z"/>
			</g>
			<g>
				<g>
					<polygon class="st38" points="75.8,107.2 74.8,118.6 84.5,119.1 					"/>
					<path class="st38" d="M78,123.3c-3.9-2.4-6.9-8.1-6.7-12.7c0.2-4.6,3.6-6.4,7.5-4c3.9,2.4,6.9,8.1,6.7,12.7
						C85.3,123.8,81.9,125.6,78,123.3L78,123.3z M77.9,125.2c4.8,2.9,9,0.7,9.3-5c0.3-5.7-3.4-12.7-8.2-15.7c-4.8-2.9-9-0.7-9.3,5
						C69.4,115.3,73.1,122.3,77.9,125.2z"/>
				</g>
				<g>
					<path class="st38" d="M106.4,140c0.4,0,0.7,0.4,0.7,0.9c0,0.4-0.4,0.7-0.9,0.7c-10.8-1.2-20.7-3.8-29.1-7.6
						c-8.6-3.9-15.7-8.9-20.5-14.8c-0.3-0.3-0.2-0.8,0.1-1.1c0.3-0.3,0.8-0.2,1.1,0.1c4.7,5.7,11.6,10.6,20,14.4
						C86,136.2,95.8,138.8,106.4,140z"/>
					<path class="st38" d="M73.5,130.7c0.3,0.1,0.4,0.5,0.2,0.7c-0.1,0.3-0.5,0.4-0.7,0.2c-3.4-1.8-6.4-3.7-9.2-5.9
						c-2.7-2.1-5.1-4.4-7.1-6.8c-0.2-0.2-0.2-0.6,0.1-0.8c0.2-0.2,0.6-0.2,0.8,0.1c1.9,2.4,4.3,4.6,6.9,6.7
						C67.2,127.1,70.2,129,73.5,130.7z"/>
				</g>
			</g>
		</g>
		<g>
			<g>
				<linearGradient id="SVGID_23_" gradientUnits="userSpaceOnUse" x1="152.0686" y1="110.59" x2="146.7308" y2="105.7667">
					<stop  offset="0" style="stop-color:#1C8EF4"/>
					<stop  offset="1" style="stop-color:#00CFDD"/>
				</linearGradient>
				<path class="st39" d="M144.9,129.6l21.3-12.4l-4.9-23.5l0,0l0,0l0,0l0,0l0,0l0,0l0,0l0,0l0,0l0,0l0,0v0l0,0l0,0l0,0l0,0l0,0l0,0
					l0,0l0,0l0,0l0,0l0,0l0,0l0,0l0,0l0,0l0,0h0l0,0l0,0l0,0l0,0l0,0l0,0l0,0l0,0l0,0l0,0l0,0l0,0l0,0l0,0l0,0l0,0l0,0l0,0l0,0l0,0
					l0,0l0,0l0,0l0,0l0,0l0,0l0,0l0,0h0l0,0l0,0l0,0l0,0l0,0l0,0l0,0l0,0l0,0l0,0l0,0l0,0l0,0l0,0l0,0l0,0l0,0l0,0l0,0l0,0l0,0l0,0
					l0,0l0,0l0,0l0,0l0,0l0,0l0,0l0,0l0,0l0,0l0,0l0,0l0,0l0,0l0,0l0,0l0,0l0,0l0,0l0,0l0,0l0,0l0,0l0,0l0,0c-0.1,0-0.2-0.1-0.3,0
					l-21.3,12.4C140.1,105.2,142.9,122.7,144.9,129.6z"/>
				<path class="st40" d="M161.3,93.8c-8.9,10.2-19.6,16.6-18.6,25.5l2.2,10.4l21.3-12.4L161.3,93.8z"/>
			</g>
			<g>
				<polygon class="st41" points="145.2,103.4 145.7,127.2 168,114.3 168,90.7 				"/>
				<polygon class="st42" points="145.6,103.6 145.2,103.3 145.2,126.9 145.7,127.2 				"/>
				<polygon class="st43" points="168,90.7 167.5,90.5 145.2,103.3 145.6,103.6 				"/>
				<path class="st42" d="M146.5,122.1l0,1.5l20.7-11.9l0-1.5L146.5,122.1L146.5,122.1z M146.4,105l0,1.5l20.7-11.9l0-1.5L146.4,105
					L146.4,105z M146.5,107.4l20.7-11.9l0,1.5l-20.7,11.9L146.5,107.4L146.5,107.4z M146.5,109.9l20.7-11.9l0,1.5l-20.7,11.9
					L146.5,109.9L146.5,109.9z M146.5,112.3l20.7-11.9l0,1.5l-20.7,11.9L146.5,112.3L146.5,112.3z M146.5,114.8l20.7-11.9l0,1.5
					l-20.7,11.9L146.5,114.8L146.5,114.8z M146.5,117.2l20.7-11.9l0,1.5l-20.7,11.9L146.5,117.2L146.5,117.2z M146.5,119.6
					l20.7-11.9l0,1.5l-20.7,11.9L146.5,119.6z"/>
			</g>
			<linearGradient id="SVGID_24_" gradientUnits="userSpaceOnUse" x1="161.3204" y1="118.6121" x2="154.8576" y2="104.3539">
				<stop  offset="0" style="stop-color:#1C8EF4"/>
				<stop  offset="1" style="stop-color:#00CFDD"/>
			</linearGradient>
			<path class="st44" d="M150.7,112.5l-5.1,17.8l0,0c-0.1,0.2-0.2,0.5-0.3,0.6l21.3-12.4c0.2-0.1,0.3-0.4,0.3-0.6l5.1-17.8l0,0
				l1-3.3c0-0.3-0.1-0.6-0.2-0.6c-0.9,0.8-5.6,3.7-6.5,4.2c-1.5,1.1-1.5,2.6-3.7,4.9c-0.4,0.4-0.6,0.6-1.1,0.9L150.7,112.5z"/>
			<path class="st45" d="M150.4,111.8c0,0-0.1-0.1-0.1-0.1c-0.2-0.1-0.3-0.1-0.4,0.1l-5,17.7l-4.9-23.5c0-0.2-0.2-0.4-0.4-0.5
				c0,0-0.1,0-0.1,0c-0.2-0.1-0.3,0.1-0.3,0.4l5,23.6c0.1,0.4,0.2,0.7,0.3,0.9c0.1,0.2,0.2,0.4,0.4,0.5c0.2,0.1,0.3,0.1,0.4,0
				c0.1-0.1,0.2-0.3,0.3-0.6l5.1-17.8C150.7,112.3,150.6,112,150.4,111.8z"/>
			<path class="st46" d="M160.8,105.5l-10.7,6.2c0.3-0.1,0.7,0.5,0.6,0.8l10.8-6.3c0.4-0.2,0.6-0.3,0.9-0.6c1.5-1.2,2.3-2.9,3.3-4.2
				c0.3-0.4,0.6-0.7,0.9-0.9c0.3-0.1,0.4-0.2,0.4-0.2l6-3.5c0-0.3-0.1-0.5-0.2-0.6c-0.1-0.1-0.3-0.3-0.5-0.2l-6,3.5
				c0,0-0.1,0.1-0.4,0.2c-0.3,0.2-0.6,0.5-0.9,0.9c-1.1,1.4-1.8,3-3.6,4.4C161.3,105.2,161.1,105.3,160.8,105.5z"/>
		</g>
		<linearGradient id="SVGID_25_" gradientUnits="userSpaceOnUse" x1="102.2063" y1="165.8615" x2="103.8055" y2="160.2853">
			<stop  offset="0" style="stop-color:#1C8EF4"/>
			<stop  offset="1" style="stop-color:#00CFDD"/>
		</linearGradient>
		<path class="st47" d="M103.1,159.3c1.8,0,3.2,1.5,3.2,3.3c0,1.8-1.4,3.3-3.2,3.3c-1.8,0-3.2-1.5-3.2-3.3
			C100,160.8,101.4,159.3,103.1,159.3z"/>
		<linearGradient id="SVGID_26_" gradientUnits="userSpaceOnUse" x1="171.3268" y1="88.127" x2="173.4793" y2="83.5285">
			<stop  offset="0" style="stop-color:#6D6AFE"/>
			<stop  offset="1" style="stop-color:#3FB0F7"/>
		</linearGradient>
		<path class="st48" d="M172.4,83c1.5,0,2.7,1.2,2.7,2.8c0,1.5-1.2,2.8-2.7,2.8c-1.5,0-2.7-1.2-2.7-2.8C169.8,84.2,171,83,172.4,83z
			"/>
		<g>
			<linearGradient id="SVGID_27_" gradientUnits="userSpaceOnUse" x1="66.7839" y1="57.4002" x2="69.8052" y2="30.4082">
				<stop  offset="0" style="stop-color:#1C8EF4"/>
				<stop  offset="1" style="stop-color:#00CFDD"/>
			</linearGradient>
			<path class="st49" d="M57.9,43.6l0,17.3c0,1.3,0.9,1.8,2,1.1l16.2-9.4c1.1-0.6,2-2.2,2-3.5l-0.1-24c0-1.3-0.9-1.8-2-1.1
				l-10.6,6.1L57.9,43.6z"/>
			<g>
				<path class="st50" d="M73.2,45.6c-0.5,0.2-0.9,0.5-1.3,1c-0.8,0.9-1.3,2.3-1.7,3.6c-0.7,2.1-1.4,4.2-3.2,5.3
					c-0.1,0-0.1,0.1-0.2,0.1c-1.7,1-2.9,0.2-4.3-0.6c-0.9-0.5-1.8-1.1-2.9-1.2c-0.6,0-0.5-0.9,0.1-1.2c0.1-0.1,0.2-0.1,0.3-0.1
					c1.2,0.1,2.2,0.7,3.2,1.3c3.5,2.1,4.7-0.7,5.7-3.5c0.6-1.7,1-3.4,2.2-4.7c0.6-0.6,1.2-1,1.9-1.2c0.1-1.1,0.9-2,1.9-2
					c1,0,1.9,1,1.9,2.3c0,1.3-0.8,2.3-1.9,2.3C74.1,46.9,73.5,46.4,73.2,45.6z"/>
				<g>
					<path class="st50" d="M75.4,33.5l-7.9,4.5c-0.3,0.2-0.6,0-0.6-0.3l0-1.2c0-0.4,0.3-0.8,0.6-1l7.9-4.5c0.3-0.2,0.6,0,0.6,0.3
						l0,1.2C76,32.9,75.8,33.3,75.4,33.5z"/>
					<path class="st50" d="M60.5,45.8c-0.2,0.1-0.4,0-0.4-0.2l0-0.8c0-0.3,0.2-0.6,0.4-0.7l15.1-8.7c0.2-0.1,0.4,0,0.4,0.2l0,0.8
						c0,0.3-0.2,0.6-0.4,0.7L60.5,45.8z"/>
				</g>
			</g>
			<g>
				<linearGradient id="SVGID_28_" gradientUnits="userSpaceOnUse" x1="64.0767" y1="50.1624" x2="61.3112" y2="36.6529">
					<stop  offset="0" style="stop-color:#6D6AFE"/>
					<stop  offset="1" style="stop-color:#3FB0F7"/>
				</linearGradient>
				<path class="st51" d="M57.9,47.1c1.2-1.1,4-3.3,6.2-5.3c2-1.8,2-2.8,1.9-5l-0.4-6.5l-0.1,0.1l-7.6,13.3L57.9,47.1z"/>
				<path class="st46" d="M57.9,43.6l5.6-3.2c1.1-0.6,2-2.2,2-3.5l0-6.6L57.9,43.6z"/>
			</g>
		</g>
		<g>
			<linearGradient id="SVGID_29_" gradientUnits="userSpaceOnUse" x1="155.9126" y1="58.9211" x2="152.1001" y2="31.6776">
				<stop  offset="0" style="stop-color:#965CF2"/>
				<stop  offset="1" style="stop-color:#FF8ADC"/>
			</linearGradient>
			<path class="st52" d="M164.6,45.7l0,17.3c0,1.3-0.9,1.8-2,1.1l-16.2-9.4c-1.1-0.6-2-2.2-2-3.5l0.1-24c0-1.3,0.9-1.8,2-1.1
				l10.6,6.1L164.6,45.7z"/>
			<g>
				<path class="st53" d="M147.1,35.7l7.9,4.5c0.3,0.2,0.6,0,0.6-0.3l0-1.2c0-0.4-0.3-0.8-0.6-1l-7.9-4.5c-0.3-0.2-0.6,0-0.6,0.3
					l0,1.2C146.5,35,146.7,35.5,147.1,35.7z"/>
				<path class="st53" d="M161.9,48.4c0.2,0.1,0.4,0,0.4-0.2l0-0.8c0-0.3-0.2-0.6-0.4-0.7L146.9,38c-0.2-0.1-0.4,0-0.4,0.2l0,0.8
					c0,0.3,0.2,0.6,0.4,0.7L161.9,48.4z"/>
				<path class="st53" d="M161.9,52.5c0.2,0.1,0.4,0,0.4-0.2l0-0.8c0-0.3-0.2-0.6-0.4-0.7l-15.1-8.7c-0.2-0.1-0.4,0-0.4,0.2l0,0.8
					c0,0.3,0.2,0.6,0.4,0.7L161.9,52.5z"/>
				<path class="st53" d="M161.9,56.6c0.2,0.1,0.4,0,0.4-0.2l0-0.8c0-0.3-0.2-0.6-0.4-0.7l-15.1-8.7c-0.2-0.1-0.4,0-0.4,0.2l0,0.8
					c0,0.3,0.2,0.6,0.4,0.7L161.9,56.6z"/>
				<path class="st53" d="M161.9,60.8c0.2,0.1,0.4,0,0.4-0.2l0-0.8c0-0.3-0.2-0.6-0.4-0.7l-15.1-8.7c-0.2-0.1-0.4,0-0.4,0.2l0,0.8
					c0,0.3,0.2,0.6,0.4,0.7L161.9,60.8z"/>
			</g>
			<g>
				<linearGradient id="SVGID_30_" gradientUnits="userSpaceOnUse" x1="159.0022" y1="49.3537" x2="161.7678" y2="35.844">
					<stop  offset="0" style="stop-color:#6D6AFE"/>
					<stop  offset="1" style="stop-color:#3FB0F7"/>
				</linearGradient>
				<path class="st54" d="M164.6,49.2c-1.2-1.1-4-3.3-6.2-5.3c-2-1.8-2-2.8-1.9-5l0.4-6.5l0.1,0.1l7.6,13.3L164.6,49.2z"/>
				<path class="st55" d="M164.6,45.7l-5.6-3.2c-1.1-0.6-2-2.2-2-3.5l0-6.6L164.6,45.7z"/>
			</g>
		</g>
		<g>
			<path class="st56" d="M128.3,37.3c0-0.2,0.5-2.7,0.8-2.8c0.4-0.3,0.8-0.6,1-0.7c0.8-0.4,1.8-0.4,3,0.1l14.4,6.5
				c2.6,1.2,4.7,4.6,4.7,7.6l-0.1,15.3c0,0.9-0.2,2.2-0.9,2.9c-0.5,0.5-1.4,1.1-2.1,1.2c-0.7,0.2-1-0.4-1.8-0.7l-14.4-6.5
				c-2.6-1.2-4.7-4.6-4.7-7.6L128.3,37.3z"/>
			<path class="st50" d="M127.6,37.7c0-3,2.1-4.6,4.8-3.4l14.4,6.5c2.6,1.2,4.7,4.6,4.7,7.6l-0.1,15.3c0,3-2.1,4.6-4.8,3.4
				l-14.4-6.5c-2.6-1.2-4.7-4.6-4.7-7.6L127.6,37.7z"/>
			<linearGradient id="SVGID_31_" gradientUnits="userSpaceOnUse" x1="138.5222" y1="64.6894" x2="140.218" y2="58.7389">
				<stop  offset="0" style="stop-color:#6D6AFE"/>
				<stop  offset="1" style="stop-color:#3FB0F7"/>
			</linearGradient>
			<path class="st57" d="M149.5,67.3c-1.4-3.5-2.3-5.4-4.9-6.3c-0.9-0.3-2.1-0.1-3.5-0.8l-3.9-1.4c-1.9-1.1-2.9-2.2-3.8-2.6
				c-1.6-0.7-2.6-0.2-4.6,1.2c0.9,1.4,2.1,2.6,3.4,3.2l14.4,6.5C147.7,67.6,148.7,67.6,149.5,67.3z"/>
			<linearGradient id="SVGID_32_" gradientUnits="userSpaceOnUse" x1="139.6261" y1="42.562" x2="141.2313" y2="38.6435">
				<stop  offset="0" style="stop-color:#6D6AFE"/>
				<stop  offset="1" style="stop-color:#3FB0F7"/>
			</linearGradient>
			<path class="st58" d="M127.6,37.7c0-3,2.1-4.6,4.8-3.4l14.4,6.5c2.6,1.2,4.7,4.6,4.7,7.6l0,0.2c-0.2-0.1-0.5-0.2-0.7-0.3
				L127.6,37.7L127.6,37.7z"/>
			<g>
				<path class="st59" d="M142,48.5c-0.9-0.7-1.9-1.3-2.8-2c-0.9-0.7-1.9-1.3-2.8-2c-0.4,0.4-0.7,0.9-1.1,1.3c0,1.3-0.1,1.8,0.3,3.2
					c0.1,0.4,0.2,0.9,0.3,1.3c0.2,0.8,0.4,1.5,0.6,2.3c0.9,0.5,1.8,1,2.8,1.5c0.7,0.3,1.5,0.6,2.2,0.8c0.3-1.2,0.5-2.3,0.6-3.1
					C142.2,50.6,142.1,49.3,142,48.5z"/>
				<linearGradient id="SVGID_33_" gradientUnits="userSpaceOnUse" x1="139.9657" y1="56.5093" x2="139.6527" y2="58.2459">
					<stop  offset="0" style="stop-color:#FF8A78"/>
					<stop  offset="1" style="stop-color:#FFA799"/>
				</linearGradient>
				<path class="st60" d="M141.2,55.7c0,1.2,0.3,1.9,0.7,2.6c0.5,0.8,1.3,1.5,2.6,2.4c1.7,1.3,2.3,1.8,2.6,2.6
					c0.1,0.2,0.2,0.5,0.2,0.8c-0.6,0.6-1.2,1-2,1.3c-2-0.9-4-1.7-6-2.6c-2-0.9-4-1.8-6.1-2.7c-0.8-1-1.5-2-2.1-3.2
					c0-0.2,0.1-0.4,0.2-0.5c0.3-0.5,0.8-0.5,2.5-0.3c1.2,0.1,2,0.2,2.5-0.2c0.4-0.3,0.6-0.8,0.5-1.9c0-0.1,0-0.2,0-0.2
					c1,0.6,1.6,0.9,2.1,1.2C139.6,55.2,140.1,55.4,141.2,55.7z"/>
				<linearGradient id="SVGID_34_" gradientUnits="userSpaceOnUse" x1="138.6911" y1="65.8736" x2="140.2616" y2="56.7972">
					<stop  offset="0" style="stop-color:#6D6AFE"/>
					<stop  offset="1" style="stop-color:#3FB0F7"/>
				</linearGradient>
				<path class="st61" d="M142,58.5c0.5,0.7,1.3,1.4,2.5,2.3c1.7,1.3,2.3,1.8,2.6,2.6c0.1,0.2,0.2,0.5,0.2,0.8
					c0.1,0.8,0.1,2,0.2,3.3c-0.2-0.1-0.5-0.1-0.8-0.3l-14.4-6.5c-0.4-0.2-0.8-0.4-1.2-0.7c0-1.2,0.1-2.3,0.1-3
					c0-0.2,0.1-0.4,0.2-0.5c0.1-0.3,0.4-0.4,0.8-0.4c0.4,0,0.9,0,1.8,0.1c1,0.1,1.8,0.2,2.3-0.1c0.4,1.3,1.8,2.5,3.1,3
					C140.6,59.6,141.9,59.6,142,58.5z"/>
				<path class="st62" d="M142.6,59.1c-0.5,1.4-1.9,1.4-3.3,0.7c-1.5-0.7-2.9-2.1-3.5-3.7c0.2-0.1,0.4-0.2,0.6-0.2
					c0.3,0.7,1.5,1.9,2.7,2.6c1.2,0.7,2.5,0.9,2.9-0.3C142.1,58.6,142.3,58.8,142.6,59.1z"/>
				<path class="st24" d="M141.8,52C141.8,52,141.8,51.9,141.8,52c0.2-0.4,0.4-0.4,0.6-0.2c0.4,0.6,0,1.2-0.1,1.6
					c-0.1,0.4,0,0.8-0.3,0.8c-0.2,0-0.3-0.2-0.4-0.6c0-0.5,0-1,0-1.5C141.6,52,141.7,52,141.8,52z"/>
				<path class="st24" d="M136,49.4c0,0,0-0.1-0.1-0.1c-0.2-0.5-0.4-0.7-0.6-0.6c-0.4,0.2,0,1.2,0.2,1.7c0.1,0.5,0,0.8,0.4,1.1
					c0.2,0.1,0.3,0.1,0.4-0.3c0-0.5-0.1-1-0.1-1.6C136.2,49.6,136.1,49.5,136,49.4z"/>
				<path class="st24" d="M138,55.4c-0.2-0.2-0.3-0.5-0.6-0.8c-0.3-0.4-0.8-0.9-1-1.4c-0.2-0.5-0.2-1.1-0.2-1.6
					c0-0.4-0.2-0.8-0.3-1.4c0-0.3-0.1-0.7-0.1-1.1c0-0.3,0-0.6,0-0.9c0-2,0.3-3.8,2.6-2.9l0,0c0,0,0.1,0,0.1,0c0,0,0.1,0,0.1,0.1
					c0,0,0,0,0.1,0c0,0,0,0,0.1,0c0,0,0.1,0,0.1,0c0,0,0.1,0,0.1,0l0,0c2.2,1,2.7,3.2,2.9,5.3c0,0.3,0,0.6,0,0.9c0,0.4,0,0.7,0,1
					c-0.1,0.5-0.2,0.8-0.2,1.1c0,0.5,0,1.1-0.1,1.5c-0.1,0.3-0.6,0.4-0.9,0.6c-0.2,0.1-0.4,0.3-0.5,0.3c-0.1,0-0.2,0.1-0.4,0.1
					c-0.2,0-1-0.4-1.3-0.6C138.3,55.7,138.2,55.5,138,55.4z"/>
				<g>
					<path class="st59" d="M141.8,53.6c-0.1,0.2-0.1,0.4-0.1,0.6c0,0.6,0,1-0.1,1.3c-0.1,0.3-0.6,0.6-0.9,0.8
						c-0.4,0.2-0.6,0.4-1.1,0.4c-0.1,0-0.3-0.1-0.5-0.2c-0.2-0.1-0.4-0.2-0.5-0.3c-0.4-0.3-0.7-0.8-1.1-1.4c-0.3-0.4-0.8-1.1-1-1.6
						c-0.2-0.5-0.2-0.8-0.2-1.5c0-0.2-0.1-0.4-0.1-0.7c0,0.1,0.1,0.1,0.1,0.2c0.2,0.8,0.4,0.9,0.6,1.4c0.2,0.4,0.2,0.5,0.3,0.7
						c0.1,0.3,0.2,0.5,0.5,0.7c-0.1-0.3-0.3-0.7-0.2-0.8c0,0,0.4,0,0.6-0.2c0.2-0.2,0.3-0.3,0.5-0.2c0.2,0.1,0.3,0.3,0.4,0.3
						c0.1,0,0.2,0,0.4,0.1c0.2,0.1,0.3,0.2,0.6,0.7c0.3,0.5,0.6,0.7,0.7,0.8c0.1,0.2-0.1,0.4-0.2,0.7c0.3,0.1,0.4,0,0.5-0.2
						c0.1-0.1,0.1-0.3,0.2-0.5C141.3,54.2,141.5,54.3,141.8,53.6C141.7,53.6,141.7,53.6,141.8,53.6L141.8,53.6z M138.7,54.5
						c0.2,0,0.2,0.1,0.3,0.1c0.1,0,0.1,0.1,0.3,0.2c0.2,0.1,0.3,0.1,0.3,0.1c0.1,0,0.2,0,0.4-0.1c0.1,0,0.2-0.1,0.3-0.2c0,0,0,0,0,0
						c0,0,0,0,0,0c-0.3-0.2-0.4-0.3-0.5-0.4c-0.2-0.2-0.3-0.4-0.5-0.5c-0.1-0.1-0.2-0.1-0.3,0.1c-0.1-0.2-0.2-0.3-0.3-0.3
						c-0.2-0.1-0.3,0-0.5,0c-0.1,0-0.2,0.1-0.5,0c0,0,0,0,0,0c0,0,0,0,0,0c0.1,0.1,0.2,0.3,0.3,0.4c0.1,0.2,0.3,0.3,0.4,0.4
						C138.5,54.4,138.6,54.4,138.7,54.5z"/>
					<path class="st59" d="M139,47.6c0.7,0.5,0.8,0.3,1.1,0.5c0.2,0.1,0.3,0.4,0.7,0.5c0.2,1,0.2,1.1,0.8,2.1c0,0.2,0,0.5,0,0.7
						c0,0.4,0,0.7,0.1,0.9c0,0.6-0.1,1.2,0,1.7c0.1-0.7,0.3-1,0.3-1.8c0-0.2,0-0.3,0-0.5c0.1-0.4,0-0.8-0.1-1c0-0.2,0.2-0.1,0.2-0.2
						c0-0.1-0.1-0.3-0.1-0.4c0-0.1,0.1-0.2,0.1-0.4c0-0.2-0.1-0.4-0.1-0.6c0.2-0.2,0.3-0.4,0.4-0.6c-0.1-0.1-0.1-0.1-0.2-0.2
						c0.2-0.7-0.2-0.7-0.2-1c0-0.2,0.1-0.1,0.2,0c0.1,0.2,0.2,0.5,0.2,0.5c0.1-1-0.7-1.6-1.4-2.2c-0.3-1.2-1.4-1.6-2.1-1.6
						c-0.8-1.1-1.7-1.1-2.4-0.7c-0.7,0-1.1-0.1-1.2,1.3c0-0.4,0-0.7,0-1c-0.1,0.4-0.1,0.7-0.1,1.1c-0.3-0.3-0.3-0.3-0.5-0.7
						c0.1,0.5,0.1,0.6,0.2,1.1c-0.1-0.1-0.1-0.1-0.2-0.2c0.1,0.4,0.1,0.4,0.2,0.8c-0.1-0.1-0.2-0.2-0.3-0.3c0.1,0.8,0.2,1,0.6,1.6
						c0,0.4,0.1,0.9,0.1,1.2c0.1,0.3,0.1,0.5,0.2,0.8c0.1,0.2,0.1,0.4,0.2,0.6c0,0.2,0.1,0.3,0.1,0.4c0.1,1,0,0.9,0.4,1.9
						c-0.1-0.9-0.2-0.9-0.3-2c0-0.1-0.1-0.8-0.1-1.3c0-0.3,0.2-0.3,0.2-0.6c0-1-0.4-1.7,0.2-1.5c0.7,0.3,0.9,0.8,1.4,0.4
						C138.5,47.5,138.6,47.6,139,47.6z"/>
					<path class="st63" d="M135.8,46.7c-0.3,0.5-0.4,0.9-0.1,1.5c0.2,0.6,0.2,0.7,0.3,1.2c0-0.2-0.1-0.9,0-1c0-0.3,0.2-0.6,0.1-1.5
						c0.1,0.9-0.1,1-0.2,1.5c0-0.3,0-0.5,0.1-0.8c0-0.2,0-0.5,0-0.7c0,0.2-0.1,0.4-0.1,0.6c0,0.2,0,0.4,0,0.6
						C135.6,47.5,135.7,47.2,135.8,46.7z"/>
				</g>
			</g>
			<g>
				<path class="st50" d="M130.2,35.2c0.5,0.1,1,0.6,1,1.2c0.1,0.6-0.3,1-0.8,1c-0.5-0.1-1-0.6-1-1.2
					C129.3,35.5,129.7,35.1,130.2,35.2z"/>
				<path class="st50" d="M132.6,36.2c0.5,0.1,1,0.6,1,1.2c0.1,0.6-0.3,1-0.8,1c-0.5-0.1-1-0.6-1-1.2
					C131.7,36.6,132.1,36.2,132.6,36.2z"/>
				<path class="st50" d="M135.2,37.4c0.5,0.1,1,0.6,1,1.2c0.1,0.6-0.3,1-0.8,1c-0.5-0.1-1-0.6-1-1.2
					C134.3,37.7,134.7,37.3,135.2,37.4z"/>
			</g>
			<g>
				<linearGradient id="SVGID_35_" gradientUnits="userSpaceOnUse" x1="130.3021" y1="45.7886" x2="130.7799" y2="41.0276">
					<stop  offset="0" style="stop-color:#6D6AFE"/>
					<stop  offset="1" style="stop-color:#3FB0F7"/>
				</linearGradient>
				<path class="st64" d="M130.3,41.2c1.2,0.1,2.2,1.4,2.3,2.7c0.1,1.4-0.7,2.4-1.9,2.2c-1.2-0.1-2.2-1.4-2.3-2.7
					C128.3,42.1,129.1,41.1,130.3,41.2z"/>
				<polygon class="st50" points="129.6,42 129.6,45.1 132.2,44.9 				"/>
			</g>
		</g>
		<g>
			<g>
				<linearGradient id="SVGID_36_" gradientUnits="userSpaceOnUse" x1="86.7892" y1="46.3386" x2="69.3626" y2="54.3547">
					<stop  offset="0" style="stop-color:#6D6AFE"/>
					<stop  offset="1" style="stop-color:#3FB0F7"/>
				</linearGradient>
				<path class="st65" d="M95.5,39c-1.5,0.4-2.4,1-3.4,2c0-0.2,0,0.6,0-0.7c0-0.4-1-5-1.6-5.4c-0.7-0.5-1.4-0.9-1.7-1
					c-1-0.5-2.1-0.6-3.3-0.3c-1.8,0.4-3.5,1.8-4.6,3.6c-1.2,1.8-1.9,5.1-1.9,6.4c0,1.3,0,0.4,0,0.7c-1-0.5-1.9-0.8-3.5-0.4
					c-1.6,0.4-3.5,1.8-4.7,3.6c-1.2,1.8-2,4.2-2,6.5c0,1.8,0.5,3.4,1.2,4.6c0.8,1.2,2.3,2.2,3.4,2.8c3.1,1.8,9.1-2.4,12.2-3.2
					c3.3-0.9,6.7-1.7,10-2.6c1.8-0.5,3.4-1.8,4.6-3.6c1.2-1.8,1.9-4.1,1.8-6.4c0-0.5-0.9-4.8-1.1-5C99,39.1,97,38.6,95.5,39z"/>
				<linearGradient id="SVGID_37_" gradientUnits="userSpaceOnUse" x1="80.5813" y1="59.5145" x2="93.0307" y2="40.7597">
					<stop  offset="0" style="stop-color:#6D6AFE"/>
					<stop  offset="1" style="stop-color:#3FB0F7"/>
				</linearGradient>
				<path class="st66" d="M96.6,39.7c-1.5,0.4-2.4,1-3.4,2c0-0.2,0,0.6,0-0.7c0-1.3-0.8-4.2-1.9-5.4c-1.2-1.2-2.8-1.8-4.6-1.3
					c-1.8,0.4-3.5,1.8-4.6,3.6c-1.2,1.8-1.9,5.1-1.9,6.4c0,1.3,0,0.4,0,0.7c-1-0.5-1.9-0.8-3.5-0.4c-1.6,0.4-3.5,1.8-4.7,3.6
					c-1.2,1.8-2,4.1-2,6.5c0,2.4,0.7,4.3,2,5.5c1.2,1.2,2.9,1.8,4.8,1.3c3.4-0.9,6.8-1.7,10.1-2.6c3.3-0.9,6.7-1.7,10-2.6
					c1.8-0.5,3.4-1.8,4.6-3.6c1.2-1.8,1.9-4.1,1.8-6.4c0-2.3-0.8-4.2-1.9-5.4C100,39.7,98.1,39.3,96.6,39.7z"/>
			</g>
			<g>
				<polygon class="st50" points="93.1,50.1 96.2,49.2 91.3,55.7 86.4,51.9 89.5,51 89.5,43.8 93.1,42.8 				"/>
				<polygon class="st50" points="82.4,50.4 79.3,51.3 84.1,44.8 89,48.7 85.9,49.5 86,56.7 82.4,57.7 				"/>
			</g>
		</g>
		<g>
			<path class="st50" d="M55.6,56.9c-3.4,2.1-6.6,0.4-7.2-3.8c-0.6-4.2,1.6-9.3,5-11.4c3.4-2.1,6.6-0.4,7.2,3.8
				C61.2,49.6,59,54.8,55.6,56.9z"/>
			<path class="st67" d="M55.1,55.3c2.7-1.7,4.5-5.9,4-9.3c-0.5-3.4-3.1-4.8-5.8-3.1c-2.7,1.7-4.5,5.9-4,9.3
				C49.8,55.6,52.4,57,55.1,55.3L55.1,55.3z M55.3,56.7c-1.2,0.8-1.9,1.4-3,1.2c-0.6-0.1-1.6-0.7-2.1-1c-1.1-0.8-1.8-2.1-2.1-4
				c-0.6-4.2,1.6-9.3,5-11.4c1.6-1,3.2-1.2,4.5-0.5c0.2,0.1,0.8,0.4,1,0.6c1,0.8,1.4,2,1.7,3.8C60.9,49.5,58.7,54.6,55.3,56.7z"/>
			<linearGradient id="SVGID_38_" gradientUnits="userSpaceOnUse" x1="57.2264" y1="53.1988" x2="52.6801" y2="46.4853">
				<stop  offset="0" style="stop-color:#6D6AFE"/>
				<stop  offset="1" style="stop-color:#3FB0F7"/>
			</linearGradient>
			<path class="st68" d="M50.3,51.8l0.7-0.5l0.1,0.4l-0.8,0.4c0,0,0-0.1,0-0.1C50.3,51.9,50.3,51.9,50.3,51.8L50.3,51.8z M51.8,47.5
				L51.6,48L51,47.6c0-0.1,0.1-0.2,0.1-0.3L51.8,47.5L51.8,47.5z M58.3,44.9l-0.6,0.8l-0.2-0.3l0.7-0.7
				C58.2,44.8,58.2,44.8,58.3,44.9L58.3,44.9z M58.1,46.9l0.8-0.4c0,0.1,0,0.1,0,0.2c0,0,0,0.1,0,0.1l-0.7,0.5L58.1,46.9L58.1,46.9z
				 M58.8,48.7c0,0.1,0,0.2-0.1,0.3L58,49.2l0.1-0.5L58.8,48.7L58.8,48.7z M57,53.1c-0.1,0.1-0.1,0.2-0.2,0.3l-0.5-0.6l0.3-0.4
				L57,53.1L57,53.1z M54,54.2l-0.2,1.1c-0.1,0-0.2,0-0.2,0l0.1-1L54,54.2L54,54.2z M52.7,54l-0.5,1c-0.1,0-0.1-0.1-0.2-0.1l0.4-1
				L52.7,54L52.7,54z M54.4,49.4l-1.9,4.4l0.1,0.1l1.8-3.9l0,0.1l0.3-0.2l-0.1-0.5l0.3-0.6l-0.1-0.1l1.6-3.9l0,0l-1.7,3.9l-0.1,0
				l-0.1,0.2l-0.5-3.1L54,45.8L54.4,49.4L54.4,49.4z M52.2,45.6c0.1-0.1,0.1-0.2,0.2-0.3l0.4,0.6l-0.3,0.4L52.2,45.6L52.2,45.6z
				 M53.7,44.1c0,0,0.1-0.1,0.1-0.1c0,0,0.1-0.1,0.1-0.1l0.2,0.9L53.8,45L53.7,44.1L53.7,44.1z M55.2,44.4l0.2-1c0.1,0,0.2,0,0.2,0
				l-0.1,1L55.2,44.4L55.2,44.4z M56.5,44.6l0.5-1c0.1,0,0.1,0.1,0.2,0.1l-0.4,1L56.5,44.6L56.5,44.6z M58.2,51
				c0,0.1-0.1,0.2-0.1,0.3l-0.7-0.3l0.2-0.5L58.2,51L58.2,51z M55.5,54.6c0,0-0.1,0.1-0.1,0.1c0,0-0.1,0.1-0.1,0.1l-0.2-0.9l0.3-0.2
				L55.5,54.6L55.5,54.6z M50.4,49.9c0-0.1,0-0.2,0.1-0.3l0.7-0.1l-0.1,0.5L50.4,49.9L50.4,49.9z M51.7,53.2L51,53.9
				c0-0.1-0.1-0.1-0.1-0.2l0.6-0.8L51.7,53.2z"/>
			<linearGradient id="SVGID_39_" gradientUnits="userSpaceOnUse" x1="54.6009" y1="55.3466" x2="55.3453" y2="43.5642">
				<stop  offset="0" style="stop-color:#965CF2"/>
				<stop  offset="1" style="stop-color:#FF8ADC"/>
			</linearGradient>
			<path class="st69" d="M55.9,55.7c2.7-1.7,4.5-5.9,4-9.3c-0.5-3.4-3.1-4.8-5.8-3.1c-2.7,1.7-4.5,5.9-4,9.3
				C50.5,56,53.2,57.4,55.9,55.7L55.9,55.7z M56.1,57.1c-3.4,2.1-6.6,0.4-7.2-3.8c-0.6-4.2,1.6-9.3,5-11.4c3.4-2.1,6.6-0.4,7.2,3.8
				C61.7,49.9,59.4,55,56.1,57.1z"/>
		</g>
		<g>
			<linearGradient id="SVGID_40_" gradientUnits="userSpaceOnUse" x1="161.4654" y1="136.9167" x2="165.7283" y2="126.6967">
				<stop  offset="0" style="stop-color:#6D6AFE"/>
				<stop  offset="1" style="stop-color:#3FB0F7"/>
			</linearGradient>
			<path class="st70" d="M163.6,121.4h0.1v17.2v0.6h0c-0.1,3.4-1.3,6.6-3.4,9.6v-19C162.1,127.2,163.3,124.4,163.6,121.4z"/>
			<linearGradient id="SVGID_41_" gradientUnits="userSpaceOnUse" x1="136.8764" y1="167.487" x2="147.7831" y2="140.9033">
				<stop  offset="0" style="stop-color:#6D6AFE"/>
				<stop  offset="1" style="stop-color:#3FB0F7"/>
			</linearGradient>
			<path class="st71" d="M127.4,170.9c13.8-1.5,25.3-6.8,31.4-14.1v-22.9c-6.1,7.3-17.6,12.6-31.4,14.1V170.9z"/>
			<linearGradient id="SVGID_42_" gradientUnits="userSpaceOnUse" x1="161.8101" y1="154.8625" x2="158.0913" y2="140.8408">
				<stop  offset="0" style="stop-color:#1C8EF4"/>
				<stop  offset="1" style="stop-color:#00CFDD"/>
			</linearGradient>
			<path class="st72" d="M155.7,154.5c3.2-2.8,5.5-5.9,6.7-9.3v-10.9c-1.2,3.4-3.5,6.5-6.7,9.3V154.5z"/>
		</g>
		<g>
			<linearGradient id="SVGID_43_" gradientUnits="userSpaceOnUse" x1="142.421" y1="160.3229" x2="151.0239" y2="140.2265">
				<stop  offset="0" style="stop-color:#6D6AFE"/>
				<stop  offset="1" style="stop-color:#3FB0F7"/>
			</linearGradient>
			<path class="st73" d="M138.7,148.9l0,13.1c0,1,0.7,1.3,1.5,0.9l12.2-7.1c0.8-0.5,1.5-1.7,1.5-2.6l-0.1-18.1c0-1-0.7-1.3-1.5-0.9
				l-8,4.6L138.7,148.9z"/>
			<g>
				<path class="st56" d="M151.9,141.3l-5.9,3.4c-0.3,0.1-0.5,0-0.5-0.3l0-0.9c0-0.3,0.2-0.6,0.4-0.8l5.9-3.4c0.2-0.1,0.4,0,0.4,0.3
					l0,0.9C152.3,140.8,152.1,141.2,151.9,141.3z"/>
				<path class="st56" d="M140.7,150.6c-0.2,0.1-0.3,0-0.3-0.2l0-0.6c0-0.2,0.1-0.4,0.3-0.5l11.4-6.6c0.2-0.1,0.3,0,0.3,0.2l0,0.6
					c0,0.2-0.1,0.4-0.3,0.5L140.7,150.6z"/>
			</g>
			<g>
				<linearGradient id="SVGID_44_" gradientUnits="userSpaceOnUse" x1="142.8785" y1="151.634" x2="140.7932" y2="141.447">
					<stop  offset="0" style="stop-color:#6D6AFE"/>
					<stop  offset="1" style="stop-color:#3FB0F7"/>
				</linearGradient>
				<path class="st74" d="M138.7,151.5c0.9-0.8,3-2.5,4.7-4c1.5-1.4,1.5-2.1,1.4-3.8l-0.3-4.9l-0.1,0l-5.7,10L138.7,151.5z"/>
				<path class="st75" d="M138.7,148.9l4.2-2.4c0.8-0.5,1.5-1.7,1.5-2.6l0-5L138.7,148.9z"/>
			</g>
			<g>
				<path class="st56" d="M147.9,157.3c1.7-1.4,2.8-4.4,2.3-6.7c-0.5-2.2-2.2-2.9-4-1.5c-1.7,1.4-2.8,4.4-2.3,6.7
					C144.4,158.1,146.2,158.7,147.9,157.3z"/>
				<polygon class="st75" points="145.3,151.8 144.9,152.1 148.3,155.4 149.6,152 148.9,152.4 148.1,153.6 				"/>
			</g>
		</g>
		<g>
			<path class="st56" d="M60.5,135.3c0.1-0.8-0.1-1.2,0.3-1.6c0.2-0.3,1-0.6,1.3-0.7c0.6-0.2,1.3-0.2,2.1,0.3l9.5,5.7
				c1.7,1,2.9,3.6,2.6,5.8l-1.5,10.9c-0.1,0.7-0.3,1.5-0.9,2c-0.4,0.4-1.1,0.7-1.6,0.8c-0.5,0.1-0.6-0.4-1.2-0.7l-9.5-5.7
				c-1.7-1-2.9-3.6-2.6-5.8L60.5,135.3z"/>
			<path class="st50" d="M59.9,135.6c0.3-2.2,1.9-3.1,3.7-2.1l9.5,5.7c1.7,1,2.9,3.6,2.6,5.8l-1.5,10.9c-0.3,2.2-1.9,3.1-3.7,2.1
				l-9.5-5.7c-1.7-1-2.9-3.6-2.6-5.8L59.9,135.6z"/>
			<linearGradient id="SVGID_45_" gradientUnits="userSpaceOnUse" x1="67.7159" y1="140.5115" x2="69.5901" y2="137.1476">
				<stop  offset="0" style="stop-color:#6D6AFE"/>
				<stop  offset="1" style="stop-color:#3FB0F7"/>
			</linearGradient>
			<path class="st76" d="M59.9,135.6c0.3-2.2,1.9-3.1,3.7-2.1l9.5,5.7c1.7,1,2.9,3.6,2.6,5.8l-0.1,1c-0.2-0.1-0.4-0.3-0.6-0.4
				l-15.2-9L59.9,135.6z"/>
			<g>
				<g>
					<path class="st77" d="M70.6,139.9c0.3,0.2,0.5,0.6,0.4,0.9c-0.2,0.3-0.6,0.4-0.9,0.2c-0.3-0.2-0.5-0.6-0.4-0.9
						C69.9,139.8,70.3,139.7,70.6,139.9z"/>
					<path class="st78" d="M70.7,140.1c0.4,0.4-0.1,1.1-0.6,0.8c0.3,0.3,0.7,0.1,0.8-0.2C71,140.5,70.9,140.3,70.7,140.1z"/>
					<path class="st79" d="M72.8,135.9c0.9,0.4,1.2,1.6,0.7,2.9l-0.6-0.4c0.2-0.8,0.2-1.5-0.4-1.8c-0.7-0.3-1.9,0.2-2.4,1.2
						c-0.5,1-0.4,2,0.3,2.3c0.2,0.1,0.2,0.3,0.2,0.5c-0.1,0.2-0.3,0.3-0.5,0.2c0,0-0.1,0-0.1,0c-1-0.5-1.3-1.8-0.5-3.2
						C70.3,136.1,71.8,135.4,72.8,135.9z"/>
					<path class="st80" d="M73.4,138.7l-0.5-0.3c0.2-0.8,0.2-1.5-0.4-1.8c-0.7-0.3-1.9,0.2-2.4,1.2c-0.5,1-0.4,2,0.3,2.3
						c0.1,0.1,0.2,0.2,0.2,0.3c-0.3,0-0.8-0.3-1-0.9c-0.3-1,0.3-2.1,1.1-2.8c0.8-0.6,1.6-0.6,2.1-0.4
						C73.9,136.9,73.5,138.2,73.4,138.7z"/>
				</g>
				<g>
					<path class="st77" d="M67.1,137.8c0.3,0.2,0.5,0.6,0.4,0.9c-0.2,0.3-0.6,0.4-0.9,0.2c-0.3-0.2-0.5-0.6-0.4-0.9
						C66.3,137.7,66.8,137.6,67.1,137.8z"/>
					<path class="st78" d="M67.1,138c0.4,0.4-0.1,1.1-0.6,0.8c0.3,0.3,0.7,0.1,0.8-0.2C67.5,138.4,67.4,138.1,67.1,138z"/>
					<path class="st79" d="M69.3,133.8c0.9,0.4,1.2,1.6,0.7,2.9l-0.6-0.4c0.2-0.8,0.2-1.5-0.4-1.8c-0.7-0.3-1.9,0.2-2.4,1.2
						c-0.5,1-0.4,2,0.3,2.3c0.2,0.1,0.2,0.3,0.2,0.5c-0.1,0.2-0.3,0.3-0.5,0.2c0,0-0.1,0-0.1,0c-1-0.5-1.3-1.8-0.5-3.2
						C66.7,134,68.3,133.3,69.3,133.8z"/>
					<path class="st80" d="M69.9,136.6l-0.5-0.3c0.2-0.8,0.2-1.5-0.4-1.8c-0.7-0.3-1.9,0.2-2.4,1.2c-0.5,1-0.4,2,0.3,2.3
						c0.1,0.1,0.2,0.2,0.2,0.3c-0.3,0-0.8-0.3-1-0.9c-0.3-1,0.3-2.1,1.1-2.8c0.8-0.6,1.6-0.6,2.1-0.4
						C70.4,134.8,70,136.1,69.9,136.6z"/>
				</g>
				<g>
					<path class="st77" d="M63.6,135.7c0.3,0.2,0.5,0.6,0.4,0.9c-0.2,0.3-0.6,0.4-0.9,0.2c-0.3-0.2-0.5-0.6-0.4-0.9
						C62.8,135.6,63.3,135.5,63.6,135.7z"/>
					<path class="st78" d="M63.6,135.9c0.4,0.4-0.1,1.1-0.6,0.8c0.3,0.3,0.7,0.1,0.8-0.2C64,136.3,63.9,136.1,63.6,135.9z"/>
					<path class="st79" d="M65.8,131.7c0.9,0.4,1.2,1.6,0.7,2.9l-0.6-0.4c0.2-0.8,0.2-1.5-0.4-1.8c-0.7-0.3-1.9,0.2-2.4,1.2
						c-0.5,1-0.4,2,0.3,2.3c0.2,0.1,0.2,0.3,0.2,0.5c-0.1,0.2-0.3,0.3-0.5,0.2c0,0-0.1,0-0.1,0c-1-0.5-1.3-1.8-0.5-3.2
						C63.2,131.9,64.8,131.2,65.8,131.7z"/>
					<path class="st80" d="M66.4,134.5l-0.5-0.3c0.2-0.8,0.2-1.5-0.4-1.8c-0.7-0.3-1.9,0.2-2.4,1.2c-0.5,1-0.4,2,0.3,2.3
						c0.1,0.1,0.2,0.2,0.2,0.3c-0.3,0-0.8-0.3-1-0.9c-0.3-1,0.3-2.1,1.1-2.8c0.8-0.6,1.6-0.6,2.1-0.4
						C66.9,132.7,66.5,134,66.4,134.5z"/>
				</g>
			</g>
			<g>
				<linearGradient id="SVGID_46_" gradientUnits="userSpaceOnUse" x1="58.0469" y1="145.412" x2="64.6645" y2="138.6905">
					<stop  offset="0" style="stop-color:#6D6AFE"/>
					<stop  offset="1" style="stop-color:#3FB0F7"/>
				</linearGradient>
				<path class="st81" d="M61.3,138.8c0.1-0.4,0.4-0.6,0.7-0.4l1.8,1.1c0.3,0.2,0.6,0.7,0.5,1.1l-0.3,2.1c-0.1,0.4-0.4,0.6-0.7,0.4
					l-1.8-1.1c-0.3-0.2-0.6-0.7-0.5-1.1L61.3,138.8z"/>
				<linearGradient id="SVGID_47_" gradientUnits="userSpaceOnUse" x1="61.9882" y1="148.5845" x2="68.606" y2="141.8628">
					<stop  offset="0" style="stop-color:#6D6AFE"/>
					<stop  offset="1" style="stop-color:#3FB0F7"/>
				</linearGradient>
				<path class="st82" d="M65.8,141.5c0.1-0.4,0.4-0.6,0.7-0.4l1.8,1.1c0.3,0.2,0.6,0.7,0.5,1.1l-0.3,2.1c-0.1,0.4-0.4,0.6-0.7,0.4
					l-1.8-1.1c-0.3-0.2-0.6-0.7-0.5-1.1L65.8,141.5z"/>
				<linearGradient id="SVGID_48_" gradientUnits="userSpaceOnUse" x1="65.9296" y1="151.757" x2="72.5472" y2="145.0354">
					<stop  offset="0" style="stop-color:#6D6AFE"/>
					<stop  offset="1" style="stop-color:#3FB0F7"/>
				</linearGradient>
				<path class="st83" d="M70.2,144.1c0.1-0.4,0.4-0.6,0.7-0.4l1.8,1.1c0.3,0.2,0.6,0.7,0.5,1.1l-0.3,2.1c-0.1,0.4-0.4,0.6-0.7,0.4
					l-1.8-1.1c-0.3-0.2-0.6-0.7-0.5-1.1L70.2,144.1z"/>
				<linearGradient id="SVGID_49_" gradientUnits="userSpaceOnUse" x1="58.9649" y1="148.4139" x2="65.5827" y2="141.6921">
					<stop  offset="0" style="stop-color:#6D6AFE"/>
					<stop  offset="1" style="stop-color:#3FB0F7"/>
				</linearGradient>
				<path class="st84" d="M60.7,143.4c0.1-0.4,0.4-0.6,0.7-0.4l1.8,1.1c0.3,0.2,0.6,0.7,0.5,1.1l-0.3,2.1c-0.1,0.4-0.4,0.6-0.7,0.4
					l-1.8-1.1c-0.3-0.2-0.6-0.7-0.5-1.1L60.7,143.4z"/>
				<linearGradient id="SVGID_50_" gradientUnits="userSpaceOnUse" x1="62.9062" y1="151.5865" x2="69.5239" y2="144.8648">
					<stop  offset="0" style="stop-color:#6D6AFE"/>
					<stop  offset="1" style="stop-color:#3FB0F7"/>
				</linearGradient>
				<path class="st85" d="M65.1,146.1c0.1-0.4,0.4-0.6,0.7-0.4l1.8,1.1c0.3,0.2,0.6,0.7,0.5,1.1l-0.3,2.1c-0.1,0.4-0.4,0.6-0.7,0.4
					l-1.8-1.1c-0.3-0.2-0.6-0.7-0.5-1.1L65.1,146.1z"/>
				<linearGradient id="SVGID_51_" gradientUnits="userSpaceOnUse" x1="66.8476" y1="154.7588" x2="73.4652" y2="148.0372">
					<stop  offset="0" style="stop-color:#6D6AFE"/>
					<stop  offset="1" style="stop-color:#3FB0F7"/>
				</linearGradient>
				<path class="st86" d="M69.6,148.7c0.1-0.4,0.4-0.6,0.7-0.4l1.8,1.1c0.3,0.2,0.6,0.7,0.5,1.1l-0.3,2.1c-0.1,0.4-0.4,0.6-0.7,0.4
					l-1.8-1.1c-0.3-0.2-0.6-0.7-0.5-1.1L69.6,148.7z"/>
				<linearGradient id="SVGID_52_" gradientUnits="userSpaceOnUse" x1="59.8451" y1="151.3668" x2="66.4628" y2="144.6451">
					<stop  offset="0" style="stop-color:#6D6AFE"/>
					<stop  offset="1" style="stop-color:#3FB0F7"/>
				</linearGradient>
				<path class="st87" d="M60,147.9c0.1-0.4,0.4-0.6,0.7-0.4l1.8,1.1c0.3,0.2,0.6,0.7,0.5,1.1l-0.3,2.1c-0.1,0.4-0.4,0.6-0.7,0.4
					l-1.8-1.1c-0.3-0.2-0.6-0.7-0.5-1.1L60,147.9z"/>
				<linearGradient id="SVGID_53_" gradientUnits="userSpaceOnUse" x1="63.7865" y1="154.5392" x2="70.4041" y2="147.8177">
					<stop  offset="0" style="stop-color:#6D6AFE"/>
					<stop  offset="1" style="stop-color:#3FB0F7"/>
				</linearGradient>
				<path class="st88" d="M64.5,150.6c0.1-0.4,0.4-0.6,0.7-0.4l1.8,1.1c0.3,0.2,0.6,0.7,0.5,1.1l-0.3,2.1c-0.1,0.4-0.4,0.6-0.7,0.4
					l-1.8-1.1c-0.3-0.2-0.6-0.7-0.5-1.1L64.5,150.6z"/>
				<linearGradient id="SVGID_54_" gradientUnits="userSpaceOnUse" x1="67.7277" y1="157.7118" x2="74.3453" y2="150.9902">
					<stop  offset="0" style="stop-color:#6D6AFE"/>
					<stop  offset="1" style="stop-color:#3FB0F7"/>
				</linearGradient>
				<path class="st89" d="M68.9,153.2c0.1-0.4,0.4-0.6,0.7-0.4l1.8,1.1c0.3,0.2,0.6,0.7,0.5,1.1l-0.3,2.1c-0.1,0.4-0.4,0.6-0.7,0.4
					l-1.8-1.1c-0.3-0.2-0.6-0.7-0.5-1.1L68.9,153.2z"/>
			</g>
		</g>
		<linearGradient id="SVGID_55_" gradientUnits="userSpaceOnUse" x1="66.3835" y1="71.576" x2="65.303" y2="67.5472">
			<stop  offset="0" style="stop-color:#965CF2"/>
			<stop  offset="1" style="stop-color:#FF8ADC"/>
		</linearGradient>
		<path class="st90" d="M65.8,67.5c1,0,1.9,0.9,1.9,1.9c0,1.1-0.8,1.9-1.9,1.9c-1,0-1.9-0.9-1.9-1.9C64,68.4,64.8,67.5,65.8,67.5z"
			/>
	</g>
</g>
</svg>
