<?xml version="1.0" encoding="utf-8"?>
<!-- Generator: Adobe Illustrator 22.0.0, SVG Export Plug-In . SVG Version: 6.00 Build 0)  -->
<svg version="1.1" id="Capa_1" xmlns="http://www.w3.org/2000/svg" xmlns:xlink="http://www.w3.org/1999/xlink" x="0px" y="0px"
	 viewBox="0 0 350.3 400" style="enable-background:new 0 0 350.3 400;" xml:space="preserve">
<style type="text/css">
	.st0{fill-rule:evenodd;clip-rule:evenodd;fill:url(#SVGID_1_);}
	.st1{fill-rule:evenodd;clip-rule:evenodd;fill:#E23B93;}
	.st2{fill-rule:evenodd;clip-rule:evenodd;fill:#F2F4FF;}
	.st3{fill-rule:evenodd;clip-rule:evenodd;fill:#C5DBF1;}
	.st4{fill-rule:evenodd;clip-rule:evenodd;fill:#DCE8F8;}
	.st5{fill-rule:evenodd;clip-rule:evenodd;fill:url(#SVGID_2_);}
	.st6{fill-rule:evenodd;clip-rule:evenodd;fill:#FB84B6;}
	.st7{fill-rule:evenodd;clip-rule:evenodd;fill:url(#SVGID_3_);}
	.st8{fill-rule:evenodd;clip-rule:evenodd;fill:#FFFFFF;}
	.st9{opacity:0.5;fill-rule:evenodd;clip-rule:evenodd;fill:#1993F1;}
	.st10{fill-rule:evenodd;clip-rule:evenodd;fill:url(#SVGID_4_);}
	.st11{fill-rule:evenodd;clip-rule:evenodd;fill:url(#SVGID_5_);}
	.st12{fill-rule:evenodd;clip-rule:evenodd;fill:#485AF4;}
	.st13{fill-rule:evenodd;clip-rule:evenodd;fill:#6BB6FF;}
	.st14{opacity:0.5;fill-rule:evenodd;clip-rule:evenodd;fill:#6BB6FF;}
	.st15{opacity:0.5;fill-rule:evenodd;clip-rule:evenodd;fill:url(#SVGID_6_);}
	.st16{fill-rule:evenodd;clip-rule:evenodd;fill:url(#SVGID_7_);}
	.st17{fill-rule:evenodd;clip-rule:evenodd;fill:url(#SVGID_8_);}
	.st18{fill-rule:evenodd;clip-rule:evenodd;fill:url(#SVGID_9_);}
	.st19{fill-rule:evenodd;clip-rule:evenodd;fill:url(#SVGID_10_);}
	.st20{fill-rule:evenodd;clip-rule:evenodd;fill:url(#SVGID_11_);}
	.st21{fill-rule:evenodd;clip-rule:evenodd;fill:#9ED7FA;}
	.st22{opacity:0.5;fill-rule:evenodd;clip-rule:evenodd;fill:url(#SVGID_12_);}
	.st23{fill-rule:evenodd;clip-rule:evenodd;fill:url(#SVGID_13_);}
	.st24{opacity:0.25;fill-rule:evenodd;clip-rule:evenodd;fill:#A67EF6;}
	.st25{opacity:0.5;fill-rule:evenodd;clip-rule:evenodd;fill:#FFFFFF;}
	.st26{opacity:0.5;fill-rule:evenodd;clip-rule:evenodd;fill:url(#SVGID_14_);}
	.st27{fill-rule:evenodd;clip-rule:evenodd;fill:url(#SVGID_15_);}
	.st28{opacity:0.25;fill-rule:evenodd;clip-rule:evenodd;fill:#F786DC;}
	.st29{fill-rule:evenodd;clip-rule:evenodd;fill:#F786DC;}
	.st30{opacity:0.5;fill-rule:evenodd;clip-rule:evenodd;fill:#955CF1;}
	.st31{fill-rule:evenodd;clip-rule:evenodd;fill:url(#SVGID_16_);}
	.st32{fill-rule:evenodd;clip-rule:evenodd;fill:#273087;}
	.st33{fill-rule:evenodd;clip-rule:evenodd;fill:url(#SVGID_17_);}
	.st34{fill-rule:evenodd;clip-rule:evenodd;fill:url(#SVGID_18_);}
	.st35{fill-rule:evenodd;clip-rule:evenodd;fill:url(#SVGID_19_);}
	.st36{fill-rule:evenodd;clip-rule:evenodd;fill:#F58C7E;}
	.st37{fill-rule:evenodd;clip-rule:evenodd;fill:url(#SVGID_20_);}
	.st38{fill-rule:evenodd;clip-rule:evenodd;fill:url(#SVGID_21_);}
	.st39{fill-rule:evenodd;clip-rule:evenodd;fill:#FFA698;}
	.st40{fill-rule:evenodd;clip-rule:evenodd;fill:url(#SVGID_22_);}
	.st41{opacity:0.35;fill-rule:evenodd;clip-rule:evenodd;fill:#F969AC;}
	.st42{fill-rule:evenodd;clip-rule:evenodd;fill:url(#SVGID_23_);}
	.st43{fill-rule:evenodd;clip-rule:evenodd;fill:#FF7B7B;}
	.st44{fill-rule:evenodd;clip-rule:evenodd;fill:url(#SVGID_24_);}
	.st45{fill-rule:evenodd;clip-rule:evenodd;fill:url(#SVGID_25_);}
	.st46{fill-rule:evenodd;clip-rule:evenodd;fill:#FF8F7F;}
	.st47{fill-rule:evenodd;clip-rule:evenodd;fill:url(#SVGID_26_);}
	.st48{fill-rule:evenodd;clip-rule:evenodd;fill:url(#SVGID_27_);}
	.st49{fill-rule:evenodd;clip-rule:evenodd;fill:#8141E7;}
	.st50{fill-rule:evenodd;clip-rule:evenodd;fill:url(#SVGID_28_);}
	.st51{fill-rule:evenodd;clip-rule:evenodd;fill:url(#SVGID_29_);}
	.st52{opacity:0.3;fill-rule:evenodd;clip-rule:evenodd;fill:#1E2353;}
	.st53{fill-rule:evenodd;clip-rule:evenodd;fill:#FFA495;}
	.st54{fill-rule:evenodd;clip-rule:evenodd;fill:#193161;}
	.st55{fill-rule:evenodd;clip-rule:evenodd;fill:url(#SVGID_30_);}
	.st56{fill-rule:evenodd;clip-rule:evenodd;fill:#161D5C;}
	.st57{fill-rule:evenodd;clip-rule:evenodd;fill:url(#SVGID_31_);}
	.st58{fill-rule:evenodd;clip-rule:evenodd;fill:url(#SVGID_32_);}
	.st59{fill-rule:evenodd;clip-rule:evenodd;fill:url(#SVGID_33_);}
	.st60{fill-rule:evenodd;clip-rule:evenodd;fill:#FF9281;}
	.st61{fill-rule:evenodd;clip-rule:evenodd;fill:url(#SVGID_34_);}
	.st62{fill-rule:evenodd;clip-rule:evenodd;fill:url(#SVGID_35_);}
	.st63{fill-rule:evenodd;clip-rule:evenodd;fill:url(#SVGID_36_);}
	.st64{opacity:0.35;fill-rule:evenodd;clip-rule:evenodd;fill:#3469C0;}
	.st65{fill-rule:evenodd;clip-rule:evenodd;fill:url(#SVGID_37_);}
	.st66{fill-rule:evenodd;clip-rule:evenodd;fill:#4A9FF8;}
	.st67{fill-rule:evenodd;clip-rule:evenodd;fill:url(#SVGID_38_);}
	.st68{fill-rule:evenodd;clip-rule:evenodd;fill:#FFB49C;}
	.st69{fill-rule:evenodd;clip-rule:evenodd;fill:#FF9D8E;}
	.st70{fill-rule:evenodd;clip-rule:evenodd;fill:#562E65;}
	.st71{fill-rule:evenodd;clip-rule:evenodd;fill:url(#SVGID_39_);}
	.st72{fill-rule:evenodd;clip-rule:evenodd;fill:#FF9584;}
	.st73{fill-rule:evenodd;clip-rule:evenodd;fill:url(#SVGID_40_);}
	.st74{fill-rule:evenodd;clip-rule:evenodd;fill:url(#SVGID_41_);}
	.st75{opacity:0.5;fill-rule:evenodd;clip-rule:evenodd;fill:url(#SVGID_42_);}
</style>
<g>
	<g>
		<g>
			<g>
				<g>
					<g>
						<linearGradient id="SVGID_1_" gradientUnits="userSpaceOnUse" x1="324.749" y1="104.8255" x2="306.6923" y2="83.2519">
							<stop  offset="0" style="stop-color:#FA5DB1"/>
							<stop  offset="1" style="stop-color:#FEBFBF"/>
						</linearGradient>
						<path class="st0" d="M331.5,126l-31.8-18.5l7.4-35l0,0l0,0l0,0l0,0l0,0l0,0l0,0l0,0l0,0l0,0l0,0v0l0,0l0,0l0,0l0,0l0,0l0,0
							l0,0l0,0l0,0l0,0l0,0l0,0l0,0l0,0l0,0l0,0l0,0l0,0l0,0l0,0l0,0l0,0l0,0l0,0l0,0l0,0l0,0l0,0l0,0l0,0l0,0l0,0l0,0l0,0l0,0l0,0
							l0,0l0,0l0,0l0,0l0,0l0,0l0,0l0,0l0,0l0,0l0,0l0,0l0,0l0,0l0,0l0,0l0,0l0,0l0,0l0,0l0,0l0,0l0,0l0,0l0,0l0,0l0,0l0,0l0,0l0,0
							l0,0l0,0l0,0l0,0l0,0l0,0l0,0l0,0l0,0l0,0l0,0l0,0l0,0l0,0l0,0l0,0l0,0l0,0l0,0l0,0l0,0l0,0l0,0l0,0l0,0l0,0l0,0
							c0.1-0.1,0.3-0.1,0.5,0l31.8,18.5C338.8,89.6,334.6,115.7,331.5,126z"/>
						<path class="st1" d="M307.1,72.6c13.3,15.3,29.3,24.7,27.7,38l-3.3,15.5l-31.8-18.5L307.1,72.6z"/>
					</g>
					<g>
						<polygon class="st2" points="331.1,87 330.3,122.5 297,103.3 297.1,68 						"/>
						<polygon class="st3" points="330.4,87.3 331.1,86.9 331,122.1 330.3,122.5 						"/>
						<polygon class="st4" points="297.1,68 297.8,67.6 331.1,86.9 330.4,87.3 						"/>
						<path class="st3" d="M329.2,114.9l0,2.2l-30.8-17.8l0-2.2L329.2,114.9L329.2,114.9z M329.2,89.3l0,2.2l-30.8-17.8l0-2.2
							L329.2,89.3L329.2,89.3z M329.2,93l-30.8-17.8l0,2.2l30.8,17.8L329.2,93L329.2,93z M329.2,96.6l-30.8-17.8l0,2.2l30.8,17.8
							L329.2,96.6L329.2,96.6z M329.2,100.3l-30.8-17.8l0,2.2l30.8,17.8L329.2,100.3L329.2,100.3z M329.2,103.9l-30.8-17.8l0,2.2
							l30.8,17.8L329.2,103.9L329.2,103.9z M329.2,107.6l-30.8-17.8l0,2.2l30.8,17.8L329.2,107.6L329.2,107.6z M329.2,111.2
							l-30.8-17.8l0,2.2l30.8,17.8L329.2,111.2z"/>
					</g>
					<linearGradient id="SVGID_2_" gradientUnits="userSpaceOnUse" x1="327.2744" y1="117.0312" x2="291.3847" y2="90.0266">
						<stop  offset="0" style="stop-color:#FA5DB1"/>
						<stop  offset="1" style="stop-color:#FEBFBF"/>
					</linearGradient>
					<path class="st5" d="M322.9,100.6l7.6,26.6l0,0c0.1,0.3,0.3,0.7,0.5,0.8l-31.8-18.5c-0.3-0.2-0.4-0.6-0.5-0.8l-7.6-26.6l0,0
						l-1.4-5c-0.1-0.4,0.2-0.8,0.3-0.9c1.3,1.2,8.4,5.5,9.7,6.3c2.2,1.7,2.3,3.8,5.5,7.3c0.6,0.7,0.8,0.8,1.6,1.3L322.9,100.6z"/>
					<path class="st1" d="M323.3,99.6c0.1,0,0.1-0.1,0.2-0.1c0.2-0.1,0.5-0.1,0.5,0.2l7.5,26.4l7.4-35c0.1-0.3,0.3-0.6,0.5-0.8
						c0.1,0,0.1-0.1,0.2-0.1c0.3-0.1,0.5,0.2,0.4,0.6l-7.4,35.2c-0.1,0.6-0.3,1.1-0.5,1.4c-0.2,0.3-0.4,0.5-0.6,0.7
						c-0.2,0.1-0.4,0.1-0.6,0c-0.2-0.1-0.3-0.4-0.4-0.8l-7.6-26.6C322.8,100.3,323,99.8,323.3,99.6z"/>
					<path class="st6" d="M307.8,90.1l16,9.3c-0.4-0.2-1.1,0.7-0.9,1.2l-16.2-9.4c-0.5-0.3-0.9-0.5-1.3-0.9
						c-2.3-1.8-3.4-4.3-4.9-6.3c-0.4-0.6-0.9-1-1.3-1.3c-0.4-0.2-0.6-0.3-0.5-0.3l-8.9-5.3c-0.1-0.4,0.2-0.8,0.3-0.9
						c0.2-0.2,0.4-0.4,0.7-0.3l8.9,5.3c-0.1,0,0.1,0.1,0.5,0.3c0.4,0.3,0.9,0.7,1.3,1.3c1.6,2.1,2.7,4.5,5.3,6.6
						C307.1,89.7,307.4,89.9,307.8,90.1z"/>
				</g>
				<g>
					<linearGradient id="SVGID_3_" gradientUnits="userSpaceOnUse" x1="241.4131" y1="18.1689" x2="233.1127" y2="49.3454">
						<stop  offset="0" style="stop-color:#FA5DB1"/>
						<stop  offset="1" style="stop-color:#FEBFBF"/>
					</linearGradient>
					<path class="st7" d="M238.7,49.8c-8.5-4.9-15.9-16.5-16.6-25.9c-0.7-9.4,5.7-13,14.2-8.1c8.5,4.9,15.9,16.5,16.6,25.9
						C253.5,51.1,247.2,54.7,238.7,49.8z"/>
					<polygon class="st8" points="242.9,26.1 245.1,27.3 235.1,42.5 226.3,29.4 229.2,30.5 233.8,35 					"/>
				</g>
			</g>
			<g>
				<g>
					<path class="st9" d="M288.6,325.8l-97.4-55.6c-3.6-1.7-8.9-3.2-12.5-1l-9.1,5.5c-1.8,1.1-7.8,4.8-3.8,7
						c11.8,6.4,87.2,50.5,99.2,57c2.3,1.2,5.6,1.7,9.1,1.4c3.5-0.3,7.1-1.2,9.8-2.9l3.6-2.2c2.6-1.6,4-3.3,4.1-5
						C291.8,328.3,290.8,326.8,288.6,325.8z"/>
					<g>
						<g>
							<g>
								<linearGradient id="SVGID_4_" gradientUnits="userSpaceOnUse" x1="243.8513" y1="124.1769" x2="195.9274" y2="289.3548">
									<stop  offset="0" style="stop-color:#D1E8FF"/>
									<stop  offset="1" style="stop-color:#EAEFFF"/>
								</linearGradient>
								<path class="st10" d="M285.8,319.7c0,4.7-1.7,8.1-4.4,9.6l-4.3,2.6c-14.7-6.3-9.2-80.7-10.1-101.9l4.5-111.1
									c-3.8-6.6-18.4-12.4-15-25.9l-43.1-20.2c-1.9-1.3-52.2-30.4-43.1-35.9c1.5-0.9,3-1.8,4.5-2.7c3.3-2,7.6-0.8,10.7,1l0,0l0,0
									l85.7,49.1c8.4,4.8,15,16.6,15,25.9L285.8,319.7z"/>
								<path class="st8" d="M166,46.7c0-4.6,1.6-7.9,4.2-9.5c2.7-1.7,6.6-1.5,10.9,1l85.7,49.1c8.3,4.8,15,16.4,15,25.9l-0.4,209.2
									c0,9.5-6.8,13.4-15.1,8.6l-85.7-49.1c-8.3-4.8-15-16.4-15-25.9L166,46.7z"/>
								<linearGradient id="SVGID_5_" gradientUnits="userSpaceOnUse" x1="194.5345" y1="206.6693" x2="296.6693" y2="129.1226">
									<stop  offset="0" style="stop-color:#6D6AFE"/>
									<stop  offset="1" style="stop-color:#3FB0F7"/>
								</linearGradient>
								<path class="st11" d="M166,46.7c0-4.6,1.6-7.9,4.2-9.5c2.7-1.7,6.6-1.5,10.9,1l85.7,49.1c8.3,4.8,15,16.4,15,25.9
									l-0.4,209.2c0,9.5-6.8,13.4-15.1,8.6l-85.7-49.1c-8.3-4.8-15-16.4-15-25.9L166,46.7z"/>
							</g>
							<g>
								<path class="st12" d="M269.7,104.7c2.2,1.3,4.1,0.3,4.1-2.3c0-2.6-1.8-5.7-4.1-7c-2.2-1.3-4.1-0.3-4.1,2.3
									C265.7,100.2,267.5,103.4,269.7,104.7z"/>
								<path class="st12" d="M204.7,62.7c0-0.7,0.5-1,1.1-0.6c8.9,5,23.5,13.2,32.4,18.3c0.6,0.4,1.1,1.2,1.1,1.9l0,1.4
									c0,0.7-0.5,1-1.1,0.6c-8.9-5-23.5-13.2-32.4-18.3c-0.6-0.4-1.1-1.2-1.1-1.9L204.7,62.7z"/>
							</g>
						</g>
						<g>
							<path class="st13" d="M204.1,148.5c0-1.9,1.4-2.7,3-1.7l37.6,21.3c1.7,1,3,3.3,3,5.3l0,3.8c0,1.9-1.4,2.7-3,1.7l-37.6-21.3
								c-1.7-1-3-3.3-3-5.3L204.1,148.5z"/>
							<path class="st14" d="M184.4,154.7c0-1.7,1.2-2.3,2.7-1.5c21.3,12.1,56.3,31.7,77.7,43.8c1.5,0.9,2.7,2.9,2.6,4.6l0,3.3
								c0,1.7-1.2,2.3-2.7,1.5c-21.3-12.1-56.3-31.7-77.7-43.8c-1.5-0.9-2.7-2.9-2.6-4.6L184.4,154.7z"/>
						</g>
						<g>
							<linearGradient id="SVGID_6_" gradientUnits="userSpaceOnUse" x1="239.8067" y1="266.2992" x2="91.4866" y2="135.945">
								<stop  offset="0" style="stop-color:#6D6AFE"/>
								<stop  offset="1" style="stop-color:#3FB0F7"/>
							</linearGradient>
							<path class="st15" d="M188.6,187.4c0-2.5,1.8-3.5,3.9-2.2c22.9,13.1,45.7,26.7,68.6,39.9c2.2,1.2,3.9,4.3,3.9,6.8l0.1,90.6
								c0,2.5-1.8,3.5-3.9,2.2c-22.9-13.1-45.7-26.7-68.6-39.9c-2.2-1.2-3.9-4.3-3.9-6.8L188.6,187.4z"/>
							<g>
								<linearGradient id="SVGID_7_" gradientUnits="userSpaceOnUse" x1="228.6158" y1="316.0584" x2="221.9371" y2="211.2449">
									<stop  offset="0" style="stop-color:#D1E8FF"/>
									<stop  offset="1" style="stop-color:#EAEFFF"/>
								</linearGradient>
								<path class="st16" d="M186.9,185.9l2.6-1.3c0.7-0.3,1.5-0.2,2.5,0.3c21.6,12.4,43.2,25.3,64.9,37.7c2,1.2,3.7,4,3.7,6.4
									l0.1,85.7c0,1-0.3,1.7-0.8,2.2c-0.5,0.4-2.4,1.3-3.1,1.6c-21.6-12.4-43.1-26.9-64.7-39.3c-2-1.2-3.7-4-3.7-6.4L186.9,185.9z
									"/>
								<linearGradient id="SVGID_8_" gradientUnits="userSpaceOnUse" x1="231.097" y1="235.5835" x2="211.8579" y2="269.9922">
									<stop  offset="0" style="stop-color:#D1E8FF"/>
									<stop  offset="1" style="stop-color:#EAEFFF"/>
								</linearGradient>
								<path class="st17" d="M185.7,188.3c0-2.3,1.7-3.3,3.7-2.1c21.6,12.4,43.2,25.3,64.9,37.7c2,1.2,3.7,4,3.7,6.4l0.1,85.7
									c0,2.3-1.7,3.3-3.7,2.1c-21.6-12.4-43.2-25.3-64.9-37.7c-2-1.2-3.7-4-3.7-6.4L185.7,188.3z"/>
								<path class="st8" d="M212.9,224.7c0-0.7,0.3-1.2,0.7-1.5c0.4-0.3,1-0.2,1.7,0.1l2.9,1.7c1.2,1.6,2.7,3,4.3,3.9
									c1.6,0.9,3,1.2,4.1,0.9l2.1,1.2c1.3,0.7,2.3,2.6,2.3,4l0,8.8c-6-3.5-12-7-18-10.5L212.9,224.7L212.9,224.7z M222.3,227.2
									c3,1.8,5.3,0.5,5.1-2.9c-0.2-3.4-2.9-7.5-5.9-9.3c-3-1.8-5.3-0.5-5.1,2.9C216.6,221.3,219.2,225.5,222.3,227.2z"/>
								<path class="st8" d="M189.4,228.6c0-1,0.7-1.4,1.5-0.9c20.6,11.8,41.2,23.6,61.8,35.5c0.8,0.5,1.5,1.7,1.5,2.6l0,9.6
									c0,1-0.7,1.4-1.5,0.9c-20.6-11.8-41.2-23.6-61.8-35.5c-0.8-0.5-1.5-1.7-1.5-2.6L189.4,228.6z"/>
								<linearGradient id="SVGID_9_" gradientUnits="userSpaceOnUse" x1="217.0065" y1="289.429" x2="221.481" y2="279.512">
									<stop  offset="0" style="stop-color:#6D6AFE"/>
									<stop  offset="1" style="stop-color:#3FB0F7"/>
								</linearGradient>
								<path class="st18" d="M200,271.3c0-1,0.7-1.4,1.5-0.9c11.1,6.4,22.3,12.8,33.4,19.1c0.8,0.5,1.5,1.7,1.5,2.6l0,9.6
									c0,1-0.7,1.4-1.5,0.9c-11.1-6.4-22.3-12.8-33.4-19.1c-0.8-0.5-1.5-1.7-1.5-2.6L200,271.3z"/>
								<path class="st8" d="M189.4,246.2c0-1,0.7-1.4,1.5-0.9c20.6,11.8,41.2,23.6,61.8,35.5c0.8,0.5,1.5,1.7,1.5,2.6l0,9.6
									c0,1-0.7,1.4-1.5,0.9c-20.6-11.8-41.2-23.6-61.8-35.5c-0.8-0.5-1.5-1.7-1.5-2.6L189.4,246.2z"/>
								<g>
									<linearGradient id="SVGID_10_" gradientUnits="userSpaceOnUse" x1="249.8911" y1="268.0959" x2="240.9281" y2="264.5528">
										<stop  offset="0" style="stop-color:#6D6AFE"/>
										<stop  offset="1" style="stop-color:#3FB0F7"/>
									</linearGradient>
									<path class="st19" d="M247.2,271.4c-2.2-1.3-4.2-4.4-4.4-6.8c-0.2-2.5,1.5-3.4,3.7-2.1c2.2,1.3,4.2,4.4,4.4,6.8
										C251.1,271.7,249.4,272.7,247.2,271.4z"/>
									<polygon class="st8" points="248.3,265.1 248.9,265.4 246.2,269.4 243.9,266 244.7,266.3 245.9,267.5 									"/>
								</g>
								<g>
									<linearGradient id="SVGID_11_" gradientUnits="userSpaceOnUse" x1="249.8911" y1="284.7274" x2="240.9281" y2="281.1844">
										<stop  offset="0" style="stop-color:#6D6AFE"/>
										<stop  offset="1" style="stop-color:#3FB0F7"/>
									</linearGradient>
									<path class="st20" d="M247.2,288c-2.2-1.3-4.2-4.4-4.4-6.8c-0.2-2.5,1.5-3.4,3.7-2.1c2.2,1.3,4.2,4.4,4.4,6.8
										C251.1,288.4,249.4,289.3,247.2,288z"/>
									<polygon class="st8" points="248.3,281.8 248.9,282.1 246.2,286.1 243.9,282.6 244.7,282.9 245.9,284.1 									"/>
								</g>
								<g>
									<path class="st21" d="M194.7,234.2c0-0.2,0.2-0.5,0.4-0.5c0.2,0,0.5,0.2,0.5,0.4l0.1,2.2l1.3-0.7c0.2-0.1,0.5,0,0.6,0.2
										c0.1,0.2,0,0.5-0.2,0.6l-1.2,0.7l1.8,1.1c0.2,0.1,0.3,0.4,0.2,0.6c-0.1,0.2-0.4,0.3-0.6,0.2l-0.9-0.5l1,1.6
										c0.1,0.2,0.1,0.5-0.1,0.6c-0.2,0.1-0.5,0.1-0.6-0.1l-1-1.6l0.1,1.1c0,0.2-0.2,0.5-0.4,0.5c-0.2,0-0.5-0.2-0.5-0.4l-0.1-2.2
										l-1.1,0.6c-0.2,0.1-0.5,0-0.6-0.2c-0.1-0.2,0-0.5,0.2-0.6l1-0.6l-1.8-1c-0.2-0.1-0.3-0.4-0.2-0.6c0.1-0.2,0.4-0.3,0.6-0.2
										l0.9,0.5l-1-1.6c-0.1-0.2-0.1-0.5,0.1-0.6c0.2-0.1,0.5-0.1,0.6,0.1l1,1.6L194.7,234.2z"/>
									<path class="st21" d="M204,239.5c0-0.2,0.2-0.5,0.4-0.5c0.2,0,0.5,0.2,0.5,0.4l0.1,2.2l1.3-0.7c0.2-0.1,0.5,0,0.6,0.2
										c0.1,0.2,0,0.5-0.2,0.6l-1.2,0.7l1.8,1.1c0.2,0.1,0.3,0.4,0.2,0.6c-0.1,0.2-0.4,0.3-0.6,0.2l-0.9-0.5l1,1.6
										c0.1,0.2,0.1,0.5-0.1,0.6c-0.2,0.1-0.5,0.1-0.6-0.1l-1-1.6l0.1,1.1c0,0.2-0.2,0.5-0.4,0.5c-0.2,0-0.5-0.2-0.5-0.4l-0.1-2.2
										l-1.1,0.6c-0.2,0.1-0.5,0-0.6-0.2c-0.1-0.2,0-0.5,0.2-0.6l1-0.6l-1.8-1.1c-0.2-0.1-0.3-0.4-0.2-0.6
										c0.1-0.2,0.4-0.3,0.6-0.2l0.9,0.5l-1-1.6c-0.1-0.2-0.1-0.5,0.1-0.6c0.2-0.1,0.5-0.1,0.6,0.1l1,1.6L204,239.5z"/>
									<path class="st21" d="M213.1,244.7c0-0.2,0.2-0.5,0.4-0.5c0.2,0,0.5,0.2,0.5,0.4l0.1,2.2l1.3-0.7c0.2-0.1,0.5,0,0.6,0.2
										c0.1,0.2,0,0.5-0.2,0.6l-1.2,0.7l1.8,1.1c0.2,0.1,0.3,0.4,0.2,0.6c-0.1,0.2-0.4,0.3-0.6,0.2l-0.9-0.5l1,1.6
										c0.1,0.2,0.1,0.5-0.1,0.6c-0.2,0.1-0.5,0.1-0.6-0.1l-1-1.6l0.1,1.1c0,0.2-0.2,0.5-0.4,0.5c-0.2,0-0.5-0.2-0.5-0.4l-0.1-2.2
										l-1.1,0.6c-0.2,0.1-0.5,0-0.6-0.2c-0.1-0.2,0-0.5,0.2-0.6l1-0.6l-1.8-1c-0.2-0.1-0.3-0.4-0.2-0.6c0.1-0.2,0.4-0.3,0.6-0.2
										l0.9,0.5l-1-1.6c-0.1-0.2-0.1-0.5,0.1-0.6c0.2-0.1,0.5-0.1,0.6,0.1l1,1.6L213.1,244.7z"/>
									<path class="st21" d="M222.2,249.9c0-0.2,0.2-0.5,0.4-0.5c0.2,0,0.5,0.2,0.5,0.4l0.1,2.2l1.3-0.7c0.2-0.1,0.5,0,0.6,0.2
										c0.1,0.2,0,0.5-0.2,0.6l-1.2,0.7l1.8,1.1c0.2,0.1,0.3,0.4,0.2,0.6c-0.1,0.2-0.4,0.3-0.6,0.2l-0.9-0.5l1,1.6
										c0.1,0.2,0.1,0.5-0.1,0.6c-0.2,0.1-0.5,0.1-0.6-0.1l-1-1.6l0.1,1.1c0,0.2-0.2,0.5-0.4,0.5c-0.2,0-0.5-0.2-0.5-0.4l-0.1-2.2
										l-1.1,0.6c-0.2,0.1-0.5,0-0.6-0.2c-0.1-0.2,0-0.5,0.2-0.6l1-0.6l-1.8-1.1c-0.2-0.1-0.3-0.4-0.2-0.6
										c0.1-0.2,0.4-0.3,0.6-0.2l0.9,0.5l-1-1.6c-0.1-0.2-0.1-0.5,0.1-0.6c0.2-0.1,0.5-0.1,0.6,0.1l1,1.6L222.2,249.9z"/>
								</g>
								<g>
									<path class="st21" d="M194.7,251.6c0-0.2,0.2-0.5,0.4-0.5c0.2,0,0.5,0.2,0.5,0.4l0.1,2.2l1.3-0.7c0.2-0.1,0.5,0,0.6,0.2
										c0.1,0.2,0,0.5-0.2,0.6l-1.2,0.7l1.8,1c0.2,0.1,0.3,0.4,0.2,0.6c-0.1,0.2-0.4,0.3-0.6,0.2l-0.9-0.5l1,1.6
										c0.1,0.2,0.1,0.5-0.1,0.6c-0.2,0.1-0.5,0.1-0.6-0.1l-1-1.6l0.1,1.1c0,0.2-0.2,0.5-0.4,0.5c-0.2,0-0.5-0.2-0.5-0.4l-0.1-2.2
										l-1.1,0.6c-0.2,0.1-0.5,0-0.6-0.2c-0.1-0.2,0-0.5,0.2-0.6l1-0.6l-1.8-1.1c-0.2-0.1-0.3-0.4-0.2-0.6
										c0.1-0.2,0.4-0.3,0.6-0.2l0.9,0.5l-1-1.6c-0.1-0.2-0.1-0.5,0.1-0.6c0.2-0.1,0.5-0.1,0.6,0.1l1,1.6L194.7,251.6z"/>
									<path class="st21" d="M204,256.9c0-0.2,0.2-0.5,0.4-0.5c0.2,0,0.5,0.2,0.5,0.4l0.1,2.2l1.3-0.7c0.2-0.1,0.5,0,0.6,0.2
										c0.1,0.2,0,0.5-0.2,0.6l-1.2,0.7l1.8,1.1c0.2,0.1,0.3,0.4,0.2,0.6c-0.1,0.2-0.4,0.3-0.6,0.2L206,261l1,1.6
										c0.1,0.2,0.1,0.5-0.1,0.6c-0.2,0.1-0.5,0.1-0.6-0.1l-1-1.6l0.1,1.1c0,0.2-0.2,0.5-0.4,0.5c-0.2,0-0.5-0.2-0.5-0.4l-0.1-2.2
										l-1.1,0.6c-0.2,0.1-0.5,0-0.6-0.2c-0.1-0.2,0-0.5,0.2-0.6l1-0.6l-1.8-1c-0.2-0.1-0.3-0.4-0.2-0.6c0.1-0.2,0.4-0.3,0.6-0.2
										l0.9,0.5l-1-1.6c-0.1-0.2-0.1-0.5,0.1-0.6c0.2-0.1,0.5-0.1,0.6,0.1l1,1.6L204,256.9z"/>
									<path class="st21" d="M213.1,262.1c0-0.2,0.2-0.5,0.4-0.5c0.2,0,0.5,0.2,0.5,0.4l0.1,2.2l1.3-0.7c0.2-0.1,0.5,0,0.6,0.2
										c0.1,0.2,0,0.5-0.2,0.6l-1.2,0.7l1.8,1.1c0.2,0.1,0.3,0.4,0.2,0.6c-0.1,0.2-0.4,0.3-0.6,0.2l-0.9-0.5l1,1.6
										c0.1,0.2,0.1,0.5-0.1,0.6c-0.2,0.1-0.5,0.1-0.6-0.1l-1-1.6l0.1,1.1c0,0.2-0.2,0.5-0.4,0.5c-0.2,0-0.5-0.2-0.5-0.4l-0.1-2.2
										l-1.1,0.6c-0.2,0.1-0.5,0-0.6-0.2c-0.1-0.2,0-0.5,0.2-0.6l1-0.6l-1.8-1.1c-0.2-0.1-0.3-0.4-0.2-0.6
										c0.1-0.2,0.4-0.3,0.6-0.2l0.9,0.5l-1-1.6c-0.1-0.2-0.1-0.5,0.1-0.6c0.2-0.1,0.5-0.1,0.6,0.1l1,1.6L213.1,262.1z"/>
									<path class="st21" d="M222.2,267.3c0-0.2,0.2-0.5,0.4-0.5c0.2,0,0.5,0.2,0.5,0.4l0.1,2.2l1.3-0.7c0.2-0.1,0.5,0,0.6,0.2
										c0.1,0.2,0,0.5-0.2,0.6l-1.2,0.7l1.8,1.1c0.2,0.1,0.3,0.4,0.2,0.6c-0.1,0.2-0.4,0.3-0.6,0.2l-0.9-0.5l1,1.6
										c0.1,0.2,0.1,0.5-0.1,0.6c-0.2,0.1-0.5,0.1-0.6-0.1l-1-1.6l0.1,1.1c0,0.2-0.2,0.5-0.4,0.5c-0.2,0-0.5-0.2-0.5-0.4l-0.1-2.2
										l-1.1,0.6c-0.2,0.1-0.5,0-0.6-0.2c-0.1-0.2,0-0.5,0.2-0.6l1-0.6l-1.8-1.1c-0.2-0.1-0.3-0.4-0.2-0.6
										c0.1-0.2,0.4-0.3,0.6-0.2l0.9,0.5l-1-1.6c-0.1-0.2-0.1-0.5,0.1-0.6c0.2-0.1,0.5-0.1,0.6,0.1l1,1.6L222.2,267.3z"/>
								</g>
							</g>
						</g>
						<path class="st13" d="M207,124.2c0-0.9,0.2-1.7,0.5-2.4c0.3-0.8,0.9-1.4,1.6-1.8c0.7-0.4,1.5-0.6,2.5-0.6
							c0.8,0.1,1.6,0.3,2.4,0.8l5.9,3.4l0.2,0.3c1.2,1.5,2.4,2.9,3.8,4.2c1.3,1.2,2.6,2.2,4,3c1.3,0.8,2.6,1.3,3.8,1.5
							c1.1,0.2,2.1,0.2,3,0l0.6-0.2c0.8,0.5,4.2,2.2,4.5,2.6c1.5,0.9,2.8,2.3,3.8,3.9c0.9,1.6,1.5,3.5,1.5,5.2l0,11.7
							c0.1,3.1,0,4.8-1.6,5.5c-1.3,0.6-2.9-0.2-5.9-1.9c-3.3-1.9-7.1-4.2-12.5-7.3c-4.7-2.8-9-5.3-12.5-7.3l-0.6-0.3l0,0
							c-4.5-2.6-4.8-2.7-4.8-8.6L207,124.2L207,124.2z M210.4,123c-0.1,0.3-0.2,0.7-0.2,1.1l0,11.6c0,4,0.2,4.1,3.2,5.9v0l0.6,0.3
							c4.9,2.8,9,5.2,12.6,7.3c3,1.7,7.5,4.4,12.5,7.4c2,1.2,3,1.8,3,1.8c0.2-0.1-0.3-0.8-0.3-2.5l0-11.8c0-1.1-0.4-2.5-1.1-3.6
							c-0.7-1.2-1.6-2.2-2.6-2.8l-3.4-2c-1.2,0.2-2.4,0.2-3.8-0.1c-1.5-0.3-3-0.9-4.7-1.9c-1.6-0.9-3.1-2.1-4.6-3.4
							c-1.4-1.3-2.7-2.8-3.9-4.3l-5.3-3.1c-0.4-0.2-0.8-0.4-1.1-0.4c-0.2,0-0.4,0-0.5,0.1C210.6,122.7,210.4,122.9,210.4,123
							L210.4,123z M227.7,129.5c2.6,1.8,4.5,2.1,6.1,1.7c1.1-0.1,2-0.4,2.9-0.9c0.8-0.5,1.5-1.2,2.1-2.2c0.8-1.5,1.2-3.4,1.1-5.7
							c-0.2-3.5-1.7-7.4-3.9-10.8c-2.2-3.4-5.1-6.5-8.3-8.3c-2.2-1.3-4.3-1.8-6.1-1.7c-1.1,0.1-2,0.4-2.9,0.9
							c-0.8,0.5-1.5,1.2-2.1,2.2c-0.8,1.5-1.2,3.4-1.1,5.7c0.2,3.5,1.7,7.4,3.9,10.8C221.6,124.6,224.6,127.7,227.7,129.5
							L227.7,129.5z M222.1,119.5c1.9,3,4.5,5.7,7.2,7.3c1.7,1,3.1,1.4,4.3,1.3c0.5,0,1-0.2,1.4-0.4c0.4-0.2,0.7-0.6,1-1.1
							c0.5-0.9,0.8-2.2,0.7-3.9c-0.2-3-1.5-6.3-3.4-9.3c-1.9-3-4.5-5.7-7.2-7.3c-1.7-1-3.1-1.4-4.3-1.3c-0.5,0-1,0.2-1.4,0.4
							c-0.4,0.2-0.7,0.6-1,1.1c-0.5,0.9-0.8,2.2-0.7,3.9C218.9,113.1,220.1,116.5,222.1,119.5z"/>
					</g>
				</g>
				<g>
					<linearGradient id="SVGID_12_" gradientUnits="userSpaceOnUse" x1="264.6038" y1="125.406" x2="270.3018" y2="206.2145">
						<stop  offset="0" style="stop-color:#D870AC"/>
						<stop  offset="1" style="stop-color:#58469C"/>
					</linearGradient>
					<path class="st22" d="M253.6,117.6l3.9-2.2l28.6,78.5l-0.1,33.5l-4.5,1.7c-8-4.6-15.9-9.3-23.9-13.8c-2.2-1.3-3.9-4.3-3.9-6.8
						L253.6,117.6z"/>
					<g>
						<path class="st2" d="M254.1,115.7l1.8-1c0.6-0.2,1.4-0.1,2.3,0.4c21.6,12.4,43.1,25.2,64.6,37.5c2,1.2,3.7,4,3.7,6.4l0.1,85.3
							c0,1.1-0.3,1.8-0.9,2.3c-0.7,0.5-2.1,1.6-3.2,0.9c-21.6-12.4-42.7-26.3-64.2-38.6c-2-1.2-3.7-4-3.7-6.4L254.1,115.7z"/>
						<path class="st8" d="M253,118.1c0-2.3,1.7-3.3,3.7-2.1c21.6,12.4,43.1,25.2,64.6,37.5c2,1.2,3.7,4,3.7,6.4l0.1,85.3
							c0,2.3-1.7,3.3-3.7,2.1c-21.6-12.4-43.1-25.2-64.6-37.5c-2-1.2-3.7-4-3.7-6.4L253,118.1z"/>
						<linearGradient id="SVGID_13_" gradientUnits="userSpaceOnUse" x1="281.9348" y1="196.6879" x2="299.2995" y2="136.8094">
							<stop  offset="0" style="stop-color:#A77EF7"/>
							<stop  offset="1" style="stop-color:#5E65D6"/>
						</linearGradient>
						<path class="st23" d="M253,118.1c0-2.3,1.7-3.3,3.7-2.1c21.6,12.4,43.1,25.2,64.6,37.5c2,1.2,3.7,4,3.7,6.4l0.1,67.1l-72-41.3
							L253,118.1z"/>
						<g>
							<path class="st24" d="M258.3,194.6c0-1,0.7-1.4,1.6-0.9l19.9,11.2c0.9,0.5,1.6,1.8,1.6,2.8v2c0,1-0.7,1.4-1.6,0.9l-19.9-11.2
								c-0.9-0.5-1.6-1.8-1.6-2.8L258.3,194.6z"/>
							<path class="st24" d="M258.3,203.4c0-0.9,0.6-1.2,1.4-0.8c11.3,6.4,29.7,16.7,41,23.1c0.8,0.5,1.4,1.6,1.4,2.4l0,1.8
								c0,0.9-0.6,1.2-1.4,0.8c-11.3-6.4-29.7-16.7-41-23.1c-0.8-0.5-1.4-1.6-1.4-2.4L258.3,203.4z"/>
						</g>
						<g>
							<path class="st25" d="M314.8,157.1c2.9,0.8,5.4,4.2,5.7,7.6c0.3,3.4-1.8,5.6-4.7,4.8c-2.9-0.8-5.4-4.2-5.7-7.6
								C309.8,158.5,311.9,156.4,314.8,157.1z"/>
							<path class="st8" d="M315.1,160.2c1.5,0.4,2.8,2.1,2.9,3.8c0.2,1.7-0.9,2.8-2.4,2.5c-1.5-0.4-2.8-2.1-2.9-3.8
								C312.5,160.9,313.6,159.8,315.1,160.2z"/>
						</g>
						<path class="st8" d="M260.6,174.2c-1.2-3.6-4.1-10.8-4.5-14.6c-0.3-3.8,2-6.3,5.2-5.4c3.2,0.9,6.1,4.7,6.4,8.5
							C268.1,166.8,263.2,171,260.6,174.2L260.6,174.2z M261.3,156.8c-1.9-0.5-3.3,0.9-3.1,3.3c0.2,2.3,1.9,4.6,3.9,5.1
							c1.9,0.5,3.3-0.9,3.1-3.3C265,159.6,263.2,157.3,261.3,156.8z"/>
						<path class="st8" d="M260,178.5c-0.5,0.6,0.5,1.4,1,0.7c0.5-0.7,0.9-1.3,1.4-1.9c0.5-0.6-0.5-1.4-1-0.7
							C261,177.2,260.5,177.9,260,178.5L260,178.5z M314.4,167.3c0.1-0.8-1.1-0.9-1.2-0.1c-0.1,0.8-0.2,1.6-0.4,2.3
							c-0.2,0.7,1,1.1,1.2,0.3C314.1,168.9,314.3,168.1,314.4,167.3L314.4,167.3z M312.8,173.3c0.3-0.7-0.7-1.2-1.1-0.5
							c-0.3,0.7-0.7,1.4-1.1,2.1c-0.4,0.7,0.6,1.3,1,0.6C312.1,174.8,312.5,174,312.8,173.3L312.8,173.3z M309.2,178.4
							c0.6-0.6-0.3-1.4-0.8-0.9c-0.6,0.5-1.2,1-1.8,1.3c-0.7,0.3-0.2,1.4,0.6,1.1C307.9,179.5,308.6,179,309.2,178.4L309.2,178.4z
							 M303.4,180.9c0.8,0,0.8-1.2,0-1.2c-0.6,0-1.7-0.1-2.2-0.3c-0.8-0.2-1.1,0.9-0.4,1.2C301.6,180.7,302.5,180.9,303.4,180.9
							L303.4,180.9z M297.4,178.7c0.6,0.5,1.4-0.5,0.7-1c-0.6-0.5-1.2-1-1.8-1.5c-0.6-0.6-1.4,0.3-0.8,0.9
							C296.1,177.7,296.7,178.2,297.4,178.7L297.4,178.7z M293.1,174.3c0.5,0.6,1.4-0.1,1-0.7c-0.5-0.6-0.9-1.3-1.4-1.9
							c-0.5-0.7-1.4,0-1,0.7C292.1,173,292.6,173.7,293.1,174.3L293.1,174.3z M289.8,169.2c0.4,0.7,1.4,0.1,1-0.6
							c-0.4-0.7-0.9-1.5-1.4-2.1c-0.5-0.6-1.4,0.1-0.9,0.8C288.9,167.9,289.3,168.5,289.8,169.2L289.8,169.2z M286,164.8
							c0.7,0.4,1.3-0.5,0.7-1c-0.7-0.5-1.4-0.9-2.3-1.2c-0.8-0.3-1.2,0.9-0.4,1.1C284.7,164,285.4,164.4,286,164.8L286,164.8z
							 M280.7,163.2c0.9-0.1,0.7-1.3-0.1-1.2c-0.9,0-1.7,0.2-2.5,0.4c-0.8,0.2-0.5,1.4,0.3,1.2C279.2,163.4,279.9,163.3,280.7,163.2
							L280.7,163.2z M275.2,165c0.7-0.4,0.1-1.4-0.6-1.1c-0.7,0.4-1.4,0.8-2.1,1.3c-0.6,0.5,0,1.4,0.7,1
							C273.9,165.8,274.5,165.3,275.2,165L275.2,165z M270.4,168.4c0.6-0.6-0.2-1.4-0.8-0.9c-0.6,0.5-1.2,1.1-1.8,1.7
							c-0.6,0.6,0.3,1.4,0.9,0.9C269.3,169.5,269.8,168.9,270.4,168.4L270.4,168.4z M266.2,172.7c0.5-0.6-0.3-1.4-0.9-0.8
							c-0.5,0.6-1.1,1.2-1.6,1.9c-0.5,0.7,0.5,1.4,0.9,0.8C265.2,173.9,265.7,173.3,266.2,172.7z"/>
						<g>
							<path class="st25" d="M259.6,176.2c1.4,0.4,2.7,2,2.8,3.7c0.1,1.7-0.9,2.7-2.3,2.4c-1.4-0.4-2.7-2-2.8-3.7
								C257.1,176.9,258.2,175.9,259.6,176.2z"/>
							<path class="st8" d="M259.7,177.7c0.7,0.2,1.3,1,1.4,1.9c0.1,0.9-0.4,1.4-1.2,1.2c-0.7-0.2-1.3-1-1.4-1.9
								C258.5,178.1,259,177.5,259.7,177.7z"/>
						</g>
					</g>
				</g>
				<g>
					<linearGradient id="SVGID_14_" gradientUnits="userSpaceOnUse" x1="177.4675" y1="56.7509" x2="182.6125" y2="129.8598">
						<stop  offset="0" style="stop-color:#D870AC"/>
						<stop  offset="1" style="stop-color:#58469C"/>
					</linearGradient>
					<path class="st26" d="M172.2,47.5c6.5,3.8,12.9,7.5,19.4,11.2c2,1.1,3.6,3.9,3.6,6.2l0.1,83c0,2.3-1.6,3.2-3.6,2l-25.8-15
						l0-20.5L172.2,47.5z"/>
					<g>
						<path class="st2" d="M125.6,22.6l1.6-0.9c0.6-0.2,1.3-0.1,2.1,0.4c19.7,11.3,39.3,23,59,34.3c1.9,1.1,3.4,3.7,3.4,5.8
							l0.1,77.9c0,1-0.3,1.7-0.8,2.1c-0.6,0.5-1.9,1.5-2.9,0.9c-19.7-11.3-39-24-58.6-35.3c-1.9-1.1-3.4-3.7-3.4-5.8L125.6,22.6z"/>
						<path class="st8" d="M124.6,24.8c0-2.1,1.5-3,3.4-1.9c19.7,11.3,39.3,23,59,34.3c1.9,1.1,3.4,3.7,3.4,5.8l0.1,77.9
							c0,2.1-1.5,3-3.4,1.9c-19.7-11.3-39.3-23-59-34.3c-1.9-1.1-3.4-3.7-3.4-5.8L124.6,24.8z"/>
						<linearGradient id="SVGID_15_" gradientUnits="userSpaceOnUse" x1="166.082" y1="35.6783" x2="150.5693" y2="105.218">
							<stop  offset="0" style="stop-color:#965CF2"/>
							<stop  offset="1" style="stop-color:#FF8ADC"/>
						</linearGradient>
						<path class="st27" d="M124.6,24.8c0-2.1,1.5-3,3.4-1.9c19.7,11.3,39.3,23,59,34.3c1.9,1.1,3.4,3.7,3.4,5.8l0.1,61.2
							l-65.7-37.7L124.6,24.8z"/>
						<g>
							<path class="st28" d="M129.5,94.7c0-0.9,0.7-1.3,1.5-0.8l18.1,10.2c0.8,0.5,1.5,1.6,1.4,2.5v1.8c0,0.9-0.7,1.3-1.5,0.8
								l-18.1-10.2c-0.8-0.5-1.5-1.6-1.4-2.5L129.5,94.7z"/>
							<path class="st28" d="M129.5,102.7c0-0.8,0.6-1.1,1.3-0.7c10.3,5.8,27.1,15.3,37.4,21.1c0.7,0.4,1.3,1.4,1.3,2.2l0,1.6
								c0,0.8-0.6,1.1-1.3,0.7c-10.3-5.8-27.1-15.3-37.4-21.1c-0.7-0.4-1.3-1.4-1.3-2.2L129.5,102.7z"/>
						</g>
						<path class="st29" d="M176.2,74.9l-0.1,38.7L187,120l0.1-38.7L176.2,74.9L176.2,74.9z M143.5,44.1L143.4,96l10.9,6.3l0.1-51.8
							L143.5,44.1L143.5,44.1z M159.8,62.5l-0.1,43l10.9,6.3l0.1-43L159.8,62.5L159.8,62.5z M127.2,47.8l-0.1,38.7l10.9,6.3
							l0.1-38.7L127.2,47.8z"/>
						<g>
							<path class="st30" d="M127.1,62.9c-0.3-0.3-0.3-0.7,0.1-1c0.3-0.3,0.9-0.2,1.2,0l10.3,9.6l5,2.1l10.7-2.2l6.5-7.1
								c0.3-0.3,0.8-0.4,1.2-0.1c0.1,0,0.1,0.1,0.2,0.2l15.3,16.4l9.3,2.3c0.5,0,0.8,0.3,0.9,0.7c0,0.4-0.3,0.7-0.8,0.7l-9.7-2.3
								c-0.3,0-0.5-0.1-0.7-0.3l-14.9-16l-6,6.6l0,0c-0.1,0.1-0.3,0.2-0.5,0.3l-11.3,2.3c-0.2,0-0.4,0-0.6-0.1l-5.3-2.3
								c-0.1,0-0.2-0.1-0.3-0.2L127.1,62.9z"/>
							<path class="st8" d="M127.1,63.1c-0.3-0.3-0.3-0.9,0.1-1.2s0.9-0.3,1.2,0.1l10.3,11.3l5,2.5l10.7-2.6l6.5-8.3
								c0.3-0.4,0.8-0.4,1.2-0.1c0.1,0.1,0.1,0.1,0.2,0.2l14.5,18.7l10.2-0.4c0.5,0,0.8,0.3,0.9,0.8c0,0.5-0.3,0.8-0.8,0.9
								l-10.6,0.4c-0.3,0-0.5-0.1-0.7-0.3l-14.1-18.2l-6,7.7l0,0c-0.1,0.1-0.3,0.3-0.5,0.3l-11.3,2.7c-0.2,0-0.4,0-0.6-0.1l-5.3-2.7
								c-0.1,0-0.2-0.1-0.3-0.2L127.1,63.1z"/>
						</g>
					</g>
				</g>
			</g>
		</g>
		<g>
			<path class="st9" d="M22.5,275.6l42.1-24c4.6-2.1,11.2-3.8,15.8-1.3c4.3,2.2,11.3,6.8,14.4,8.5c2.4,1.3,10.5,6.2,5.4,9
				c-15,8.1-29.8,17.3-45,25.6c-2.9,1.6-7.1,2.1-11.5,1.8c-4.4-0.4-8.9-1.6-12.5-3.7c-2.5-1.5-5-2.9-7.5-4.3
				c-3.3-1.9-5.1-4.2-5.2-6.3C18.4,278.8,19.7,276.9,22.5,275.6z"/>
			<g>
				<g>
					<linearGradient id="SVGID_16_" gradientUnits="userSpaceOnUse" x1="64.233" y1="203.9032" x2="74.3397" y2="221.1955">
						<stop  offset="0" style="stop-color:#FF8A78"/>
						<stop  offset="1" style="stop-color:#FFA799"/>
					</linearGradient>
					<path class="st31" d="M78.5,163c0.2,1.8-0.1,4.6,0.1,11.6c0.1,4.9-0.6,13.4-1.1,20.8c-0.2,3-0.6,5.7-0.9,8.1
						c-0.2,1.7-0.9,3.4-1.2,5.1c-1.9,12.6-4.2,24-5.7,39.1c-0.3,3.5-0.7,5.3-0.1,8.7c0.1,0.7,0.5,1.4,0.5,2c0.4,3.3,0.8,6.7,2.1,9.5
						c0.2,0.4,0.5,1.5,0.7,1.9c0,0-3,1-3.4,1.1c-0.4,0.1-5.2-1.3-5.2-1.3s-1.8-8.1-1.8-8.5c0.3-5.3-3.4-4.3-0.1-8.3
						c0.3-0.5,0.2-0.5,0.2-1.1c0-5.2-0.9-12.8-1.6-19.6c-1.9-19.4,1.3-18,2.1-27.3c-1.3-11.2-4-27-3.8-40.7L78.5,163z"/>
					<path class="st32" d="M71.6,266.3c0.5,1,1.1,2.3,1.6,3.4c0.6,1.3,0.9,2.2,1.2,3.2c0.2,0.5,0.1,1-0.1,1.3c-1.2,1.6-7-1.3-9-3
						c-1.3-1.1-1.3-2.4-1.6-4.1c-0.4-2.4-0.5-2.7-1.1-5.2l-0.7,6.8l-0.6,0.3c-0.1-2.8-0.4-6.4-0.8-8.8c-0.2-0.9-0.5-2-0.5-2.5
						c-0.2-3.1,1.3-4.6,2.7-5.4c-0.5,1.9,0.8,4.9,1.5,8.7c0.6,4,2.9,8.4,4.6,8.7c0.7,0.2,2.3-0.8,3.2-1.3
						C72.3,268.3,71.9,267.2,71.6,266.3z"/>
				</g>
				<g>
					<linearGradient id="SVGID_17_" gradientUnits="userSpaceOnUse" x1="63.7219" y1="219.3336" x2="48.2091" y2="210.8943">
						<stop  offset="0" style="stop-color:#FFB89E"/>
						<stop  offset="1" style="stop-color:#FFA799"/>
					</linearGradient>
					<path class="st33" d="M54.8,157.1c-2,6.4-5.9,12.3-6.7,17.4c-0.8,5.1-0.4,9.9,0.6,17.5c0.7,5.2,3.3,16.8,2.7,21.3
						c-0.8,6.5-3.2,10.3-4,17.9c-0.6,6.1,0.4,15,0.7,23.4c0.1,3.2-0.2,3.3-0.9,6.2c-0.2,0.9-0.4,1.9-0.5,3c-0.3,2.5-0.5,5.5-0.2,9.1
						c0.1,1.3,0.6,1.9,0.7,3.7l7.2,2.3c-0.2-1.5-0.4-3.9-0.5-6.4c-0.1-2.3-0.1-4.8-0.1-7.1c0-3.3-0.3-5.3,0.3-8.4
						c1.9-10.3,4.9-19.4,7-27.9c1.1-4.4,1.4-8.4,2.9-14.7c0.6-2.6,1.2-5.2,1.3-7.8c0.4-7,1.8-15.5,1.8-22.7
						c5.8-8.4,9.6-12.6,11.2-17c0.3-2.9-0.7-6.3-0.7-6.3L54.8,157.1z"/>
					<path class="st32" d="M47.9,258.3c-0.6,1.4-1.2,2.2-1.5,4.2c-0.3,2,0.2,5.3-0.2,7.8l-0.6,4c-0.4,2.3,0,4,2.4,6.2
						c2.2,2,4.4,3.1,5.7,2.6c1-0.3,1.9-1.9,1.1-6.4c-0.7-3.8-0.7-7.3-0.9-11.3c-0.3,3.9-0.4,5.2,0.1,9.1c0.1,1.1,0.2,2.8-1.1,2.9
						c-5.3,0.1-5.3-1.4-5.6-3C46.7,269.9,46.9,262.3,47.9,258.3z"/>
				</g>
				<linearGradient id="SVGID_18_" gradientUnits="userSpaceOnUse" x1="75.3403" y1="178.9928" x2="55.2481" y2="187.8213">
					<stop  offset="0" style="stop-color:#3E4795"/>
					<stop  offset="1" style="stop-color:#273088"/>
				</linearGradient>
				<path class="st34" d="M54.8,157.1c-2,6.4-5.9,12.3-6.7,17.4c-1.2,7.6,0.2,13.6,2.2,30.1c0.3,2.2,0,4.2-0.4,6.1
					c-1.2,5.8,4.4,7.4,11.2,5.2c8.2-2.6,15.8-8.7,16.3-11.6c0.9-8.1,3.2-23.4,3.1-30.3c-0.1-6.9-1.7-9.3-1.9-11.1l-0.1-1.8
					C78.2,159.8,57.7,157.6,54.8,157.1z"/>
			</g>
			<linearGradient id="SVGID_19_" gradientUnits="userSpaceOnUse" x1="52.5161" y1="99.2943" x2="47.0587" y2="120.0295">
				<stop  offset="0" style="stop-color:#5A2D68"/>
				<stop  offset="1" style="stop-color:#22043D"/>
			</linearGradient>
			<path class="st35" d="M40.3,123.3c15.1,8.1,21.4-7.4,22.9-19.1c0.7-5,0.5-9.8-1.7-12.8c-2.3-3.2-6.1-4.4-9.9-4.3
				c-8.1,0.3-12.5,8-10.5,16.1C43,111.1,46.8,119.7,40.3,123.3z"/>
			<path class="st36" d="M60.2,91.8c-4.1-2.1-10,2.6-8.1,9.1C52.7,97.4,54.7,93.7,60.2,91.8z"/>
			<linearGradient id="SVGID_20_" gradientUnits="userSpaceOnUse" x1="65.2227" y1="99.8271" x2="60.1749" y2="111.8265">
				<stop  offset="0" style="stop-color:#5A2D68"/>
				<stop  offset="1" style="stop-color:#22043D"/>
			</linearGradient>
			<path class="st37" d="M59.7,91.2c14.4-4.8,24.8,17.5,8.2,24.5C52.1,122.3,43.6,96.5,59.7,91.2z"/>
			<g>
				<linearGradient id="SVGID_21_" gradientUnits="userSpaceOnUse" x1="111.5165" y1="133.6159" x2="111.0215" y2="131.8174">
					<stop  offset="0" style="stop-color:#FF8A78"/>
					<stop  offset="1" style="stop-color:#FFA799"/>
				</linearGradient>
				<path class="st38" d="M116.3,131.3c0.9,1.2-0.8,2.1-1.5,2.1c-1.2,0.2-2.8-0.4-3.2,0.3c-0.5,0.9-5.9-0.9-5.8-1
					c2.2-1.6,4.3-2,4.6-2C113.9,131,112.9,131.8,116.3,131.3z"/>
				<path class="st39" d="M106.5,137.8c-5,1.4-11.8,6.3-16.5,7.3c-1.5,0.3-3.8,1-5-0.3c-6.1-6.6,2.4-4.4,3.1-6.9
					c4.3-3.2,11.1-1.7,16.6-4.7c0.4-0.2,0.7-0.5,1.1-0.6c2.2-1.1,3.4-1,7.2,0.9c1.1,0.6,1.7,0.5,2.6,0.5l3.8-0.5
					c1.2,0,1.9,0.2,2.1,0.6c0.2,0.4-0.2,2.8-0.9,3.8l0,0c-0.1,0.4-1,0.8-2.4,0.8l-5.5,1.7l-0.3-0.1
					C109.2,138.4,107.7,137.8,106.5,137.8z"/>
			</g>
			<linearGradient id="SVGID_22_" gradientUnits="userSpaceOnUse" x1="73.3791" y1="137.736" x2="89.1902" y2="127.958">
				<stop  offset="0" style="stop-color:#FA79B6"/>
				<stop  offset="1" style="stop-color:#FFBFBF"/>
			</linearGradient>
			<path class="st40" d="M82.9,145.4c-4.5-4.2-10.8-10.3-13.1-15.1c-1.5-3.1-1.8-11.9,3-13c1.6-1,4,5.5,5.7,8.2
				c3,4.8,5.1,7.6,8.6,12c3.7-2.4,8.8-2.6,13.5-3.8c0.8-0.2,1.5-0.2,2.2-0.1c0.6-0.1,1.1-0.3,1.7-0.6c0.5,0.1,2.3,3.2,2,5.1
				c-0.4,0.1-1.2,0.4-1.6,0.5c-0.6,0.2-0.9,0.7-1.4,1c-1.9,1-10.5,5.3-14.7,6.2c-1.6,0.4-4.2,1.2-5.5-0.2
				C83.1,145.7,83,145.6,82.9,145.4z"/>
			<path class="st41" d="M82.9,145.4c-1.5-1.4-3.2-3-4.9-4.7c3.5-3.1,3.2-8.6,0.9-11.9c-1.5-2.2-2.4-3.8-3.1-5.5
				c-0.2-1.3-0.5-2.4-0.7-3.2c-0.1-0.4-0.3-0.8-0.5-1.2c0.7,0.9,1.2,2.7,2.4,5.3c2,4.3,5.1,6.8,5.4,11.9c0.2,3.8,1.9,8.2,4.7,10.2
				c-1.4,0.3-3,0.4-3.9-0.6C83.1,145.7,83,145.6,82.9,145.4z"/>
			<g>
				<linearGradient id="SVGID_23_" gradientUnits="userSpaceOnUse" x1="54.3252" y1="153.7535" x2="86.8612" y2="126.3773">
					<stop  offset="0" style="stop-color:#FA79B6"/>
					<stop  offset="1" style="stop-color:#FFBFBF"/>
				</linearGradient>
				<path class="st42" d="M51.8,150.5c2.8,6.4-1.9,9.9-0.2,14.3l-0.5,3c5,3.6,23.1,3.9,27.6-3.3l0.1-3.6c0.8-1.7,0.3-6,0-7.2
					c-0.7-3.6-0.4-5.6-0.8-9.8c-0.1-1.1-0.3-1.7-0.4-2.8c4-3,3.8-8.8,1.4-12.3c-1.5-2.2-2.4-3.8-3.1-5.5c-0.2-1.3-0.5-2.4-0.7-3.2
					c-0.2-0.6-0.5-1.2-0.8-1.7c-1.1-1.6-3-1.8-6.8-1c-7.5,1.7-15.2,5.6-18.7,9.3c-2.5,2.7-2.4,5.6-1,12
					C48.8,143,50.4,147.2,51.8,150.5z"/>
				<path class="st41" d="M51.8,150.4c2.8,6.4-1.8,10-0.1,14.4l-0.5,2.9c5,3.9,23.1,3.7,27.6-3.4l-0.1-3.1c0-0.1-8.8,7.8-18.9,3.4
					c-2.2-1-4.2-5.8-1.3-14.9c0.3-0.9,3.5-0.9,8-4.3c-3.4,1.4-9.7,3.4-10-5.2c-0.1-3.8-0.7-6.7-2.7-9.3c-0.9-1.3-6.5,5.5-5.7,8.7
					C49.1,143.8,50.7,148,51.8,150.4z"/>
			</g>
			<path class="st43" d="M71.6,120.2c0.6,2,1,12.1-0.2,16.5c-4-4.5-15.8-10.5-14.3-13.7C59,119,70.5,116.7,71.6,120.2z"/>
			<path class="st39" d="M71,120.7c0.6,1.8,0.7,10.9,0,14.8c-3.1-3.7-14.4-9.3-13-12.5C59.5,119.4,70,117.5,71,120.7z"/>
			<g>
				<path class="st39" d="M60.6,112.2c0.6,3.3,0.3,6.4-0.7,9.6c2.7,2.5,7.5,1.4,8.6-0.8c-0.2-1.5-0.5-2.8-0.7-4.3L60.6,112.2z"/>
				<linearGradient id="SVGID_24_" gradientUnits="userSpaceOnUse" x1="64.3025" y1="116.7817" x2="63.7546" y2="119.5225">
					<stop  offset="0" style="stop-color:#FF8A78"/>
					<stop  offset="1" style="stop-color:#FFA799"/>
				</linearGradient>
				<path class="st44" d="M60.6,112.2c0.3,1.6,0.4,3.1,0.2,4.7c0.8,3.2,6.8,5.4,7.4,2.8c-0.2-1-0.3-2-0.4-3L60.6,112.2z"/>
				<path class="st39" d="M71.8,98.2c1.3,2.1,2.1,4.3,1.8,7.3c-0.1,0.8,0,1.3,0.3,1.8c1.3,2.8,1.1,3.7,0.5,6
					c-0.6,2.2-0.6,3.4-1.3,4.1c-0.8,0.8-1.9,1-2.9,1c-2,0.1-5.5-1.2-7.5-2.3c-1.5-0.8-1.4-1.4-2.1-2.8c-2.1-1.8-0.7-3.2,0-3.3
					c2-0.4,2.4,1.9,3.6,2.5C63.9,108.4,71.7,101.5,71.8,98.2z"/>
				<linearGradient id="SVGID_25_" gradientUnits="userSpaceOnUse" x1="74.0557" y1="106.0961" x2="69.8321" y2="112.9363">
					<stop  offset="0" style="stop-color:#FFB89E"/>
					<stop  offset="1" style="stop-color:#FFA799"/>
				</linearGradient>
				<path class="st45" d="M72.7,99.9c0.7,1.6,1.1,3.4,0.9,5.7c-0.1,0.8,0,1.3,0.3,1.8c1.3,2.8,1.1,3.7,0.5,6c-0.3,1-0.4,1.8-0.6,2.4
					c-0.5,0.7-1.4,1.1-2.4,0.7c-0.8-0.4-1.7-1.4-1.9-3c-0.1-1.2-2.6-2-3.1-3.2c-0.4-1,0.7-2.1,1.4-2.7
					C70.2,105.5,71.7,102.8,72.7,99.9z"/>
				<path class="st46" d="M71.8,98.2c-1.1,5-7.7,8.8-7.8,14.3C65.8,106.9,72.2,103,71.8,98.2z"/>
			</g>
			<g>
				<linearGradient id="SVGID_26_" gradientUnits="userSpaceOnUse" x1="52.977" y1="168.8439" x2="52.104" y2="170.0526">
					<stop  offset="0" style="stop-color:#FFB89E"/>
					<stop  offset="1" style="stop-color:#FFA799"/>
				</linearGradient>
				<path class="st47" d="M48.5,163.2c0.9,0.5,2.5,1.1,3.2,1.5c0.3,0.2,2.8,1.7,4.1,2.6c1.5,1,1.9,2.4,2.7,4c0.6,1.3,0.9,2.2,1,2.9
					c0.1,0.7-1.6,1.9-2.3,1.8c-1.6-0.4-3.3-2.4-3.7-2.6c-3.6-1.9-5.4-2.1-6.7-3.6c-0.6-0.6-0.9-2.5-2.1-4.2l2.2-2L48.5,163.2z"/>
				<linearGradient id="SVGID_27_" gradientUnits="userSpaceOnUse" x1="39.1204" y1="149.6631" x2="96.4534" y2="128.007">
					<stop  offset="0" style="stop-color:#FA79B6"/>
					<stop  offset="1" style="stop-color:#FFBFBF"/>
				</linearGradient>
				<path class="st48" d="M48.5,126.8c-5.9,2.5-11,14-16.3,20.9c-1.1,1.4-1.1,2.7-0.5,3.7c0.2,0.5,0.6,1.2,1.1,1.9
					c2.5,3.7,4.6,6.9,10.1,11.6c0.4,0.3,0.8,0.5,1.4,0.7c0.3,0.3,0.8,0.8,1.2,1.1c-0.5-0.6,2.3-3.5,3.5-3.3c-0.3-0.4-0.6-0.8-1-1.3
					c0-0.6-0.1-0.7-0.4-1.2c-2.3-3.3-4.5-7.7-7.3-10.8c4.8-3.9,7.6-6.5,11.6-11.3C57.4,132.1,53,124.9,48.5,126.8z"/>
			</g>
		</g>
		<g>
			<path class="st9" d="M80.9,342.9c17.1-9.9,44.7-9.9,61.7,0c17,9.9,16.9,25.9-0.2,35.7c-17.1,9.9-44.7,9.9-61.7,0
				C63.8,368.7,63.9,352.7,80.9,342.9z"/>
			<path class="st9" d="M207.6,348.3l-44.9-25.6c-4.9-2.2-11.9-4-16.9-1.4c-4.5,2.4-12,7.2-15.3,9.1c-2.5,1.4-11.2,6.7-5.8,9.6
				c16,8.7,31.8,18.5,48.1,27.3c3.1,1.7,7.6,2.3,12.3,1.9c4.7-0.4,9.5-1.8,13.3-4c2.7-1.6,5.4-3.1,8-4.6c3.5-2.1,5.4-4.5,5.6-6.7
				C212,351.7,210.6,349.6,207.6,348.3z"/>
			<g>
				<g>
					<path class="st49" d="M145.8,356.9l0.1,3.4c0,5.1-3.3,10.2-10.1,14.1c-10.7,6.2-26.2,7.2-38.2,4c-8-2.1-19.9-8.1-19.9-17.9
						l-0.1-3.4L145.8,356.9z"/>
					<linearGradient id="SVGID_28_" gradientUnits="userSpaceOnUse" x1="99.7444" y1="367.941" x2="127.9394" y2="341.915">
						<stop  offset="0" style="stop-color:#965CF2"/>
						<stop  offset="1" style="stop-color:#FF8ADC"/>
					</linearGradient>
					<path class="st50" d="M87.6,343c13.4-7.7,35-7.7,48.3,0c13.3,7.7,13.2,20.2-0.1,28c-13.4,7.7-35,7.7-48.3,0
						C74.1,363.2,74.2,350.7,87.6,343z"/>
				</g>
				<path class="st49" d="M115.2,274.1l0,80.4c0,0.6-0.4,1.3-1.2,1.7c-1.3,0.8-3.2,0.9-4.7,0.5c-1-0.3-2.4-1-2.4-2.2l0-80.4
					L115.2,274.1z"/>
			</g>
			<g>
				<linearGradient id="SVGID_29_" gradientUnits="userSpaceOnUse" x1="152.6336" y1="293.1225" x2="135.3163" y2="320.321">
					<stop  offset="0" style="stop-color:#235DA3"/>
					<stop  offset="1" style="stop-color:#123A76"/>
				</linearGradient>
				<path class="st51" d="M155.4,290.6c-4.1,10.6-6.4,25.5-8.9,37.2c-0.4,1.4-1.1,3.1-2.9,4.1c-2.9,1.5-6.2,1.2-7-1
					c0.1-10.9-0.6-18.9-0.3-24.9c0.4-6.7,2.9-16.9,5.5-20.8C143.7,276.1,159.8,279.6,155.4,290.6z"/>
				<path class="st52" d="M155.8,289.4c-0.1,0.5-0.3,0.9-0.4,1.3l-0.2,0.4l0,0.1c-0.7,1.8-1.3,3.8-1.9,5.8l0,0.1l-0.1,0.5l0,0.2
					l-0.1,0.3c-2.7,9.6-4.6,21-6.6,30.1c-1-13.7,1.2-27.4,4.9-39.2c0.2-3.2,0.1-6-0.2-8.6C154.4,281.4,157.1,284.6,155.8,289.4z"/>
				<g>
					<path class="st8" d="M150.4,337.9c-1.9,1.8-3,0.7-3.8,4c-2.1,3.1-3.9,4.1-5.7,3.7c-2.2-0.4-3.9-1.3-4.2-3.7
						c-0.4-4-0.4-4.8,0.6-7.7l0.3-0.2c0.2-0.3,0.5-0.3,0.9-0.3c1.9,0.5,2.5,1.6,3.2,2.3c1.5,1.4,2.9,0.3,3.5-1.3l0,0l0,0l0,0l0-0.1
						l0,0l0-0.1l0,0l0-0.1l0,0l0,0l0,0l0-0.1l0,0l0-0.1l0-0.2l0-0.2l0,0c0-0.1,0-0.2,0-0.3l0,0l0-0.1l0,0l0,0l0-0.1l0,0l0-0.1l0-0.2
						l0,0l0,0l0-0.1l0-0.1l0-0.2c0-0.1,0-0.2,0-0.2c0-0.7,0-1.1,0.1-1.4c0-0.2,0-0.3,0-0.5c2.1-1.2,5.2-4.3,7.4-4.9
						c1.6-0.4,2.5,1.8,2.5,2.9C155.6,330.8,152.4,335.7,150.4,337.9z"/>
					<path class="st53" d="M145,329.5c-0.1,2.3,0.1,4.8-1.6,6.1c-1.5,1.2-4,1.6-5.5-0.7c-0.6-1-0.6-2.7-0.8-4.8
						C137.1,331.7,145.1,331.1,145,329.5z"/>
					<path class="st54" d="M149.9,336.9c-1.9,1.8-3,0.7-3.8,4c-2.1,3.1-3.9,4.1-5.7,3.7c-2.2-0.4-3.9-1.3-4.2-3.7
						c-0.4-4-0.4-4.8,0.6-7.7l0.3-0.2c0.2-0.3,0.5-0.3,0.9-0.3c1.9,0.5,2.5,1.6,3.2,2.3c1.5,1.4,2.9,0.3,3.5-1.3l0,0l0,0l0,0l0-0.1
						l0,0l0-0.1l0,0l0-0.1l0,0l0,0l0,0l0-0.1l0,0l0-0.1l0-0.2l0-0.2l0,0c0-0.1,0-0.2,0-0.3l0,0l0-0.1l0,0l0,0l0-0.1l0,0l0-0.1l0-0.2
						l0,0l0,0l0-0.1l0-0.1l0-0.2c0-0.1,0-0.2,0-0.2c0-0.7,0-1.1,0.1-1.4c0-0.2,0-0.3,0-0.5c2.1-1.2,5.1-3.4,7.3-4
						c1.6-0.4,2.5,0.9,2.6,2C155.1,329.8,151.9,334.7,149.9,336.9z"/>
					<path class="st8" d="M152.9,325.8c0.6,0.6,1.8,0.2,2.4,1.6c0-0.9-0.9-2.2-1.9-2.2C153.2,325.2,152.6,325.6,152.9,325.8z"/>
					<linearGradient id="SVGID_30_" gradientUnits="userSpaceOnUse" x1="142.2441" y1="327.8971" x2="137.7146" y2="332.4303">
						<stop  offset="0" style="stop-color:#235DA3"/>
						<stop  offset="1" style="stop-color:#123A76"/>
					</linearGradient>
					<path class="st55" d="M147,325.6c-0.1,0.7-0.3,1.4-0.4,2.1c-0.4,1.4-1.1,3.1-2.9,4.1c-2.9,1.5-6.2,1.2-7-1
						c0-0.9-0.2-1.9-0.2-2.8C138.1,330.1,143.6,331.3,147,325.6z"/>
				</g>
			</g>
			<path class="st56" d="M114.9,277c-9.2-2.6-26.6,7.2-43.2,24.9c-14.9,16,42.1,32.8,53.4,28.4c10.8-4.1,38.1-17.8,35.8-23.5
				C156.4,295.5,131.4,281.6,114.9,277z"/>
			<g>
				<linearGradient id="SVGID_31_" gradientUnits="userSpaceOnUse" x1="149.2919" y1="280.9893" x2="99.4941" y2="294.6534">
					<stop  offset="0" style="stop-color:#235DA3"/>
					<stop  offset="1" style="stop-color:#123A76"/>
				</linearGradient>
				<path class="st57" d="M122.2,278.6c-8.2,0.3-17.3,0-24.6,2.6c-6.8,2.5-5.7,12.3,0.5,17.9c5.4,4.9,14.6,6.4,28.1,0.8
					c4.2-1.7,8.2-3.3,14.5-4c6.1-0.7,10,0.5,13.3-5.2c2.4-4,1.6-8.8-4-10.6C141.9,277.5,130.6,278.3,122.2,278.6z"/>
				<g>
					<g>
						<path class="st53" d="M195.3,327.2c2.3,4.1,3.4,5.7,4,6.5c1.3,1.9-1.5,5.1-3.3,6.1c-1.9,1-4.8,1-6.1-1.9
							c-0.5-1.1-0.7-2.7-1.2-4.1C189.5,335.4,193.7,330.9,195.3,327.2z"/>
						<g>
							<path class="st8" d="M192.5,339.7c1-0.2,6.6,1.8,6.9-5.4c4.1,1,10.7-2.2,14.4-2.2c0.7,0,1.8-0.7,2.1-0.4
								c1.1,1.2,2.3,3,0.7,4.8c-1.1,1.3-3.8,3.2-5.6,4.4c-1.9,1.2-5.1,3.1-7.4,4c-2.5,1-3.6,1.4-4.4,2.4c-1.2,1-2.6,1.6-3.4,1.7
								c-1.8,0.1-4-0.4-5.4-2.2c-0.4-0.6-1.1-3.3-1.1-5.1c-0.1-1.5,0.3-3.2,0.6-4.8L192.5,339.7z"/>
							<path class="st54" d="M200.3,333.4c2.2,0.1,8-1.6,11.7-2.1c1.6-0.2,3-0.6,4.1,0.7c1,1.2,0.9,2.4-0.4,3.8
								c-1.2,1.3-3.2,2.9-5,4c-1.9,1.2-5.1,3.1-7.4,4c-2.5,1-3.6,1.4-4.4,2.4c-1.2,1-2.6,1.6-3.4,1.7c-1.8,0.1-4-0.6-5.4-2.4
								c-0.4-0.6-1-3.1-1.1-4.9c0-1-0.2-2.6-0.1-3.5c0.1-1.5,0.7-1.7,1.4-1.5c1.3,0.4,2,1.4,2.7,2.3c0.6,0.7,1.2,1.1,2,1.2
								c1.5,0.1,2.6-1,3.2-2.4c0.3-0.9,0.3-2,0.3-3c0-0.1,0-0.2-0.1-0.3c-0.3-2.5,1-2.5,0.9-2C199.2,331.9,199.5,333,200.3,333.4z"
								/>
							<path class="st8" d="M215,331.7c0.2,0.9,1.5,0,1.9,2.4c0.8-1.1-0.5-2.6-1.4-2.9C215.3,331.2,214.8,331,215,331.7z"/>
						</g>
					</g>
					<linearGradient id="SVGID_32_" gradientUnits="userSpaceOnUse" x1="148.1637" y1="296.208" x2="148.3615" y2="330.3634">
						<stop  offset="0" style="stop-color:#235DA3"/>
						<stop  offset="1" style="stop-color:#123A76"/>
					</linearGradient>
					<path class="st58" d="M169.5,288.4c6.5,11.2,18.7,27.8,25.4,37.8c1.7,3.2-1.2,8.2-6.6,9c-7.7-9.1-16.6-14.3-24.2-25.6
						c-1.4-2.1-4.1-6.6-5.7-9.9c-2.1,0.3-4.9,0.7-7.9,1.2c-6.3,1-11.4,2.5-15.5,4.5c-13.2,6.3-22.4,5.4-28.1,0.8
						c-6.5-5.3-8.1-15-1.5-17.9c7.1-3.1,15.2-3.7,23.3-4.5c7.4-0.7,22.2-2.1,31.3-0.9c0.7,0.1,1.4,0.2,2,0.3c2.4,0.4,4.1,1,5.9,2.9
						C168.6,286.7,169.1,287.5,169.5,288.4z"/>
					<linearGradient id="SVGID_33_" gradientUnits="userSpaceOnUse" x1="191.704" y1="328.3775" x2="189.8822" y2="335.9162">
						<stop  offset="0" style="stop-color:#235DA3"/>
						<stop  offset="1" style="stop-color:#123A76"/>
					</linearGradient>
					<path class="st59" d="M194,324.2c0.4,0.6,1.8,2.7,2.2,3.3c1,2.7-2.6,7.3-8,7.7c-0.4-0.5-1.9-2.1-2.3-2.7
						C190.7,331.2,193.8,328.5,194,324.2z"/>
				</g>
				<g>
					<g>
						<g>
							<g>
								<g>
									<path class="st39" d="M113.3,233.4c1.4-2.4,2.8-4.5,4.4-6.7c1.3-1.8,1.7-1.7,3.7-2.3c2.2-0.6,2.6-0.5,4.6,0.1
										c1.7,0.5,3.1,1.7,3.5,2.5c1.3,2.4-4.2,2.9-4.7,3.2c-0.9,1.8-1.2,3.1-2.8,4.1c-2.7,1.6-3.8,1.7-4.8,3.7L113.3,233.4z"/>
									<path class="st60" d="M119.3,230.2c1.7-2,1.8-2.5,4.1-4.4c0.1,0,0.2-0.1,0.3-0.1l1.9,0.1c1,1,2.6,2,3.7,0.9
										c0,0.1,0.1,0.1,0.1,0.2c0.8,1.3,0,2.9-0.7,3c-1.8,0.3-3.2-0.1-3.9,0.2c-0.9,1.8-1.2,3.1-2.8,4.1c-2.7,1.6-3.8,1.7-4.8,3.7
										l-2.5-2.9L119.3,230.2z"/>
								</g>
								<linearGradient id="SVGID_34_" gradientUnits="userSpaceOnUse" x1="103.3353" y1="244.9167" x2="109.2447" y2="257.3629">
									<stop  offset="0" style="stop-color:#6D6AFE"/>
									<stop  offset="1" style="stop-color:#3FB0F7"/>
								</linearGradient>
								<path class="st61" d="M102.4,257.8c1.7-2.5,11.1-12.4,13.5-16.4c0.3-0.6,0.5-2,0.5-2.3l1.3-1.6c-0.2-1.9-2.4-4.2-4.3-4.5
									l-1.4,1.1c-0.9-0.1-2.4,0.3-3.2,0.7c-6.3,3.7-17.7,14.2-17.6,21.7C91.2,261.7,100,260,102.4,257.8z"/>
							</g>
							<linearGradient id="SVGID_35_" gradientUnits="userSpaceOnUse" x1="129.0455" y1="243.7653" x2="141.2387" y2="220.7097">
								<stop  offset="0" style="stop-color:#A77EF7"/>
								<stop  offset="1" style="stop-color:#5E65D6"/>
							</linearGradient>
							<polygon class="st62" points="129.6,216.5 113.1,242.8 139.9,249.4 156.4,223.1 							"/>
							<path class="st39" d="M116.6,235.1c3.8,0.4,3.2-1.8,4.5-4.3c0.7-0.3,1.2-0.9,1.8-1.4c2.6-0.4,2.9-1.6,2.6-2.9
								c-0.9,0-2.6,0-3.3,0.1c-3.5,1.5-6.2,1.6-7.7,5.5C113.9,233.6,115.5,233.4,116.6,235.1z"/>
						</g>
						<path class="st8" d="M135.1,246.7c-0.1,0.4,0.1,0.8,0.5,0.9c0.4,0.1,0.8-0.1,0.9-0.5c0.5-1.6,1.3-5.2,1.2-8
							c0-2.1-0.4-3.9-1.6-4.5c-2-1.1-3.3-0.3-4.6,0.6c-0.2,0.1-0.5,0.3-0.7,0.4c-0.5,0.3-1,0.5-1.4,0.5c-0.4,0-0.7-0.1-0.9-0.4
							c-0.3-0.3-0.5-0.8-0.6-1.3c-0.2-1.1-0.2-2.3,0-3.3c0.1-0.6,0.2-1.1,0.4-1.6c0.7-3,1.4-5.9-1.3-7c-0.4-0.2-0.8,0-0.9,0.4
							c-0.2,0.4,0,0.8,0.4,0.9c1.6,0.7,1,3,0.5,5.4c-0.1,0.6-0.3,1.1-0.4,1.7c-0.2,1.2-0.3,2.7,0,3.9c0.2,0.8,0.5,1.5,0.9,2
							c0.5,0.6,1.2,0.9,2.1,0.8c0.6,0,1.2-0.2,2-0.7c0.3-0.2,0.5-0.3,0.7-0.4c1-0.6,1.9-1.2,3.2-0.5c0.7,0.4,0.9,1.7,0.9,3.3
							C136.3,241.8,135.6,245.2,135.1,246.7z"/>
					</g>
					<linearGradient id="SVGID_36_" gradientUnits="userSpaceOnUse" x1="97.6118" y1="239.871" x2="115.236" y2="285.4424">
						<stop  offset="0" style="stop-color:#6D6AFE"/>
						<stop  offset="1" style="stop-color:#3FB0F7"/>
					</linearGradient>
					<path class="st63" d="M92.7,283.5l0.5,2.3c4.3,6.9,20.6,11.6,32.2,1.6c-0.3-1.1-0.4-1.9-0.5-2.9c0.3-0.8,0.2-2,0.1-3.8
						c-0.4-4.4-2.1-12.2-2.1-12.6c-0.5-9.8,1.6-19.5-2.7-26.5c-0.9-1.5-2.2-2.1-3.6-2.8c-3.1-1.7-17.2-6-24.5-7
						c-4.4-0.6-9.2,0.2-10.8,5.3c-2.1,6.9,2.3,17.1,6,26.8C92.1,276.4,89.9,278.3,92.7,283.5z"/>
					<path class="st64" d="M125,281.4c0-0.2,0-0.5-0.1-0.8c-0.4-4.4-2.1-12.2-2.1-12.6c-0.5-9.8,1.9-19.7-2.7-26.5
						c-2.7-4-8.6-3.3-10.7,1.6c-1.6,3.7-0.1,9,1.8,17.8c1.4,6.2,3.8,20.8,7.5,22.3C120,283.8,122.1,283.1,125,281.4z"/>
					<g>
						<linearGradient id="SVGID_37_" gradientUnits="userSpaceOnUse" x1="99.693" y1="225.4271" x2="98.1682" y2="231.1376">
							<stop  offset="0" style="stop-color:#FF8A78"/>
							<stop  offset="1" style="stop-color:#FFA799"/>
						</linearGradient>
						<path class="st65" d="M103.7,225.3c0.3,2.4,1,5.7,1.9,8c-4.8,0.7-11.7,0.7-13.1-2.7l-0.3-6.8
							C96,219.3,103.5,225.4,103.7,225.3z"/>
						<path class="st66" d="M92.4,230.5c-1.3,0.7-2.4,2.4-2,3.3c2.5,5.5,13.4,5.2,19.7,2.6c-0.9-1.4-3.2-3.3-4.5-3.5
							C101.5,234.1,94.3,233.6,92.4,230.5z"/>
						<g>
							<path class="st39" d="M103,229.9c-1.4-0.3-2.3-2.1-2.8-5.1c-0.4-2.5-7.5,0.7-7.4,0.5c-0.6-2.3-2.9-4-3.4-7.2
								c-0.7-4.5,0.4-9.2,4.8-11.8c8.1-4.8,16.9,0.5,18.1,9.3c0.2,1.7-1.2,2.4-1.3,3.9c0,0.3,0.3,0.6,0.5,1.3
								c0.3,0.9-0.6,6.6-2.2,8.8C108.7,230.4,104.1,230.3,103,229.9z"/>
							<linearGradient id="SVGID_38_" gradientUnits="userSpaceOnUse" x1="111.5846" y1="219.8532" x2="105.3273" y2="223.5095">
								<stop  offset="0" style="stop-color:#FFB89E"/>
								<stop  offset="1" style="stop-color:#FFA799"/>
							</linearGradient>
							<path class="st67" d="M109.4,229.5c-0.3,0.4-2.4-0.1-3.1-0.4c3.2-4.1-0.5-7.4,2.8-11.3c2-2.3-0.1-4.9,2.2-6.2
								c0.5,1.2,0.9,2.5,1.1,3.9c0.2,1.7-1.2,2.4-1.3,3.9c0,0.3,0.3,0.6,0.5,1.3C111.8,221.7,110.9,227.3,109.4,229.5z"/>
							<g>
								<path class="st68" d="M104.8,224.2c0.5-1,0.3-1.5-0.2-1.4c-0.5,0.1-1.4,0.7-1.9,1.8c-0.9,1.7-0.3,4.1,1.6,3.5
									c-1.5-0.1-1.1-1.9-0.5-3C104.1,224.3,104.6,223.8,104.8,224.2z"/>
								<path class="st69" d="M104,224.6c0.3,0.8,0.4,1.3,0.2,1.6c-0.1,0.2-0.4,0.3-0.9-0.2C103.5,225.4,103.7,224.9,104,224.6z"/>
							</g>
							<g>
								<path class="st70" d="M91.8,225.6c-0.5-2.6-2.6-4.9-3-7.8c-0.5-2.9-0.4-6.8,2.5-9c1.9-7.2,11.4-7.8,17.5-5.5
									c4.4,1.7,4.1,7.4,0.6,9.1c0.4,2.6-1,4.7-1.4,5.2c-1.4,1.5-1.5,1.8-1.7,3.4c-0.2,1.3-0.7,4.4-1.6,1.6
									c-0.6-1.8-2.9-0.1-3.4,1.7c-0.2,0.8-0.6,1.8-1.6,3.1C97.2,230.4,92.1,227.1,91.8,225.6z"/>
								<linearGradient id="SVGID_39_" gradientUnits="userSpaceOnUse" x1="114.1925" y1="207.629" x2="100.3466" y2="207.0513">
									<stop  offset="0" style="stop-color:#8A4791"/>
									<stop  offset="1" style="stop-color:#562E65"/>
								</linearGradient>
								<path class="st71" d="M94.8,207.2c2.4-6.6,11.8-4.8,14.8-2.9c3.1,1.8,2.3,8.3-2.3,7.7C104.2,211.5,100.7,206.3,94.8,207.2z"
									/>
							</g>
						</g>
					</g>
					<g>
						<path class="st72" d="M142.6,242.8l2.9-0.3l2.5-2.1l0.1-3.9l-2.1-1.2c-2.2,0.3-3.4-0.3-3.9,0.1
							C141.6,235.8,141.9,238.3,142.6,242.8z"/>
						<path class="st39" d="M136.4,249.6c0.5-0.6,0.9-1.2,1.3-1.8c-0.1-2.3,0.5-3.8,1.5-5.2c1.7-2.3,1.9-2.6,2.2-4.2
							c0.1-0.7,0.2-1.2,0.4-1.6c0.4-0.9,1.4-0.6,1.7,0.3c0.3,0.7,0.2,1.7,0.1,2.3l-0.4,1.2l3-3.5c0.5-0.8-5.4,0-4.1-1.8
							c0.7-0.4,1.8-0.5,3-0.6c1.2-0.1,2.2,0,2.7,0c1.2,0.1,1.7,5.1,1.7,6.4c0,0.5,0,1.5-0.3,2.1c-0.7,1.5-1.7,2.9-2.7,3.9
							c-2,1.8-3.7,1.5-5.2,4.9L136.4,249.6z"/>
						<path class="st32" d="M151.7,232.9c-5.4,2.2-12.8,4.9-15.4,7.2c2.9,0,10.6-3.5,16-5.7C153.6,233.8,153,232.4,151.7,232.9z"/>
						<path class="st39" d="M139.2,242.6c1.7-2.3,1.9-2.6,2.2-4.2c0.1-0.7,0.2-1.2,0.4-1.6c0.4-0.9,1.4-0.6,1.7,0.3
							c0.3,0.7,0.2,1.7,0.1,2.3l-0.5,1.9L139.2,242.6z"/>
					</g>
					<linearGradient id="SVGID_40_" gradientUnits="userSpaceOnUse" x1="122.2522" y1="243.2372" x2="133.1798" y2="266.9002">
						<stop  offset="0" style="stop-color:#6D6AFE"/>
						<stop  offset="1" style="stop-color:#3FB0F7"/>
					</linearGradient>
					<path class="st73" d="M126,259.1c2.8-3.8,6.1-7.9,8-9.6c0.5-0.5,1.9-0.9,2.1-1l1.3-1.6c2-0.2,4.6,1.5,5.2,3.3l-0.8,1.6
						c0.2,0.9,0.2,2.4-0.1,3.3c-2.3,6.9-10,19.9-17.3,21.7c-0.8,0.2-1.7,0.2-2.8,0c-1.3-0.3-1.9-2.1-2.5-3.2
						c-4.3-9-6.5-12.2-9.3-21.3c-1.8-6-1.2-9.4,0.9-11.4c2.6-2.6,6.6-2.6,8.7,0.2C122.8,245,124.8,252.8,126,259.1z"/>
				</g>
			</g>
			<linearGradient id="SVGID_41_" gradientUnits="userSpaceOnUse" x1="102.8434" y1="319.6682" x2="123.1441" y2="270.9467">
				<stop  offset="0" style="stop-color:#965CF2"/>
				<stop  offset="1" style="stop-color:#FF8ADC"/>
			</linearGradient>
			<path class="st74" d="M155.2,317.2l-20.3,13.4c-12,7.5-28.8,7.8-41.1,0.8l-22.9-13c-8.3-4.7-10.5-12-9.5-21.9
				c0.7-7.4,6.8-26.7,10.5-34.3c9.4-19.3,39.2,0.6,44.2,14.2c3.1,8.4,6.9,13.9,12,19.2c13,13.3,16.2,1.5,25.3-1.7
				c8.5-3,9,6.6,8.6,14C161.8,312.3,159.5,314.4,155.2,317.2z"/>
			<linearGradient id="SVGID_42_" gradientUnits="userSpaceOnUse" x1="104.785" y1="339.3949" x2="109.82" y2="312.4125">
				<stop  offset="0" style="stop-color:#965CF2"/>
				<stop  offset="1" style="stop-color:#FF8ADC"/>
			</linearGradient>
			<path class="st75" d="M155.2,317.2l-20.3,13.4c-12,7.5-28.8,7.8-41.1,0.8l-22.9-13c-8.3-4.7-10.5-12-9.5-21.9
				c0.2-1.7,0.6-3.9,1.2-6.5c2.1,2.6,31.6,28.5,53.9,30.2c13.9,1.1,28.1-3.3,45.6-12.3C161.8,312.3,159.5,314.4,155.2,317.2z"/>
		</g>
	</g>
</g>
</svg>
