<?xml version="1.0" encoding="utf-8"?>
<!-- Generator: Adobe Illustrator 22.0.0, SVG Export Plug-In . SVG Version: 6.00 Build 0)  -->
<svg version="1.1" id="Capa_1" xmlns="http://www.w3.org/2000/svg" xmlns:xlink="http://www.w3.org/1999/xlink" x="0px" y="0px"
	 viewBox="0 0 200 200" style="enable-background:new 0 0 200 200;" xml:space="preserve">
<style type="text/css">
	.st0{fill-rule:evenodd;clip-rule:evenodd;fill:#202249;}
	.st1{fill-rule:evenodd;clip-rule:evenodd;fill:url(#SVGID_1_);}
	.st2{opacity:0.3;fill-rule:evenodd;clip-rule:evenodd;fill:#1E2353;}
	.st3{fill-rule:evenodd;clip-rule:evenodd;fill:url(#SVGID_2_);}
	.st4{opacity:0.5;fill-rule:evenodd;clip-rule:evenodd;fill:url(#SVGID_3_);}
	.st5{fill-rule:evenodd;clip-rule:evenodd;fill:#303A7D;}
	.st6{fill-rule:evenodd;clip-rule:evenodd;fill:url(#SVGID_4_);}
	.st7{fill-rule:evenodd;clip-rule:evenodd;fill:#3E4992;}
	.st8{fill-rule:evenodd;clip-rule:evenodd;fill:#5462BE;}
	.st9{opacity:0.5;fill-rule:evenodd;clip-rule:evenodd;fill:#FFFFFF;}
	.st10{fill-rule:evenodd;clip-rule:evenodd;fill:url(#SVGID_5_);}
	.st11{fill-rule:evenodd;clip-rule:evenodd;fill:#22043D;}
	.st12{fill-rule:evenodd;clip-rule:evenodd;fill:url(#SVGID_6_);}
	.st13{fill-rule:evenodd;clip-rule:evenodd;fill:url(#SVGID_7_);}
	.st14{opacity:0.5;fill-rule:evenodd;clip-rule:evenodd;fill:url(#SVGID_8_);}
	.st15{fill-rule:evenodd;clip-rule:evenodd;fill:url(#SVGID_9_);}
	.st16{fill-rule:evenodd;clip-rule:evenodd;fill:url(#SVGID_10_);}
	.st17{fill-rule:evenodd;clip-rule:evenodd;fill:#FFA698;}
	.st18{fill-rule:evenodd;clip-rule:evenodd;fill:#FF9080;}
	.st19{opacity:0.5;fill-rule:evenodd;clip-rule:evenodd;fill:url(#SVGID_11_);}
	.st20{opacity:0.5;fill-rule:evenodd;clip-rule:evenodd;fill:url(#SVGID_12_);}
	.st21{fill-rule:evenodd;clip-rule:evenodd;fill:#D0E7FF;}
	.st22{fill-rule:evenodd;clip-rule:evenodd;fill:url(#SVGID_13_);}
	.st23{opacity:0.5;fill-rule:evenodd;clip-rule:evenodd;fill:#FFFCF1;}
	.st24{opacity:0.5;fill-rule:evenodd;clip-rule:evenodd;fill:url(#SVGID_14_);}
	.st25{fill-rule:evenodd;clip-rule:evenodd;fill:#F2F4FF;}
	.st26{fill-rule:evenodd;clip-rule:evenodd;fill:#FFFFFF;}
	.st27{opacity:0.2;fill-rule:evenodd;clip-rule:evenodd;fill:#6D6AFD;}
	.st28{fill-rule:evenodd;clip-rule:evenodd;fill:url(#SVGID_15_);}
	.st29{fill-rule:evenodd;clip-rule:evenodd;fill:url(#SVGID_16_);}
	.st30{fill-rule:evenodd;clip-rule:evenodd;fill:#FFDB59;}
	.st31{opacity:0.2;fill-rule:evenodd;clip-rule:evenodd;fill:url(#SVGID_17_);}
	.st32{opacity:0.5;fill-rule:evenodd;clip-rule:evenodd;fill:url(#SVGID_18_);}
	.st33{fill-rule:evenodd;clip-rule:evenodd;fill:#D7E9FF;}
	.st34{fill-rule:evenodd;clip-rule:evenodd;fill:url(#SVGID_19_);}
	.st35{opacity:0.5;fill-rule:evenodd;clip-rule:evenodd;fill:#44A7F7;}
	.st36{opacity:0.5;fill-rule:evenodd;clip-rule:evenodd;fill:#6D6AFD;}
	.st37{fill-rule:evenodd;clip-rule:evenodd;fill:url(#SVGID_20_);}
	.st38{fill-rule:evenodd;clip-rule:evenodd;fill:url(#SVGID_21_);}
	.st39{fill-rule:evenodd;clip-rule:evenodd;fill:#FFA495;}
	.st40{fill-rule:evenodd;clip-rule:evenodd;fill:#193161;}
	.st41{fill-rule:evenodd;clip-rule:evenodd;fill:url(#SVGID_22_);}
	.st42{fill-rule:evenodd;clip-rule:evenodd;fill:url(#SVGID_23_);}
	.st43{fill-rule:evenodd;clip-rule:evenodd;fill:url(#SVGID_24_);}
	.st44{fill-rule:evenodd;clip-rule:evenodd;fill:url(#SVGID_25_);}
	.st45{fill-rule:evenodd;clip-rule:evenodd;fill:url(#SVGID_26_);}
	.st46{opacity:0.35;fill-rule:evenodd;clip-rule:evenodd;fill:#6266D7;}
	.st47{fill-rule:evenodd;clip-rule:evenodd;fill:url(#SVGID_27_);}
	.st48{fill-rule:evenodd;clip-rule:evenodd;fill:url(#SVGID_28_);}
	.st49{fill-rule:evenodd;clip-rule:evenodd;fill:#FFB49C;}
	.st50{fill-rule:evenodd;clip-rule:evenodd;fill:#FF9D8E;}
	.st51{fill-rule:evenodd;clip-rule:evenodd;fill:#726CDE;}
	.st52{fill-rule:evenodd;clip-rule:evenodd;fill:#562E65;}
	.st53{fill-rule:evenodd;clip-rule:evenodd;fill:url(#SVGID_29_);}
	.st54{fill-rule:evenodd;clip-rule:evenodd;fill:url(#SVGID_30_);}
	.st55{fill-rule:evenodd;clip-rule:evenodd;fill:url(#SVGID_31_);}
	.st56{fill-rule:evenodd;clip-rule:evenodd;fill:url(#SVGID_32_);}
	.st57{fill-rule:evenodd;clip-rule:evenodd;fill:url(#SVGID_33_);}
	.st58{opacity:0.5;fill-rule:evenodd;clip-rule:evenodd;fill:url(#SVGID_34_);}
	.st59{fill-rule:evenodd;clip-rule:evenodd;fill:url(#SVGID_35_);}
	.st60{opacity:0.5;fill-rule:evenodd;clip-rule:evenodd;fill:url(#SVGID_36_);}
	.st61{fill-rule:evenodd;clip-rule:evenodd;fill:url(#SVGID_37_);}
	.st62{fill-rule:evenodd;clip-rule:evenodd;fill:#6E4DFC;}
	.st63{fill-rule:evenodd;clip-rule:evenodd;fill:#E889DF;}
	.st64{opacity:0.5;fill-rule:evenodd;clip-rule:evenodd;fill:url(#SVGID_38_);}
	.st65{fill-rule:evenodd;clip-rule:evenodd;fill:url(#SVGID_39_);}
	.st66{fill-rule:evenodd;clip-rule:evenodd;fill:#FF8D7C;}
	.st67{fill-rule:evenodd;clip-rule:evenodd;fill:url(#SVGID_40_);}
	.st68{fill-rule:evenodd;clip-rule:evenodd;fill:url(#SVGID_41_);}
	.st69{fill-rule:evenodd;clip-rule:evenodd;fill:url(#SVGID_42_);}
	.st70{fill-rule:evenodd;clip-rule:evenodd;fill:#1D246D;}
	.st71{fill-rule:evenodd;clip-rule:evenodd;fill:#0F1445;}
	.st72{fill-rule:evenodd;clip-rule:evenodd;fill:url(#SVGID_43_);}
	.st73{fill-rule:evenodd;clip-rule:evenodd;fill:url(#SVGID_44_);}
	.st74{fill-rule:evenodd;clip-rule:evenodd;fill:url(#SVGID_45_);}
	.st75{opacity:0.5;fill-rule:evenodd;clip-rule:evenodd;fill:#FF8FD5;}
	.st76{fill-rule:evenodd;clip-rule:evenodd;fill:#FF66BB;}
	.st77{fill-rule:evenodd;clip-rule:evenodd;fill:url(#SVGID_46_);}
</style>
<g>
	<g>
		<g>
			<path class="st0" d="M95.4,51.7c-0.1,0.1-0.2,0.1-0.4,0.2c-0.5,1.2-0.7,1.6-0.6,1.7c0.1,0.1,0.1,0,0.1,0.3
				c0.1,0.3-1.1,1.8-1.3,2.3c-0.2,0.4-0.2,0.8,0,1.2c0.3,0.8,0.7,1.5,1.3,2.2c0.5,0.5,1,0.9,1.4,0.8c0.6-0.1,0.5-0.6,0.4-1.1
				c0-0.2-0.4-0.6-0.3-0.7c0.1-1,0.9-1.9,1.4-2.7c0.5-0.4,1.2-0.9,1.7-1.4c0.6-0.7,0.7-1.5,0-1.9c-0.2-0.1-0.9-0.8-1.2-0.8
				C97.2,51.8,96.2,51.3,95.4,51.7z"/>
			<linearGradient id="SVGID_1_" gradientUnits="userSpaceOnUse" x1="106.8048" y1="37.0985" x2="106.8074" y2="52.847">
				<stop  offset="0" style="stop-color:#40457F"/>
				<stop  offset="1" style="stop-color:#1E2353"/>
			</linearGradient>
			<path class="st1" d="M116,48.9c0.4,1.1,0.1,2.1-0.8,2.6c0,0,0,0,0,0c0,0-0.1,0-0.1,0c-0.1,0-0.2,0.1-0.3,0.1
				c-1.1,0.3-2.7,0.6-3.7,0.8c-4,0.8-9.9,1.2-12.6,2.3c-1.1-0.8-1.4-2.3-0.7-3.2c3-1.4,7.1-3.3,8.8-3.9c0.4-0.1,0.9-0.2,1.4-0.2
				c-2.5-2.3-5.2-4.8-6.3-6.9c-0.7-1.5-0.9-3.6-1.4-4.9c4.2,1.2,5-1.3,5.7-2.2c0.7,1,0.6,0.8,1.3,1.8c2.2,3.5,5.6,8.4,7.8,12.1
				C115.5,47.7,115.9,48.3,116,48.9z"/>
			<path class="st2" d="M102.5,49.3c1.7-0.8,3.2-1.4,4.1-1.8c0.4-0.1,0.9-0.2,1.4-0.2c-2.5-2.3-5.2-4.8-6.3-6.9
				c-0.7-1.5-0.9-3.6-1.4-4.9c1.2,0.3,2.1,0.4,2.8,0.3l-0.1,0.8c3.2,3.2,9.1,10.6,9.6,15.5c-2,0.5-7.3,1.1-8.2,1.2
				C104.2,51.9,103.3,50.7,102.5,49.3L102.5,49.3z M105.4,34.3c0.3-0.4,0.5-0.7,0.7-0.9c0.4,0.6,0.6,0.8,0.8,1.1L105.4,34.3z"/>
			<path class="st0" d="M103,67.8c-0.6,0.8,1,4.9,1.4,5.7c0.3,0.8,0.2,1.2-0.6,1.2c-0.6,0-1.6-0.9-2.2-1.5c-1.1-1.1-1.2-2.2-1.5-2.7
				l-0.4-0.1c-0.3-0.2-1.1-1.3-1.2-1.7c0.1-0.3,0.3-0.8,0.4-1.1c0.6-1.2,0.8-0.6,1.6-1.4C101.4,67,100.7,67.3,103,67.8z"/>
			<linearGradient id="SVGID_2_" gradientUnits="userSpaceOnUse" x1="104.1829" y1="38.1035" x2="104.1935" y2="64.93">
				<stop  offset="0" style="stop-color:#40457F"/>
				<stop  offset="1" style="stop-color:#1E2353"/>
			</linearGradient>
			<path class="st3" d="M110.5,53.9c-1.7,3.3-6,10.8-7.5,14.1c-1.3,0.3-2.7-0.5-2.8-1.5c1-3.2,2.5-8.4,3.3-10.1
				c0.5-1.1,1.5-2.6,2.3-3.7c-2.5-3.5-6.5-9.1-7.7-12.4c-1.6-4.4,0.2-7,2.7-8.4c0.9-0.5,1.8,0.3,2.2-0.2c1,2,2,4.8,2.6,7.2
				c0.8,3.4,4.9,10.7,5.2,13.2c0,0.5,0,1-0.2,1.4C110.5,53.6,110.5,53.8,110.5,53.9z"/>
		</g>
		<g>
			<linearGradient id="SVGID_3_" gradientUnits="userSpaceOnUse" x1="98.2567" y1="152.163" x2="88.0557" y2="139.5238">
				<stop  offset="0" style="stop-color:#FA5DB1"/>
				<stop  offset="1" style="stop-color:#FEBFBF"/>
			</linearGradient>
			<path class="st4" d="M42.6,183.6c-0.5,0.3-1.4,0.4-2.2,0.4c-0.8-0.1-1.7-0.3-2.4-0.7c-0.5-0.3-1-0.5-1.4-0.8
				c-0.6-0.4-1-0.8-1-1.2c0-0.4,0.2-0.8,0.8-1l113.2-65.1c0.9-0.4,2.1-0.8,3-0.3c0.8,0.4,2.2,1.2,2.7,1.6c0.5,0.2,2,1.2,1,1.7"/>
			<g>
				<path class="st5" d="M43,72c-4.6,2.6-8.1,9-8.1,14.1l0.2,86.6c0,2.6,0.9,4.4,2.4,5.2l2.1,1.3c8.6-4.1,5.2-42.4,5.7-55.1
					l-2.4-33.3c2.1-3.6,10-6.7,8.1-14.1l76.6-41.8L150.7,19h0h0c-0.1-0.6,0.6-3.5,0-3.9c-0.7-0.4-1.4-0.9-2.1-1.3
					c-1.8-1.1-4.1-0.4-5.8,0.6l0,0l0,0L43,72z"/>
				<g>
					<linearGradient id="SVGID_4_" gradientUnits="userSpaceOnUse" x1="95.8066" y1="143.6617" x2="94.5171" y2="55.5484">
						<stop  offset="0" style="stop-color:#965CF2"/>
						<stop  offset="1" style="stop-color:#FF8ADC"/>
					</linearGradient>
					<path class="st6" d="M153,20.4c0-5.2-3.7-7.3-8.2-4.7L45.2,73.2c-4.5,2.6-8.1,8.9-8.1,14.1l0.2,86.6c0,5.2,3.7,7.3,8.2,4.7
						l99.7-57.6c4.5-2.6,8.1-8.9,8.1-14.1L153,20.4z"/>
					<g>
						<path class="st7" d="M152.9,18.6c-0.8-3.8-4.1-5.1-8-2.9L45.2,73.2c-3.9,2.3-7.2,7.4-8,12.1L152.9,18.6z"/>
						<g>
							<path class="st8" d="M140,21.8c0.7-0.4,1.2-0.1,1.2,0.7c0,0.8-0.5,1.7-1.2,2.1c-0.7,0.4-1.2,0.1-1.2-0.7
								C138.8,23.2,139.3,22.2,140,21.8z"/>
							<path class="st8" d="M144,19.2c0.7-0.4,1.2-0.1,1.2,0.7c0,0.8-0.5,1.7-1.2,2.1c-0.7,0.4-1.2,0.1-1.2-0.7
								C142.8,20.5,143.3,19.6,144,19.2z"/>
							<path class="st8" d="M147.7,17c0.7-0.4,1.2-0.1,1.2,0.7c0,0.8-0.5,1.7-1.2,2.1c-0.7,0.4-1.2,0.1-1.2-0.7
								C146.5,18.3,147,17.4,147.7,17z"/>
						</g>
					</g>
				</g>
			</g>
		</g>
		<path class="st9" d="M145,25.7c0.4,0.2,0.4,0.7,0.5,1.1l0,0.4l0.8,0l0-0.4c0-0.7-0.2-1.4-0.9-1.8L145,25.7L145,25.7z M145.4,29.7
			l0.8,0l0,1.7l-0.8,0L145.4,29.7L145.4,29.7z M145.4,33.8l0.8,0l0,1.7l-0.8,0L145.4,33.8L145.4,33.8z M145.4,38l0.8,0l0,1.7l-0.8,0
			L145.4,38L145.4,38z M145.4,42.1l0.8,0l0,1.7l-0.8,0L145.4,42.1L145.4,42.1z M145.4,46.3l0.8,0l0,1.7l-0.8,0L145.4,46.3
			L145.4,46.3z M145.4,50.4l0.8,0l0,1.7l-0.8,0L145.4,50.4L145.4,50.4z M145.4,54.6l0.8,0l0,1.7l-0.8,0L145.4,54.6L145.4,54.6z
			 M145.4,58.7l0.8,0l0,1.7l-0.8,0L145.4,58.7L145.4,58.7z M145.4,62.8l0.8,0l0,1.7l-0.8,0L145.4,62.8L145.4,62.8z M145.4,67l0.8,0
			l0,1.7l-0.8,0L145.4,67L145.4,67z M145.4,71.1l0.8,0l0,1.7l-0.8,0L145.4,71.1L145.4,71.1z M145.4,75.3l0.8,0l0,0.2
			c0,0.5-0.1,1.1-0.3,1.6l-0.8-0.3c0.2-0.4,0.3-0.9,0.3-1.3L145.4,75.3L145.4,75.3z M143.8,78.6c-0.4,0.3-0.9,0.6-1.3,0.8l0.4,0.7
			l0.8-0.5l0,0c0.2-0.1,0.4-0.3,0.6-0.5L143.8,78.6L143.8,78.6z M140.4,80.7l-1.4,0.8l0.4,0.7l1.4-0.8L140.4,80.7L140.4,80.7z
			 M136.8,82.7c-0.5,0.3-1,0.5-1.4,0.8l0.4,0.7c0.5-0.3,1-0.6,1.4-0.8L136.8,82.7L136.8,82.7z M133.2,84.8l-1.4,0.8l0.4,0.7l1.4-0.8
			L133.2,84.8L133.2,84.8z M129.6,86.9l-1.4,0.8l0.4,0.7l1.4-0.8L129.6,86.9L129.6,86.9z M126,89l-1.4,0.8l0.4,0.7l1.4-0.8L126,89
			L126,89z M122.4,91l-1.4,0.8l0.4,0.7l1.4-0.8L122.4,91L122.4,91z M118.8,93.1l-1.4,0.8l0.4,0.7l1.4-0.8L118.8,93.1L118.8,93.1z
			 M115.2,95.2l-1.4,0.8l0.4,0.7l1.4-0.8L115.2,95.2L115.2,95.2z M111.7,97.3c-0.5,0.3-1,0.6-1.4,0.8l0.4,0.7c0.5-0.3,1-0.6,1.4-0.8
			L111.7,97.3L111.7,97.3z M108.1,99.3l-1.4,0.8l0.4,0.7l1.4-0.8L108.1,99.3L108.1,99.3z M104.5,101.4c-0.5,0.3-1,0.5-1.4,0.8
			l0.4,0.7c0.5-0.3,1-0.6,1.4-0.8L104.5,101.4L104.5,101.4z M100.9,103.5l-0.2,0.1l0,0l0,0c-0.3,0.2-0.7,0.3-1,0.2l0,0l-0.3,0.8
			c0.6,0.2,1.2,0,1.7-0.3l0.2-0.1L100.9,103.5L100.9,103.5z M99.1,102l-0.8,0l0-1.7l0.8,0L99.1,102L99.1,102z M99.1,97.9l-0.8,0
			l0-1.7l0.8,0L99.1,97.9L99.1,97.9z M99.1,93.7l-0.8,0l0-1.7l0.8,0L99.1,93.7L99.1,93.7z M99.1,89.6l-0.8,0l0-1.7l0.8,0L99.1,89.6
			L99.1,89.6z M99.1,85.5l-0.8,0l0-1.7l0.8,0L99.1,85.5L99.1,85.5z M99.1,81.3l-0.8,0l0-1.7l0.8,0L99.1,81.3L99.1,81.3z M99.1,77.2
			l-0.8,0l0-1.7l0.8,0L99.1,77.2L99.1,77.2z M99.1,73l-0.8,0l0-1.7l0.8,0L99.1,73L99.1,73z M99.1,68.9l-0.8,0l0-1.7l0.8,0L99.1,68.9
			L99.1,68.9z M99.1,64.7l-0.8,0l0-1.7l0.8,0L99.1,64.7L99.1,64.7z M99.1,60.6l-0.8,0l0-1.7l0.8,0L99.1,60.6L99.1,60.6z M99.2,56.5
			l-0.8,0l0-1.7l0.8,0L99.2,56.5L99.2,56.5z M99.5,52.5c0.2-0.5,0.5-0.9,0.8-1.3l-0.6-0.5c-0.4,0.4-0.7,1-0.9,1.5L99.5,52.5
			L99.5,52.5z M102.2,49.9l1.4-0.8l-0.4-0.7l-1.4,0.8L102.2,49.9L102.2,49.9z M105.8,47.8c0.5-0.3,1-0.5,1.4-0.8l-0.4-0.7
			c-0.5,0.3-1,0.6-1.4,0.8L105.8,47.8L105.8,47.8z M109.4,45.8l1.4-0.8l-0.4-0.7l-1.4,0.8L109.4,45.8L109.4,45.8z M113,43.7l1.4-0.8
			l-0.4-0.7l-1.4,0.8L113,43.7L113,43.7z M116.6,41.6l1.4-0.8l-0.4-0.7l-1.4,0.8L116.6,41.6L116.6,41.6z M120.2,39.6l1.4-0.8
			l-0.4-0.7l-1.4,0.8L120.2,39.6L120.2,39.6z M123.7,37.5l1.4-0.8l-0.4-0.7l-1.4,0.8L123.7,37.5L123.7,37.5z M127.3,35.4
			c0.5-0.3,1-0.6,1.4-0.8l-0.4-0.7c-0.5,0.3-1,0.6-1.4,0.8L127.3,35.4L127.3,35.4z M130.9,33.3c0.5-0.3,1-0.6,1.4-0.8l-0.4-0.7
			c-0.5,0.3-1,0.6-1.4,0.8L130.9,33.3L130.9,33.3z M134.5,31.3l1.4-0.8l-0.4-0.7l-1.4,0.8L134.5,31.3L134.5,31.3z M138.1,29.2
			l1.4-0.8l-0.4-0.7l-1.4,0.8L138.1,29.2L138.1,29.2z M141.7,27.1l1.4-0.8l-0.4-0.7l-1.4,0.8L141.7,27.1z"/>
		<path class="st9" d="M94.5,55.4c0.3,0.3,0.4,0.8,0.4,1.2l0,0.1l0.8,0l0-0.1c0-0.7-0.2-1.3-0.7-1.8L94.5,55.4L94.5,55.4z
			 M94.9,57.5l0.8,0l0,1.7l-0.8,0L94.9,57.5L94.9,57.5z M94.9,60l0.8,0l0,1.7l-0.8,0L94.9,60L94.9,60z M94.9,62.5l0.8,0l0,1.7
			l-0.8,0L94.9,62.5L94.9,62.5z M94.9,64.9l0.8,0l0,1.7l-0.8,0L94.9,64.9L94.9,64.9z M94.9,67.4l0.8,0l0,1.7l-0.8,0L94.9,67.4
			L94.9,67.4z M94.9,69.9l0.8,0l0,1.7l-0.8,0L94.9,69.9L94.9,69.9z M94.9,72.4l0.8,0l0,1.7l-0.8,0L94.9,72.4L94.9,72.4z M94.9,74.9
			l0.8,0l0,1.7l-0.8,0L94.9,74.9L94.9,74.9z M94.9,77.4l0.8,0l0,1.7l-0.8,0L94.9,77.4L94.9,77.4z M94.9,79.8l0.8,0l0,1.7l-0.8,0
			L94.9,79.8L94.9,79.8z M94.9,82.3l0.8,0l0,1.7l-0.8,0L94.9,82.3L94.9,82.3z M94.9,84.8l0.8,0l0,1.7l-0.8,0L94.9,84.8L94.9,84.8z
			 M94.9,87.3l0.8,0l0,1.7l-0.8,0L94.9,87.3L94.9,87.3z M94.9,89.8l0.8,0l0,1.7l-0.8,0L94.9,89.8L94.9,89.8z M94.9,92.3l0.8,0l0,1.7
			l-0.8,0L94.9,92.3L94.9,92.3z M94.9,94.8l0.8,0l0,1.7l-0.8,0L94.9,94.8L94.9,94.8z M94.9,97.2l0.8,0l0,1.7l-0.8,0L94.9,97.2
			L94.9,97.2z M94.9,99.7l0.8,0l0,1.7l-0.8,0L94.9,99.7L94.9,99.7z M94.9,102.2l0.8,0l0,1.7l-0.8,0L94.9,102.2L94.9,102.2z
			 M94.9,104.7l0.8,0l0,1.7l-0.8,0L94.9,104.7L94.9,104.7z M94.9,107.2l0.8,0l0,1.7l-0.8,0L94.9,107.2L94.9,107.2z M94.9,109.7
			l0.8,0l0,1.7l-0.8,0L94.9,109.7L94.9,109.7z M94.9,112.2l0.8,0l0,1.7l-0.8,0L94.9,112.2L94.9,112.2z M94.9,114.6l0.8,0l0,1.7
			l-0.8,0L94.9,114.6L94.9,114.6z M94.9,117.1l0.8,0l0,1.7l-0.8,0L94.9,117.1L94.9,117.1z M94.9,119.6l0.8,0l0,1.7l-0.8,0
			L94.9,119.6L94.9,119.6z M94.9,122.1l0.8,0l0,1.7l-0.8,0L94.9,122.1L94.9,122.1z M94.9,124.6l0.8,0l0,1.7l-0.8,0L94.9,124.6
			L94.9,124.6z M94.9,127.1l0.8,0l0,1.7l-0.8,0L94.9,127.1L94.9,127.1z M94.9,129.6l0.8,0l0,1.7l-0.8,0L94.9,129.6L94.9,129.6z
			 M94.8,132l0.8,0l0,1.7l-0.8,0L94.8,132L94.8,132z M94.8,134.5l0.8,0l0,1.7l-0.8,0L94.8,134.5L94.8,134.5z M94.8,137l0.8,0l0,1.7
			l-0.8,0L94.8,137L94.8,137z M94.8,139.5l0.8,0l0,1.7l-0.8,0L94.8,139.5L94.8,139.5z M94.8,142l0.8,0c0,0.6,0,1.1,0,1.7l-0.8,0
			C94.9,143.1,94.8,142.5,94.8,142L94.8,142z M94.7,144.4c-0.1,0.5-0.3,1-0.6,1.4l0.7,0.4c0.3-0.5,0.5-1.1,0.6-1.6L94.7,144.4
			L94.7,144.4z M93.8,146.5c-0.3,0.4-0.6,0.8-1.1,1.1l0.5,0.7c0.5-0.3,0.9-0.8,1.3-1.3L93.8,146.5L93.8,146.5z M92,147.9
			c-0.5,0.3-1,0.6-1.4,0.8l0.4,0.7c0.5-0.3,1-0.6,1.4-0.8L92,147.9L92,147.9z M89.9,149.2c-0.5,0.3-1,0.6-1.4,0.8l0.4,0.7
			c0.5-0.3,1-0.6,1.4-0.8L89.9,149.2L89.9,149.2z M87.7,150.4l-1.4,0.8l0.4,0.7c0.5-0.3,1-0.6,1.4-0.8L87.7,150.4L87.7,150.4z
			 M85.6,151.7l-1.4,0.8l0.4,0.7l1.4-0.8L85.6,151.7L85.6,151.7z M83.4,152.9l-1.4,0.8l0.4,0.7l1.4-0.8L83.4,152.9L83.4,152.9z
			 M81.3,154.1l-1.4,0.8l0.4,0.7l1.4-0.8L81.3,154.1L81.3,154.1z M79.1,155.4l-1.4,0.8l0.4,0.7c0.5-0.3,1-0.6,1.4-0.8L79.1,155.4
			L79.1,155.4z M77,156.6l-1.4,0.8l0.4,0.7l1.4-0.8L77,156.6L77,156.6z M74.8,157.9l-1.4,0.8l0.4,0.7l1.4-0.8L74.8,157.9L74.8,157.9
			z M72.6,159.1c-0.5,0.3-1,0.6-1.4,0.8l0.4,0.7c0.5-0.3,1-0.6,1.4-0.8L72.6,159.1L72.6,159.1z M70.5,160.4l-1.4,0.8l0.4,0.7
			l1.4-0.8L70.5,160.4L70.5,160.4z M68.3,161.6l-1.4,0.8l0.4,0.7l1.4-0.8L68.3,161.6L68.3,161.6z M66.2,162.8l-1.4,0.8l0.4,0.7
			l1.4-0.8L66.2,162.8L66.2,162.8z M64,164.1l-1.4,0.8l0.4,0.7l1.4-0.8L64,164.1L64,164.1z M61.9,165.3l-1.4,0.8l0.4,0.7l1.4-0.8
			L61.9,165.3L61.9,165.3z M59.7,166.6l-1.4,0.8l0.4,0.7l1.4-0.8L59.7,166.6L59.7,166.6z M57.6,167.8l-1.4,0.8l0.4,0.7l1.4-0.8
			L57.6,167.8L57.6,167.8z M55.4,169.1l-1.4,0.8l0.4,0.7l1.4-0.8L55.4,169.1L55.4,169.1z M53.3,170.3l-1.4,0.8l0.4,0.7l1.4-0.8
			L53.3,170.3L53.3,170.3z M51.1,171.5l-1.4,0.8l0.4,0.7l1.4-0.8L51.1,171.5L51.1,171.5z M49,172.8l-1.4,0.8l0.4,0.7l1.4-0.8
			L49,172.8L49,172.8z M46.8,174l-1.4,0.8l0.4,0.7l1.4-0.8L46.8,174L46.8,174z M44.7,175.3l-1.4,0.8l0.4,0.7l1.4-0.8L44.7,175.3
			L44.7,175.3z M42.5,176.5l0.4,0.7l-0.2,0.1c-0.5,0.3-1.1,0.5-1.7,0.4l0.1-0.8c0.4,0.1,0.8-0.1,1.1-0.3L42.5,176.5L42.5,176.5z
			 M40.7,176.7c-0.3-0.3-0.4-0.8-0.4-1.2l0,0l-0.8,0l0,0c0,0.7,0.2,1.3,0.6,1.8L40.7,176.7L40.7,176.7z M40.3,174.6l-0.8,0l0-1.7
			l0.8,0L40.3,174.6L40.3,174.6z M40.3,172.1l-0.8,0l0-1.7l0.8,0L40.3,172.1L40.3,172.1z M40.3,169.6l-0.8,0l0-1.7l0.8,0L40.3,169.6
			L40.3,169.6z M40.3,167.1l-0.8,0l0-1.7l0.8,0L40.3,167.1L40.3,167.1z M40.3,164.6l-0.8,0l0-1.7l0.8,0L40.3,164.6L40.3,164.6z
			 M40.3,162.2l-0.8,0l0-1.7l0.8,0L40.3,162.2L40.3,162.2z M40.3,159.7l-0.8,0l0-1.7l0.8,0L40.3,159.7L40.3,159.7z M40.3,157.2
			l-0.8,0l0-1.7l0.8,0L40.3,157.2L40.3,157.2z M40.4,154.7l-0.8,0l0-1.7l0.8,0L40.4,154.7L40.4,154.7z M40.4,152.2l-0.8,0l0-1.7
			l0.8,0L40.4,152.2L40.4,152.2z M40.4,149.7l-0.8,0l0-1.7l0.8,0L40.4,149.7L40.4,149.7z M40.4,147.3l-0.8,0l0-1.7l0.8,0L40.4,147.3
			L40.4,147.3z M40.4,144.8l-0.8,0l0-1.7l0.8,0L40.4,144.8L40.4,144.8z M40.4,142.3l-0.8,0l0-1.7l0.8,0L40.4,142.3L40.4,142.3z
			 M40.4,139.8l-0.8,0l0-1.7l0.8,0L40.4,139.8L40.4,139.8z M40.4,137.3l-0.8,0l0-1.7l0.8,0L40.4,137.3L40.4,137.3z M40.4,134.8
			l-0.8,0l0-1.7l0.8,0L40.4,134.8L40.4,134.8z M40.4,132.3l-0.8,0l0-1.7l0.8,0L40.4,132.3L40.4,132.3z M40.4,129.9l-0.8,0l0-1.7
			l0.8,0L40.4,129.9L40.4,129.9z M40.4,127.4l-0.8,0l0-1.7l0.8,0L40.4,127.4L40.4,127.4z M40.4,124.9l-0.8,0l0-1.7l0.8,0L40.4,124.9
			L40.4,124.9z M40.4,122.4l-0.8,0l0-1.7l0.8,0L40.4,122.4L40.4,122.4z M40.4,119.9l-0.8,0l0-1.7l0.8,0L40.4,119.9L40.4,119.9z
			 M40.4,117.4l-0.8,0l0-1.7l0.8,0L40.4,117.4L40.4,117.4z M40.4,114.9l-0.8,0l0-1.7l0.8,0L40.4,114.9L40.4,114.9z M40.4,112.5
			l-0.8,0l0-1.7l0.8,0L40.4,112.5L40.4,112.5z M40.4,110l-0.8,0l0-1.7l0.8,0L40.4,110L40.4,110z M40.4,107.5l-0.8,0l0-1.7l0.8,0
			L40.4,107.5L40.4,107.5z M40.4,105l-0.8,0l0-1.7l0.8,0L40.4,105L40.4,105z M40.4,102.5l-0.8,0l0-1.7l0.8,0L40.4,102.5L40.4,102.5z
			 M40.4,100l-0.8,0l0-1.7l0.8,0L40.4,100L40.4,100z M40.4,97.5l-0.8,0l0-1.7l0.8,0L40.4,97.5L40.4,97.5z M40.4,95.1l-0.8,0l0-1.7
			l0.8,0L40.4,95.1L40.4,95.1z M40.4,92.6l-0.8,0l0-1.7l0.8,0L40.4,92.6L40.4,92.6z M40.4,90.1l-0.8,0c0-0.5,0-1.2,0-1.7l0.8,0v0
			C40.4,89,40.4,89.5,40.4,90.1L40.4,90.1z M40.5,87.7c0.1-0.5,0.3-1,0.5-1.4l-0.7-0.4c-0.3,0.5-0.5,1.1-0.6,1.7L40.5,87.7
			L40.5,87.7z M41.5,85.6c0.3-0.4,0.7-0.8,1.1-1.1L42,83.9c-0.5,0.3-0.9,0.8-1.2,1.3L41.5,85.6L41.5,85.6z M43.2,84.1l1.4-0.8
			l-0.4-0.7l-1.4,0.8L43.2,84.1L43.2,84.1z M45.3,82.9l1.4-0.8l-0.4-0.7l-1.4,0.8L45.3,82.9L45.3,82.9z M47.5,81.6l1.4-0.8l-0.4-0.7
			l-1.4,0.8L47.5,81.6L47.5,81.6z M49.7,80.4l1.4-0.8l-0.4-0.7l-1.4,0.8L49.7,80.4L49.7,80.4z M51.8,79.2l1.4-0.8l-0.4-0.7l-1.4,0.8
			L51.8,79.2L51.8,79.2z M54,77.9c0.5-0.3,1-0.6,1.4-0.8L55,76.4l-1.4,0.8L54,77.9L54,77.9z M56.1,76.7l1.4-0.8l-0.4-0.7L55.7,76
			L56.1,76.7L56.1,76.7z M58.3,75.4l1.4-0.8l-0.4-0.7l-1.4,0.8L58.3,75.4L58.3,75.4z M60.4,74.2l1.4-0.8l-0.4-0.7L60,73.5L60.4,74.2
			L60.4,74.2z M62.6,72.9l1.4-0.8l-0.4-0.7l-1.4,0.8L62.6,72.9L62.6,72.9z M64.7,71.7l1.4-0.8l-0.4-0.7L64.3,71L64.7,71.7L64.7,71.7
			z M66.9,70.5l1.4-0.8l-0.4-0.7l-1.4,0.8L66.9,70.5L66.9,70.5z M69,69.2l1.4-0.8L70,67.7l-1.4,0.8L69,69.2L69,69.2z M71.2,68
			l1.4-0.8l-0.4-0.7l-1.4,0.8L71.2,68L71.2,68z M73.3,66.7c0.5-0.3,1-0.6,1.4-0.8l-0.4-0.7c-0.5,0.3-1,0.6-1.4,0.8L73.3,66.7
			L73.3,66.7z M75.5,65.5l1.4-0.8l-0.4-0.7l-1.4,0.8L75.5,65.5L75.5,65.5z M77.6,64.2l1.4-0.8l-0.4-0.7l-1.4,0.8L77.6,64.2
			L77.6,64.2z M79.8,63l1.4-0.8l-0.4-0.7l-1.4,0.8L79.8,63L79.8,63z M81.9,61.7l1.4-0.8l-0.4-0.7L81.5,61L81.9,61.7L81.9,61.7z
			 M84.1,60.5l1.4-0.8L85.1,59l-1.4,0.8L84.1,60.5L84.1,60.5z M86.2,59.3l1.4-0.8l-0.4-0.7l-1.4,0.8L86.2,59.3L86.2,59.3z M88.4,58
			l1.4-0.8l-0.4-0.7L88,57.3L88.4,58L88.4,58z M90.5,56.8L92,56l-0.4-0.7l-1.4,0.8L90.5,56.8L90.5,56.8z M92.7,55.5l0.2-0.1
			c0.3-0.2,0.7-0.3,1.1-0.3l0.1-0.8c-0.6-0.1-1.1,0.1-1.6,0.4l0.4,0.7l-0.4-0.7l-0.2,0.1L92.7,55.5z"/>
		<g>
			<linearGradient id="SVGID_5_" gradientUnits="userSpaceOnUse" x1="119.5068" y1="12.9958" x2="119.4816" y2="30.7837">
				<stop  offset="0" style="stop-color:#5A2D68"/>
				<stop  offset="1" style="stop-color:#22043D"/>
			</linearGradient>
			<path class="st10" d="M125.5,13.7c2.4,1.4,1.2,4.6-0.9,8c-3,4.8,4.3,10.2-5.7,12.9c1-2.9-3.3-4-5.4-8c-2.5-4.6-1.1-9.2,2.1-13.2
				C118.1,10.2,122.8,10.3,125.5,13.7z"/>
			<path class="st11" d="M124.8,15.1c0.1,2.5-1.1,4.7-2,6.3c-1.5,2.5,0.8,10.1-5.1,11.3c1-2.9-2-2-4.2-6c-2.1-4-1.9-6.7,2.5-8.1
				c0.6-0.2,0.8-1.5,1.4-1.8c0.8-0.4,1.9,0.2,1.9,1.3C120.3,18.5,124.1,16.4,124.8,15.1z"/>
			<g>
				<linearGradient id="SVGID_6_" gradientUnits="userSpaceOnUse" x1="119.009" y1="43.3742" x2="119.7718" y2="43.1032">
					<stop  offset="0" style="stop-color:#FF8A78"/>
					<stop  offset="1" style="stop-color:#FFA799"/>
				</linearGradient>
				<path class="st12" d="M120.8,44.1l-0.6,2.2c-0.2,0.5-0.3,0.6-1,0.3c-0.4-0.2-0.3-0.9-0.1-1.5c0.1-0.6,0-1.1,0-1.4
					c-0.1-0.3-0.2-0.4-0.4-0.6c-0.4-0.3-0.9-0.5-0.6-1.6c0.2-0.5,0.1-0.9,0.1-1.5l1.4-0.1c0,1.2,0.5,2.1,1.1,3.1
					C121,43.6,120.9,43.5,120.8,44.1z"/>
				<g>
					<linearGradient id="SVGID_7_" gradientUnits="userSpaceOnUse" x1="119.1772" y1="35.2516" x2="118.6329" y2="23.8717">
						<stop  offset="0" style="stop-color:#1C8EF4"/>
						<stop  offset="1" style="stop-color:#00CFDD"/>
					</linearGradient>
					<path class="st13" d="M115.9,30.2L115.9,30.2c0-0.2,0-0.3,0.1-0.4c0.4-2.4,1.1-6.4,1.6-8.4c1-3.6,4.1-2.4,4.1-0.2
						c0,2-1.9,6.5-2.4,8.4c0.2,1.4,0.7,8.4,0.5,9.6c0,0.2-0.1,0.4-0.1,0.6c0,0.2,0.1,0.3,0.1,0.5c-0.5,0.1-1.1,0.2-1.6,0.3
						c0-0.2,0-0.4-0.1-0.5c-0.1-0.3-0.3-0.4-0.4-0.6c-0.5-1.1-1.4-6.8-1.7-8.7C115.9,30.6,115.9,30.5,115.9,30.2z"/>
					<linearGradient id="SVGID_8_" gradientUnits="userSpaceOnUse" x1="118.5467" y1="25.4374" x2="119.4292" y2="28.7958">
						<stop  offset="0" style="stop-color:#1C8EF4"/>
						<stop  offset="1" style="stop-color:#00CFDD"/>
					</linearGradient>
					<path class="st14" d="M116.3,32.5c-0.2-0.5-0.4-2.1-0.4-2.8c0-1.4,0.5-2.6,0.7-3.5l5-5c0,0.9-1.1,3.4-1.6,5.3
						C119.3,29.3,117.8,31.8,116.3,32.5z"/>
				</g>
			</g>
			<linearGradient id="SVGID_9_" gradientUnits="userSpaceOnUse" x1="110.6937" y1="31.4959" x2="111.5914" y2="22.2543">
				<stop  offset="0" style="stop-color:#1C8EF4"/>
				<stop  offset="1" style="stop-color:#00CFDD"/>
			</linearGradient>
			<path class="st15" d="M100.7,32.8c0.7,2.3,4,4.2,7.4,3.5c0.8-0.9,1-0.6,1.8-1.3c0.7-0.7,1.5-1.5,2.6-2.7c0.6-1,3.2-1.4,4.3-1.8
				c1.3-0.5,2.4-1.5,2.9-3.5c0.3-1,1.3-3.9,1.7-4.9c1.1-2.8-1.3-3.9-3-2.9c-1.1,0.4-3.4,1-4.6,1.2c-0.7,0.1-1.1,0.2-2,0.3
				c-1.4,0.1-2.9,1.1-4,2C104.9,25,100.9,29.6,100.7,32.8z"/>
			<g>
				<linearGradient id="SVGID_10_" gradientUnits="userSpaceOnUse" x1="117.9144" y1="20.6494" x2="116.9919" y2="21.7709">
					<stop  offset="0" style="stop-color:#FF8A78"/>
					<stop  offset="1" style="stop-color:#FFA799"/>
				</linearGradient>
				<path class="st16" d="M117.4,18c-0.3,1.2-1,2.4-2,3.4c0.4,1.3,2.8,2.2,3.5,1.3c0.1-0.2,0.1-0.5,0.2-0.7c0.1-0.4,0.3-0.7,0.4-1
					L117.4,18z"/>
				<g>
					<path class="st17" d="M124.4,16.3c-0.1,1-0.4,1.8-1.3,2.6c-0.2,0.2-0.3,0.4-0.3,0.6c-0.3,1.1-0.6,1.4-1.3,1.9
						c-0.7,0.5-1,0.9-1.4,0.9c-0.4,0-0.8-0.2-1.1-0.4c-0.6-0.5-1.3-1.7-1.7-2.5c-0.2-0.6-0.1-0.8,0.1-1.3c-0.2-1.1,0.5-1.1,0.8-1
						c0.7,0.4,0.2,1.1,0.5,1.6C121.1,19.2,123.6,17,124.4,16.3z"/>
					<path class="st18" d="M124.4,16.3c-1.4,2.3-4.3,2.8-5.8,2.4C121.1,19.2,123.6,17,124.4,16.3z"/>
				</g>
			</g>
			<linearGradient id="SVGID_11_" gradientUnits="userSpaceOnUse" x1="110.893" y1="26.4405" x2="111.5896" y2="31.685">
				<stop  offset="0" style="stop-color:#1C8EF4"/>
				<stop  offset="1" style="stop-color:#00CFDD"/>
			</linearGradient>
			<path class="st19" d="M108.6,35.7C108.7,35.7,108.7,35.7,108.6,35.7c0.4-0.2,0.7-0.3,1.2-0.7c0.7-0.7,1.5-1.5,2.6-2.7
				c0.3-0.5,1.1-0.9,2-1.2c-0.1-2.3-0.1-7.7-0.8-8.4c-1.1-1-2.5-1.6-3.7-0.3C107.6,24.7,109.9,33.4,108.6,35.7z"/>
			<g>
				<polygon class="st7" points="111.9,38.8 113.3,33.4 112.3,32.5 103.1,37.6 104,38.6 108,41.2 				"/>
				<path class="st5" d="M113.8,33.8l0.2-2.5c-3.8,2.1-7.6,4.2-11.4,6.3l2,1.4L113.8,33.8z"/>
			</g>
		</g>
		<g>
			<linearGradient id="SVGID_12_" gradientUnits="userSpaceOnUse" x1="129.9815" y1="119.0823" x2="119.4961" y2="94.7757">
				<stop  offset="0" style="stop-color:#965CF2"/>
				<stop  offset="1" style="stop-color:#FF8ADC"/>
			</linearGradient>
			<path class="st20" d="M104.2,108.2L153,80l0.7,1.4l-0.7,24.9c0.3,5.1-1.1,6.7-1.3,7.3l-47.2,27.3c-3.2,1.9-5.9,0.4-6-3.2l0-19.5
				C98.4,114.5,101,110.1,104.2,108.2z"/>
			<g>
				<g>
					<path class="st21" d="M104.6,114.9l0.5,21.6l-0.5,0.1l-1.4-0.5c-1.5-0.5-2.1-2.1-2.1-3.7l0-18.7c0,0,0,0,0,0
						c0-2.3,1-4.8,2.5-6.8c0.8-1.1,1.8-2.1,3-2.8l61.1-35.5c1.2-0.7,2.5-1,3.6-0.6l1.2,0.4c0.6,0.2,0.8,0.4,0.8,0.4
						C171.9,74.5,104.5,109.3,104.6,114.9z"/>
					<linearGradient id="SVGID_13_" gradientUnits="userSpaceOnUse" x1="137.0065" y1="95.5099" x2="140.6684" y2="111.7907">
						<stop  offset="0" style="stop-color:#1C8EF4"/>
						<stop  offset="1" style="stop-color:#00CFDD"/>
					</linearGradient>
					<path class="st22" d="M107.9,104.6L169,69.1c1.4-0.8,2.6-1,3.6-0.6c1.3,0.4,2.1,1.7,2.1,3.7l0,18.7c0.1,3.5-2.4,7.8-5.5,9.6
						L108.2,136c-3.1,1.8-5.7,0.4-5.7-3.1l0-18.7C102.4,110.7,104.8,106.4,107.9,104.6z"/>
				</g>
				<g>
					<path class="st23" d="M107.8,110.4L150,86.1c0.3-0.2,0.6-0.2,0.9-0.1c0.3,0.1,0.5,0.4,0.5,0.9l0.1,1.3c0,0.8-0.6,1.9-1.3,2.3
						L108,114.8c-0.7,0.4-1.4,0.1-1.4-0.7l-0.1-1.3C106.5,111.9,107.1,110.9,107.8,110.4L107.8,110.4z M129.1,114.2
						c-0.7,0.4-1.3,1.5-1.3,2.3l0.1,1.3c0,0.8,0.6,1.2,1.4,0.7l21.2-12c0.7-0.4,1.3-1.5,1.3-2.3l-0.1-1.3c0-0.5-0.2-0.8-0.5-0.9
						c-0.2-0.1-0.5,0-0.9,0.1L129.1,114.2L129.1,114.2z M108,118.5c-0.7,0.4-1.3,1.5-1.3,2.3l0.1,1.3c0,0.8,0.6,1.2,1.4,0.7
						l42.1-24.3c0.7-0.4,1.3-1.5,1.3-2.3l-0.1-1.3c0-0.5-0.2-0.8-0.5-0.9c-0.2-0.1-0.5,0-0.9,0.1L108,118.5z"/>
					<path class="st23" d="M162.6,85c2-1.2,3.8,0.1,3.4,2.8c-0.2,1.4-1,2.9-2,3.9c-0.3,0.3-0.6,0.5-0.8,0.6c-2,1.2-3.8-0.1-3.4-2.8
						c0.2-1.4,1-2.9,2-3.9C162,85.3,162.3,85.1,162.6,85L162.6,85z M163.3,93.5c0.4-0.2,0.7-0.5,1.1-0.8c1.4-1.3,2.4-3.3,2.7-5.2
						c0.5-3.6-1.9-5.4-4.6-3.8c-0.4,0.2-0.7,0.5-1.1,0.8c-1.4,1.3-2.4,3.3-2.7,5.2C158.2,93.4,160.6,95.1,163.3,93.5L163.3,93.5z
						 M155.1,91c-0.5,0.3-0.8,0.9-0.8,1.5l0.2,2.1c0,0.5,0.5,0.8,0.9,0.5l0.2-0.1c0.4-0.2,0.7-0.1,0.9,0.2c0.1,0.2,0.2,0.4,0.3,0.6
						c0.2,0.3,0.2,0.8-0.1,1.2l-0.2,0.3c-0.3,0.6-0.2,1.2,0.1,1.4l1.4,0.7c0.2,0.1,0.4,0.1,0.6-0.1c0.2-0.1,0.4-0.3,0.6-0.6l0.2-0.3
						c0.1-0.3,0.3-0.5,0.6-0.6c0.1-0.1,0.3-0.1,0.4-0.1c0.2,0,0.4,0,0.7-0.1c0.4-0.1,0.6,0.2,0.7,0.6l0,0.3c0,0.5,0.5,0.8,0.9,0.5
						l1.8-1.1c0.5-0.3,0.8-0.9,0.8-1.5l0-0.3c0-0.4,0.2-0.9,0.5-1.2c0.2-0.2,0.4-0.4,0.6-0.7c0.1-0.1,0.2-0.2,0.4-0.3
						c0.2-0.1,0.4-0.2,0.6-0.1l0.2,0.1c0.2,0.1,0.4,0.1,0.6-0.1c0.2-0.1,0.4-0.3,0.6-0.6l1.2-2.2c0.3-0.6,0.2-1.2-0.1-1.4l-0.2-0.1
						c-0.3-0.1-0.4-0.5-0.3-1c0.1-0.3,0.1-0.6,0.2-0.9c0.1-0.5,0.4-0.9,0.7-1.1l0.2-0.1c0.5-0.3,0.8-0.9,0.8-1.5l-0.2-2.1
						c0-0.5-0.5-0.8-0.9-0.5l-0.2,0.1c-0.4,0.2-0.7,0.1-0.9-0.2c-0.1-0.2-0.2-0.4-0.3-0.6c-0.2-0.3-0.2-0.8,0.1-1.2l0.2-0.3
						c0.3-0.6,0.2-1.2-0.1-1.4l-1.4-0.7c-0.2-0.1-0.4-0.1-0.6,0.1c-0.2,0.1-0.4,0.3-0.6,0.6l-0.2,0.3c-0.1,0.3-0.3,0.5-0.6,0.6
						c-0.1,0.1-0.3,0.1-0.4,0.1c-0.2,0-0.4,0-0.7,0.1c-0.4,0.1-0.6-0.2-0.7-0.6l0-0.3c0-0.5-0.5-0.8-0.9-0.5l-1.8,1.1
						c-0.5,0.3-0.8,0.9-0.8,1.5l0,0.3c0,0.4-0.2,0.9-0.5,1.2c-0.2,0.2-0.4,0.4-0.6,0.7c-0.1,0.1-0.2,0.2-0.4,0.3
						c-0.2,0.1-0.4,0.2-0.6,0.1l-0.2-0.1c-0.2-0.1-0.4-0.1-0.6,0.1c-0.2,0.1-0.4,0.3-0.6,0.6l-1.2,2.2c-0.3,0.6-0.2,1.2,0.1,1.4
						l0.2,0.1c0.3,0.1,0.4,0.6,0.3,1c-0.1,0.3-0.1,0.6-0.2,0.9c-0.1,0.5-0.4,0.9-0.7,1.1L155.1,91z"/>
				</g>
			</g>
		</g>
		<g>
			<linearGradient id="SVGID_14_" gradientUnits="userSpaceOnUse" x1="126.0094" y1="78.1466" x2="114.2713" y2="37.6299">
				<stop  offset="0" style="stop-color:#965CF2"/>
				<stop  offset="1" style="stop-color:#FF8ADC"/>
			</linearGradient>
			<path class="st24" d="M135.7,32.2l-30.4,17.4c-1.2,0.7-1.4,2.7-1.4,5.2L103.8,96c0,1.3,1,1.9,2.1,1.2l32.8-19
				c1.4-1.2,1.8-2,1.8-6.1c0-11.5,0.2-23,0.2-34.5C140.8,31.9,139.9,29.9,135.7,32.2z"/>
			<g>
				<g>
					<path class="st25" d="M137.5,32.4l-0.8-0.4c-0.3-0.1-0.7,0-1.1,0.2c-10,5.7-19.9,11.6-29.9,17.3c-0.9,0.5-1.7,1.9-1.7,2.9
						l0,39.4c0,0.5,0.2,0.8,0.4,1c0.3,0.2,1,0.7,1.5,0.4c10-5.7,19.7-12.1,29.7-17.8c0.9-0.5,1.7-1.9,1.7-2.9L137.5,32.4z"/>
					<path class="st26" d="M138,33.5c0-1.1-0.8-1.5-1.7-1c-10,5.7-19.9,11.6-29.9,17.3c-0.9,0.5-1.7,1.9-1.7,2.9l0,39.4
						c0,1.1,0.8,1.5,1.7,1c10-5.7,19.9-11.6,29.9-17.3c0.9-0.5,1.7-1.9,1.7-2.9L138,33.5z"/>
				</g>
				<g>
					<g>
						<path class="st27" d="M133.6,38.8c-1.4,0.4-2.6,2-2.7,3.6c-0.1,1.6,0.8,2.6,2.2,2.3c1.4-0.4,2.6-2,2.7-3.6
							C135.9,39.5,134.9,38.5,133.6,38.8z"/>
						<linearGradient id="SVGID_15_" gradientUnits="userSpaceOnUse" x1="133.3604" y1="43.088" x2="133.2977" y2="40.0787">
							<stop  offset="0" style="stop-color:#6D6AFE"/>
							<stop  offset="1" style="stop-color:#3FB0F7"/>
						</linearGradient>
						<path class="st28" d="M133.5,40.2c-0.7,0.2-1.4,1.1-1.5,1.9c-0.1,0.9,0.5,1.4,1.2,1.2c0.7-0.2,1.4-1.1,1.5-1.9
							C134.7,40.5,134.2,40,133.5,40.2z"/>
						<path class="st27" d="M130.1,42.1c0-0.3-0.2-0.5-0.5-0.3l-9.1,5.1c-0.3,0.2-0.5,0.6-0.5,0.9l0,0.7c0,0.3,0.2,0.5,0.5,0.3
							l9.1-5.1c0.3-0.2,0.5-0.6,0.5-0.9V42.1z"/>
						<path class="st27" d="M130.1,44.6c0-0.2-0.1-0.3-0.3-0.2l-5.4,3c-0.2,0.1-0.3,0.4-0.3,0.6v0.4c0,0.2,0.1,0.3,0.3,0.2l5.4-3
							c0.2-0.1,0.3-0.4,0.3-0.6V44.6z"/>
					</g>
					<g>
						<g>
							<linearGradient id="SVGID_16_" gradientUnits="userSpaceOnUse" x1="115.0654" y1="65.9189" x2="121.0593" y2="75.3885">
								<stop  offset="0" style="stop-color:#FF66BC"/>
								<stop  offset="0.56" style="stop-color:#FF8ADC"/>
								<stop  offset="1" style="stop-color:#FFBBA8"/>
							</linearGradient>
							<polygon class="st29" points="132,71.4 124.5,59 120.7,72.8 116.8,68.1 112,82.9 							"/>
							<path class="st30" d="M118.3,59.9c-1,0.3-2,1.5-2.1,2.7c-0.1,1.2,0.6,2,1.7,1.8c1-0.3,2-1.5,2.1-2.7
								C120.1,60.4,119.3,59.6,118.3,59.9z"/>
						</g>
						<linearGradient id="SVGID_17_" gradientUnits="userSpaceOnUse" x1="114.2247" y1="67.3928" x2="130.492" y2="70.4381">
							<stop  offset="0" style="stop-color:#FF66BC"/>
							<stop  offset="0.56" style="stop-color:#FF8ADC"/>
							<stop  offset="1" style="stop-color:#FFBBA8"/>
						</linearGradient>
						<path class="st31" d="M136.1,50.2c0-1.9-1.3-2.6-3-1.7L109,62.2c-1.6,0.9-2.9,3.2-2.9,5.1l0.1,19.9c0,1.9,1.3,2.6,3,1.7
							l24.1-13.7c1.6-0.9,2.9-3.2,2.9-5.1L136.1,50.2z"/>
					</g>
				</g>
			</g>
		</g>
		<g>
			<linearGradient id="SVGID_18_" gradientUnits="userSpaceOnUse" x1="79.6233" y1="130.8922" x2="59.0323" y2="175.4222">
				<stop  offset="0" style="stop-color:#965CF2"/>
				<stop  offset="1" style="stop-color:#FF8ADC"/>
			</linearGradient>
			<path class="st32" d="M54.8,170.6l37.4-21.3c2.9-1.7,4.4-6.8,4.4-10.1l0-18.5c0-3.3-2.4-4.7-5.3-3l-37.3,21.5l-6.6,13.4l0.2,12.7
				C47.1,172,48.9,173.9,54.8,170.6z"/>
			<g>
				<g>
					<path class="st33" d="M93,122.2c0-1.1,0.4-1.9-0.1-2.5c-0.3-0.4-1.4-0.9-1.9-1c-0.9-0.3-2-0.1-3.2,0.6l-35.4,20.6
						c-2.9,1.6-5.2,5.6-5.2,8.9l0.1,16.4c0,1,0.2,2.3,1,3c0.6,0.5,1.5,1,2.3,1.1c0.7,0.1,1-0.6,1.9-1.2L88,147.6
						c2.9-1.6,5.2-5.6,5.2-8.9L93,122.2z"/>
					<path class="st26" d="M93.9,122.7c0-3.3-2.3-4.6-5.2-3l-35.4,20.6c-2.9,1.6-5.2,5.6-5.2,8.9l0.1,16.4c0,3.3,2.3,4.6,5.2,3
						l35.4-20.6c2.9-1.6,5.2-5.6,5.2-8.9L93.9,122.7z"/>
				</g>
				<g>
					<g>
						<linearGradient id="SVGID_19_" gradientUnits="userSpaceOnUse" x1="55.7662" y1="152.0528" x2="59.0682" y2="156.0965">
							<stop  offset="0" style="stop-color:#6D6AFE"/>
							<stop  offset="1" style="stop-color:#3FB0F7"/>
						</linearGradient>
						<path class="st34" d="M56.8,160.6c-3.5,2-6.4,0.4-6.4-3.7c0-4.1,2.8-9,6.4-11c3.5-2,6.4-0.4,6.4,3.7
							C63.1,153.6,60.3,158.5,56.8,160.6z"/>
						<polygon class="st26" points="54,158.8 54,151.4 60.3,150.9 						"/>
					</g>
					<g>
						<path class="st35" d="M64.2,155c0,0.5,0.4,0.7,0.8,0.5l25.7-14.7c0.5-0.3,0.8-0.9,0.8-1.4l0-1c0-0.5-0.4-0.7-0.8-0.5
							l-25.7,14.7c-0.5,0.3-0.8,0.9-0.8,1.4L64.2,155z"/>
						<path class="st36" d="M64.2,149c0,0.5,0.4,0.7,0.8,0.5l25.7-14.7c0.5-0.3,0.8-0.9,0.8-1.4l0-1c0-0.5-0.4-0.7-0.8-0.5
							l-25.7,14.7c-0.5,0.3-0.8,0.9-0.8,1.4L64.2,149z"/>
						<path class="st36" d="M64.2,143.2c0,0.5,0.4,0.7,0.8,0.5l25.7-14.7c0.5-0.3,0.8-0.9,0.8-1.4l0-1c0-0.5-0.4-0.7-0.8-0.5
							l-25.7,14.7c-0.5,0.3-0.8,0.9-0.8,1.4L64.2,143.2z"/>
					</g>
				</g>
			</g>
		</g>
		<g>
			<g>
				<g>
					<linearGradient id="SVGID_20_" gradientUnits="userSpaceOnUse" x1="137.6275" y1="65.2058" x2="138.9878" y2="63.9501">
						<stop  offset="0" style="stop-color:#FF8A78"/>
						<stop  offset="1" style="stop-color:#FFA799"/>
					</linearGradient>
					<path class="st37" d="M134.9,65.7c0.3,0.3,0.8,0.8,0.9,1c0.3,0.3,0.6,0.4,1.1,0.8c0.3,0.2,0.4,0.2,0.8,0.3
						c0.4,0.6,0.4,1.3,0.6,2l1.9-0.7c0-0.8-0.1-1.5-0.2-2.2c0.1-0.5,0.1-1.9,0-2.1c-0.1-0.4-0.3-1.3-0.5-1.8c0-0.2-0.2-1.2-0.6-2
						c-0.4-0.4,0.2-2.9-0.6-2.7c-0.6,0.1-0.7,2.9-1.1,4.7c-0.3,1.3-0.7,2.3-0.7,2.4c0,0.2-0.4,0.3-0.6,0.2c-0.1-0.1-0.3-0.3-0.6-0.6
						c-0.6-0.4-1-0.4-1.2-0.1c-0.1,0.2-0.1,0.3,0.1,0.5C134.5,65.4,134.7,65.5,134.9,65.7z"/>
					<linearGradient id="SVGID_21_" gradientUnits="userSpaceOnUse" x1="145.0484" y1="70.931" x2="146.2387" y2="89.6522">
						<stop  offset="0" style="stop-color:#A77EF7"/>
						<stop  offset="1" style="stop-color:#5E65D6"/>
					</linearGradient>
					<path class="st38" d="M152.6,84.1c-1.8-2.4-5.4-5.3-7.3-7.6l-3.3-5.9c-0.4-0.9-0.5-1.4-1.2-2l-0.4-0.9
						c-0.6-0.5-2.5,0.3-2.6,0.7l0.2,0.7c-0.2,1,0.2,1.7,0.5,2.7l2.8,6.5c1.5,2.2,6.2,10.2,8.8,10.9
						C152.7,89.8,154.2,86.2,152.6,84.1z"/>
				</g>
				<g>
					<g>
						<path class="st26" d="M155.3,141.8c-0.3,0-1.5-1.1-2.6-0.5c-1.3,0.7-3.8,0.1-5.1,0.4c-0.2,0.1-0.7-0.1-0.7,0
							c-0.3,0.5-0.5,1.2,0.1,1.7c0.5,0.3,1.5,0.8,2.2,1c0.7,0.3,2,0.7,2.8,0.8c0.9,0.1,1.4,0.2,1.7,0.5c0.5,0.2,1,0.4,1.3,0.3
							c0.6-0.1,1.3-0.5,1.7-1.2c0.1-0.2,0.1-1.2,0-1.8c-0.1-0.5-0.4-1.1-0.6-1.6L155.3,141.8z"/>
						<path class="st39" d="M152.6,139.5c0.4,1,0.3,2.5,1.3,3.1c0.7,0.4,1.7,0.4,2.1-0.7c0.3-0.6-0.1-1.5,0-2.8L152.6,139.5z"/>
						<path class="st40" d="M152.3,141c-0.8,0.2-2.8,0.1-4.1,0.2c-0.6,0-1.1,0-1.3,0.6c-0.2,0.5-0.1,0.9,0.4,1.3
							c0.5,0.3,1.3,0.7,2,1c0.7,0.3,2,0.7,2.8,0.8c0.9,0.1,1.4,0.2,1.7,0.5c0.5,0.2,1,0.4,1.3,0.3c0.6-0.1,1.3-0.5,1.7-1.2
							c0.1-0.2,0.1-1.1,0-1.8c0-0.1-0.1-0.2-0.1-0.4c-0.1-1-0.4-1.4-0.7-1.2c-0.4,0.2-0.6,0.6-0.7,1c-0.1,0.3-0.3,0.5-0.6,0.5
							c-0.5,0.2-1-0.1-1.3-0.6c-0.2-0.3-0.3-0.6-0.3-1c0,0,0-0.1,0-0.1c-0.1-0.9-0.5-0.8-0.5-0.6C152.6,140.4,152.5,140.8,152.3,141
							z"/>
						<path class="st26" d="M147.1,141.6c0,0.3-0.5,0.4-0.4,1c-0.2-0.2,0.1-0.9,0.2-1C147,141.5,147.1,141.4,147.1,141.6z"/>
					</g>
					<g>
						<path class="st26" d="M146.7,138.4c-0.3-0.1-1-1.5-2.2-1.4c-0.5,0.1-1.3-0.1-2.1-0.3c-1.3-0.4-3-1.5-3.4-1.3
							c-0.7,0.4-0.7,1.1-0.2,1.8c0.3,0.5,1,1.2,1.5,1.6c0.6,0.5,1.4,1.2,2.2,1.7c0.7,0.4,0.9,0.4,1.4,1c0.4,0.4,0.8,0.6,1.1,0.7
							c0.7,0.1,1.8-0.3,2.2-0.8c0.2-0.8,0.7-1.5,0.4-2.7L146.7,138.4z"/>
						<path class="st39" d="M145,135c0,1.1-0.7,2.5,0.1,3.3c0.5,0.6,1.4,1,2.2,0.2c0.4-0.4,0.5-1.5,1-2.6L145,135z"/>
						<path class="st40" d="M142.7,136.3c-0.1,0-0.1,0-0.2-0.1c-1.3-0.4-3-1.2-3.3-1.1c-0.7,0.4-0.8,0.9-0.3,1.6
							c0.3,0.5,1,1.2,1.5,1.6c0.6,0.5,1.4,1.3,2.2,1.7c0.7,0.4,0.9,0.4,1.4,1c0.4,0.4,0.8,0.6,1.1,0.7c0.7,0.1,1.8-0.3,2.2-0.8
							c0.2-0.6,0.4-1.1,0.4-1.9c0.1-1,0-1.4-0.4-1.4c-0.8,0-1.1,0.4-1.4,0.6c-0.7,0.4-1.2-0.1-1.3-0.8c0-0.3,0-0.6,0.1-0.9
							c0,0,0-0.1,0-0.1c0.2-0.8-0.2-0.9-0.2-0.7c0,0.4-0.3,0.7-0.6,0.7C143.6,136.5,143,136.4,142.7,136.3z"/>
						<path class="st26" d="M139.3,135.3c-0.1,0.3-0.6,0.1-0.7,0.7c-0.1-0.3,0.5-0.8,0.7-0.8C139.3,135.2,139.4,135.2,139.3,135.3z"
							/>
					</g>
					<g>
						<linearGradient id="SVGID_22_" gradientUnits="userSpaceOnUse" x1="146.9207" y1="110.2663" x2="150.9792" y2="129.6826">
							<stop  offset="0" style="stop-color:#40457F"/>
							<stop  offset="1" style="stop-color:#1E2353"/>
						</linearGradient>
						<path class="st41" d="M145.7,105.9c-0.3,3.1-1.8,13.1-1.4,15.9c0.7,4.1,0.5,9.1,0.5,13.5c0.1,1.8,2.6,2.8,3.4,1.6
							c0.6-3.9,1.4-7.3,1.8-9.5c0.4-2.4,0.3-5.4-0.4-7c0.3-1.7,1.4-6.3,2.4-9.4c0.4-1.1,2.4-4.8,0.3-8.4L145.7,105.9z"/>
						<linearGradient id="SVGID_23_" gradientUnits="userSpaceOnUse" x1="146.0271" y1="135.1026" x2="147.5511" y2="137.2891">
							<stop  offset="0" style="stop-color:#3773B9"/>
							<stop  offset="1" style="stop-color:#003C76"/>
						</linearGradient>
						<path class="st42" d="M144.8,134c0,0.3,0,0.8,0,1.1c0.1,1.8,2.7,2.8,3.4,1.7c0-0.3,0.1-0.6,0.2-0.9
							C147.3,137.1,145.4,135.7,144.8,134z"/>
						<path class="st2" d="M144.3,119.9c0.8,4.1,3.2,9.7,4.4,13.8c0.7-3.6,2.3-9.6,0.9-13.3c0.1-1,0.6-2.9,1.1-4.9
							c-1.1-2.1,0-3.8-0.6-6.7c-2.9-0.5,1.5-4.1-4.7-0.3C144.9,112.9,144.4,115.6,144.3,119.9z"/>
					</g>
					<g>
						<linearGradient id="SVGID_24_" gradientUnits="userSpaceOnUse" x1="143.303" y1="112.4586" x2="157.1429" y2="131.3347">
							<stop  offset="0" style="stop-color:#40457F"/>
							<stop  offset="1" style="stop-color:#1E2353"/>
						</linearGradient>
						<path class="st43" d="M146,123.8c1.7,3.8,4.8,11.3,6.4,16c0.9,1.2,3.9,1.1,3.9,0c-0.7-3.9-1.5-9.9-2.9-13.4
							c-0.4-1.1-2-3.6-2.6-4.3c-0.4-1.7-1-6.4-1.4-8.9c0.4-2.1,2.1-5.6-1.2-8.6c-1.3,0.9-5.3,1.5-7.2,0.5
							C140.8,113.2,142.8,116.7,146,123.8z"/>
						<linearGradient id="SVGID_25_" gradientUnits="userSpaceOnUse" x1="153.8319" y1="139.5606" x2="156.1352" y2="140.1494">
							<stop  offset="0" style="stop-color:#3773B9"/>
							<stop  offset="1" style="stop-color:#003C76"/>
						</linearGradient>
						<path class="st44" d="M152.1,139c0.1,0.2,0.2,0.6,0.3,0.8c0.9,1.3,4,1.1,4,0c0-0.2-0.1-0.4-0.1-0.6
							C155.5,139.9,153.2,139.9,152.1,139z"/>
					</g>
				</g>
				<linearGradient id="SVGID_26_" gradientUnits="userSpaceOnUse" x1="146.1115" y1="87.2922" x2="148.1114" y2="104.8195">
					<stop  offset="0" style="stop-color:#A77EF7"/>
					<stop  offset="1" style="stop-color:#5E65D6"/>
				</linearGradient>
				<path class="st45" d="M152.9,94.7c-0.3,2.4,0.5,4.9-0.3,7.1c0,0.2-0.1,1.1-0.1,1.4c-0.5,2.9-6.6,5.8-11.7,3c0-0.4,0-0.7,0-1.4
					c0.1-0.6-0.2-1.3-0.2-1.7c0-1.6,0.5-2.4,0.3-4.1c-0.5-3.6-2.5-7-1.4-9.8c0.2-0.6,0.6-0.9,1.1-1.3c1.2-1,7.4-4.1,9.3-4.4
					C155.5,82.9,153.2,92,152.9,94.7z"/>
				<path class="st46" d="M140.6,97.4c-0.7-2.7-1.9-5.9-1.1-8c0.2-0.6,0.5-0.7,1-0.9c2.1-0.9,2.7,2.4,2.6,3.8
					C142.8,94.5,142.9,95.9,140.6,97.4z"/>
				<g>
					<path class="st17" d="M144.2,82.5c0.1,0.9,0,2.1-0.1,3c1.8-0.1,4.3-0.5,4.5-1.9c0-0.2,0-0.3,0-0.5c0,0,0,0,0.1-0.1
						c0.6-0.4,1.7-0.7,2.4-1.5c1.1-1.2,1.7-2.9,0.8-4.6c-1.6-3.1-5.3-3.1-7.4-0.6c-0.4,0.5-0.1,1-0.3,1.5c0,0.1-0.2,0.1-0.4,0.3
						c-0.3,0.2-1.1,2.1-1,3.1c0,0.4,0.9,1,1.3,1.2C144,82.4,144.1,82.5,144.2,82.5z"/>
					<linearGradient id="SVGID_27_" gradientUnits="userSpaceOnUse" x1="146.0364" y1="82.4408" x2="146.6589" y2="84.0058">
						<stop  offset="0" style="stop-color:#FF8A78"/>
						<stop  offset="1" style="stop-color:#FFA799"/>
					</linearGradient>
					<path class="st47" d="M144.2,82.5c0.1,0.9,0,2.1-0.1,3c1.8-0.1,4.3-0.5,4.5-1.9c0-0.2,0-0.3,0-0.5c0,0,0.1,0,0.1-0.1
						c1.4-1.3-0.5-2.7-2.8-1.5C145.5,82.2,144.9,82.5,144.2,82.5z"/>
					<linearGradient id="SVGID_28_" gradientUnits="userSpaceOnUse" x1="143.9261" y1="78.0593" x2="144.8444" y2="79.8225">
						<stop  offset="0" style="stop-color:#FFB89E"/>
						<stop  offset="1" style="stop-color:#FFA799"/>
					</linearGradient>
					<path class="st48" d="M142.6,81.2c0,0.2,0.7,0.4,1,0.5c-0.2-1.9,1.6-2.2,1.3-4c-0.2-1.1,1-1.5,0.5-2.3c-0.4,0.3-0.8,0.6-1.1,1
						c-0.4,0.5-0.1,1-0.3,1.5c0,0.1-0.2,0.1-0.4,0.3C143.4,78.3,142.5,80.2,142.6,81.2z"/>
					<g>
						<path class="st49" d="M145.1,80.4c0-0.4,0.2-0.5,0.3-0.4c0.2,0.1,0.3,0.5,0.2,0.9c-0.1,0.7-0.7,1.3-1.2,0.8
							c0.5,0.3,0.7-0.4,0.7-0.8C145.2,80.6,145.2,80.4,145.1,80.4z"/>
						<path class="st50" d="M145.2,80.7c-0.3,0.2-0.4,0.3-0.4,0.4c0,0.1,0.1,0.2,0.3,0.1C145.2,81.1,145.2,80.9,145.2,80.7z"/>
					</g>
					<path class="st51" d="M148.6,83.6c0.5,0.2,1,0.7,0.9,1.1c-0.5,2.2-4.5,2.6-6.9,2.1c0,0,0.9-1.3,1.4-1.4
						C145.5,85.5,148.1,84.8,148.6,83.6z"/>
					<g>
						<path class="st52" d="M148.8,83.4c0.7-0.7,1.8-1,2.5-1.8c0.7-0.8,1.5-2,1-3.3c0.8-2.6-2-4.7-4.4-5.1c-1.7-0.3-2.7,1.5-2,2.7
							c-0.6,0.7-0.6,1.7-0.6,1.9c0.1,0.7,0.1,0.8-0.1,1.4c-0.2,0.4-0.7,1.5,0.2,0.8c0.5-0.4,0.9,0.5,0.7,1.2
							c-0.1,0.3-0.2,0.7-0.1,1.3C146.2,83.9,148.4,83.8,148.8,83.4z"/>
						<linearGradient id="SVGID_29_" gradientUnits="userSpaceOnUse" x1="145.8719" y1="73.7709" x2="149.9269" y2="76.0933">
							<stop  offset="0" style="stop-color:#8A4791"/>
							<stop  offset="1" style="stop-color:#562E65"/>
						</linearGradient>
						<path class="st53" d="M151.5,77.1c0.6-2.5-2.7-3.8-4-3.8c-1.3,0-2.3,2.1-0.8,2.8C147.7,76.7,149.8,75.7,151.5,77.1z"/>
					</g>
				</g>
				<g>
					<linearGradient id="SVGID_30_" gradientUnits="userSpaceOnUse" x1="126.3705" y1="74.6581" x2="127.6732" y2="73.2299">
						<stop  offset="0" style="stop-color:#FF8A78"/>
						<stop  offset="1" style="stop-color:#FFA799"/>
					</linearGradient>
					<path class="st54" d="M129.6,77.9c-0.3-0.8-0.4-1.2-0.4-2c-0.1-1.5,0.2-2.8,0.1-3.1c-0.2-0.6-0.8-2.3-1.1-2.7
						c-0.2-0.3-0.4-0.6-1.2-1.6c-0.4-0.5-0.7,0.2-0.7,0.3c0.1,0.5,0.7,0.9,1,1.6c0.2,0.5,0.3,1,0.4,1.4c-0.3-0.7-0.5-1-0.7-1.3
						c-0.2-0.2-0.6-0.6-1.2-1.1c-0.4-0.3-0.7,0-0.6,0.2c0.2,0.5,0.8,1,1.2,1.4c0.1,0.6,0.3,0.9,0.4,1.6l-0.7-1.3l-1.1-1.1
						c-0.4-0.4-0.7,0-0.5,0.3c0.2,0.4,0.6,0.8,1,1.2c0.1,0.4,0.4,0.9,0.6,1.5l-0.7-0.8c0,0-0.4-0.7-0.8-1c-0.2-0.2-0.5,0-0.3,0.4
						c0.2,0.4,0.5,0.9,0.6,1c0.6,0.9,0.5,1.3,0.7,1.9c0.3,0.7,1.1,1.5,1.3,2.2l0.3,1.4L129.6,77.9z"/>
					<linearGradient id="SVGID_31_" gradientUnits="userSpaceOnUse" x1="134.8296" y1="86.3526" x2="134.2343" y2="111.9159">
						<stop  offset="0" style="stop-color:#A77EF7"/>
						<stop  offset="1" style="stop-color:#5E65D6"/>
					</linearGradient>
					<path class="st55" d="M132.3,85.2l-1.7-5.9c-0.3-0.9-0.3-1.4-1-2l-0.3-0.9c-0.6-0.5-2.4,0.1-2.5,0.5l0.1,0.7
						c-0.3,1,0,1.6,0.2,2.6l1,5.1c0.3,1.3,0.3,2.4,1.5,3.1c0.1,0,0.2,0.1,0.2,0.1c2.6,1.6,8.9,5.4,11.2,5.1c2.6-0.4,2.7-4.1,0.5-5.4
						C139.1,86.8,134.9,86.4,132.3,85.2z"/>
				</g>
			</g>
		</g>
		<g>
			<linearGradient id="SVGID_32_" gradientUnits="userSpaceOnUse" x1="116.1445" y1="45.7258" x2="116.7829" y2="45.4306">
				<stop  offset="0" style="stop-color:#FF8A78"/>
				<stop  offset="1" style="stop-color:#FFA799"/>
			</linearGradient>
			<path class="st56" d="M114.9,42.3c0.4,0.6,0.2,1.9,0.3,2.5c0.1,0.5,0.4,1.4,0.5,1.8c0.1,0.2,2.4,2.2,2.6,2.1
				c0.3-0.2,0.5-1.9,0.1-2.4c-0.4-0.5-0.7-0.9-0.8-1.3c-0.1-0.4,0-1.7-0.2-1.9c-0.4-0.5-0.8-0.6-1-1.2L114.9,42.3z"/>
			<linearGradient id="SVGID_33_" gradientUnits="userSpaceOnUse" x1="112.7253" y1="37.66" x2="113.0538" y2="26.2228">
				<stop  offset="0" style="stop-color:#1C8EF4"/>
				<stop  offset="1" style="stop-color:#00CFDD"/>
			</linearGradient>
			<path class="st57" d="M110.3,34.4c0-0.1-0.1-0.3-0.1-0.4c-0.6-2.5-1.2-6.8-1.1-9.3c0.1-1.9,1-3.5,3.2-2.9
				c0.7,0.2,1.5,0.7,1.6,1.6c0.1,1.1,0,2.9-0.1,4.7c-0.1,1.5-0.1,4.1-0.1,5.2c0,0,0,0.1,0,0.1c0.7,1.4,2.4,6.1,2.7,7.6
				c0.1,0.3,0,0.5,0,0.7c0,0.1,0.1,0.3,0.2,0.6c-0.5,0.4-1,0.6-1.5,0.8c-0.1-0.2-0.2-0.4-0.3-0.6c-0.1-0.1-0.5-0.3-0.7-0.5
				C113.1,40.9,110.6,35.8,110.3,34.4C110.3,34.4,110.3,34.4,110.3,34.4z"/>
		</g>
		<g>
			<linearGradient id="SVGID_34_" gradientUnits="userSpaceOnUse" x1="148.085" y1="48.4176" x2="144.1402" y2="21.5588">
				<stop  offset="0" style="stop-color:#965CF2"/>
				<stop  offset="1" style="stop-color:#FF8ADC"/>
			</linearGradient>
			<path class="st58" d="M145.1,27.7l7.9-4.4l-0.3,5.9l0.4,22.4l-7.7,4.2c-2.8,1.6-5.2,0.3-5.2-2.9L140,36.4
				C140,33.2,142.2,29.3,145.1,27.7z"/>
			<g>
				<path class="st21" d="M144.6,35.1l0.6,17.3l-0.4,0.1l-1.1-0.4c-1.2-0.5-1.7-1.8-1.8-3.1l-0.1-14.9c0,0,0,0,0,0
					c0-1.9,0.8-4,2.1-5.7c0.7-0.9,1.5-1.7,2.5-2.3l19.5-10.9c1-0.6,2.1-0.8,3-0.5l1,0.4c0.5,0.2,0.6,0.3,0.6,0.4
					C169.4,20.2,144.6,30.4,144.6,35.1z"/>
				<path class="st26" d="M147.5,26.5L167,15.7c1.1-0.6,2.2-0.8,3-0.5c1.1,0.4,1.7,1.5,1.8,3.1l0.1,14.9c0,2.9-2,6.5-4.6,7.9
					l-19.5,10.9c-2.6,1.4-4.7,0.2-4.8-2.7l-0.1-14.9C142.8,31.6,144.9,28,147.5,26.5z"/>
				<linearGradient id="SVGID_35_" gradientUnits="userSpaceOnUse" x1="157.9456" y1="35.3975" x2="155.6931" y2="29.5857">
					<stop  offset="0" style="stop-color:#965CF2"/>
					<stop  offset="1" style="stop-color:#FF8ADC"/>
				</linearGradient>
				<path class="st59" d="M155.3,27.3c-0.2,0.3-0.3,0.6-0.3,0.9c0,0.2,0.1,0.6,0.2,1.1l2.5,10.8c0.1,0.4,0.2,0.6,0.2,0.8
					c0.1,0.2,0.2,0.3,0.3,0.4c0.1,0.1,0.3,0,0.6-0.2c0.6-0.4,1-0.9,1-1.5c0-0.2-0.1-0.5-0.2-1.1l-2.5-10.8c-0.1-0.6-0.3-0.9-0.4-1.1
					c-0.1-0.2-0.4-0.1-0.7,0.1C155.7,26.8,155.4,27,155.3,27.3L155.3,27.3z M153.9,30.2l-9.4,10.5l0,2.6l9.3-1.1l0-3l-6.5,1.1l6.6-7
					L153.9,30.2L153.9,30.2z M170.3,27.2l0-2.6l-9.3,1.1l0,3.1l6.5-1.1l-6.6,7l0,3L170.3,27.2z"/>
			</g>
		</g>
		<g>
			<linearGradient id="SVGID_36_" gradientUnits="userSpaceOnUse" x1="68.2079" y1="125.3443" x2="55.3697" y2="88.9915">
				<stop  offset="0" style="stop-color:#6D6AFE"/>
				<stop  offset="1" style="stop-color:#3FB0F7"/>
			</linearGradient>
			<path class="st60" d="M35,143.9l2.2,1L83.8,118c2.9-1.7,5.3-5.8,5.3-9.2L89,72.6c0-3.4-2.4-4.8-5.4-3.1L48.4,89.8l-13.5,8.2
				L35,143.9z"/>
			<g>
				<g>
					<path class="st21" d="M85.8,73.9c0-0.9,0.7-1.6,0.4-2.2c-0.3-0.6-1.7-1-2.3-1.2c-0.8-0.3-1.9-0.1-3,0.6l-46.7,27
						c-2.7,1.6-4.9,5.4-4.9,8.5l0.1,33.5c0,1.5,0.5,2.6,1.4,3.1c0.5,0.3,2,0.9,2.8,0.8c0.5-0.1,0.2-0.8,0.8-1.1l46.7-27
						c2.7-1.6,4.9-5.4,4.9-8.5L85.8,73.9z"/>
					<linearGradient id="SVGID_37_" gradientUnits="userSpaceOnUse" x1="59.5433" y1="90.5915" x2="58.3616" y2="130.0068">
						<stop  offset="0" style="stop-color:#6D6AFE"/>
						<stop  offset="1" style="stop-color:#3FB0F7"/>
					</linearGradient>
					<path class="st61" d="M87.3,74.5c0-3.1-2.2-4.4-5-2.8l-46.7,27c-2.7,1.6-4.9,5.4-4.9,8.5l0.1,33.5c0,3.1,2.2,4.4,5,2.8l46.7-27
						c2.7-1.6,4.9-5.4,4.9-8.5L87.3,74.5z"/>
				</g>
				<g>
					<path class="st62" d="M85.7,109.6c0-0.3-0.2-0.4-0.4-0.2l-51.8,30c-0.2,0.1-0.4,0.5-0.4,0.8l0,0.8c0,0.3,0.2,0.4,0.4,0.2
						l51.8-30c0.2-0.1,0.4-0.5,0.4-0.8L85.7,109.6z"/>
					<path class="st63" d="M85.7,109.6c0-0.3-0.2-0.4-0.4-0.2l-20.9,12.1c-0.2,0.1-0.4,0.5-0.4,0.7l0,0.8c0,0.3,0.2,0.4,0.4,0.2
						l20.9-12.1c0.2-0.1,0.4-0.5,0.4-0.7L85.7,109.6z"/>
				</g>
			</g>
		</g>
		<g>
			<linearGradient id="SVGID_38_" gradientUnits="userSpaceOnUse" x1="41.7335" y1="89.2483" x2="50.3477" y2="64.9247">
				<stop  offset="0" style="stop-color:#965CF2"/>
				<stop  offset="1" style="stop-color:#FF8ADC"/>
			</linearGradient>
			<path class="st64" d="M50.1,68c-6.6,3.1-14.5,7.9-15.3,10.3l-0.1,7.4l0.3,9.9l2.2,1.2l12.3-7.1c3.4-2,6.1-6.7,6.1-10.6l-0.1-11.8
				L53.4,66L50.1,68z"/>
			<g>
				<g>
					<path class="st21" d="M52.1,59.5c0-1.2,0.4-2-0.1-2.7c-0.3-0.4-1.5-1-2-1.1c-1-0.3-2.2-0.2-3.5,0.6l-14.9,8.5
						c-3.1,1.8-5.6,6.1-5.6,9.7l0.1,17.9c0,1.1,0.2,2.5,1.1,3.3c0.6,0.6,1.7,1.1,2.5,1.2c0.8,0.1,1.1-0.7,2.1-1.3l14.9-8.5
						c3.1-1.8,5.6-6.1,5.6-9.7L52.1,59.5z"/>
					<linearGradient id="SVGID_39_" gradientUnits="userSpaceOnUse" x1="45.5753" y1="63.9197" x2="34.9706" y2="87.823">
						<stop  offset="0" style="stop-color:#1C8EF4"/>
						<stop  offset="1" style="stop-color:#00CFDD"/>
					</linearGradient>
					<path class="st65" d="M53,60.1c0-3.6-2.5-5-5.6-3.2l-14.9,8.5c-3.1,1.8-5.6,6.1-5.6,9.7L27,93c0,3.6,2.5,5,5.6,3.2l14.9-8.5
						c3.1-1.8,5.6-6.1,5.6-9.7L53,60.1z"/>
				</g>
				<path class="st26" d="M39.7,81.1c2.6-1.4,4.9-4.9,5.1-7.8c0.2-2.9-1.7-4-4.3-2.6c-2.6,1.4-4.9,4.9-5.1,7.8
					C35.1,81.4,37.1,82.5,39.7,81.1L39.7,81.1z M30,79.9l1.7-0.9c0.3-1.6,0.9-3.2,1.8-4.8l-1.1-0.7c0.6-1.1,1.4-2.2,2.1-3.3l1.1,0.7
					c1.1-1.4,2.4-2.6,3.7-3.6l0.1-1.9c0.5-0.3,0.9-0.6,1.4-0.9c0.5-0.3,0.9-0.5,1.4-0.7l-0.1,1.9c1.3-0.5,2.5-0.6,3.5-0.3l1.3-2
					c0.7,0.2,1.3,0.6,1.8,1.1l-1.3,2c0.7,0.7,1.1,1.8,1.2,3.1l1.7-0.9c0,0.5,0,1,0,1.5c0,0.5-0.1,1.1-0.2,1.6l-1.7,0.9
					c-0.3,1.6-0.9,3.2-1.8,4.8l1.1,0.7c-0.6,1.1-1.4,2.2-2.1,3.3l-1.1-0.7c-1.1,1.4-2.4,2.6-3.7,3.6l-0.1,1.9
					c-0.5,0.3-0.9,0.6-1.4,0.9c-0.5,0.3-0.9,0.5-1.4,0.7L38,86c-1.3,0.5-2.5,0.6-3.5,0.3l-1.3,2c-0.7-0.2-1.3-0.6-1.8-1.1l1.3-2
					c-0.7-0.7-1.1-1.8-1.2-3.1L29.8,83c0-0.5,0-1,0-1.5C29.8,81,29.9,80.5,30,79.9z"/>
			</g>
		</g>
		<g>
			<g>
				<g>
					<g>
						<path class="st17" d="M61,121.9c-0.8,0.5-1.8,0.2-2.1,1c-0.1,0.3-0.2,0.7-0.3,1.2c0.4,0.4,0.8,0.8,1.4,1
							c0.1-0.1,0.1-0.2,0.2-0.3c0.3-0.3,0.7-0.5,1.7-0.8c1-0.4,1.1-0.5,1.5-2.3c0.3-1.3,0.5-2.1-0.1-2.5
							C62.1,118.4,61.9,120.9,61,121.9z"/>
						<path class="st66" d="M61.9,123.2c-0.8,0.5-1.9,0.3-2.1,1.1c-0.1,0.2-0.1,0.4-0.2,0.6c0.1,0.1,0.3,0.2,0.5,0.2
							c0.1-0.1,0.1-0.2,0.2-0.3c0.3-0.3,0.7-0.5,1.7-0.8c1-0.4,1.1-0.5,1.5-2.3c0.2-0.9,0.4-1.5,0.3-2c0-0.2-0.4-0.2-0.5,0.1
							C62.8,121.3,62.8,122.1,61.9,123.2z"/>
						<path class="st66" d="M63.1,119.4c-0.2,0.8-0.6,1.6-1,2.2c-0.2,0.3-0.2,0.5-0.5,0.7c-0.1,0.1-0.3-0.1-0.6-0.3
							c0,0.3,0.2,0.5,0,0.5c-1.5,0.3-1.7,0.7-1.9,2.2l0,0c0.6-1.1,1.1-1.1,2-1.5l0.5-0.4C62.3,121.6,62.7,121.2,63.1,119.4z"/>
					</g>
					<g>
						<g>
							<path class="st25" d="M70.5,94.1c-0.6-0.2-1.5-0.4-1.9-0.5c-1.8-0.4-4.1,0.1-6.7,1.6c-6.6,3.8-12.5,12.9-13,20.3
								c-0.2,2.2,0.2,4,0.9,5.3c0.7,1.2,3.2,2.6,4.6,2.9C64.3,126.5,75.3,95.9,70.5,94.1z"/>
							<linearGradient id="SVGID_40_" gradientUnits="userSpaceOnUse" x1="60.7418" y1="95.6432" x2="63.186" y2="115.3846">
								<stop  offset="0" style="stop-color:#FD90DA"/>
								<stop  offset="1" style="stop-color:#8E6DFD"/>
							</linearGradient>
							<path class="st67" d="M61.5,122.2c6.7-3.8,12.5-12.9,13-20.3c0.5-7.3-4.5-10.2-11.1-6.3c-6.6,3.8-12.5,12.9-13,20.3
								C49.8,123.2,54.8,126,61.5,122.2z"/>
						</g>
						<polygon class="st26" points="59,116.9 59,105.8 68.6,105 						"/>
					</g>
				</g>
				<linearGradient id="SVGID_41_" gradientUnits="userSpaceOnUse" x1="48.5747" y1="135.6353" x2="60.8237" y2="126.0734">
					<stop  offset="0" style="stop-color:#FF66BC"/>
					<stop  offset="0.56" style="stop-color:#FF8ADC"/>
					<stop  offset="1" style="stop-color:#FFBBA8"/>
				</linearGradient>
				<path class="st68" d="M47.1,133.4c0.6-0.5,1.8-0.5,2.6-0.9c1.4-0.6,3.1-1.5,4.5-1.9c0.2-0.7,1.9-4,3.1-5.7
					c0.1-0.2,0.6-0.3,0.7-0.5c0.1-0.2,0.2-0.3,0.3-0.4c0.5,0,1.2,0.5,1.7,1c-0.1,0.1-0.1,0.3-0.2,0.4c-0.1,0.3-0.1,0.8-0.2,1.1
					c-0.5,1.8-1.3,3.6-2.1,4.9c-0.1,0.2-0.3,0.8-0.6,1.2c-0.3,0.4-1.5,1.3-2,1.6c-1.1,0.7-4.2,2.7-6.1,3.5c-1.4,0.6-2.2,0-2.7-0.5
					C45.6,135.8,45.5,134.7,47.1,133.4z"/>
				<g>
					<g>
						<path class="st17" d="M53.7,113.2c-0.3,0.2-0.6,0.7-0.8,0.8c-0.3,0.3-0.5,0.5-0.9,0.8c-0.2,0.2-0.5,0.2-0.8,0.2
							c-0.3,0.5-0.4,1.1-0.6,1.7l-1.4-0.5c0-0.7,0.1-1.3,0.1-1.9c-0.1-0.4-0.2-1.7-0.1-1.9c0.1-0.3,0.3-1.1,0.4-1.5
							c0-0.1,0.1-1,0.5-1.8c0.3-0.4-0.2-2.5,0.5-2.4c0.5,0.1,0.6,2.5,0.9,4.1c0.3,1.2,0.6,2,0.6,2c0,0.1,0.4,0.1,0.5,0.1
							c0.1-0.1,0.3-0.2,0.6-0.4c0.5-0.3,0.9-0.4,1-0.1C54.1,112.6,53.8,113.1,53.7,113.2z"/>
						<linearGradient id="SVGID_42_" gradientUnits="userSpaceOnUse" x1="43.547" y1="126.1939" x2="50.3769" y2="111.4236">
							<stop  offset="0" style="stop-color:#FF66BC"/>
							<stop  offset="0.56" style="stop-color:#FF8ADC"/>
							<stop  offset="1" style="stop-color:#FFBBA8"/>
						</linearGradient>
						<path class="st69" d="M38.5,129c1.5-2.1,4.7-4.6,6.4-6.6l2.4-4.2c0.5-0.9,1-2.4,1.7-2.7l0.4-0.8c0.4-0.3,1.6,0.2,1.8,0.5
							l-0.1,0.7c0.2,0.6-0.1,1.4-0.4,2.6c-0.7,2-1.8,4.4-2.2,5.5c-1.3,1.9-5.4,8.9-7.6,9.4C38.4,134,37.1,130.9,38.5,129z"/>
					</g>
					<g>
						<g>
							<path class="st17" d="M34.3,176.8c-0.1,1-0.2,1.9-0.6,2.6c-0.2,0.2-0.4,0.4-0.5,0.6c-0.5,1.1-0.7,2.1-0.3,7.9l1.4,0l0.2-2.1
								c0.2-0.8,0.4-2.2,0.6-3c0.4-1.6,0.7-2.3,0.9-3.5L34.3,176.8z"/>
							<g>
								<path class="st70" d="M35.1,181.7c-0.1-0.1,0-0.4-0.1-0.7c0-0.5-0.1-0.9-0.4-1.2c-0.3-0.2-0.7-0.4-1-0.3
									c-0.1,0.1-0.3,0.2-0.4,0.2c-0.4,0.1-0.6,0.4-0.8,0.6c-1.2,0.1-1.3,1.2-1.1,2.3c0.1,1,0.4,1.1,0.3,1.7c0,0.2-0.1,0.4-0.2,0.7
									c-0.3,0.8,0.1,1.9,0.4,2.4c0.4,0.8,1.6,1.5,2.6,1.5c0.4,0,0.5-0.7,0.4-1.2c0-1-0.1-1.5-0.1-2.1c0-0.8,0.2-1.4,0.3-2.1
									c0-0.2,0.5-1.6,0.5-1.9C35.6,181.2,35.3,181.8,35.1,181.7z"/>
								<path class="st26" d="M32.7,180.3c-1.4-0.1-1.5,1.1-1.4,2.3c0.1,1,0.4,1.1,0.3,1.7c0,0.2-0.1,0.4-0.2,0.7
									c-0.3,0.8,0.1,1.9,0.4,2.4c0.4,0.8,1.6,1.5,2.6,1.5c0.1,0,0.2-0.1,0.2-0.1c0.1-0.2-0.1-1.2-0.1-1.4c-0.2-0.5-0.6-1.2-0.6-2
									c-0.1-0.6,0.1-1.4,0.1-2C33.8,181.6,33.7,180.6,32.7,180.3z"/>
								<path class="st71" d="M31.5,180.8c-0.3,0.5-0.3,1.2-0.3,1.8c0.1,1,0.4,1.1,0.3,1.7c0,0.2-0.1,0.4-0.2,0.7
									c-0.3,0.8,0.1,1.9,0.4,2.4c0.4,0.8,1.6,1.5,2.6,1.5c0,0,0.1,0,0.1,0c0-0.2,0-0.4-0.1-0.6c-0.3-1-1.1-2.6-1.1-3.5
									c0-0.5,0.1-0.8,0.1-1.2c0-0.7,0-1.4-0.4-2.1C32.8,180.8,32.1,180.4,31.5,180.8z"/>
							</g>
						</g>
						<linearGradient id="SVGID_43_" gradientUnits="userSpaceOnUse" x1="35.5879" y1="161.958" x2="38.7385" y2="163.3758">
							<stop  offset="0" style="stop-color:#3E4795"/>
							<stop  offset="1" style="stop-color:#273088"/>
						</linearGradient>
						<path class="st72" d="M40.4,145c-0.4,2.7-4.2,4-3.2,9.4c0.4,2.1,1.5,8.7,1.3,10.6c-0.3,2-2.1,2.9-2.9,5.1
							c-1.1,3.1-1,6.4-1.9,9.2c1-0.1,1.8,0.3,2,1.9c1.1-4.1,3.8-7.6,5.6-11.4c1-2.2,1.5-2.6,1.6-3.5c0.6-3.9,1.3-9.3,1-13.1l0.2-6.3
							L40.4,145z"/>
					</g>
					<path class="st2" d="M42.5,146.4c-0.6,2.5-4.7,3.6-3.7,9c0.4,2.1,2.3,7.5,2,9.4c-0.3,2-1.7,3.5-2.5,5.6
						c-1.9,5.2-2.6,9.3-2.6,10.7c1.1-4.1,3.8-7.6,5.6-11.4c1-2.2,1.5-2.6,1.6-3.5c0.6-3.9,1.3-9.3,1-13.1l0.2-6.3L42.5,146.4z"/>
					<g>
						<g>
							<path class="st26" d="M43.8,185.2c0.3,0,1.1-1,2-0.6c1.1,0.4,3.1-0.2,4.1-0.1c0.2,0,0.4-0.1,0.6-0.1c0.2,0.1,0.9,0.9,0.1,1.6
								c-0.4,0.3-1.2,0.8-1.7,1c-0.6,0.3-1.5,0.7-2.2,0.9c-0.7,0.2-1.1,0.3-1.3,0.5c-0.4,0.2-0.8,0.4-1,0.4c-0.5,0-1.1-0.3-1.4-0.8
								c-0.1-0.2-0.2-1-0.1-1.5c0-0.4,0.2-1.1,0.3-1.5L43.8,185.2z"/>
							<path class="st17" d="M45.6,183c-0.2,0.9,0.1,2.3-0.7,2.7c-0.5,0.3-1.4,0.3-1.7-0.5c-0.2-0.5,0.1-1.2,0-2.3L45.6,183z"/>
							<path class="st70" d="M46,184.3c0.6,0.1,2.4-0.2,3.5-0.2c0.5,0,0.9-0.1,1.1,0.3c0.2,0.4,0.2,0.7-0.3,1.1
								c-0.4,0.3-1,0.7-1.5,1c-0.6,0.3-1.5,0.7-2.2,0.9c-0.7,0.2-1.1,0.3-1.3,0.5c-0.4,0.2-0.8,0.4-1,0.4c-0.5,0-1.1-0.3-1.4-0.9
								c-0.1-0.2-0.2-0.9-0.1-1.4c0-0.1,0-0.2,0-0.3c0-0.8,0.2-1.2,0.5-1c0.4,0.2,0.5,0.5,0.7,0.7c0.5,0.5,1.4,0,1.5-1
								c0,0,0-0.1,0-0.1c0-0.7,0.4-0.7,0.3-0.5C45.7,183.9,45.8,184.2,46,184.3z"/>
							<path class="st26" d="M50.1,184.4c0,0.4,0.8,0.4,0.6,1.1c0.1-0.1,0.2-0.5,0.1-0.7c-0.1-0.3-0.2-0.4-0.4-0.5
								C50.4,184.2,50.1,184.2,50.1,184.4z"/>
						</g>
						<linearGradient id="SVGID_44_" gradientUnits="userSpaceOnUse" x1="40.4791" y1="163.6213" x2="45.7388" y2="165.2947">
							<stop  offset="0" style="stop-color:#3E4795"/>
							<stop  offset="1" style="stop-color:#273088"/>
						</linearGradient>
						<path class="st73" d="M48.9,160.5c0.5-2.5,0.9-7.7,0.1-10.2c-0.1-1-0.3-2.2-0.7-3.7l-5.6-0.7c-0.7,1.7-2.3,3.1-2.8,4.6
							c-0.8,2.4-0.8,4.1,0.6,6.2c1.1,1.6,2.1,2.7,2.7,6.7c0.3,2.9-0.9,4.5-1,7.3c-0.2,4.2,0.9,8.7,0.7,13c0,0.6,2.1,0.5,2.7-0.2
							c0.8-5.2,1.9-12.7,2.8-17.7C48.6,164.4,48.7,161.8,48.9,160.5z"/>
					</g>
					<g>
						<linearGradient id="SVGID_45_" gradientUnits="userSpaceOnUse" x1="43.5427" y1="134.2208" x2="42.998" y2="148.967">
							<stop  offset="0" style="stop-color:#FF66BC"/>
							<stop  offset="0.56" style="stop-color:#FF8ADC"/>
							<stop  offset="1" style="stop-color:#FFBBA8"/>
						</linearGradient>
						<path class="st74" d="M40.7,130.9c-2.5-0.3-3.6,3.4-2.8,5.3c1.4,3.2,2.6,5.3,2.2,9.5c1.6,3.2,7.8,2.7,8.3,0.8l-0.1-0.7
							c0.5-2.1-0.3-4.2-0.1-5.5c0.3-2.3,1.5-3.1,0.9-5c-0.5-0.7-1.8-1.7-3.2-2.5C44,131.7,41.9,131,40.7,130.9z"/>
						<path class="st75" d="M40.7,130.9c-2.5-0.3-3.6,3.4-2.8,5.3c1.2,2.6,2.1,4.4,2.3,7.1c0.7-0.6,1-1.2,1.6-3.7
							c0.3-1.3,1.1-0.9,2.8-2.5c0.9-0.9,1.1-1.9,1.1-3.3c0-0.4,0.6-0.4,0.7-0.8C44.5,132,41.8,131,40.7,130.9z"/>
					</g>
					<g>
						<g>
							<path class="st66" d="M47.7,130.1c-0.1,0.2-1.2,0.1-1.6-0.1c-0.1,0.5-0.3,1.1-0.4,1.7c-0.2,0.9-2.9,1-3.5-0.3
								c0-0.3,0.2-2.1,0.1-2.2c-0.4-0.6-1.1-1.2-1.4-2C41.2,126,44.7,127.8,47.7,130.1z"/>
							<path class="st17" d="M47.6,130.2c-0.3,0.2-1.9-0.7-2-0.7c-1.4,0.1-3.1,0.2-3.4-0.2c-0.4-0.6-1.1-1.2-1.4-2
								c-0.5-1.4-0.4-2.9,0.9-4c2.2-1.9,5.6-0.5,6.1,1.6c0.2,0.9-0.1,1.1-0.1,1.7c0,0.1,0.2,0.5,0.3,0.7c0.1,0.1-0.1,0.7-0.1,1.5
								C47.9,129.4,47.8,130,47.6,130.2z"/>
						</g>
						<path class="st76" d="M41.9,130.9c0.1,0.7,2.1,1.2,3.4,1c0.1,0,0.2-0.1,0.3-0.1c0.2,0.1,0.7,0.8,0.7,1.2
							c-1.1,1-4.5,0.4-4.9-0.8C41.3,131.9,41.2,131.3,41.9,130.9z"/>
					</g>
					<g>
						<linearGradient id="SVGID_46_" gradientUnits="userSpaceOnUse" x1="35.2416" y1="129.8709" x2="40.6653" y2="134.21">
							<stop  offset="0" style="stop-color:#5A2D68"/>
							<stop  offset="1" style="stop-color:#22043D"/>
						</linearGradient>
						<path class="st77" d="M45.4,121.3c2.8-0.2,2.9,3.7,2,5.6c-0.7,1.3-1,1.1-1.7,2.5c-0.2,1.8-0.3,4-0.7,5.2
							c-0.3,0.8-0.7,1.4-1,1.9c-0.9,1.1-2,1.2-2.4,1.9c-0.8,1.3-0.6,2.3-1.4,3.3c-1.4,1.8-4.1,3.2-8.1,2c-2.8-0.9-5.5-2.8-6.4-4.9
							c-0.9-2.1-0.5-6,2.4-6c3.2,0,2.5-1.7,2.8-4.1c0.2-1.6,1-3.3,3.4-3.5c0.9-0.1,1.6-0.4,2.4-0.8c1.9-0.9,1.6-2.5,3.6-3.4
							C42.4,120.1,44.5,120.8,45.4,121.3z"/>
						<path class="st11" d="M46.9,121.7c1.2,1.1,1.2,3.7,0.4,5.2c-0.7,1.3-1,1.1-1.7,2.5c-0.2,1.8-0.3,4-0.7,5.2
							c-0.3,0.8-0.7,1.4-1,1.9c-0.9,1.1-2,1.2-2.4,1.9c-0.8,1.3-0.6,2.3-1.4,3.3c-1.4,1.8-4.1,3.2-8.1,2c-2.8-0.9-5.5-2.8-6.4-4.9
							c-0.4-0.8-0.5-1.9-0.4-2.9c2.1,2.3,3.7,4.1,6.2,4.7c2.8,0.7,4.6-0.1,5.7-1.6c1.6-2.1,1-2.3,2.3-3.4c1.8-1.7,2.6-1.7,3-2.3
							c1.9-2.6,0.5-3.2,2.5-5.5C47,125.5,48.1,124.3,46.9,121.7z"/>
					</g>
				</g>
			</g>
		</g>
	</g>
</g>
</svg>
