<?xml version="1.0" encoding="utf-8"?>
<!-- Generator: Adobe Illustrator 22.0.0, SVG Export Plug-In . SVG Version: 6.00 Build 0)  -->
<svg version="1.1" id="Capa_1" xmlns="http://www.w3.org/2000/svg" xmlns:xlink="http://www.w3.org/1999/xlink" x="0px" y="0px"
	 viewBox="0 0 200 200" style="enable-background:new 0 0 200 200;" xml:space="preserve">
<style type="text/css">
	.st0{fill-rule:evenodd;clip-rule:evenodd;fill:#D0E7FF;}
	.st1{fill-rule:evenodd;clip-rule:evenodd;fill:url(#SVGID_1_);}
	.st2{opacity:0.5;fill-rule:evenodd;clip-rule:evenodd;fill:#3856D8;}
	.st3{fill-rule:evenodd;clip-rule:evenodd;fill:#00FFFF;}
</style>
<g>
	<path class="st0" d="M22.2,24.9c0-6.4-2.1-6.3,0.6-9.5c0.6-0.7,6.7-4.4,7.5-4.6c3.5-1.1,7.9-0.4,12.7,2.3l117.9,67.6
		c11.4,6.6,20.7,22.6,20.6,35.7l-0.5,55.8c0,5.1-1.4,9-3.8,11.5c-3.8,3.9-10.5,8.4-17.5,4.4L42.4,116.4
		c-11.4-6.6-20.7-22.6-20.6-35.7L22.2,24.9z"/>
	<g>
		<linearGradient id="SVGID_1_" gradientUnits="userSpaceOnUse" x1="101.3784" y1="63.8253" x2="94.1244" y2="152.6389">
			<stop  offset="0" style="stop-color:#1C8EF4"/>
			<stop  offset="1" style="stop-color:#00CFDD"/>
		</linearGradient>
		<path class="st1" d="M19,27c0-6.4,2.2-10.9,5.8-13.1c3.8-2.3,9.1-2.1,14.9,1.3l117.9,67.6c11.4,6.6,20.7,22.6,20.6,35.7l-0.5,55.8
			c0,13.1-9.3,18.4-20.8,11.8L39.1,118.5c-11.4-6.6-20.7-22.6-20.6-35.7L19,27z"/>
		<path class="st2" d="M31.1,112l0.1-51.1l-1.4-1l-0.1,50.6C30.1,111,30.6,111.5,31.1,112L31.1,112z M30.5,55.8
			c-0.8-0.6-1.5-0.4-1.5,0.5c0,0.9,0.7,2.1,1.4,2.7c0.8,0.6,1.5,0.4,1.5-0.5C32,57.7,31.3,56.4,30.5,55.8L30.5,55.8z M53.7,126.9
			L53.9,56l-1.4-1.1l-0.2,71.2L53.7,126.9L53.7,126.9z M53.2,50.9c-0.8-0.6-1.5-0.4-1.5,0.5c0,0.9,0.7,2.1,1.5,2.7
			c0.8,0.6,1.4,0.3,1.4-0.5C54.7,52.7,54,51.5,53.2,50.9L53.2,50.9z M76.3,139.8L76.6,51l-1.4-1l-0.3,89.1L76.3,139.8L76.3,139.8z
			 M75.9,45.9c-0.8-0.6-1.4-0.4-1.4,0.6c0,0.9,0.6,2.1,1.4,2.7c0.8,0.6,1.5,0.4,1.5-0.5C77.4,47.7,76.7,46.5,75.9,45.9L75.9,45.9z
			 M98.9,152.8l0.3-89.2l-1.4-1L97.5,152L98.9,152.8L98.9,152.8z M98.5,58.5c-0.8-0.6-1.5-0.4-1.5,0.5c0,0.9,0.7,2.1,1.4,2.7
			c0.8,0.6,1.5,0.4,1.5-0.5C100,60.4,99.3,59.2,98.5,58.5L98.5,58.5z M121.5,165.8l0.2-76.3l-1.4-1.1l-0.2,76.6L121.5,165.8
			L121.5,165.8z M121.1,84.4c-0.8-0.6-1.4-0.4-1.4,0.6c0,0.9,0.7,2.1,1.4,2.7c0.8,0.6,1.5,0.4,1.5-0.5
			C122.5,86.2,121.9,85,121.1,84.4L121.1,84.4z M144.2,178.8l0.2-59l-1.4-1l-0.2,59.3L144.2,178.8L144.2,178.8z M143.7,114.6
			c-0.8-0.6-1.5-0.4-1.5,0.5c0,0.9,0.7,2.1,1.5,2.7c0.8,0.6,1.5,0.4,1.5-0.5C145.1,116.5,144.4,115.2,143.7,114.6L143.7,114.6z
			 M166.7,189l0.1-47.9l-1.4-1l-0.1,48.9C165.8,189,166.3,189,166.7,189L166.7,189z M166.2,136c-0.8-0.6-1.4-0.4-1.4,0.5
			c0,0.9,0.6,2.1,1.4,2.7c0.8,0.6,1.5,0.4,1.5-0.5C167.7,137.8,167,136.6,166.2,136z"/>
		<g>
			<path class="st2" d="M173,119.3c-0.2-0.4-0.5-0.6-0.7-0.8c-0.3-0.3-0.7-0.3-0.9-0.2c-2.1,1.3-4,2.4-5.8,3.3
				c-1.8,0.9-3.5,1.6-5.1,2.2c-7.4,2.6-13.1,1.5-19.3-3.1c-6-4.7-12.4-13-20.8-24.6C111,83.1,103,74,95.5,68.3
				c-1.1-0.8-2.2-1.6-3.3-2.3c-8.5-5.4-16.6-6.1-25.6-2.8c-0.9,0.3-1.8,0.7-2.7,1c-6.9,2.7-13.4,5.2-21.7-1c-4.3-3.2-9-8.8-14.6-18
				c-0.2-0.4-0.5-0.6-0.7-0.8c-0.3-0.3-0.7-0.3-0.9-0.2c-0.4,0.3-0.3,1.2,0.2,2c6.2,10.3,11.5,16.5,16.2,20c8.9,6.7,15.8,4,23.2,1.1
				c0.9-0.3,1.8-0.7,2.7-1c8.6-3.2,16.2-2.5,24.2,2.5c1,0.6,2,1.3,3,2.1c7.1,5.4,14.8,14.2,23.9,26.7c8.7,12,15.3,20.6,21.9,25.7
				c0.1,0.1,0.3,0.2,0.4,0.3c6.5,4.9,12.7,6.1,20.6,3.4c1.6-0.6,3.4-1.3,5.2-2.3c1.8-0.9,3.8-2.1,5.9-3.4
				C173.6,121,173.5,120.1,173,119.3z"/>
			<path class="st3" d="M171,113.8c-0.2-0.4-0.5-0.6-0.7-0.8c-0.3-0.3-0.7-0.3-0.9-0.2c-2.1,1.3-4,2.5-5.8,3.4
				c-1.8,1-3.5,1.7-5.1,2.3c-7.4,2.7-13.1,1.7-19.3-2.8c-6-4.6-12.4-12.8-20.8-24.3c-9.4-12.8-17.3-21.9-24.9-27.5
				c-1.1-0.8-2.2-1.6-3.3-2.3c-8.5-5.3-16.5-5.9-25.5-2.4c-0.9,0.3-1.8,0.7-2.7,1.1c-6.9,2.8-13.4,5.5-21.6-0.7
				c-4.3-3.2-9-8.7-14.6-17.8c-0.2-0.3-0.5-0.6-0.7-0.8c-0.3-0.3-0.7-0.3-0.9-0.2c-0.4,0.3-0.3,1.2,0.2,2
				C30.5,52.9,35.8,59,40.5,62.5c8.9,6.6,15.8,3.7,23.2,0.7c0.9-0.3,1.8-0.7,2.7-1.1c8.6-3.3,16.2-2.8,24.2,2.2c1,0.6,2,1.3,3,2
				c7.1,5.3,14.8,14,23.8,26.4c8.7,11.9,15.3,20.4,21.9,25.4c0.1,0.1,0.3,0.2,0.4,0.3c6.5,4.8,12.7,5.9,20.6,3.1
				c1.6-0.6,3.3-1.4,5.2-2.3c1.8-1,3.8-2.1,5.8-3.5C171.5,115.5,171.5,114.6,171,113.8z"/>
		</g>
	</g>
</g>
</svg>
