<?xml version="1.0" encoding="utf-8"?>
<!-- Generator: Adobe Illustrator 22.0.0, SVG Export Plug-In . SVG Version: 6.00 Build 0)  -->
<svg version="1.1" id="Capa_1" xmlns="http://www.w3.org/2000/svg" xmlns:xlink="http://www.w3.org/1999/xlink" x="0px" y="0px"
	 viewBox="0 0 200 200" style="enable-background:new 0 0 200 200;" xml:space="preserve">
<style type="text/css">
	.st0{fill-rule:evenodd;clip-rule:evenodd;fill:#C1D9F1;}
	.st1{fill-rule:evenodd;clip-rule:evenodd;fill:#F2F4FF;}
	.st2{fill-rule:evenodd;clip-rule:evenodd;fill:#FFFFFF;}
	.st3{fill-rule:evenodd;clip-rule:evenodd;fill:url(#SVGID_1_);}
	.st4{fill-rule:evenodd;clip-rule:evenodd;fill:url(#SVGID_2_);}
	.st5{opacity:0.25;fill-rule:evenodd;clip-rule:evenodd;fill:#1FB0C5;}
	.st6{opacity:0.25;fill-rule:evenodd;clip-rule:evenodd;fill:#93E599;}
	.st7{opacity:0.5;fill-rule:evenodd;clip-rule:evenodd;fill:#FFFFFF;}
</style>
<g>
	<path class="st0" d="M48.2,7.9c0-3.4,2.4-4.8,5.4-3.1c31.2,17.9,62.4,36.5,93.7,54.4c2.9,1.7,5.3,5.8,5.3,9.2l0.2,123.7
		c0,3.4-2.4,4.8-5.4,3.1c-31.2-17.9-62.4-36.5-93.7-54.4c-2.9-1.7-5.3-5.8-5.3-9.2L48.2,7.9z"/>
	<g>
		<path class="st1" d="M48.8,5.4l2.5-1.3c0.9-0.3,1.9-0.1,3.1,0.6c29.3,16.8,58.6,34.2,88,51.1c2.8,1.6,5,5.5,5,8.7l0.1,116.1
			c0,1.4-0.5,2.5-1.2,3.1c-0.9,0.7-2.8,2.2-4.3,1.3c-29.3-16.8-58.1-35.7-87.4-52.6c-2.8-1.6-5-5.5-5-8.7L48.8,5.4z"/>
		<g>
			<path class="st2" d="M47.3,8.7c0-3.2,2.3-4.5,5-2.9c29.3,16.8,58.6,34.2,88,51.1c2.8,1.6,5,5.5,5,8.7l0.1,116.1
				c0,3.2-2.3,4.5-5,2.9c-29.3-16.8-58.6-34.3-88-51.1c-2.8-1.6-5-5.5-5-8.7L47.3,8.7z"/>
			<linearGradient id="SVGID_1_" gradientUnits="userSpaceOnUse" x1="74.2143" y1="99.3689" x2="119.3112" y2="63.3825">
				<stop  offset="0" style="stop-color:#94E69A"/>
				<stop  offset="1" style="stop-color:#17ADC9"/>
			</linearGradient>
			<path class="st3" d="M47.3,8.7c0-3.2,2.3-4.5,5-2.9c29.3,16.8,58.6,34.2,88,51.1c2.8,1.6,5,5.5,5,8.7l0.1,91.3l-98-56.2L47.3,8.7
				z"/>
			<linearGradient id="SVGID_2_" gradientUnits="userSpaceOnUse" x1="46.2686" y1="80.2661" x2="178.5721" y2="-2.6344">
				<stop  offset="0" style="stop-color:#94E69A"/>
				<stop  offset="1" style="stop-color:#17ADC9"/>
			</linearGradient>
			<path class="st4" d="M60.6,10.6c6.6,3.8,13.2,7.6,19.8,11.5v97.5l-19.8-11.4V10.6z"/>
			<g>
				<path class="st5" d="M54.6,112.9c0-1.4,1-1.9,2.2-1.2l27,15.3c1.2,0.7,2.2,2.4,2.2,3.8l0,2.7c0,1.4-1,1.9-2.2,1.2l-27-15.3
					c-1.2-0.7-2.2-2.4-2.2-3.8L54.6,112.9z"/>
				<path class="st6" d="M54.6,124.8c0-1.2,0.9-1.7,1.9-1.1c15.3,8.7,40.4,22.8,55.7,31.4c1.1,0.6,1.9,2.1,1.9,3.3l0,2.4
					c0,1.2-0.9,1.7-1.9,1.1c-15.3-8.7-40.4-22.8-55.7-31.4c-1.1-0.6-1.9-2.1-1.9-3.3L54.6,124.8z"/>
			</g>
			<path class="st7" d="M95.2,90.8c2.4,3.8,4.5,11,5.3,13.5c1.3,3.8,2.5,7.8,4.2,11.5c1.3,2.9,3.2,6.5,6.1,8.1
				c2.1,1.2,4.5,1.7,6.8,0.8c2.4-0.9,4-3,5.5-5c0.7-0.9,1.1-1.2,1.5-1.2c0.7,0.1,2.1,2.5,2.4,3.1c0.7,1.1,1.3,2.4,1.8,3.5
				c0.9,2.3,2.8,8,3.5,10.3l0.2,0.7l5.5,3.1c0.2,0.1,1.4,0.6,1.7,0.5l-0.9-2.8c-1.1-3.8-3.4-10.7-4.9-14.4c-1.2-2.9-3.3-7.5-6-9.8
				c-1.2-1.1-2.8-1.7-4.5-1.4c-2.3,0.4-3.8,2.4-5.2,4.2c-0.3,0.4-0.5,0.7-0.8,1.1c-0.6,0.7-1.5,1.8-2.4,2.1c-0.6,0.2-1.2,0-1.8-0.4
				c-2.9-1.7-6.2-12.6-7.3-15.8c-1.3-3.9-2.5-7.8-4.2-11.5c-1.3-3-3.3-6.5-6.2-8.2c-1.4-0.8-2.9-1.1-4.4-0.7
				c-2.2,0.6-3.5,2.5-4.5,4.4c-0.9,1.9-1.6,4-2.3,6c-0.6,1.7-1.2,3.6-1.9,5.2c-0.2,0.4-0.9,1.7-1.3,2c-0.1,0-0.2-0.1-0.2-0.1
				c-1.9-1.1-4.1-5.9-5-7.9c-2.2-5-3.9-10.4-5.5-15.6c-1.2-3.9-2.3-7.8-3.4-11.7c-0.6-2.3-1.3-4.6-2-6.8c-0.4-1.4-0.8-2.7-1.3-4.1
				l7.2,1.8L58.6,33.5l-7.2,17.1l5.8,1.5l0.8,2.1c0.6,1.7,1.1,3.3,1.6,5c0.7,2.2,1.3,4.5,1.9,6.7c1.2,4.1,2.3,8.2,3.6,12.3
				c1.7,5.5,3.5,11.2,5.9,16.4c1.6,3.5,4.1,8.6,7.5,10.5c1.5,0.8,3.1,1.2,4.7,0.7c2.2-0.7,3.6-2.6,4.6-4.6c1-2,1.7-4.1,2.4-6.2
				c0.5-1.6,1.1-3.3,1.8-4.9C93.1,87.9,93.8,88.5,95.2,90.8z"/>
		</g>
	</g>
</g>
</svg>
