<?xml version="1.0" encoding="utf-8"?>
<!-- Generator: Adobe Illustrator 22.0.0, SVG Export Plug-In . SVG Version: 6.00 Build 0)  -->
<svg version="1.1" id="Capa_1" xmlns="http://www.w3.org/2000/svg" xmlns:xlink="http://www.w3.org/1999/xlink" x="0px" y="0px"
	 viewBox="0 0 200 200" style="enable-background:new 0 0 200 200;" xml:space="preserve">
<style type="text/css">
	.st0{fill-rule:evenodd;clip-rule:evenodd;fill:url(#SVGID_1_);}
	.st1{fill-rule:evenodd;clip-rule:evenodd;fill:#783FD3;}
	.st2{fill-rule:evenodd;clip-rule:evenodd;fill:#F2F4FF;}
	.st3{fill-rule:evenodd;clip-rule:evenodd;fill:#C5DBF1;}
	.st4{fill-rule:evenodd;clip-rule:evenodd;fill:#DCE8F8;}
	.st5{fill-rule:evenodd;clip-rule:evenodd;fill:url(#SVGID_2_);}
	.st6{fill-rule:evenodd;clip-rule:evenodd;fill:#864DE2;}
	.st7{fill-rule:evenodd;clip-rule:evenodd;fill:#D477E4;}
</style>
<g>
	<g>
		<linearGradient id="SVGID_1_" gradientUnits="userSpaceOnUse" x1="117.6857" y1="97.7322" x2="136.7861" y2="64.4976">
			<stop  offset="0" style="stop-color:#965CF2"/>
			<stop  offset="1" style="stop-color:#FF8ADC"/>
		</linearGradient>
		<path class="st0" d="M152.3,188.4l-99.8-58l23.2-110l0,0l0,0l0,0l0,0l0,0l0,0l0,0l0,0l0,0l0,0l0,0v0l0,0l0,0l0,0l0,0l0,0l0,0l0,0
			l0,0l0,0l0,0l0,0l0,0l0,0l0,0l0,0l0,0h0l0,0l0,0l0,0l0,0l0,0l0,0l0,0l0,0l0,0l0,0l0,0l0,0l0,0l0,0l0,0l0,0l0,0l0,0l0,0l0,0l0,0
			l0,0l0,0l0,0l0,0l0,0l0,0l0,0h0l0,0l0,0l0,0l0,0l0,0l0,0l0,0l0,0l0,0l0,0l0,0l0,0l0,0l0,0l0,0l0,0l0,0l0,0l0,0l0,0l0,0l0,0l0,0
			l0,0l0,0l0,0l0,0l0,0l0,0l0,0l0,0l0,0l0,0l0,0l0,0l0,0l0,0l0,0l0,0l0,0l0,0l0,0l0,0l0,0l0,0l0,0l0,0c0.4-0.2,0.9-0.3,1.5-0.1
			l99.8,58C175.2,74,161.9,156,152.3,188.4z"/>
		<path class="st1" d="M75.7,20.4L151.8,66l5.6,99.3c-0.9,8.6-3.5,17-4.6,25.5L52.5,130.4L75.7,20.4z"/>
	</g>
	<g>
		<polygon class="st2" points="150.9,65.7 148.7,177.3 44,116.8 44.3,6.2 		"/>
		<polygon class="st3" points="149,66.7 151.2,65.4 150.9,176 148.7,177.3 		"/>
		<polygon class="st4" points="44.3,6.2 46.5,5 151.2,65.4 149,66.7 		"/>
		<path class="st3" d="M145,153.3l0,7l-96.9-55.9l0-7L145,153.3L145,153.3z M145.2,73.2l0,7L48.3,24.2l0-7L145.2,73.2L145.2,73.2z
			 M145.2,84.6L48.3,28.7l0,7l96.9,55.9L145.2,84.6L145.2,84.6z M145.2,96.1L48.3,40.1l0,7l96.9,55.9L145.2,96.1L145.2,96.1z
			 M145.1,107.5L48.2,51.6l0,7l96.9,55.9L145.1,107.5L145.1,107.5z M145.1,119L48.2,63l0,7l96.9,55.9L145.1,119L145.1,119z
			 M145.1,130.4L48.2,74.5l0,7l96.9,55.9L145.1,130.4L145.1,130.4z M145,141.9L48.1,85.9l0,7l96.9,55.9L145,141.9z"/>
	</g>
	<linearGradient id="SVGID_2_" gradientUnits="userSpaceOnUse" x1="135.0384" y1="150.5634" x2="37.6402" y2="84.9101">
		<stop  offset="0" style="stop-color:#965CF2"/>
		<stop  offset="1" style="stop-color:#FF8ADC"/>
	</linearGradient>
	<path class="st5" d="M125.9,107.3l24.1,80.4l0,0c0.3,0.9,0.1,6.7,0.6,7.2l-99.8-58c-0.9-0.5-1.3-1.9-1.5-2.7L25.5,50.5l0,0
		l-4.5-15.7c-0.2-1.2,0.6-2.6,0.9-2.8c4.1,3.8,26.3,17.3,30.4,19.7c6.8,5.4,7.1,10.9,17.4,21.9c2,2.1,2.7,2.7,5.1,4.1L125.9,107.3z"
		/>
	<path class="st6" d="M126.5,105.3c0.2-0.1,0.3-0.3,0.5-0.4c0.8-0.4,1.5-0.3,1.7,0.5l23.6,83l23.2-110c0.2-1,0.9-2,1.7-2.5
		c0.2-0.1,0.3-0.2,0.5-0.2c1-0.3,1.5,0.6,1.2,1.8l-23.3,110.7c-0.4,1.9-0.9,3.4-1.4,4.3c-0.5,1-1.2,1.7-1.9,2.1
		c-0.7,0.4-1.3,0.4-1.8,0c-0.5-0.4-1-1.3-1.4-2.6l-23.8-83.7C125.1,107.6,125.6,106.1,126.5,105.3z"/>
	<path class="st7" d="M77.9,75.5l50.3,29.3c-1.3-0.6-3.3,2.3-3,3.7L74.5,78.9c-1.7-1-2.7-1.6-4.2-2.7C63,70.5,59.6,62.7,54.9,56.3
		c-1.3-1.8-2.7-3.1-4-4.1c-1.3-0.7-1.9-1-1.7-0.9L21.1,34.8c-0.2-1.2,0.6-2.6,0.9-2.8c0.5-0.6,1.4-1.3,2.1-0.9l28.1,16.5
		c-0.2-0.1,0.4,0.3,1.7,0.9c1.4,1,2.7,2.3,4,4.1c5,6.7,8.6,14.2,16.7,20.6C75.7,74.2,76.7,74.8,77.9,75.5z"/>
</g>
</svg>
